<svg width="400" height="300" viewBox="0 0 400 300" fill="none" xmlns="http://www.w3.org/2000/svg">
<g clip-path="url(#clip0)">
<path opacity="0.07" fill-rule="evenodd" clip-rule="evenodd" d="M262.386 249.54H190.077V249.538H117.772V249.54H45.4628V249.538H9.73406C8.2925 249.538 7.11328 248.358 7.11328 246.918V196.166C7.83374 196.219 8.58106 196.245 9.31496 196.245C19.2996 196.245 28.3418 192.196 34.8802 185.657C41.282 179.256 45.2972 170.455 45.4628 160.719V93.4148C45.4628 73.4474 61.6498 57.2604 81.6174 57.2604C101.585 57.2604 117.772 73.4474 117.772 93.4148V120.928C117.852 140.83 134.004 156.933 153.925 156.933C163.91 156.933 172.952 152.884 179.49 146.345C185.974 139.862 190.009 130.918 190.077 121.034V40.4202C190.077 20.4526 206.264 4.26562 226.232 4.26562C246.2 4.26562 262.386 20.4526 262.386 40.4202V249.54ZM388.132 246.918V61.6556C382.996 58.8646 377.114 57.2658 370.85 57.2658C350.878 57.2658 334.696 73.449 334.696 93.419V249.538H385.512C386.966 249.538 388.132 248.358 388.132 246.918ZM334.694 249.538V95.5944C334.694 105.58 330.644 114.621 324.106 121.16C317.568 127.699 308.526 131.748 298.54 131.748C278.57 131.748 262.388 115.565 262.388 95.5944V249.538H334.694Z" fill="#1A1A1A"/>
<path opacity="0.3" d="M137.474 98.2285V212.79H94.8314C89.4652 212.79 85.1108 208.436 85.1108 203.068V107.949C85.1108 102.577 89.4652 98.2285 94.8314 98.2285H137.474Z" fill="#100A20"/>
<path opacity="0.3" d="M353.666 110.717V115.935H137.474V101.047H343.996C349.334 101.047 353.666 105.373 353.666 110.717Z" fill="#100A20"/>
<path opacity="0.99" d="M158.279 74.8164H153.926V79.1698H158.279V74.8164Z" fill="#100A20"/>
<path opacity="0.99" d="M166.985 74.8164H162.632V79.1698H166.985V74.8164Z" fill="#100A20"/>
<path opacity="0.99" d="M162.632 79.1699H158.279V83.5233H162.632V79.1699Z" fill="#100A20"/>
<path opacity="0.99" d="M162.632 70.4629H158.279V74.8163H162.632V70.4629Z" fill="#100A20"/>
<path d="M298.062 27.2617H293.708V31.6151H298.062V27.2617Z" fill="#100A20"/>
<path d="M306.768 27.2617H302.416V31.6151H306.768V27.2617Z" fill="#100A20"/>
<path d="M302.416 31.6152H298.062V35.9686H302.416V31.6152Z" fill="#100A20"/>
<path d="M302.416 22.9082H298.062V27.2618H302.416V22.9082Z" fill="#100A20"/>
<path opacity="0.19" d="M120.446 276.979H116.093V281.333H120.446V276.979Z" fill="#1A1A1A"/>
<path opacity="0.19" d="M129.154 276.979H124.8V281.333H129.154V276.979Z" fill="#1A1A1A"/>
<path opacity="0.19" d="M124.8 281.332H120.446V285.686H124.8V281.332Z" fill="#1A1A1A"/>
<path opacity="0.19" d="M124.8 272.623H120.446V276.977H124.8V272.623Z" fill="#1A1A1A"/>
<path opacity="0.3" d="M379.292 190.836C379.138 190.836 379.014 190.711 379.014 190.558C379.014 188.539 377.192 187.518 375.264 186.437C373.28 185.326 371.23 184.176 371.23 181.832C371.23 179.488 373.28 178.338 375.264 177.227C377.192 176.146 379.014 175.125 379.014 173.106C379.014 171.088 377.192 170.067 375.264 168.987C373.28 167.875 371.23 166.726 371.23 164.382C371.23 162.038 373.28 160.889 375.264 159.778C377.192 158.697 379.014 157.676 379.014 155.658C379.014 153.641 377.192 152.621 375.264 151.54C373.28 150.429 371.23 149.28 371.23 146.937C371.23 144.593 373.28 143.444 375.264 142.333C377.192 141.252 379.014 140.232 379.014 138.214C379.014 136.196 377.192 135.176 375.264 134.095C373.28 132.984 371.23 131.835 371.23 129.492C371.23 127.148 373.28 125.999 375.264 124.888C377.192 123.808 379.014 122.787 379.014 120.77C379.014 118.752 377.192 117.732 375.264 116.651C373.28 115.541 371.23 114.392 371.23 112.048C371.23 109.705 373.28 108.556 375.264 107.445C377.192 106.364 379.014 105.344 379.014 103.326C379.014 101.309 377.192 100.288 375.264 99.2079C373.28 98.0971 371.23 96.9479 371.23 94.6047C371.23 92.2615 373.28 91.1131 375.264 90.0021C377.192 88.9217 379.014 87.9017 379.014 85.8845C379.014 83.8675 377.192 82.8471 375.264 81.7669C373.28 80.6561 371.23 79.5075 371.23 77.1645C371.23 74.8211 373.28 73.6723 375.264 72.5613C377.192 71.4809 379.014 70.4605 379.014 68.4429C379.014 66.4261 377.192 65.4057 375.264 64.3255C373.28 63.2147 371.23 62.0661 371.23 59.7231C371.23 57.3795 373.28 56.2303 375.264 55.1193C377.192 54.0389 379.014 53.0181 379.014 51.0007C379.014 50.8469 379.138 50.7227 379.292 50.7227C379.446 50.7227 379.57 50.8469 379.57 51.0007C379.57 53.3443 377.52 54.4931 375.536 55.6041C373.608 56.6847 371.786 57.7053 371.786 59.7231C371.786 61.7399 373.608 62.7603 375.536 63.8405C377.52 64.9513 379.57 66.0999 379.57 68.4429C379.57 70.7863 377.52 71.9351 375.536 73.0463C373.608 74.1267 371.786 75.1471 371.786 77.1645C371.786 79.1815 373.608 80.2019 375.536 81.2819C377.52 82.3929 379.57 83.5413 379.57 85.8845C379.57 88.2275 377.52 89.3763 375.536 90.4875C373.608 91.5673 371.786 92.5877 371.786 94.6047C371.786 96.6221 373.608 97.6425 375.536 98.7229C377.52 99.8337 379.57 100.983 379.57 103.326C379.57 105.669 377.52 106.819 375.536 107.93C373.608 109.01 371.786 110.031 371.786 112.048C371.786 114.066 373.608 115.086 375.536 116.166C377.52 117.277 379.57 118.426 379.57 120.77C379.57 123.113 377.52 124.262 375.536 125.373C373.608 126.453 371.786 127.474 371.786 129.492C371.786 131.509 373.608 132.53 375.536 133.61C377.52 134.722 379.57 135.871 379.57 138.214C379.57 140.558 377.52 141.707 375.536 142.818C373.608 143.899 371.786 144.919 371.786 146.937C371.786 148.954 373.608 149.975 375.536 151.055C377.52 152.166 379.57 153.315 379.57 155.658C379.57 158.002 377.52 159.151 375.536 160.262C373.608 161.343 371.786 162.364 371.786 164.382C371.786 166.4 373.608 167.421 375.536 168.502C377.52 169.613 379.57 170.762 379.57 173.106C379.57 175.451 377.52 176.6 375.536 177.712C373.608 178.793 371.786 179.814 371.786 181.832C371.786 183.85 373.608 184.871 375.536 185.952C377.52 187.064 379.57 188.213 379.57 190.558C379.57 190.711 379.446 190.836 379.292 190.836Z" fill="#C2A2E1"/>
<path opacity="0.2" d="M154.889 46.3941C152.545 46.3941 151.396 44.3429 150.285 42.3591C149.205 40.4305 148.184 38.6087 146.167 38.6087C144.15 38.6087 143.129 40.4305 142.049 42.3591C140.938 44.3429 139.79 46.3941 137.446 46.3941C135.103 46.3941 133.954 44.3429 132.843 42.3595C131.763 40.4307 130.743 38.6087 128.725 38.6087C126.708 38.6087 125.688 40.4305 124.608 42.3591C123.497 44.3429 122.348 46.3941 120.005 46.3941C117.662 46.3941 116.513 44.3429 115.402 42.3595C114.322 40.4307 113.302 38.6087 111.285 38.6087C109.267 38.6087 108.247 40.4305 107.167 42.3591C106.056 44.3429 104.907 46.3941 102.563 46.3941C100.219 46.3941 99.0704 44.3429 97.9592 42.3591C96.879 40.4305 95.8586 38.6087 93.8412 38.6087C91.8238 38.6087 90.8034 40.4305 89.7232 42.3591C88.612 44.3429 87.463 46.3941 85.1196 46.3941C82.7764 46.3941 81.6272 44.3429 80.5162 42.3595C79.436 40.4307 78.4156 38.6087 76.3976 38.6087C74.38 38.6087 73.3596 40.4305 72.2796 42.3591C71.1684 44.3429 70.0192 46.3941 67.6754 46.3941C65.3322 46.3941 64.183 44.3429 63.0714 42.3595C61.9912 40.4307 60.9702 38.6087 58.9522 38.6087C56.9348 38.6087 55.9144 40.4307 54.8342 42.3595C53.7232 44.3429 52.574 46.3941 50.2312 46.3941C47.8874 46.3941 46.7382 44.3429 45.6266 42.3595C44.546 40.4305 43.5256 38.6087 41.5076 38.6087C39.4896 38.6087 38.4686 40.4305 37.3878 42.3595C36.2762 44.3429 35.1272 46.3941 32.7828 46.3941C30.4388 46.3941 29.2892 44.3429 28.1776 42.3595C27.0968 40.4307 26.076 38.6087 24.0574 38.6087C22.0388 38.6087 21.0178 40.4307 19.9372 42.3595C18.8255 44.3429 17.6759 46.3941 15.332 46.3941C15.1783 46.3941 15.054 46.2697 15.054 46.1161C15.054 45.9623 15.1783 45.8381 15.332 45.8381C17.35 45.8381 18.371 44.0163 19.4517 42.0877C20.5634 40.1039 21.713 38.0527 24.0574 38.0527C26.4018 38.0527 27.5514 40.1039 28.663 42.0877C29.7438 44.0163 30.7646 45.8381 32.7828 45.8381C34.8012 45.8381 35.8216 44.0163 36.9024 42.0873C38.014 40.1039 39.1632 38.0527 41.5076 38.0527C43.8514 38.0527 45.0004 40.1039 46.1122 42.0873C47.1928 44.0163 48.2132 45.8381 50.2312 45.8381C52.2482 45.8381 53.2686 44.0163 54.3488 42.0877C55.4598 40.1041 56.609 38.0527 58.9522 38.0527C61.2962 38.0527 62.4452 40.1039 63.5568 42.0877C64.637 44.0163 65.658 45.8381 67.6754 45.8381C69.6934 45.8381 70.7138 44.0161 71.794 42.0873C72.9052 40.1039 74.0542 38.0527 76.3976 38.0527C78.7414 38.0527 79.8906 40.1039 81.0016 42.0877C82.0818 44.0163 83.1022 45.8381 85.1196 45.8381C87.1372 45.8381 88.1576 44.0163 89.2376 42.0877C90.3488 40.1039 91.4978 38.0527 93.8412 38.0527C96.1846 38.0527 97.3336 40.1039 98.4448 42.0873C99.5248 44.0161 100.545 45.8381 102.563 45.8381C104.581 45.8381 105.601 44.0163 106.681 42.0877C107.792 40.1039 108.942 38.0527 111.285 38.0527C113.628 38.0527 114.777 40.1041 115.888 42.0877C116.968 44.0163 117.988 45.8381 120.005 45.8381C122.022 45.8381 123.042 44.0163 124.122 42.0877C125.233 40.1039 126.382 38.0527 128.725 38.0527C131.069 38.0527 132.218 40.1041 133.329 42.0877C134.409 44.0163 135.429 45.8381 137.446 45.8381C139.463 45.8381 140.484 44.0163 141.564 42.0877C142.675 40.1039 143.823 38.0527 146.167 38.0527C148.51 38.0527 149.659 40.1039 150.77 42.0873C151.85 44.0161 152.871 45.8381 154.889 45.8381C155.043 45.8381 155.167 45.9623 155.167 46.1161C155.167 46.2697 155.043 46.3941 154.889 46.3941Z" fill="#344F73"/>
<path d="M265.184 64.4813C265.03 64.4813 264.906 64.3569 264.906 64.2033V39.2273C264.906 30.5655 262.106 22.3781 256.812 15.5502C256.718 15.4291 256.74 15.2542 256.862 15.1603C256.982 15.066 257.158 15.0872 257.252 15.2097C262.622 22.1359 265.462 30.4411 265.462 39.2273V64.2033C265.462 64.3569 265.336 64.4813 265.184 64.4813Z" fill="#1D1C3D"/>
<path d="M246.126 6.01222C246.076 6.01222 246.028 5.99974 245.984 5.97312C240.03 2.42938 233.2 0.556094 226.232 0.556094C226.078 0.556094 225.954 0.431734 225.954 0.278048C225.954 0.124361 226.078 0 226.232 0C233.3 0 240.228 1.90017 246.268 5.49524C246.4 5.5737 246.444 5.7445 246.364 5.87646C246.312 5.9639 246.22 6.01222 246.126 6.01222Z" fill="#1D1C3D"/>
<path d="M88.6436 88.9258C90.0776 88.9258 91.2402 87.7632 91.2402 86.329C91.2402 84.895 90.0776 83.7324 88.6436 83.7324C87.2094 83.7324 86.0468 84.895 86.0468 86.329C86.0468 87.7632 87.2094 88.9258 88.6436 88.9258Z" fill="#100A20"/>
<path d="M105.641 88.9258C107.075 88.9258 108.238 87.7632 108.238 86.329C108.238 84.895 107.075 83.7324 105.641 83.7324C104.207 83.7324 103.045 84.895 103.045 86.329C103.045 87.7632 104.207 88.9258 105.641 88.9258Z" fill="white"/>
<path d="M97.6276 88.9258C99.0618 88.9258 100.224 87.7632 100.224 86.329C100.224 84.895 99.0618 83.7324 97.6276 83.7324C96.1936 83.7324 95.031 84.895 95.031 86.329C95.031 87.7632 96.1936 88.9258 97.6276 88.9258Z" fill="#C2A2E1"/>
<path d="M334.018 207.48C333.864 207.48 333.74 207.356 333.74 207.202C333.74 207.048 333.864 206.924 334.018 206.924C339.224 206.924 343.46 202.688 343.46 197.482V102.36C343.46 97.1531 339.224 92.9173 334.018 92.9173H83.7942C78.5878 92.9173 74.352 97.1531 74.352 102.36V107.598C74.352 107.752 74.2276 107.876 74.074 107.876C73.9202 107.876 73.7958 107.752 73.7958 107.598V102.36C73.7958 96.8467 78.281 92.3613 83.7942 92.3613H334.018C339.53 92.3613 344.016 96.8467 344.016 102.36V197.482C344.016 202.996 339.53 207.48 334.018 207.48Z" fill="white"/>
<path d="M47.1891 98.9388H24.2465C24.0927 98.9388 23.9683 98.8146 23.9683 98.6608C23.9683 98.5072 24.0927 98.3828 24.2465 98.3828H47.1891C47.3427 98.3828 47.4671 98.5072 47.4671 98.6608C47.4671 98.8146 47.3427 98.9388 47.1891 98.9388Z" fill="#1D1C3D"/>
<path d="M54.4408 77.7787H23.5368C23.3832 77.7787 23.2588 77.6543 23.2588 77.5007C23.2588 77.3471 23.3832 77.2227 23.5368 77.2227H54.4408C54.5944 77.2227 54.7188 77.3471 54.7188 77.5007C54.7188 77.6543 54.5944 77.7787 54.4408 77.7787Z" fill="#1D1C3D"/>
<path d="M54.7106 85.0093H23.8066C23.653 85.0093 23.5286 84.8849 23.5286 84.7313C23.5286 84.5775 23.653 84.4531 23.8066 84.4531H54.7106C54.8642 84.4531 54.9886 84.5775 54.9886 84.7313C54.9886 84.8849 54.8642 85.0093 54.7106 85.0093Z" fill="#1D1C3D"/>
<path d="M54.7106 92.2376H23.8066C23.653 92.2376 23.5286 92.1132 23.5286 91.9596C23.5286 91.806 23.653 91.6816 23.8066 91.6816H54.7106C54.8642 91.6816 54.9886 91.806 54.9886 91.9596C54.9886 92.1132 54.8642 92.2376 54.7106 92.2376Z" fill="#1D1C3D"/>
<path d="M339.528 200.558H159.108C154.507 200.558 150.776 196.827 150.776 192.226V130.357C150.776 125.756 154.507 122.025 159.108 122.025H339.528C344.13 122.025 347.86 125.756 347.86 130.357V192.226C347.86 196.827 344.13 200.558 339.528 200.558Z" fill="#C2A2E1"/>
<path d="M382.64 30.6719H366.628V42.2221H382.64V30.6719Z" fill="#C2A2E1"/>
<path d="M128.547 68.1756H6.91258C6.40858 68.1756 6 67.767 6 67.263V52.5142C6 52.0102 6.40858 51.6016 6.91258 51.6016H128.547C129.051 51.6016 129.459 52.0102 129.459 52.5142V67.263C129.459 67.767 129.051 68.1756 128.547 68.1756Z" fill="#C2A2E1"/>
<path d="M386.76 209.502H362.508C361.612 209.502 360.884 208.774 360.884 207.878V25.2695C360.884 24.3745 361.612 23.6465 362.508 23.6465H386.76C387.654 23.6465 388.382 24.3745 388.382 25.2695V207.878C388.382 208.774 387.654 209.502 386.76 209.502ZM362.508 24.2025C361.92 24.2025 361.44 24.6813 361.44 25.2695V207.878C361.44 208.468 361.92 208.946 362.508 208.946H386.76C387.348 208.946 387.826 208.468 387.826 207.878V25.2695C387.826 24.6813 387.348 24.2025 386.76 24.2025H362.508Z" fill="#1D1C3D"/>
<path d="M274.794 213.069H137.194V194.545H278.48V195.101H137.75V212.513H274.794V213.069Z" fill="#1D1C3D"/>
<path d="M345.058 213.069H333.75V212.513H345.058C350.264 212.513 354.5 208.277 354.5 203.069V195.101H321.858V194.545H355.056V203.069C355.056 208.583 350.57 213.069 345.058 213.069Z" fill="#1D1C3D"/>
<path d="M392.588 222.505H374.682C374.528 222.505 374.404 222.381 374.404 222.227C374.404 222.073 374.528 221.949 374.682 221.949H392.588C392.742 221.949 392.866 222.073 392.866 222.227C392.866 222.381 392.742 222.505 392.588 222.505Z" fill="#1D1C3D"/>
<path d="M392.588 225.923H374.682C374.528 225.923 374.404 225.799 374.404 225.645C374.404 225.491 374.528 225.367 374.682 225.367H392.588C392.742 225.367 392.866 225.491 392.866 225.645C392.866 225.799 392.742 225.923 392.588 225.923Z" fill="#1D1C3D"/>
<path d="M138.413 58.4566H120.507C120.353 58.4566 120.229 58.3322 120.229 58.1784C120.229 58.0248 120.353 57.9004 120.507 57.9004H138.413C138.567 57.9004 138.691 58.0248 138.691 58.1784C138.691 58.3322 138.567 58.4566 138.413 58.4566Z" fill="#1D1C3D"/>
<path d="M159.786 61.8744H120.507C120.353 61.8744 120.229 61.75 120.229 61.5964C120.229 61.4426 120.353 61.3184 120.507 61.3184H159.786C159.94 61.3184 160.064 61.4426 160.064 61.5964C160.064 61.75 159.94 61.8744 159.786 61.8744Z" fill="#1D1C3D"/>
<path d="M162.878 104.959H144.971C144.817 104.959 144.693 104.834 144.693 104.681C144.693 104.527 144.817 104.402 144.971 104.402H162.878C163.031 104.402 163.156 104.527 163.156 104.681C163.156 104.834 163.031 104.959 162.878 104.959Z" fill="#1D1C3D"/>
<path d="M162.878 108.376H144.971C144.817 108.376 144.693 108.252 144.693 108.098C144.693 107.945 144.817 107.82 144.971 107.82H162.878C163.031 107.82 163.156 107.945 163.156 108.098C163.156 108.252 163.031 108.376 162.878 108.376Z" fill="#1D1C3D"/>
<path d="M278.48 222.505H85.111C84.9574 222.505 84.833 222.381 84.833 222.227C84.833 222.073 84.9574 221.949 85.111 221.949H278.48C278.634 221.949 278.758 222.073 278.758 222.227C278.758 222.381 278.634 222.505 278.48 222.505Z" fill="#1D1C3D"/>
<path d="M137.753 213.069H94.8312C89.3182 213.069 84.833 208.583 84.833 203.069V107.949C84.833 102.436 89.3182 97.9512 94.8312 97.9512H137.753V213.069ZM94.8312 98.5072C89.625 98.5072 85.3892 102.743 85.3892 107.949V203.069C85.3892 208.277 89.625 212.513 94.8312 212.513H137.197V98.5072H94.8312Z" fill="#1D1C3D"/>
<path d="M105.698 119.248H98.6682C97.265 119.248 96.1274 118.111 96.1274 116.707V109.678C96.1274 108.274 97.265 107.137 98.6682 107.137H105.698C107.101 107.137 108.239 108.274 108.239 109.678V116.707C108.239 118.111 107.101 119.248 105.698 119.248Z" fill="#100A20"/>
<path d="M123.917 119.248H116.887C115.484 119.248 114.346 118.111 114.346 116.707V109.678C114.346 108.274 115.484 107.137 116.887 107.137H123.917C125.32 107.137 126.458 108.274 126.458 109.678V116.707C126.458 118.111 125.32 119.248 123.917 119.248Z" fill="#100A20"/>
<path d="M105.698 137.076H98.6682C97.265 137.076 96.1274 135.939 96.1274 134.536V127.506C96.1274 126.102 97.265 124.965 98.6682 124.965H105.698C107.101 124.965 108.239 126.102 108.239 127.506V134.536C108.239 135.939 107.101 137.076 105.698 137.076Z" fill="#100A20"/>
<path d="M123.917 137.076H116.887C115.484 137.076 114.346 135.939 114.346 134.536V127.506C114.346 126.102 115.484 124.965 116.887 124.965H123.917C125.32 124.965 126.458 126.102 126.458 127.506V134.536C126.458 135.939 125.32 137.076 123.917 137.076Z" fill="white"/>
<path d="M105.698 154.904H98.6682C97.265 154.904 96.1274 153.767 96.1274 152.364V145.334C96.1274 143.931 97.265 142.793 98.6682 142.793H105.698C107.101 142.793 108.239 143.931 108.239 145.334V152.364C108.239 153.767 107.101 154.904 105.698 154.904Z" fill="#100A20"/>
<path d="M123.917 154.904H116.887C115.484 154.904 114.346 153.767 114.346 152.364V145.334C114.346 143.931 115.484 142.793 116.887 142.793H123.917C125.32 142.793 126.458 143.931 126.458 145.334V152.364C126.458 153.767 125.32 154.904 123.917 154.904Z" fill="#100A20"/>
<path d="M126.458 160.619H96.1274V163.047H126.458V160.619Z" fill="#1D1C3D"/>
<path d="M102.183 179.933C98.691 179.933 95.8496 177.092 95.8496 173.6C95.8496 170.107 98.691 167.266 102.183 167.266C105.676 167.266 108.517 170.107 108.517 173.6C108.517 177.092 105.676 179.933 102.183 179.933ZM102.183 167.822C98.9978 167.822 96.4058 170.414 96.4058 173.6C96.4058 176.785 98.9978 179.377 102.183 179.377C105.369 179.377 107.961 176.785 107.961 173.6C107.961 170.414 105.369 167.822 102.183 167.822Z" fill="#1D1C3D"/>
<path d="M120.401 179.933C116.909 179.933 114.068 177.092 114.068 173.6C114.068 170.107 116.909 167.266 120.401 167.266C123.894 167.266 126.735 170.107 126.735 173.6C126.735 177.092 123.894 179.933 120.401 179.933ZM120.401 167.822C117.216 167.822 114.624 170.414 114.624 173.6C114.624 176.785 117.216 179.377 120.401 179.377C123.587 179.377 126.179 176.785 126.179 173.6C126.179 170.414 123.587 167.822 120.401 167.822Z" fill="#1D1C3D"/>
<path d="M102.183 197.761C98.691 197.761 95.8496 194.92 95.8496 191.427C95.8496 187.935 98.691 185.094 102.183 185.094C105.676 185.094 108.517 187.935 108.517 191.427C108.517 194.92 105.676 197.761 102.183 197.761ZM102.183 185.65C98.9978 185.65 96.4058 188.242 96.4058 191.427C96.4058 194.613 98.9978 197.205 102.183 197.205C105.369 197.205 107.961 194.613 107.961 191.427C107.961 188.242 105.369 185.65 102.183 185.65Z" fill="#1D1C3D"/>
<path d="M120.401 197.761C116.909 197.761 114.068 194.92 114.068 191.427C114.068 187.935 116.909 185.094 120.401 185.094C123.894 185.094 126.735 187.935 126.735 191.427C126.735 194.92 123.894 197.761 120.401 197.761ZM120.401 185.65C117.216 185.65 114.624 188.242 114.624 191.427C114.624 194.613 117.216 197.205 120.401 197.205C123.587 197.205 126.179 194.613 126.179 191.427C126.179 188.242 123.587 185.65 120.401 185.65Z" fill="#1D1C3D"/>
<path d="M64.2188 257.27C64.065 257.27 63.9406 257.146 63.9406 256.992V227.362C63.9406 227.208 64.065 227.084 64.2188 227.084C64.3724 227.084 64.4968 227.208 64.4968 227.362V256.992C64.4968 257.146 64.3724 257.27 64.2188 257.27Z" fill="white"/>
<path d="M64.2188 209.503C64.065 209.503 63.9406 209.379 63.9406 209.225V178.448C63.9406 178.294 64.065 178.17 64.2188 178.17C64.3724 178.17 64.4968 178.294 64.4968 178.448V209.225C64.4968 209.379 64.3724 209.503 64.2188 209.503Z" fill="white"/>
<path d="M7.11276 210.347C6.95908 210.347 6.83472 210.223 6.83472 210.069V124.908C6.83472 122.318 8.9418 120.211 11.5322 120.211H35.6652C35.819 120.211 35.9434 120.335 35.9434 120.489C35.9434 120.643 35.819 120.767 35.6652 120.767H11.5322C9.24862 120.767 7.39082 122.625 7.39082 124.908V210.069C7.39082 210.223 7.26644 210.347 7.11276 210.347Z" fill="white"/>
<path d="M58.6688 127.554V272.063H20.3326C16.0967 272.063 12.6646 267.909 12.6646 262.787V127.554C12.6646 125.742 14.0669 124.273 15.7968 124.273H55.5366C57.2664 124.273 58.6688 125.742 58.6688 127.554Z" fill="#C2A2E1"/>
<path d="M73.7366 262.547C73.7366 267.801 69.4718 272.061 64.2184 272.061H16.6316C21.885 272.061 26.1498 267.801 26.1498 262.547C26.1498 257.899 22.815 254.029 18.4106 253.195L18.4123 253.029H64.2184C69.4718 253.029 73.7366 257.289 73.7366 262.547Z" fill="#100A20"/>
<path d="M79.9606 272.34H16.631C11.2292 272.34 6.83472 267.948 6.83472 262.548V225.794C6.83472 225.64 6.95908 225.516 7.11276 225.516C7.26644 225.516 7.39082 225.64 7.39082 225.794V262.548C7.39082 267.642 11.536 271.784 16.631 271.784H79.9606C80.1142 271.784 80.2386 271.908 80.2386 272.062C80.2386 272.216 80.1142 272.34 79.9606 272.34Z" fill="white"/>
<path d="M122.622 256.079H87.5336C87.38 256.079 87.2556 255.955 87.2556 255.801C87.2556 255.649 87.38 255.523 87.5336 255.523H122.622C122.776 255.523 122.9 255.649 122.9 255.801C122.9 255.955 122.776 256.079 122.622 256.079Z" fill="white"/>
<path d="M116.832 261.878H81.7435C81.5897 261.878 81.4655 261.754 81.4655 261.6C81.4655 261.448 81.5897 261.322 81.7435 261.322H116.832C116.985 261.322 117.11 261.448 117.11 261.6C117.11 261.754 116.985 261.878 116.832 261.878Z" fill="white"/>
<path d="M388.104 274.118H274.794C274.642 274.118 274.516 273.994 274.516 273.84C274.516 273.686 274.642 273.562 274.794 273.562H388.104C388.258 273.562 388.382 273.686 388.382 273.84C388.382 273.994 388.258 274.118 388.104 274.118Z" fill="white"/>
<path d="M388.104 268.32H274.794C274.642 268.32 274.516 268.196 274.516 268.042C274.516 267.888 274.642 267.764 274.794 267.764H388.104C388.258 267.764 388.382 267.888 388.382 268.042C388.382 268.196 388.258 268.32 388.104 268.32Z" fill="white"/>
<path d="M323.7 282.298H252.83C252.672 282.298 252.546 282.17 252.546 282.014V279.44C252.546 279.282 252.672 279.156 252.83 279.156H323.7C323.856 279.156 323.984 279.282 323.984 279.44V282.014C323.984 282.17 323.856 282.298 323.7 282.298Z" fill="#C2A2E1"/>
<path d="M387.82 262.798H252.83C252.672 262.798 252.546 262.672 252.546 262.514V259.94C252.546 259.784 252.672 259.656 252.83 259.656H387.82C387.976 259.656 388.104 259.784 388.104 259.94V262.514C388.104 262.672 387.976 262.798 387.82 262.798Z" fill="#C2A2E1"/>
<path d="M341.854 69.4538H335.798V68.8978H341.854C341.964 68.8978 342.052 68.8094 342.052 68.7012V53.1026C342.052 52.994 341.964 52.9056 341.854 52.9056H300.826C300.718 52.9056 300.63 52.994 300.63 53.1026V68.7012C300.63 68.8094 300.718 68.8978 300.826 68.8978H329.822V69.4538H300.826C300.412 69.4538 300.074 69.116 300.074 68.7012V53.1026C300.074 52.6874 300.412 52.3496 300.826 52.3496H341.854C342.27 52.3496 342.608 52.6874 342.608 53.1026V68.7012C342.608 69.116 342.27 69.4538 341.854 69.4538Z" fill="#1D1C3D"/>
<path opacity="0.37" d="M328.434 67.27H303.204C302.976 67.27 302.79 67.1064 302.79 66.9046V54.8986C302.79 54.6968 302.976 54.5332 303.204 54.5332H338.906C339.134 54.5332 339.32 54.6968 339.32 54.8986V66.9046C339.32 67.1064 339.134 67.27 338.906 67.27H333.636" fill="#100A20"/>
<path opacity="0.37" d="M329.958 79.5923H307.64C307.438 79.5923 307.274 79.5293 307.274 79.4517V74.8281C307.274 74.7503 307.438 74.6875 307.64 74.6875H339.22C339.422 74.6875 339.586 74.7503 339.586 74.8281V79.4517C339.586 79.5293 339.422 79.5923 339.22 79.5923H334.56" fill="#100A20"/>
<path d="M342.008 81.2259H327.166V80.6697H342.008C342.032 80.6697 342.052 80.6499 342.052 80.6255V73.6531C342.052 73.6287 342.032 73.6089 342.008 73.6089H304.822C304.798 73.6089 304.778 73.6287 304.778 73.6531V80.6255C304.778 80.6499 304.798 80.6697 304.822 80.6697H314V81.2259H304.822C304.49 81.2259 304.222 80.9565 304.222 80.6255V73.6531C304.222 73.3221 304.49 73.0527 304.822 73.0527H342.008C342.338 73.0527 342.608 73.3221 342.608 73.6531V80.6255C342.608 80.9565 342.338 81.2259 342.008 81.2259Z" fill="#1D1C3D"/>
<path opacity="0.3" d="M51.3694 180.703H19.9619V194.822H51.3694V180.703Z" fill="white"/>
<path opacity="0.3" d="M35.3474 131.02H19.9619V172.731H35.3474V131.02Z" fill="white"/>
<path opacity="0.3" d="M51.3694 131.02H38.4648V142.114H51.3694V131.02Z" fill="white"/>
<path opacity="0.3" d="M51.3694 146.328H38.4648V157.423H51.3694V146.328Z" fill="white"/>
<path opacity="0.3" d="M51.3694 161.637H38.4648V172.731H51.3694V161.637Z" fill="white"/>
<path opacity="0.3" d="M51.3694 197.482H19.9619V201.524H51.3694V197.482Z" fill="white"/>
<path opacity="0.3" d="M51.3694 205.182H19.9619V209.224H51.3694V205.182Z" fill="white"/>
<path opacity="0.3" d="M51.3694 230.162H19.9619V234.206H51.3694V230.162Z" fill="white"/>
<path opacity="0.3" d="M51.3694 237.861H19.9619V241.903H51.3694V237.861Z" fill="white"/>
<path d="M32.4785 224.249H21.1121V215.141H32.4785V224.249ZM21.6683 223.693H31.9223V215.697H21.6683V223.693Z" fill="white"/>
<path d="M46.436 224.249H35.0698V215.141H46.436V224.249ZM35.626 223.693H45.88V215.697H35.626V223.693Z" fill="white"/>
<path d="M60.3944 224.249H49.0276V215.141H60.3944V224.249ZM49.5836 223.693H59.8382V215.697H49.5836V223.693Z" fill="#1D1C3D"/>
<path d="M74.3518 224.249H62.9856V215.141H74.3518V224.249ZM63.5416 223.693H73.7958V215.697H63.5416V223.693Z" fill="#C2A2E1"/>
<path d="M355.056 113.472H137.194V97.9512H345.056C350.57 97.9512 355.056 102.436 355.056 107.949V113.472ZM137.75 112.915H354.498V107.949C354.498 102.743 350.264 98.5072 345.056 98.5072H137.75V112.915Z" fill="#1D1C3D"/>
<path d="M61.3946 113.47H16.603C14.2782 113.47 12.3867 111.579 12.3867 109.254V62.0094C12.3867 59.6844 14.2782 57.793 16.603 57.793H61.3946C63.7196 57.793 65.611 59.6844 65.611 62.0094V109.254C65.611 111.579 63.7196 113.47 61.3946 113.47ZM16.603 58.349C14.585 58.349 12.9428 59.991 12.9428 62.0094V109.254C12.9428 111.272 14.585 112.914 16.603 112.914H61.3946C63.4126 112.914 65.055 111.272 65.055 109.254V62.0094C65.055 59.991 63.4126 58.349 61.3946 58.349H16.603Z" fill="white"/>
<path d="M196.748 290.173H146.775C146.009 290.173 145.385 289.549 145.385 288.783V232.781C145.385 232.013 146.009 231.389 146.775 231.389H196.748C197.515 231.389 198.138 232.013 198.138 232.781V288.783C198.138 289.549 197.515 290.173 196.748 290.173ZM146.775 231.947C146.316 231.947 145.941 232.321 145.941 232.781V288.783C145.941 289.243 146.316 289.617 146.775 289.617H196.748C197.208 289.617 197.582 289.243 197.582 288.783V232.781C197.582 232.321 197.208 231.947 196.748 231.947H146.775Z" fill="#1D1C3D"/>
<path d="M189.105 247.736H156.609C156.455 247.736 156.331 247.612 156.331 247.458C156.331 247.306 156.455 247.18 156.609 247.18H189.105C189.259 247.18 189.383 247.306 189.383 247.458C189.383 247.612 189.259 247.736 189.105 247.736Z" fill="#1D1C3D"/>
<path d="M192.242 254.966H162.972C162.818 254.966 162.694 254.842 162.694 254.688C162.694 254.534 162.818 254.41 162.972 254.41H192.242C192.396 254.41 192.52 254.534 192.52 254.688C192.52 254.842 192.396 254.966 192.242 254.966Z" fill="#1D1C3D"/>
<path d="M185.635 262.197H156.365C156.211 262.197 156.087 262.071 156.087 261.919C156.087 261.765 156.211 261.641 156.365 261.641H185.635C185.789 261.641 185.913 261.765 185.913 261.919C185.913 262.071 185.789 262.197 185.635 262.197Z" fill="#1D1C3D"/>
<path d="M185.635 269.423H156.365C156.211 269.423 156.087 269.299 156.087 269.145C156.087 268.991 156.211 268.867 156.365 268.867H185.635C185.789 268.867 185.913 268.991 185.913 269.145C185.913 269.299 185.789 269.423 185.635 269.423Z" fill="#1D1C3D"/>
<path d="M216.182 299.601C216.028 299.601 215.904 299.477 215.904 299.323C215.904 299.171 216.028 299.045 216.182 299.045C217.948 299.045 219.18 297.781 219.904 296.719C221.594 294.233 222.146 290.529 221.19 288.103L221.038 287.723H243.446C243.6 287.723 243.724 287.847 243.724 288.001C243.724 288.155 243.6 288.279 243.446 288.279H221.842C222.668 290.855 222.062 294.533 220.364 297.031C219.236 298.689 217.75 299.601 216.182 299.601Z" fill="#1D1C3D"/>
<path d="M234.242 300.001H221.014C208.93 300.001 207.968 294.347 207.968 286.957V232.225C207.968 231.765 208.344 231.389 208.804 231.389H240.59C241.048 231.389 241.424 231.765 241.424 232.225V288.001C241.424 288.155 241.298 288.279 241.146 288.279C240.992 288.279 240.868 288.155 240.868 288.001V232.225C240.868 232.071 240.742 231.947 240.59 231.947H208.804C208.65 231.947 208.526 232.071 208.526 232.225V286.957C208.526 294.269 209.422 299.445 221.014 299.445H234.242C240.552 299.445 245.686 294.311 245.686 288.001C245.686 287.847 245.81 287.723 245.964 287.723C246.118 287.723 246.242 287.847 246.242 288.001C246.242 294.617 240.858 300.001 234.242 300.001Z" fill="#1D1C3D"/>
<path d="M229.178 272.486H216.426C216.274 272.486 216.148 272.362 216.148 272.208C216.148 272.054 216.274 271.93 216.426 271.93H229.178C229.332 271.93 229.456 272.054 229.456 272.208C229.456 272.362 229.332 272.486 229.178 272.486Z" fill="#1D1C3D"/>
<path d="M233.208 251.327H216.032C215.878 251.327 215.754 251.201 215.754 251.049C215.754 250.895 215.878 250.771 216.032 250.771H233.208C233.362 250.771 233.486 250.895 233.486 251.049C233.486 251.201 233.362 251.327 233.208 251.327Z" fill="#1D1C3D"/>
<path d="M233.36 258.556H216.182C216.028 258.556 215.904 258.432 215.904 258.278C215.904 258.124 216.028 258 216.182 258H233.36C233.512 258 233.638 258.124 233.638 258.278C233.638 258.432 233.512 258.556 233.36 258.556Z" fill="#1D1C3D"/>
<path d="M233.36 265.786H216.182C216.028 265.786 215.904 265.662 215.904 265.508C215.904 265.354 216.028 265.23 216.182 265.23H233.36C233.512 265.23 233.638 265.354 233.638 265.508C233.638 265.662 233.512 265.786 233.36 265.786Z" fill="#1D1C3D"/>
<path d="M382.638 27.1852H366.628L366.384 21.4102H382.396L382.638 27.1852Z" fill="#C2A2E1"/>
<path d="M284.928 173.666C284.926 173.666 284.924 173.666 284.922 173.666L281.972 173.607C281.818 173.604 281.696 173.477 281.698 173.323C281.702 173.17 281.832 173.045 281.982 173.051L284.932 173.11C285.086 173.114 285.208 173.24 285.206 173.394C285.202 173.546 285.078 173.666 284.928 173.666ZM279.026 173.547C279.024 173.547 279.022 173.547 279.022 173.547L276.07 173.488C275.916 173.484 275.794 173.358 275.798 173.204C275.802 173.051 275.932 172.918 276.082 172.932L279.032 172.991C279.186 172.994 279.308 173.121 279.304 173.275C279.302 173.426 279.178 173.547 279.026 173.547ZM273.126 173.428C273.124 173.428 273.122 173.428 273.12 173.428L270.17 173.369C270.016 173.366 269.894 173.239 269.898 173.085C269.9 172.932 270.03 172.816 270.18 172.813L273.132 172.872C273.284 172.875 273.406 173.002 273.404 173.156C273.4 173.307 273.276 173.428 273.126 173.428ZM267.224 173.309H267.22L264.268 173.25C264.116 173.247 263.992 173.12 263.996 172.966C264 172.813 264.13 172.689 264.28 172.694L267.23 172.753C267.384 172.756 267.506 172.883 267.502 173.037C267.5 173.188 267.376 173.309 267.224 173.309ZM261.324 173.19C261.322 173.19 261.32 173.19 261.318 173.19L258.368 173.131C258.214 173.128 258.092 173.001 258.096 172.847C258.098 172.694 258.23 172.562 258.378 172.575L261.33 172.634C261.482 172.638 261.606 172.764 261.602 172.918C261.598 173.07 261.474 173.19 261.324 173.19ZM255.422 173.071C255.422 173.071 255.42 173.071 255.418 173.071L252.468 173.012C252.314 173.009 252.192 172.882 252.194 172.728C252.198 172.575 252.33 172.46 252.478 172.456L255.428 172.515C255.582 172.519 255.704 172.645 255.7 172.799C255.698 172.951 255.574 173.071 255.422 173.071ZM249.522 172.953C249.52 172.953 249.518 172.953 249.516 172.953L246.566 172.893C246.412 172.89 246.29 172.763 246.294 172.609C246.296 172.456 246.428 172.333 246.576 172.337L249.528 172.396C249.682 172.4 249.804 172.527 249.8 172.68C249.796 172.832 249.672 172.953 249.522 172.953ZM243.622 172.834C243.62 172.834 243.618 172.834 243.616 172.834L241.638 172.794C241.484 172.79 241.362 172.664 241.366 172.51C241.37 172.357 241.494 172.231 241.65 172.238L243.626 172.278C243.78 172.281 243.902 172.408 243.9 172.561C243.896 172.713 243.772 172.834 243.622 172.834ZM285.346 172.805C285.284 172.805 285.222 172.785 285.17 172.744L282.87 170.895C282.752 170.799 282.732 170.624 282.828 170.504C282.926 170.384 283.1 170.366 283.22 170.462L285.52 172.311C285.638 172.407 285.658 172.582 285.562 172.702C285.506 172.77 285.426 172.805 285.346 172.805ZM280.744 169.108C280.684 169.108 280.622 169.088 280.57 169.046L278.27 167.197C278.152 167.101 278.132 166.926 278.228 166.806C278.324 166.686 278.5 166.668 278.62 166.764L280.92 168.613C281.038 168.709 281.058 168.884 280.962 169.004C280.906 169.072 280.826 169.108 280.744 169.108ZM276.146 165.41C276.084 165.41 276.022 165.39 275.97 165.349L273.67 163.5C273.55 163.404 273.532 163.228 273.628 163.109C273.724 162.989 273.898 162.971 274.018 163.066L276.32 164.915C276.438 165.011 276.458 165.187 276.362 165.306C276.306 165.374 276.226 165.41 276.146 165.41ZM271.544 161.712C271.484 161.712 271.422 161.692 271.37 161.651L269.07 159.802C268.95 159.706 268.932 159.531 269.028 159.411C269.124 159.291 269.298 159.273 269.418 159.368L271.72 161.217C271.838 161.313 271.858 161.489 271.762 161.608C271.706 161.676 271.626 161.712 271.544 161.712ZM266.944 158.014C266.884 158.014 266.822 157.994 266.77 157.953L264.47 156.104C264.35 156.008 264.332 155.833 264.428 155.713C264.524 155.593 264.698 155.575 264.818 155.671L267.118 157.52C267.238 157.616 267.258 157.791 267.162 157.911C267.106 157.979 267.026 158.014 266.944 158.014ZM262.344 154.317C262.282 154.317 262.222 154.297 262.17 154.255L259.87 152.406C259.75 152.31 259.732 152.135 259.828 152.015C259.924 151.895 260.1 151.877 260.218 151.973L262.518 153.822C262.638 153.918 262.658 154.093 262.56 154.213C262.506 154.281 262.426 154.317 262.344 154.317ZM257.744 150.619C257.684 150.619 257.622 150.599 257.57 150.558L255.27 148.709C255.15 148.613 255.132 148.437 255.228 148.318C255.324 148.197 255.498 148.179 255.618 148.275L257.918 150.124C258.038 150.22 258.058 150.395 257.962 150.515C257.906 150.583 257.826 150.619 257.744 150.619ZM253.144 146.921C253.082 146.921 253.022 146.901 252.97 146.86L250.67 145.011C250.55 144.915 250.532 144.74 250.628 144.62C250.724 144.5 250.898 144.482 251.018 144.578L253.318 146.426C253.438 146.523 253.458 146.698 253.36 146.817C253.306 146.886 253.226 146.921 253.144 146.921ZM248.544 143.223C248.482 143.223 248.422 143.203 248.37 143.162L246.07 141.313C245.95 141.217 245.932 141.042 246.028 140.922C246.124 140.803 246.298 140.784 246.418 140.88L248.718 142.729C248.838 142.825 248.856 143 248.76 143.12C248.706 143.188 248.624 143.223 248.544 143.223ZM243.944 139.526C243.882 139.526 243.82 139.506 243.77 139.464L241.47 137.616C241.35 137.519 241.332 137.344 241.428 137.225C241.524 137.105 241.698 137.087 241.818 137.182L244.118 139.031C244.238 139.127 244.256 139.302 244.16 139.422C244.106 139.49 244.024 139.526 243.944 139.526Z" fill="black"/>
<path opacity="0.3" d="M236.958 169.013H172.607V138.705H236.902L236.958 169.013Z" fill="white"/>
<path d="M233.302 173.696H168.395V142.832H233.246L233.302 173.696ZM168.951 173.14H232.746L232.69 143.388H168.951V173.14Z" fill="#100A20"/>
<path opacity="0.47" d="M277.522 170.448L236.96 169.013V138.705H236.906L277.522 170.448Z" fill="#1D1C3D"/>
<path d="M236.906 182.54C236.752 182.54 236.628 182.416 236.628 182.262V125.753C236.628 125.599 236.752 125.475 236.906 125.475C237.06 125.475 237.184 125.599 237.184 125.753V182.262C237.184 182.416 237.06 182.54 236.906 182.54Z" fill="#100A20"/>
<path opacity="0.3" d="M353.666 197.648V205.854C353.666 211.192 349.334 215.524 343.996 215.524H137.474V197.648H353.666Z" fill="#100A20"/>
<path opacity="0.2" d="M336.436 146.347H317.67C316.178 146.347 314.968 145.136 314.968 143.643V135.249C314.968 133.756 316.178 132.545 317.67 132.545H336.436C337.93 132.545 339.14 133.756 339.14 135.249V143.643C339.14 145.136 337.93 146.347 336.436 146.347Z" fill="#1D1C3D"/>
<path opacity="0.2" d="M307.924 146.347H289.158C287.664 146.347 286.454 145.136 286.454 143.643V135.249C286.454 133.756 287.664 132.545 289.158 132.545H307.924C309.416 132.545 310.628 133.756 310.628 135.249V143.643C310.628 145.136 309.416 146.347 307.924 146.347Z" fill="#1D1C3D"/>
<path opacity="0.2" d="M336.436 163.286H317.67C316.178 163.286 314.968 162.076 314.968 160.583V152.188C314.968 150.695 316.178 149.484 317.67 149.484H336.436C337.93 149.484 339.14 150.695 339.14 152.188V160.583C339.14 162.076 337.93 163.286 336.436 163.286Z" fill="#1D1C3D"/>
<path opacity="0.2" d="M336.436 180.499H317.67C316.178 180.499 314.968 179.289 314.968 177.795V169.401C314.968 167.908 316.178 166.697 317.67 166.697H336.436C337.93 166.697 339.14 167.908 339.14 169.401V177.795C339.14 179.289 337.93 180.499 336.436 180.499Z" fill="#1D1C3D"/>
<path opacity="0.3" d="M289.686 179.162H168.673V182.243H289.686V179.162Z" fill="white"/>
<path opacity="0.2" d="M320.372 240.744C321.954 239.852 322.516 237.848 321.624 236.266L318.626 230.94L321.186 210.656C321.28 207.218 319.486 204.004 316.508 202.282L285.52 181.542C284.522 180.964 283.4 182.074 283.966 183.079L302.466 215.944L300.194 217.222L281.576 184.15C281.01 183.145 279.48 183.529 279.456 184.682L281.168 221.902C281.096 225.342 282.912 228.544 285.9 230.244L304.386 238.35L307.644 244.138C308.534 245.72 310.538 246.28 312.12 245.388L320.372 240.744Z" fill="#1D1C3D"/>
<path opacity="0.2" d="M325.518 243.138C325.088 242.374 324.12 242.102 323.356 242.532L312.14 248.846C311.376 249.276 311.106 250.244 311.536 251.008L313.64 254.744C314.14 255.634 315.27 255.95 316.162 255.45L326.916 249.396C327.806 248.894 328.122 247.764 327.62 246.874L325.518 243.138Z" fill="#1D1C3D"/>
<path opacity="0.2" d="M350.57 240.04L345.85 239.56L349.766 236.882C350.442 236.422 350.616 235.5 350.154 234.826C349.692 234.15 348.772 233.978 348.096 234.438L343.466 237.604L344.034 232.022C344.116 231.21 343.524 230.484 342.71 230.4C341.898 230.318 341.17 230.91 341.088 231.724L340.522 237.29L336.622 233.258C336.054 232.67 335.118 232.654 334.53 233.222C333.942 233.79 333.926 234.728 334.494 235.316L337.808 238.742L333.072 238.26C332.258 238.178 331.532 238.77 331.448 239.582C331.366 240.396 331.958 241.122 332.772 241.206L337.492 241.686L333.574 244.362C332.9 244.824 332.726 245.744 333.188 246.42C333.648 247.094 334.57 247.268 335.244 246.806L339.876 243.642L339.308 249.222C339.226 250.036 339.818 250.762 340.63 250.844C341.444 250.928 342.17 250.334 342.254 249.522L342.822 243.928L346.722 247.96C347.29 248.548 348.226 248.564 348.814 247.996C349.402 247.428 349.418 246.49 348.85 245.902L345.566 242.506L350.27 242.986C351.084 243.068 351.81 242.476 351.892 241.662C351.976 240.848 351.384 240.122 350.57 240.04Z" fill="#1D1C3D"/>
<path d="M285.512 178.502L287.096 212.921C287.03 216.099 288.708 219.061 291.472 220.635L311.52 229.425C313.544 230.577 315.802 228.331 314.658 226.301L287.474 178.01C286.95 177.08 285.534 177.436 285.512 178.502Z" fill="#100A20"/>
<path d="M291.12 175.598L319.776 194.777C322.528 196.369 324.188 199.341 324.1 202.521L321.11 226.219C321.062 227.995 318.706 228.577 317.836 227.031L289.682 177.019C289.16 176.09 290.198 175.064 291.12 175.598Z" fill="#100A20"/>
<path d="M323.35 230.343L315.718 234.637C314.256 235.461 312.402 234.943 311.578 233.481L299.282 211.637L312.21 204.359L324.508 226.203C325.33 227.665 324.812 229.519 323.35 230.343Z" fill="#100A20"/>
<path d="M329.4 238.344L319.456 243.942C318.632 244.406 317.588 244.114 317.124 243.29L315.178 239.836C314.78 239.128 315.032 238.234 315.738 237.836L326.108 231.998C326.814 231.6 327.71 231.85 328.106 232.558L330.052 236.012C330.516 236.836 330.224 237.88 329.4 238.344Z" fill="#C2A2E1"/>
<path d="M342.082 239.685C341.33 239.609 340.784 238.937 340.86 238.185L342.506 222.003C342.582 221.251 343.254 220.704 344.006 220.781C344.758 220.857 345.306 221.529 345.23 222.281L343.584 238.461C343.506 239.213 342.834 239.761 342.082 239.685Z" fill="#1D1C3D"/>
<path d="M335.198 235.592C335.626 236.216 336.476 236.376 337.102 235.95L350.53 226.774C351.154 226.348 351.314 225.496 350.888 224.872C350.462 224.248 349.61 224.088 348.986 224.514L335.556 233.69C334.932 234.116 334.772 234.968 335.198 235.592Z" fill="#1D1C3D"/>
<path d="M336.44 223.389C336.984 222.863 337.85 222.877 338.376 223.421L349.682 235.113C350.208 235.657 350.192 236.523 349.65 237.049C349.106 237.575 348.24 237.559 347.714 237.017L336.408 225.323C335.882 224.781 335.898 223.913 336.44 223.389Z" fill="#1D1C3D"/>
<path d="M333.592 229.27C333.516 230.022 334.062 230.694 334.814 230.77L350.996 232.416C351.748 232.494 352.42 231.946 352.496 231.194C352.572 230.442 352.024 229.77 351.272 229.694L335.092 228.048C334.34 227.97 333.668 228.518 333.592 229.27Z" fill="#1D1C3D"/>
</g>
<defs>
<clipPath id="clip0">
<rect width="400" height="300" fill="white"/>
</clipPath>
</defs>
</svg>
