<svg width="400" height="300" viewBox="0 0 400 300" fill="none" xmlns="http://www.w3.org/2000/svg">
<g clip-path="url(#clip0)">
<path d="M189.674 116.428H192.239L193.809 114.915C193.809 114.915 194.193 106.755 191.398 107.31C188.603 107.865 189.599 114.107 189.674 116.428Z" fill="#EFC7B0"/>
<path d="M230.16 138.407C230.16 138.407 226.52 140.967 221.822 144.141C219.16 145.936 216.156 147.928 213.286 149.762L213.28 149.767C207.934 153.177 203.052 156.036 201.7 156.024C199.309 156.002 197.081 155.147 195.326 153.717C193.57 152.288 192.287 150.285 191.775 147.944L184.19 123.947C179.695 121.055 179.678 118.106 180.567 115.147L191.213 114.916L199.433 136.787L219.756 117.729L230.16 138.407Z" fill="#EFC7B0"/>
<path d="M200.646 156.382C191.362 156.382 187.946 138.063 186.273 129.088C185.902 127.096 185.608 125.523 185.37 124.821C185.175 124.243 184.919 124.18 184.359 124.04C183.851 123.913 182.297 123.055 182.297 123.055L182.647 122.615C182.647 122.615 184.012 123.374 184.496 123.494C185.093 123.643 185.609 123.772 185.903 124.641C186.154 125.38 186.436 126.892 186.826 128.984C188.531 138.132 192.076 157.164 201.658 155.744C201.81 155.717 201.956 155.827 201.978 155.981C202 156.134 201.894 156.277 201.74 156.3C201.368 156.355 201.004 156.382 200.646 156.382Z" fill="#2F2933"/>
<path d="M193.62 3.57812H197.474C198.136 3.57812 198.674 4.11539 198.674 4.77819V5.78812C198.674 6.45086 198.136 6.98818 197.474 6.98818H193.62C192.957 6.98818 192.42 6.45086 192.42 5.78812V4.77819C192.42 4.11539 192.957 3.57812 193.62 3.57812Z" fill="#2F2933"/>
<path opacity="0.08" d="M189.006 103.027C186.266 106.048 180.937 108.541 179.919 109.019C178.079 109.885 176.262 110.566 174.461 111.095C161.587 114.899 149.603 110.881 135.727 109.019C126.246 107.753 132.452 109.711 81.7284 112.71C26.7278 115.968 69.0346 110.729 21.2812 111.348C14.94 111.427 5.5323 111.635 3.60796 107.162C1.99874 103.432 5.7517 96.8486 11.0464 94.1366C19.7621 89.6746 26.002 99.088 38.4932 96.9272C49.8084 94.9692 49.3638 86.4448 61.2924 83.9016C72.2136 81.5722 75.387 88.1216 88.739 87.1594C100.893 86.276 101.258 80.6326 112.928 78.32C125.616 75.7992 129.048 81.7072 157.592 89.0162C178.642 94.4066 190.013 94.5866 190.621 99.2512C190.79 100.528 190.103 101.817 189.006 103.027Z" fill="#2F2933"/>
<path d="M186.426 120.457C171.853 120.457 170.279 112.506 170.279 109.087V104.093C170.279 102.851 171.287 101.843 172.529 101.843C173.771 101.843 174.779 102.851 174.779 104.093V109.087C174.779 112.222 176.799 115.957 186.426 115.957C190.528 115.957 192.08 115.252 192.66 114.662C193.347 113.961 193.356 112.607 193.314 110.457C193.305 110.009 193.296 109.552 193.296 109.087V92.0898C193.296 90.8474 194.304 89.8398 195.547 89.8398C196.789 89.8398 197.797 90.8474 197.797 92.0898V109.087C197.797 109.523 197.805 109.951 197.813 110.369C197.864 113.003 197.918 115.727 195.872 117.813C194.079 119.641 191.166 120.457 186.426 120.457Z" fill="#152029"/>
<path d="M195.546 0C196.38 0 197.056 0.67565 197.056 1.50914V4.8764H194.037V1.50914C194.037 0.67565 194.713 0 195.546 0Z" fill="#2F2933"/>
<path d="M176.73 113.821C176.73 113.821 176.03 115.561 178.595 118.368C178.997 118.807 179.514 119.294 180.45 119.009C181.029 118.833 182.119 119.118 182.325 119.863C182.71 121.258 184.135 122.285 184.779 122.17C185.079 121.368 185.244 121.678 185.555 121.843C185.973 122.065 186.565 122.289 187.261 121.686C187.806 120.461 187.109 117.397 187.109 117.397C187.109 117.397 190.064 121.204 190.41 120.736C192.222 118.281 191.209 115.391 189.999 110.444C189.377 107.903 187.382 106.142 185.268 107.012C181.231 108.674 176.507 111.51 176.73 113.821Z" fill="#EFC7B0"/>
<path d="M358.324 197.535C368.58 197.535 376.896 189.221 376.896 178.964C376.896 168.707 368.58 160.393 358.324 160.393C348.068 160.393 339.752 168.707 339.752 178.964C339.752 189.221 348.068 197.535 358.324 197.535Z" fill="#FFDBB0"/>
<path opacity="0.08" d="M319.742 255.038H244.414C240.748 255.038 237.774 252.066 237.774 248.398C237.774 244.73 240.748 241.756 244.414 241.756H319.742C323.41 241.756 326.384 244.73 326.384 248.398C326.384 252.066 323.41 255.038 319.742 255.038Z" fill="#C9A992"/>
<path opacity="0.08" d="M356.586 255.038H342.46C338.792 255.038 335.818 252.066 335.818 248.398C335.818 244.73 338.792 241.756 342.46 241.756H356.586C360.254 241.756 363.226 244.73 363.226 248.398C363.226 252.066 360.254 255.038 356.586 255.038Z" fill="#C9A992"/>
<path opacity="0.08" d="M224.402 255.038C220.734 255.038 217.762 252.066 217.762 248.398C217.762 244.73 220.734 241.756 224.402 241.756C228.07 241.756 231.042 244.73 231.042 248.398C231.042 252.066 228.07 255.038 224.402 255.038Z" fill="#C9A992"/>
<path d="M201.832 143.388C201.72 143.388 201.614 143.32 201.57 143.21L195.316 127.403C195.259 127.258 195.33 127.095 195.474 127.038C195.616 126.98 195.782 127.052 195.839 127.196L202.094 143.003C202.152 143.148 202.08 143.311 201.936 143.368C201.902 143.382 201.868 143.388 201.832 143.388Z" fill="#2F2933"/>
<path opacity="0.08" d="M345.298 71.87C335.858 70.6056 342.04 72.5544 291.52 75.5444C236.734 78.7868 278.872 73.571 231.312 74.1868C224.996 74.2686 215.628 74.4724 213.706 70.0166C212.104 66.3032 215.842 59.7448 221.118 57.0424C229.796 52.5988 236.012 61.9746 248.458 59.8226C259.726 57.874 259.28 49.3816 271.162 46.8486C282.04 44.5294 285.204 51.054 298.5 50.0922C310.604 49.2166 310.972 43.593 322.594 41.2884C335.232 38.7824 338.65 44.6662 367.076 51.9456C388.044 57.3148 399.37 57.4904 399.976 62.1394C400.556 66.6038 390.734 71.207 389.318 71.87C374.35 78.8834 361.058 73.9804 345.298 71.87Z" fill="#2F2933"/>
<path d="M320.42 41.4886C320.42 41.4886 293.09 5.45898 195.547 5.45898C98.0036 5.45898 70.6726 41.4886 70.6726 41.4886H320.42Z" fill="#FFDBB0"/>
<path d="M195.548 80.0378C194.771 80.0378 194.141 79.408 194.141 78.6312V35.9164C194.141 35.1394 194.771 34.5098 195.548 34.5098C196.325 34.5098 196.954 35.1394 196.954 35.9164V78.6312C196.954 79.408 196.325 80.0378 195.548 80.0378Z" fill="#FFDBB0"/>
<path d="M256.336 163.249C245.28 162.962 237.244 169.883 228.962 162.439C225.474 159.304 223.308 152.412 221.962 144.951C219.656 132.167 219.756 117.729 219.756 117.729L234.706 110.364V103.629L247.58 102.492V108.62C247.58 108.62 260.842 112.457 264.81 116.176C269.968 121.009 267.398 163.541 256.336 163.249Z" fill="#2F2933"/>
<path d="M301.316 165.027C301.43 165.068 301.472 165.073 301.5 165.072C301.528 165.009 298.568 155.151 298.012 152.377C297.456 149.592 296.99 146.733 296.588 143.855C296.388 142.416 296.202 140.97 296.036 139.525L295.798 137.363C295.728 136.66 295.648 135.894 295.606 135.276V135.276L294.814 130.843L290.884 128.713L264.464 114.398C259.956 111.956 254.322 113.63 251.878 118.138C249.436 122.647 251.11 128.281 255.618 130.724L279.502 145.978C279.684 146.556 279.854 147.136 280.038 147.712C281.016 150.741 282.064 153.759 283.24 156.788C284.428 159.821 285.71 162.848 287.386 165.974C288.248 167.545 289.174 169.134 290.518 170.856C291.204 171.718 291.994 172.628 293.148 173.583C293.764 174.069 294.424 174.553 295.342 175.004C296.248 175.448 297.368 175.835 298.654 175.955C302.02 176.34 309.37 173.752 309.756 170.387C310.088 167.483 303.966 165.949 301.316 165.027Z" fill="#EFC7B0"/>
<path d="M308.72 168.444C308.57 168.444 308.446 168.328 308.438 168.178C308.43 168.023 308.55 167.89 308.704 167.882C309.118 167.859 309.864 167.714 310.096 167.421C310.156 167.345 310.174 167.267 310.156 167.167C309.788 166.682 304.72 165.812 300.04 165.271C299.886 165.253 299.776 165.114 299.792 164.959C299.812 164.805 299.95 164.699 300.104 164.712C304.846 165.259 310.534 166.112 310.71 167.065C310.756 167.324 310.696 167.567 310.536 167.77C310.072 168.358 308.87 168.436 308.734 168.443C308.73 168.444 308.724 168.444 308.72 168.444Z" fill="#2F2933"/>
<path d="M308.466 170.686C307.818 170.686 307.182 170.664 306.652 170.638C306.498 170.631 306.378 170.499 306.386 170.344C306.392 170.189 306.506 170.067 306.68 170.077C309.116 170.193 311.374 170.041 311.602 169.739C311.702 169.512 311.646 169.375 311.594 169.293C311.246 168.74 309.64 168.478 308.71 168.443C308.554 168.437 308.432 168.307 308.438 168.152C308.446 167.997 308.586 167.883 308.73 167.881C309.008 167.891 311.452 168.01 312.07 168.994C312.196 169.197 312.308 169.531 312.114 169.973C311.862 170.544 310.124 170.686 308.466 170.686Z" fill="#2F2933"/>
<path d="M309.498 172.794C308.268 172.794 306.946 172.67 306.124 172.577C305.968 172.559 305.858 172.419 305.876 172.265C305.892 172.11 306.034 172.001 306.186 172.017C309.102 172.348 311.858 172.26 311.964 171.834C312.018 171.621 311.99 171.452 311.878 171.303C311.518 170.826 310.42 170.689 310.028 170.676C309.872 170.671 309.75 170.541 309.756 170.386C309.762 170.231 309.894 170.126 310.046 170.113C310.218 170.119 311.74 170.188 312.326 170.963C312.54 171.247 312.604 171.595 312.51 171.97C312.35 172.611 310.992 172.794 309.498 172.794Z" fill="#2F2933"/>
<path d="M308.96 175.126C306.644 175.126 303.538 174.841 301.322 174.6C301.168 174.583 301.056 174.444 301.074 174.29C301.09 174.135 301.24 174.026 301.384 174.041C305.954 174.538 311.16 174.775 311.61 174.294C311.664 174.172 311.67 174.046 311.618 173.909C311.448 173.471 310.748 173.098 310.49 172.991C310.348 172.931 310.28 172.766 310.338 172.623C310.398 172.48 310.564 172.411 310.706 172.471C310.824 172.52 311.856 172.965 312.142 173.706C312.25 173.983 312.238 174.275 312.11 174.548C311.91 174.975 310.644 175.126 308.96 175.126Z" fill="#2F2933"/>
<path d="M300.558 179.228C300.054 179.228 299.596 179.202 299.206 179.145C295.39 178.589 293.582 176.347 290.842 172.953L290.806 172.908C288.02 169.455 286.184 163.99 286.166 163.935C286.116 163.788 286.196 163.628 286.344 163.579C286.494 163.529 286.65 163.611 286.7 163.757C286.716 163.811 288.522 169.182 291.244 172.554L291.28 172.6C294.03 176.007 295.69 178.064 299.288 178.588C302.492 179.057 307.608 177.694 308.228 177.047C306.906 176.382 304.212 176.119 304.184 176.117L304.076 176.106L303.098 175.028C302.992 174.913 303.002 174.735 303.116 174.631C303.232 174.527 303.41 174.535 303.514 174.65L304.346 175.568C304.894 175.626 307.296 175.912 308.514 176.557C308.904 176.763 308.838 177.07 308.81 177.159C308.462 178.222 303.668 179.228 300.558 179.228Z" fill="#2F2933"/>
<path d="M180.772 120.711C179.458 120.795 177.415 116.474 176.817 115.14C176.753 114.999 176.817 114.832 176.959 114.769C177.099 114.706 177.267 114.769 177.331 114.91C178.478 117.469 180.099 120.191 180.727 120.151C180.73 120.151 180.733 120.15 180.736 120.15C180.772 120.146 180.812 120.133 180.858 120.067C181.255 119.484 180.825 118.27 180.461 116.931C180.42 116.781 180.508 116.627 180.658 116.586C180.807 116.545 180.962 116.633 181.004 116.783C181.108 117.163 181.996 119.398 181.322 120.384C181.193 120.574 181.011 120.687 180.796 120.71C180.788 120.71 180.779 120.711 180.772 120.711Z" fill="#2F2933"/>
<path d="M184.461 122.569C184.328 122.578 184.191 122.557 184.054 122.508C182.347 121.89 180.651 117.56 180.463 116.94C180.418 116.791 180.502 116.634 180.651 116.589C180.801 116.541 180.957 116.628 181.001 116.776C181.49 118.386 183.023 121.536 184.246 121.979C184.386 122.03 184.503 122.017 184.625 121.936C184.959 121.717 184.457 117.717 183.571 115.398C183.516 115.253 183.588 115.09 183.733 115.035C183.881 114.978 184.042 115.053 184.097 115.197C184.654 116.656 185.852 121.803 184.934 122.406C184.785 122.504 184.626 122.559 184.461 122.569Z" fill="#2F2933"/>
<path d="M187.764 121.861C187.653 121.868 187.538 121.857 187.421 121.828C185.829 121.428 183.809 115.866 183.584 115.425C183.513 115.287 183.568 115.117 183.707 115.046C183.843 114.975 184.014 115.031 184.085 115.169C184.665 116.303 186.419 120.996 187.558 121.282C187.706 121.319 187.827 121.302 187.936 121.227C188.96 120.516 187.634 116.764 187.068 115.162C186.92 114.743 186.801 114.406 186.741 114.194C186.699 114.045 186.786 113.89 186.936 113.847C187.082 113.809 187.24 113.891 187.283 114.042C187.34 114.245 187.455 114.57 187.598 114.974C188.583 117.76 189.528 120.808 188.256 121.689C188.108 121.792 187.941 121.85 187.764 121.861Z" fill="#2F2933"/>
<path d="M190.315 121.045C190.217 121.051 190.102 121.035 189.974 120.976C188.65 120.364 186.934 114.828 186.743 114.198C186.697 114.05 186.781 113.893 186.93 113.848C187.08 113.8 187.236 113.887 187.281 114.035C187.976 116.319 189.385 120.084 190.21 120.465C190.267 120.492 190.289 120.483 190.298 120.478C191.635 119.897 190.657 114.059 189.727 110.516C189.688 110.366 189.778 110.212 189.928 110.173C190.076 110.13 190.232 110.222 190.271 110.373C192.678 119.539 190.903 120.829 190.523 120.995C190.468 121.018 190.397 121.039 190.315 121.045Z" fill="#2F2933"/>
<path d="M250.972 93.3808C250.972 99.7756 249.486 104.406 237.08 105.897C230.73 106.659 227.814 99.7756 227.814 93.3808C227.814 86.9862 230.648 75.9766 237.042 75.9766C252.078 75.9766 250.972 86.9862 250.972 93.3808Z" fill="#EFC7B0"/>
<path d="M237.164 106.178C235.472 106.178 233.922 105.784 232.684 105.023C226.538 101.246 227.074 90.9582 229.4 83.2971C229.446 83.1487 229.6 83.0651 229.752 83.1097C229.9 83.1547 229.984 83.3119 229.938 83.4607C226.31 95.4125 229.308 102.287 232.978 104.544C234.532 105.498 236.628 105.832 238.876 105.48C241.18 105.122 244.062 104.613 245.912 103.853C246.054 103.795 246.218 103.864 246.278 104.007C246.338 104.151 246.268 104.315 246.124 104.374C244.22 105.156 241.298 105.673 238.964 106.036C238.352 106.131 237.75 106.178 237.164 106.178Z" fill="#2F2933"/>
<path d="M240.678 97.0252C243.362 97.0252 245.538 94.13 245.538 90.5584C245.538 86.987 243.362 84.0918 240.678 84.0918C237.992 84.0918 235.816 86.987 235.816 90.5584C235.816 94.13 237.992 97.0252 240.678 97.0252Z" fill="#2F2933"/>
<path d="M228.786 97.0252C231.47 97.0252 233.648 94.13 233.648 90.5584C233.648 86.987 231.47 84.0918 228.786 84.0918C226.102 84.0918 223.926 86.987 223.926 90.5584C223.926 94.13 226.102 97.0252 228.786 97.0252Z" fill="#2F2933"/>
<path d="M234.522 98.7766C234.516 98.7766 234.512 98.7766 234.506 98.7766C234.158 98.7684 233.828 98.5266 233.668 98.1602C233.544 97.876 233.53 97.5706 233.528 97.282C233.52 95.3842 233.822 93.5088 234.426 91.7082C234.476 91.561 234.636 91.4796 234.782 91.5312C234.93 91.5808 235.01 91.74 234.96 91.8874C234.374 93.6298 234.082 95.4436 234.092 97.2788C234.094 97.5178 234.102 97.748 234.182 97.9338C234.254 98.0958 234.392 98.2112 234.52 98.214C234.554 98.2238 234.628 98.1832 234.664 98.137C234.672 98.1278 234.696 98.0936 234.69 98.0672C234.648 97.9172 234.738 97.7628 234.888 97.7222C235.038 97.6816 235.192 97.7706 235.232 97.92C235.284 98.1108 235.238 98.3168 235.106 98.4844C234.966 98.6656 234.742 98.7766 234.522 98.7766Z" fill="#2F2933"/>
<path d="M237.244 101.258C237.17 101.258 237.094 101.254 237.02 101.246C236.866 101.228 236.756 101.088 236.774 100.933C236.792 100.779 236.93 100.669 237.086 100.686C237.536 100.74 238.008 100.565 238.316 100.231C238.624 99.8967 238.76 99.4127 238.67 98.9677C238.64 98.8155 238.738 98.6671 238.89 98.6363C239.04 98.6061 239.192 98.7039 239.222 98.8567C239.346 99.4753 239.158 100.148 238.73 100.612C238.354 101.022 237.8 101.258 237.244 101.258Z" fill="#2F2933"/>
<path d="M250.538 96.5518C256.632 105.194 352.61 97.0242 352.61 90.8156C352.61 88.0918 335.73 88.0918 335.73 85.368C335.73 82.6434 352.61 82.6434 352.61 79.9186C352.61 77.195 335.73 77.195 335.73 74.4712C335.73 71.7482 352.61 71.7482 352.61 69.025C352.61 66.3022 309.196 61.8848 309.196 61.8848C296.924 61.898 293.136 64.7376 284.214 66.5336C284.214 66.5336 280.246 67.3254 274.262 67.7744C252.95 69.3726 230.362 56.6236 222.044 65.0362C219.358 67.7522 218.134 72.6998 219.658 75.9756C220.008 76.7312 221.172 78.8312 226.618 80.7492C230.02 81.9474 236.53 83.5804 245.54 81.8014C245.656 83.9032 248.148 85.5108 249.494 89.0366C249.494 89.0368 248.682 93.9196 250.538 96.5518Z" fill="#2F2933"/>
<path d="M255.192 89.3895C255.192 90.9779 253.558 92.2655 251.542 92.2655C249.524 92.2655 247.89 92.3515 247.89 90.7631C247.89 90.2235 247.562 89.2541 247.89 88.6135C248.528 87.3679 250.21 86.5137 251.542 86.5137C253.558 86.5137 255.192 87.8013 255.192 89.3895Z" fill="#EFC7B0"/>
<path d="M250.146 90.2142C250.132 90.2142 250.12 90.2138 250.108 90.2116C249.954 90.1912 249.846 90.0494 249.866 89.8956C249.936 89.3824 250.332 88.929 250.832 88.7922C251.33 88.6554 251.904 88.8444 252.224 89.2506C252.32 89.3724 252.298 89.5494 252.176 89.6456C252.054 89.7412 251.878 89.7208 251.782 89.5988C251.6 89.368 251.26 89.2588 250.98 89.3352C250.696 89.4126 250.464 89.6796 250.424 89.9704C250.404 90.1116 250.284 90.2142 250.146 90.2142Z" fill="#2F2933"/>
<path d="M227.338 71.1634C227.186 71.1634 227.062 71.0436 227.056 70.8914C226.928 67.0638 227.82 64.2884 229.706 62.6416C233.174 59.6178 239.032 61.3702 245.234 63.2252C245.738 63.3756 246.246 63.5278 246.758 63.6784C258.228 67.0638 268.134 69.987 276.972 70.264C283.404 70.4694 286.92 69.2452 291.38 67.6996C295.484 66.2786 300.136 64.668 308.314 63.6692C316.158 62.7108 324.162 62.7108 332.102 63.6692C332.256 63.6878 332.366 63.828 332.348 63.9818C332.328 64.1368 332.188 64.2526 332.034 64.2274C324.138 63.2752 316.18 63.2752 308.382 64.2274C300.262 65.2192 295.642 66.8192 291.564 68.2314C287.048 69.7958 283.48 71.0304 276.954 70.8266C268.044 70.5474 258.106 67.6144 246.598 64.218C246.086 64.067 245.578 63.9148 245.074 63.7642C238.762 61.8762 233.31 60.2454 230.078 63.0658C228.324 64.5956 227.496 67.222 227.618 70.8728C227.624 71.0282 227.502 71.158 227.346 71.1634C227.344 71.1634 227.34 71.1634 227.338 71.1634Z" fill="#2F2933"/>
<path d="M143.629 33.3507C142.212 33.3507 141.489 32.3945 140.851 31.5511C140.238 30.7401 139.659 29.9747 138.522 29.9747C137.385 29.9747 136.805 30.7407 136.192 31.5511C135.554 32.3945 134.831 33.3507 133.415 33.3507C131.999 33.3507 131.275 32.3945 130.638 31.5505C130.025 30.7401 129.446 29.9747 128.31 29.9747C127.174 29.9747 126.595 30.7401 125.982 31.5511C125.344 32.3945 124.621 33.3507 123.205 33.3507C121.789 33.3507 121.066 32.3945 120.429 31.5511C119.816 30.7401 119.237 29.9747 118.101 29.9747C116.965 29.9747 116.387 30.7401 115.774 31.5511C115.137 32.3945 114.414 33.3507 112.999 33.3507C111.583 33.3507 110.861 32.3945 110.223 31.5511C109.611 30.7401 109.032 29.9747 107.896 29.9747C106.761 29.9747 106.182 30.7401 105.569 31.5511C104.932 32.3945 104.209 33.3507 102.794 33.3507C101.378 33.3507 100.656 32.3945 100.018 31.5511C99.4058 30.7407 98.8266 29.9747 97.6908 29.9747C96.555 29.9747 95.9764 30.7401 95.3632 31.5511C94.7258 32.3945 94.0034 33.3507 92.5874 33.3507C91.1714 33.3507 90.4488 32.3945 89.8114 31.5511C89.1982 30.7401 88.6196 29.9747 87.4838 29.9747C86.348 29.9747 85.7694 30.7401 85.1568 31.5511C84.5194 32.3945 83.7968 33.3507 82.3814 33.3507C80.9658 33.3507 80.2434 32.3945 79.606 31.5511C78.9932 30.7401 78.4146 29.9747 77.2788 29.9747C77.1234 29.9747 76.9976 29.8489 76.9976 29.6933C76.9976 29.5379 77.1234 29.4121 77.2788 29.4121C78.6944 29.4121 79.417 30.3681 80.0542 31.2115C80.667 32.0225 81.2456 32.7881 82.3814 32.7881C83.5172 32.7881 84.0958 32.0225 84.7084 31.2115C85.3458 30.3681 86.0684 29.4121 87.4838 29.4121C88.8998 29.4121 89.6224 30.3681 90.2598 31.2115C90.873 32.0225 91.4516 32.7881 92.5874 32.7881C93.723 32.7881 94.3016 32.0225 94.915 31.2115C95.5522 30.3681 96.2748 29.4121 97.6908 29.4121C99.1068 29.4121 99.8294 30.3681 100.467 31.2121C101.079 32.0225 101.658 32.7881 102.794 32.7881C103.93 32.7881 104.508 32.0225 105.121 31.2115C105.758 30.3681 106.481 29.4121 107.896 29.4121C109.312 29.4121 110.034 30.3681 110.672 31.2115C111.284 32.0225 111.863 32.7881 112.999 32.7881C114.135 32.7881 114.713 32.0225 115.326 31.2115C115.963 30.3681 116.686 29.4121 118.101 29.4121C119.517 29.4121 120.24 30.3681 120.877 31.2115C121.49 32.0225 122.069 32.7881 123.205 32.7881C124.341 32.7881 124.92 32.0225 125.533 31.2115C126.171 30.3681 126.894 29.4121 128.31 29.4121C129.726 29.4121 130.449 30.3681 131.086 31.2115C131.7 32.0221 132.278 32.7881 133.415 32.7881C134.551 32.7881 135.131 32.0225 135.744 31.2115C136.382 30.3681 137.105 29.4121 138.522 29.4121C139.939 29.4121 140.662 30.3681 141.3 31.2115C141.913 32.0221 142.492 32.7881 143.629 32.7881C143.785 32.7881 143.911 32.9139 143.911 33.0693C143.911 33.2249 143.785 33.3507 143.629 33.3507Z" fill="#C9A992"/>
<path d="M381.416 126.609C379.998 126.609 379.276 125.653 378.638 124.809C378.024 123.998 377.446 123.233 376.308 123.233C375.172 123.233 374.592 123.999 373.978 124.809C373.34 125.653 372.618 126.609 371.2 126.609C369.784 126.609 369.062 125.653 368.424 124.809C367.812 123.998 367.232 123.233 366.096 123.233C364.96 123.233 364.382 123.998 363.768 124.809C363.13 125.653 362.408 126.609 360.992 126.609C359.576 126.609 358.852 125.653 358.216 124.809C357.602 123.998 357.024 123.233 355.888 123.233C354.752 123.233 354.174 123.998 353.56 124.809C352.924 125.653 352.2 126.609 350.786 126.609C349.37 126.609 348.648 125.653 348.01 124.809C347.398 123.998 346.818 123.233 345.682 123.233C344.546 123.233 343.968 123.998 343.356 124.809C342.718 125.653 341.996 126.609 340.58 126.609C339.164 126.609 338.442 125.653 337.804 124.809C337.192 123.999 336.614 123.233 335.478 123.233C334.342 123.233 333.762 123.998 333.15 124.809C332.512 125.653 331.79 126.609 330.374 126.609C328.958 126.609 328.236 125.653 327.598 124.809C326.984 123.998 326.406 123.233 325.27 123.233C324.134 123.233 323.556 123.998 322.944 124.809C322.306 125.653 321.584 126.609 320.168 126.609C318.752 126.609 318.03 125.653 317.392 124.809C316.78 123.998 316.202 123.233 315.066 123.233C314.91 123.233 314.784 123.107 314.784 122.951C314.784 122.796 314.91 122.67 315.066 122.67C316.48 122.67 317.204 123.626 317.84 124.47C318.454 125.281 319.032 126.046 320.168 126.046C321.304 126.046 321.882 125.281 322.494 124.47C323.132 123.626 323.854 122.67 325.27 122.67C326.686 122.67 327.408 123.626 328.046 124.47C328.66 125.281 329.238 126.046 330.374 126.046C331.51 126.046 332.088 125.281 332.702 124.47C333.338 123.626 334.062 122.67 335.478 122.67C336.894 122.67 337.616 123.626 338.254 124.47C338.866 125.281 339.444 126.046 340.58 126.046C341.716 126.046 342.294 125.281 342.908 124.47C343.544 123.626 344.268 122.67 345.682 122.67C347.098 122.67 347.82 123.626 348.458 124.47C349.07 125.281 349.65 126.046 350.786 126.046C351.92 126.046 352.5 125.281 353.112 124.47C353.75 123.626 354.472 122.67 355.888 122.67C357.304 122.67 358.026 123.626 358.664 124.47C359.276 125.281 359.856 126.046 360.992 126.046C362.128 126.046 362.706 125.281 363.32 124.47C363.958 123.626 364.68 122.67 366.096 122.67C367.512 122.67 368.236 123.626 368.872 124.47C369.486 125.28 370.064 126.046 371.2 126.046C372.338 126.046 372.916 125.281 373.53 124.47C374.168 123.626 374.892 122.67 376.308 122.67C377.724 122.67 378.448 123.626 379.086 124.47C379.7 125.28 380.278 126.046 381.416 126.046C381.572 126.046 381.698 126.172 381.698 126.327C381.698 126.483 381.572 126.609 381.416 126.609Z" fill="#2F2933"/>
<path d="M294.7 92.7774C294.052 92.7774 293.414 92.729 292.784 92.6312C290.354 92.2548 288.88 91.3038 287.456 90.3834C285.988 89.4344 284.6 88.5388 282.282 88.4838C279.364 88.413 277.34 89.736 275.556 90.902C273.728 92.0966 272 93.2252 269.752 92.5152C268.322 92.0652 267.7 91.1938 266.982 90.1856C266.234 89.1372 265.302 87.8332 263.096 86.5292C261.588 85.6386 261.808 85.1154 263.382 86.0446C265.69 87.409 266.66 88.7674 267.44 89.8586C268.154 90.8608 268.672 91.585 269.922 91.979C271.918 92.606 273.46 91.5994 275.246 90.4312C277.1 89.2206 279.22 87.8668 282.296 87.9212C284.772 87.98 286.224 88.9178 287.76 89.9108C289.136 90.7988 290.558 91.7174 292.87 92.0752C296.622 92.6538 300.708 91.4196 305.01 88.398C305.138 88.309 305.314 88.3392 305.402 88.4668C305.492 88.5936 305.462 88.7696 305.334 88.8586C301.624 91.4642 298.056 92.7774 294.7 92.7774Z" fill="white"/>
<path d="M34.7194 54.4885C44.976 54.4885 53.2908 46.1739 53.2908 35.9171C53.2908 25.6605 44.976 17.3457 34.7194 17.3457C24.4626 17.3457 16.1479 25.6605 16.1479 35.9171C16.1479 46.1739 24.4626 54.4885 34.7194 54.4885Z" fill="#152029"/>
<path d="M363.154 202.893C352.758 202.893 344.302 194.436 344.302 184.04C344.302 173.645 352.758 165.188 363.154 165.188C373.55 165.188 382.006 173.645 382.006 184.04C382.006 194.436 373.55 202.893 363.154 202.893ZM363.154 165.75C353.068 165.75 344.864 173.955 344.864 184.04C344.864 194.126 353.068 202.329 363.154 202.329C373.24 202.329 381.444 194.126 381.444 184.04C381.444 173.955 373.24 165.75 363.154 165.75Z" fill="#C9A992"/>
<path d="M268.754 19.7794H255.398V6.42383H268.754V19.7794ZM255.962 19.2167H268.192V6.98649H255.962V19.2167Z" fill="#C9A992"/>
<path d="M26.7944 147.479H13.4395V134.123H26.7944V147.479ZM14.0021 146.916H26.2318V134.686H14.0021V146.916Z" fill="#FFDBB0"/>
<path d="M222.864 87.2701C222.738 87.2701 222.626 87.1877 222.592 87.0625C222.256 85.8305 222.928 84.2177 224.188 83.2277C225.436 82.2489 227.158 82.0177 228.192 82.6913C228.322 82.7759 228.358 82.9501 228.274 83.0803C228.19 83.2111 228.014 83.2479 227.884 83.1627C227.042 82.6165 225.602 82.8337 224.536 83.6705C223.464 84.5129 222.86 85.9075 223.134 86.9151C223.176 87.0647 223.086 87.2195 222.936 87.2603C222.912 87.2669 222.888 87.2701 222.864 87.2701Z" fill="#2F2933"/>
<path d="M246.354 87.0632C246.33 87.0632 246.308 87.0606 246.284 87.055C246.134 87.0172 246.042 86.8644 246.08 86.7138C246.324 85.7386 245.65 84.4478 244.51 83.7114C243.366 82.9708 241.85 82.8548 240.986 83.4422C240.86 83.5296 240.684 83.4978 240.596 83.368C240.508 83.2394 240.542 83.0648 240.67 82.9774C241.726 82.2582 243.47 82.3686 244.816 83.239C246.148 84.1 246.926 85.6522 246.626 86.85C246.594 86.9782 246.48 87.0632 246.354 87.0632Z" fill="#2F2933"/>
<path d="M270.634 279.525L265.542 283.281L271.964 291.991L277.056 288.237L270.634 279.525Z" fill="#FFDBB0"/>
<path d="M269.016 288.204C268.93 288.204 268.844 288.164 268.79 288.09C268.698 287.964 268.724 287.788 268.848 287.696L273.874 283.992C273.998 283.9 274.174 283.926 274.266 284.052C274.36 284.176 274.332 284.352 274.208 284.446L269.182 288.15C269.132 288.186 269.074 288.204 269.016 288.204Z" fill="#2F2933"/>
<path d="M267.942 286.747C267.856 286.747 267.77 286.707 267.716 286.633C267.624 286.507 267.65 286.331 267.776 286.239L272.8 282.535C272.926 282.443 273.1 282.469 273.194 282.595C273.286 282.719 273.258 282.895 273.134 282.987L268.11 286.691C268.058 286.729 268 286.747 267.942 286.747Z" fill="#2F2933"/>
<path d="M262.29 301.629C262.656 302.125 263.36 302.221 263.846 301.843L278.456 290.461C278.814 290.181 278.962 289.709 278.83 289.275L277.476 286.687C277.338 286.237 276.926 285.927 276.456 285.915L275.902 285.903C275.54 285.893 275.198 286.065 274.986 286.359L273.034 289.085C272.862 289.325 272.6 289.487 272.308 289.531L269.784 289.911C269.484 289.957 269.214 290.127 269.042 290.379L262.266 300.365C262.006 300.749 262.016 301.255 262.29 301.629Z" fill="#2F2933"/>
<path d="M269.014 290.591C269.014 290.591 262.922 287.451 262.16 289.609C261.398 291.767 269.014 290.591 269.014 290.591Z" fill="#2F2933"/>
<path d="M263.752 294.529C263.736 294.529 263.722 294.529 263.708 294.529C263.292 294.519 262.952 294.358 262.7 294.052C262.392 293.68 262.424 293.334 262.502 293.11C263.058 291.542 268.358 290.437 268.96 290.315L269.808 290.145L269.222 290.783C269.08 290.937 265.754 294.529 263.752 294.529ZM268.158 291.069C266.04 291.573 263.328 292.469 263.034 293.299C263.002 293.389 262.984 293.512 263.134 293.694C263.28 293.87 263.472 293.958 263.722 293.966C263.734 293.966 263.744 293.966 263.754 293.966C264.948 293.966 266.966 292.24 268.158 291.069Z" fill="#2F2933"/>
<path d="M248.95 166.598L228.224 167.475C228.224 167.475 226.558 171.023 225.674 173.846C224.79 176.669 222.302 226.052 223.882 230.79C225.462 235.526 265.36 285.766 265.36 285.766L271.918 280.666L247.32 231.154L248.8 185.46" fill="#152029"/>
<path d="M265.36 286.047C265.278 286.047 265.196 286.009 265.14 285.939C263.51 283.887 225.192 235.607 223.614 230.877C221.864 225.631 224.664 176.122 225.404 173.761C226.284 170.952 227.954 167.391 227.97 167.355C228.036 167.215 228.204 167.154 228.344 167.22C228.486 167.286 228.546 167.454 228.48 167.595C228.462 167.63 226.81 171.157 225.942 173.929C225.248 176.143 222.52 225.821 224.148 230.699C225.696 235.335 265.182 285.087 265.58 285.591C265.678 285.711 265.658 285.889 265.536 285.985C265.484 286.027 265.422 286.047 265.36 286.047Z" fill="#2F2933"/>
<path d="M241.204 234.896C241.106 234.896 241.012 234.844 240.958 234.754C240.882 234.618 240.93 234.446 241.066 234.37L247.182 230.908C247.314 230.832 247.488 230.878 247.564 231.014C247.642 231.15 247.594 231.322 247.458 231.398L241.342 234.86C241.3 234.884 241.252 234.896 241.204 234.896Z" fill="#2F2933"/>
<path d="M264.184 287.337L273.692 279.337L271.918 276.621L262.222 285.765L264.184 287.337Z" fill="#2F2933"/>
<path d="M286.322 209.785L292.398 211.553L295.422 201.161L289.346 199.393L286.322 209.785Z" fill="#FFDBB0"/>
<path d="M293.976 206.255C293.952 206.255 293.924 206.253 293.898 206.245L287.906 204.501C287.756 204.457 287.67 204.301 287.714 204.151C287.758 204.003 287.91 203.915 288.062 203.959L294.056 205.703C294.204 205.747 294.29 205.903 294.248 206.053C294.212 206.175 294.098 206.255 293.976 206.255Z" fill="#2F2933"/>
<path d="M293.472 207.991C293.446 207.991 293.42 207.987 293.392 207.979L287.4 206.235C287.25 206.193 287.164 206.035 287.208 205.887C287.252 205.737 287.406 205.651 287.556 205.695L293.55 207.439C293.7 207.483 293.786 207.639 293.742 207.789C293.706 207.911 293.594 207.991 293.472 207.991Z" fill="#2F2933"/>
<path d="M308.95 202.997C309.124 202.405 308.772 201.787 308.176 201.631L290.262 196.93C289.824 196.815 289.358 196.984 289.094 197.354L287.86 199.999C287.586 200.383 287.588 200.899 287.864 201.279L288.19 201.727C288.404 202.019 288.748 202.189 289.11 202.177L292.462 202.075C292.758 202.065 293.044 202.175 293.256 202.381L295.09 204.153C295.31 204.365 295.608 204.477 295.912 204.459L307.962 203.783C308.424 203.757 308.822 203.443 308.95 202.997Z" fill="#2F2933"/>
<path d="M297.136 202.893C297.136 202.893 301.726 207.983 299.834 209.271C297.942 210.557 297.136 202.893 297.136 202.893Z" fill="#2F2933"/>
<path d="M295.856 209.988C295.72 209.988 295.568 209.958 295.398 209.88C295.04 209.714 294.798 209.428 294.682 209.028C294.122 207.11 296.786 202.918 296.898 202.74L297.366 202.012L297.416 202.874C297.454 203.488 297.734 208.894 296.36 209.83C296.24 209.914 296.07 209.988 295.856 209.988ZM296.892 203.842C296.058 205.308 294.888 207.728 295.222 208.87C295.292 209.11 295.426 209.274 295.634 209.37C295.848 209.468 295.964 209.42 296.042 209.366C296.77 208.87 296.946 206.02 296.892 203.842Z" fill="#2F2933"/>
<path opacity="0.08" d="M260.096 167.476C260.096 167.476 264.962 170.864 265.692 172.754C266.42 174.643 282.422 225.61 282.422 225.61L274.59 234.868L250.642 192.175L242.988 176.016V166.129L260.096 167.476Z" fill="#2F2933"/>
<path d="M293.8 211.314C293.8 211.314 291.868 234.114 288.224 237.394C284.58 240.674 282.97 243.645 270.826 238.545C265.09 236.135 257.172 224.452 251.878 210.806C245.968 195.572 242.988 178.355 242.988 178.355V176.014V166.129L259.084 165.471C259.084 165.471 264.962 170.863 265.69 172.752C265.03 171.043 278.822 207.312 281.032 220.06L285.154 209.666L293.8 211.314Z" fill="#152029"/>
<path d="M279.234 224.671C279.198 224.671 279.164 224.663 279.13 224.649C278.986 224.593 278.914 224.427 278.974 224.285L284.894 209.559C284.952 209.415 285.116 209.345 285.26 209.403C285.404 209.461 285.474 209.625 285.416 209.769L279.496 224.493C279.452 224.603 279.346 224.671 279.234 224.671Z" fill="#2F2933"/>
<path d="M270.828 238.823C270.792 238.823 270.754 238.817 270.718 238.801C265.608 236.655 258.216 231.459 250.966 212.261C245.582 198.005 242.758 178.567 242.718 178.429C242.676 178.28 242.762 178.124 242.912 178.082C243.062 178.037 243.216 178.126 243.258 178.275C243.336 178.549 246.128 197.812 251.506 212.053C256.932 226.421 264.97 235.777 270.936 238.283C271.08 238.343 271.148 238.509 271.086 238.651C271.042 238.759 270.938 238.823 270.828 238.823Z" fill="#2F2933"/>
<path d="M255.496 182.389C254.664 182.389 253.968 182.095 253.422 181.514C251.414 179.376 252.174 174.033 252.206 173.806C252.23 173.653 252.374 173.55 252.526 173.569C252.68 173.592 252.786 173.734 252.764 173.888C252.756 173.94 252.01 179.189 253.832 181.129C254.328 181.657 254.958 181.884 255.762 181.815L260.33 181.434C260.476 181.423 260.62 181.536 260.634 181.691C260.646 181.846 260.532 181.982 260.376 181.995L255.808 182.376C255.702 182.384 255.598 182.389 255.496 182.389Z" fill="#2F2933"/>
<path d="M276.9 232.169C276.094 232.169 275.29 232.065 274.508 231.831C270.246 230.555 257.012 187.123 255.516 182.175C255.472 182.026 255.556 181.87 255.704 181.825C255.852 181.779 256.01 181.864 256.054 182.013C260.094 195.378 271.31 230.287 274.67 231.291C278.744 232.511 283.848 229.853 285.714 227.411C285.808 227.287 285.984 227.263 286.108 227.357C286.232 227.451 286.256 227.629 286.162 227.751C284.574 229.829 280.716 232.169 276.9 232.169Z" fill="#2F2933"/>
<path d="M294.524 210.011L284.864 207.879L283.892 210.227L294.146 212.497L294.524 210.011Z" fill="#2F2933"/>
<path d="M280.27 292.329C280.208 292.329 280.144 292.307 280.092 292.265C279.972 292.167 279.954 291.989 280.052 291.869C281.608 289.971 280.978 289.351 280.97 289.345C280.86 289.243 280.846 289.067 280.944 288.953C281.042 288.837 281.21 288.817 281.328 288.911C281.356 288.933 281.608 289.145 281.658 289.613C281.732 290.309 281.34 291.187 280.488 292.225C280.432 292.293 280.352 292.329 280.27 292.329Z" fill="#2F2933"/>
<path d="M287.756 197.017C287.738 197.017 287.72 197.015 287.7 197.011C287.548 196.98 287.45 196.833 287.482 196.681C287.488 196.647 287.658 195.835 288.418 195.432C289.026 195.109 289.818 195.146 290.766 195.545C290.91 195.605 290.976 195.77 290.916 195.913C290.856 196.056 290.688 196.123 290.548 196.064C289.766 195.735 289.142 195.689 288.688 195.926C288.162 196.2 288.034 196.787 288.032 196.793C288.004 196.925 287.888 197.017 287.756 197.017Z" fill="#2F2933"/>
<path d="M270.582 175.213C270.466 175.213 270.356 175.141 270.316 175.025L268.038 168.502C267.986 168.355 268.064 168.194 268.21 168.143C268.358 168.091 268.518 168.17 268.568 168.316L270.846 174.839C270.898 174.986 270.822 175.146 270.674 175.197C270.644 175.208 270.612 175.213 270.582 175.213Z" fill="#2F2933"/>
<path d="M297.718 139.756C297.716 139.756 297.714 139.756 297.712 139.756C297.556 139.752 297.434 139.623 297.436 139.468L297.664 129.322L292.068 125.816C291.936 125.734 291.896 125.56 291.978 125.428C292.062 125.297 292.234 125.258 292.366 125.339L298.234 129.015L298 139.48C297.996 139.634 297.87 139.756 297.718 139.756Z" fill="#2F2933"/>
<path d="M178.936 260.456H50.7113C45.5635 260.456 41.3903 256.284 41.3903 251.136C41.3903 245.988 45.5635 241.814 50.7113 241.814H178.936C184.084 241.814 188.257 245.988 188.257 251.136C188.257 256.284 184.084 260.456 178.936 260.456Z" fill="#C9A992"/>
<path d="M178.936 283.81H50.7113C45.5635 283.81 41.3903 279.636 41.3903 274.488C41.3903 269.34 45.5635 265.168 50.7113 265.168H178.936C184.084 265.168 188.257 269.34 188.257 274.488C188.257 279.636 184.084 283.81 178.936 283.81Z" fill="#152029"/>
<path d="M162.754 272.024H31.1198C26.7652 272.024 23.2222 268.482 23.2222 264.126V260.718C23.2222 256.362 26.7652 252.82 31.1198 252.82H162.754C167.109 252.82 170.652 256.362 170.652 260.718V264.126C170.652 268.482 167.109 272.024 162.754 272.024ZM31.1198 253.382C27.0752 253.382 23.7848 256.672 23.7848 260.718V264.126C23.7848 268.172 27.0752 271.462 31.1198 271.462H162.754C166.799 271.462 170.089 268.172 170.089 264.126V260.718C170.089 256.672 166.799 253.382 162.754 253.382H31.1198Z" fill="#2F2933"/>
<path d="M70.3548 221.285H27.8086V226.947H70.3548V221.285Z" fill="#152029"/>
<path opacity="0.08" d="M62.6624 212.941H20.1162V218.603H62.6624V212.941Z" fill="#2F2933"/>
<path d="M183.359 234.514H46.2885C43.5833 234.514 41.3903 232.322 41.3903 229.616V177.717C41.3903 175.011 43.5833 172.818 46.2885 172.818H183.359C186.064 172.818 188.257 175.011 188.257 177.717V229.616C188.257 232.322 186.064 234.514 183.359 234.514Z" fill="#FFDBB0"/>
<path d="M172.76 200.547H52.6692C50.6494 200.547 49.012 198.91 49.012 196.89C49.012 194.87 50.6494 193.232 52.6692 193.232H172.76C174.78 193.232 176.417 194.87 176.417 196.89C176.417 198.91 174.78 200.547 172.76 200.547Z" fill="black" fill-opacity="0.26"/>
<path d="M172.76 209.374H52.6694C51.737 209.374 50.9814 208.618 50.9814 207.686C50.9814 206.754 51.737 205.998 52.6694 205.998H172.76C173.692 205.998 174.448 206.754 174.448 207.686C174.448 208.618 173.692 209.374 172.76 209.374Z" fill="black" fill-opacity="0.26"/>
<path d="M107.743 222.14H75.667C73.6472 222.14 72.0098 220.502 72.0098 218.482C72.0098 216.462 73.6472 214.826 75.667 214.826H107.743C109.763 214.826 111.4 216.462 111.4 218.482C111.4 220.502 109.763 222.14 107.743 222.14Z" fill="#152029"/>
<path opacity="0.08" d="M153.98 222.14H121.904C119.885 222.14 118.247 220.502 118.247 218.482C118.247 216.462 119.885 214.826 121.904 214.826H153.98C156 214.826 157.637 216.462 157.637 218.482C157.637 220.502 156 222.14 153.98 222.14Z" fill="#2F2933"/>
<path d="M54.0676 183.95C55.3046 183.95 56.3072 182.947 56.3072 181.71C56.3072 180.473 55.3046 179.471 54.0676 179.471C52.8306 179.471 51.8278 180.473 51.8278 181.71C51.8278 182.947 52.8306 183.95 54.0676 183.95Z" fill="#C9A992"/>
<path d="M61.6681 183.95C62.9049 183.95 63.9077 182.947 63.9077 181.71C63.9077 180.473 62.9049 179.471 61.6681 179.471C60.4311 179.471 59.4283 180.473 59.4283 181.71C59.4283 182.947 60.4311 183.95 61.6681 183.95Z" fill="#152029"/>
<path d="M194.935 216.79H181.579V203.434H194.935V216.79ZM182.142 216.226H194.372V203.996H182.142V216.226Z" fill="#2F2933"/>
<path d="M167.183 162.069C165.766 162.069 165.043 161.113 164.405 160.27C163.792 159.459 163.212 158.693 162.075 158.693C160.938 158.693 160.359 159.459 159.746 160.27C159.108 161.113 158.385 162.069 156.968 162.069C155.552 162.069 154.829 161.113 154.192 160.27C153.579 159.459 153 158.693 151.864 158.693C150.727 158.693 150.148 159.459 149.535 160.27C148.898 161.113 148.175 162.069 146.758 162.069C145.342 162.069 144.619 161.113 143.981 160.269C143.369 159.459 142.79 158.693 141.654 158.693C140.519 158.693 139.94 159.459 139.327 160.27C138.69 161.113 137.967 162.069 136.552 162.069C135.137 162.069 134.414 161.113 133.777 160.27C133.164 159.459 132.585 158.693 131.45 158.693C130.314 158.693 129.735 159.459 129.122 160.27C128.485 161.113 127.763 162.069 126.347 162.069C124.932 162.069 124.209 161.113 123.572 160.27C122.959 159.459 122.38 158.693 121.244 158.693C120.108 158.693 119.53 159.459 118.916 160.27C118.279 161.113 117.557 162.069 116.141 162.069C114.725 162.069 114.002 161.113 113.364 160.269C112.752 159.459 112.173 158.693 111.038 158.693C109.902 158.693 109.323 159.459 108.71 160.27C108.073 161.113 107.35 162.069 105.935 162.069C104.519 162.069 103.797 161.113 103.159 160.27C102.546 159.459 101.968 158.693 100.832 158.693C100.677 158.693 100.551 158.568 100.551 158.412C100.551 158.257 100.677 158.131 100.832 158.131C102.248 158.131 102.97 159.087 103.608 159.93C104.22 160.741 104.799 161.507 105.935 161.507C107.07 161.507 107.649 160.741 108.261 159.931C108.899 159.087 109.622 158.131 111.038 158.131C112.453 158.131 113.176 159.087 113.813 159.93C114.426 160.741 115.005 161.507 116.141 161.507C117.276 161.507 117.855 160.741 118.468 159.93C119.106 159.087 119.828 158.131 121.244 158.131C122.66 158.131 123.383 159.087 124.021 159.931C124.633 160.741 125.211 161.507 126.347 161.507C127.483 161.507 128.061 160.741 128.674 159.93C129.312 159.087 130.034 158.131 131.45 158.131C132.865 158.131 133.588 159.087 134.225 159.93C134.838 160.741 135.416 161.507 136.552 161.507C137.688 161.507 138.266 160.741 138.879 159.93C139.516 159.087 140.239 158.131 141.654 158.131C143.07 158.131 143.793 159.087 144.43 159.93C145.044 160.741 145.622 161.507 146.758 161.507C147.895 161.507 148.473 160.741 149.087 159.93C149.724 159.087 150.447 158.131 151.864 158.131C153.28 158.131 154.003 159.087 154.64 159.931C155.253 160.741 155.832 161.507 156.968 161.507C158.105 161.507 158.684 160.741 159.298 159.93C159.936 159.087 160.659 158.131 162.075 158.131C163.492 158.131 164.215 159.087 164.853 159.93C165.467 160.741 166.046 161.507 167.183 161.507C167.338 161.507 167.464 161.633 167.464 161.788C167.464 161.944 167.338 162.069 167.183 162.069Z" fill="#2F2933"/>
<path d="M74.3612 177.785C84.1278 177.785 92.0454 169.867 92.0454 160.1C92.0454 150.334 84.1278 142.416 74.3612 142.416C64.5944 142.416 56.6768 150.334 56.6768 160.1C56.6768 169.867 64.5944 177.785 74.3612 177.785Z" fill="#152029"/>
<path d="M71.859 177.33C61.9524 177.33 53.8934 169.271 53.8934 159.364C53.8934 149.458 61.9524 141.398 71.859 141.398C81.7656 141.398 89.8248 149.458 89.8248 159.364C89.8248 169.271 81.7656 177.33 71.859 177.33ZM71.859 141.961C62.263 141.961 54.456 149.768 54.456 159.364C54.456 168.96 62.263 176.767 71.859 176.767C81.455 176.767 89.262 168.96 89.262 159.364C89.262 149.768 81.455 141.961 71.859 141.961Z" fill="#C9A992"/>
<path d="M67.2679 151.537L78.5655 159.988L73.3473 159.895L98.9147 137.983C99.4877 137.492 100.351 137.559 100.842 138.132C101.292 138.657 101.273 139.425 100.826 139.928L78.4747 165.112L75.5315 168.428L73.2563 165.019L65.4241 153.285C65.0291 152.693 65.1887 151.892 65.7807 151.497C66.2465 151.186 66.8431 151.221 67.2679 151.537Z" fill="#C9A992"/>
<path d="M193.749 177.555C193.734 177.555 193.718 177.554 193.702 177.552C193.549 177.526 193.446 177.381 193.471 177.228C193.808 175.193 192.941 172.974 191.314 171.707C189.685 170.44 187.322 170.144 185.432 170.97C185.29 171.033 185.124 170.968 185.061 170.825C184.999 170.683 185.064 170.517 185.206 170.455C187.28 169.547 189.873 169.873 191.659 171.263C193.445 172.653 194.396 175.087 194.026 177.32C194.003 177.458 193.884 177.555 193.749 177.555Z" fill="#2F2933"/>
<path d="M225.33 248.673H216.846C216.69 248.673 216.564 248.547 216.564 248.391C216.564 248.237 216.69 248.111 216.846 248.111H225.33C225.486 248.111 225.612 248.237 225.612 248.391C225.612 248.547 225.486 248.673 225.33 248.673Z" fill="#2F2933"/>
<path d="M324.83 254.544H305.546C305.39 254.544 305.264 254.418 305.264 254.262C305.264 254.106 305.39 253.98 305.546 253.98H324.83C324.984 253.98 325.11 254.106 325.11 254.262C325.11 254.418 324.984 254.544 324.83 254.544Z" fill="#2F2933"/>
<path d="M382.85 247.695H356.09C355.936 247.695 355.81 247.571 355.81 247.415C355.81 247.259 355.936 247.133 356.09 247.133H382.85C383.004 247.133 383.13 247.259 383.13 247.415C383.13 247.571 383.004 247.695 382.85 247.695Z" fill="#2F2933"/>
<path d="M388.26 3.85954H355.976C355.822 3.85954 355.696 3.73372 355.696 3.57822C355.696 3.42271 355.822 3.29688 355.976 3.29688H388.26C388.416 3.29688 388.542 3.42271 388.542 3.57822C388.542 3.73372 388.416 3.85954 388.26 3.85954Z" fill="#2F2933"/>
<path d="M381.418 13.9689H344.89C344.734 13.9689 344.608 13.8431 344.608 13.6876C344.608 13.5321 344.734 13.4062 344.89 13.4062H381.418C381.574 13.4062 381.7 13.5321 381.7 13.6876C381.7 13.8431 381.574 13.9689 381.418 13.9689Z" fill="#2F2933"/>
<path d="M390.784 10.7072H363.804C363.648 10.7072 363.522 10.5814 363.522 10.4259C363.522 10.2704 363.648 10.1445 363.804 10.1445H390.784C390.938 10.1445 391.064 10.2704 391.064 10.4259C391.064 10.5814 390.938 10.7072 390.784 10.7072Z" fill="#2F2933"/>
<path d="M51.3546 107.672H0.281332C0.12583 107.672 0 107.546 0 107.391C0 107.235 0.12583 107.109 0.281332 107.109H51.3546C51.5102 107.109 51.636 107.235 51.636 107.391C51.636 107.546 51.5102 107.672 51.3546 107.672Z" fill="#2F2933"/>
<path d="M93.0912 102.537H20.2608C20.1054 102.537 19.9795 102.412 19.9795 102.256C19.9795 102.101 20.1054 101.975 20.2608 101.975H93.0912C93.2468 101.975 93.3726 102.101 93.3726 102.256C93.3726 102.412 93.2468 102.537 93.0912 102.537Z" fill="#2F2933"/>
<path d="M198.216 41.9591H187.866C187.711 41.9591 187.585 41.8333 187.585 41.6779C187.585 41.5223 187.711 41.3965 187.866 41.3965H198.216C198.372 41.3965 198.498 41.5223 198.498 41.6779C198.498 41.8333 198.372 41.9591 198.216 41.9591Z" fill="#2F2933"/>
<path d="M195.547 87.2582C194.165 87.2582 193.041 86.1344 193.041 84.753C193.041 83.3717 194.165 82.248 195.547 82.248C196.928 82.248 198.052 83.3717 198.052 84.753C198.052 86.1344 196.928 87.2582 195.547 87.2582ZM195.547 82.8106C194.475 82.8106 193.604 83.6822 193.604 84.753C193.604 85.824 194.475 86.6954 195.547 86.6954C196.618 86.6954 197.489 85.824 197.489 84.753C197.489 83.6822 196.618 82.8106 195.547 82.8106Z" fill="#2F2933"/>
<path d="M259.646 167.542H227.774C226.366 167.542 225.222 166.4 225.222 164.991C225.222 163.582 226.366 162.439 227.774 162.439H259.646C261.054 162.439 262.196 163.582 262.196 164.991C262.196 166.4 261.054 167.542 259.646 167.542Z" fill="#FFDBB0"/>
<path d="M246.628 166.287C245.964 166.287 245.648 165.649 245.372 165.086C245.084 164.502 244.868 164.119 244.492 164.119C244.118 164.119 243.902 164.502 243.614 165.086C243.338 165.649 243.022 166.287 242.358 166.287C241.692 166.287 241.378 165.649 241.1 165.086C240.814 164.502 240.598 164.119 240.224 164.119C239.848 164.119 239.632 164.502 239.344 165.086C239.068 165.649 238.752 166.287 238.088 166.287C237.424 166.287 237.108 165.649 236.832 165.086C236.544 164.502 236.328 164.119 235.954 164.119C235.58 164.119 235.364 164.502 235.076 165.085C234.8 165.649 234.486 166.287 233.82 166.287C233.156 166.287 232.842 165.649 232.564 165.085C232.278 164.502 232.06 164.119 231.688 164.119C231.312 164.119 231.096 164.502 230.81 165.086C230.532 165.649 230.218 166.287 229.554 166.287C228.888 166.287 228.574 165.649 228.296 165.085C228.01 164.502 227.794 164.119 227.42 164.119C227.046 164.119 226.83 164.502 226.542 165.086C226.264 165.649 225.95 166.287 225.286 166.287C224.62 166.287 224.306 165.649 224.03 165.086C223.742 164.502 223.526 164.119 223.152 164.119C222.778 164.119 222.562 164.502 222.274 165.085C221.998 165.649 221.682 166.287 221.018 166.287C220.354 166.287 220.04 165.649 219.762 165.086C219.476 164.502 219.258 164.119 218.884 164.119C218.768 164.119 218.674 164.025 218.674 163.908C218.674 163.792 218.768 163.697 218.884 163.697C219.55 163.697 219.864 164.336 220.14 164.9C220.428 165.483 220.644 165.865 221.018 165.865C221.392 165.865 221.608 165.483 221.896 164.899C222.172 164.336 222.488 163.697 223.152 163.697C223.816 163.697 224.13 164.336 224.408 164.899C224.696 165.483 224.912 165.865 225.286 165.865C225.66 165.865 225.876 165.483 226.164 164.899C226.44 164.336 226.756 163.697 227.42 163.697C228.084 163.697 228.398 164.336 228.676 164.899C228.962 165.483 229.18 165.865 229.554 165.865C229.928 165.865 230.144 165.483 230.43 164.9C230.708 164.336 231.022 163.697 231.688 163.697C232.352 163.697 232.666 164.336 232.942 164.899C233.23 165.483 233.446 165.865 233.82 165.865C234.194 165.865 234.41 165.483 234.698 164.9C234.976 164.336 235.288 163.697 235.954 163.697C236.618 163.697 236.934 164.336 237.21 164.899C237.498 165.483 237.714 165.865 238.088 165.865C238.462 165.865 238.678 165.483 238.966 164.899C239.244 164.336 239.558 163.697 240.224 163.697C240.888 163.697 241.202 164.336 241.48 164.899C241.766 165.483 241.984 165.865 242.358 165.865C242.732 165.865 242.948 165.483 243.236 164.899C243.512 164.336 243.828 163.697 244.492 163.697C245.158 163.697 245.472 164.336 245.75 164.9C246.038 165.483 246.254 165.865 246.628 165.865C246.746 165.865 246.84 165.96 246.84 166.076C246.84 166.193 246.746 166.287 246.628 166.287Z" fill="#C9A992"/>
<path fill-rule="evenodd" clip-rule="evenodd" d="M231.092 86.5415C231.208 86.6473 231.216 86.8269 231.11 86.9425L226.68 91.7743C226.574 91.8897 226.396 91.8977 226.28 91.7917C226.164 91.6857 226.156 91.5063 226.262 91.3907L230.69 86.5589C230.796 86.4433 230.976 86.4355 231.092 86.5415Z" fill="#2F2933"/>
<path fill-rule="evenodd" clip-rule="evenodd" d="M229.842 89.8891C229.958 89.9949 229.966 90.1745 229.86 90.2901L225.948 94.5583C225.842 94.6739 225.662 94.6817 225.546 94.5757C225.43 94.4699 225.424 94.2903 225.528 94.1747L229.442 89.9065C229.548 89.7909 229.726 89.7831 229.842 89.8891Z" fill="#2F2933"/>
<path fill-rule="evenodd" clip-rule="evenodd" d="M243.32 86.5415C243.436 86.6473 243.444 86.8269 243.338 86.9425L238.91 91.7743C238.804 91.8897 238.624 91.8977 238.508 91.7917C238.392 91.6857 238.384 91.5063 238.49 91.3907L242.92 86.5589C243.026 86.4433 243.204 86.4355 243.32 86.5415Z" fill="#2F2933"/>
<path fill-rule="evenodd" clip-rule="evenodd" d="M242.07 89.8891C242.186 89.9949 242.194 90.1745 242.088 90.2901L238.176 94.5583C238.07 94.6739 237.89 94.6817 237.774 94.5757C237.66 94.4699 237.652 94.2903 237.758 94.1747L241.67 89.9065C241.776 89.7909 241.956 89.7831 242.07 89.8891Z" fill="#2F2933"/>
<path opacity="0.2" d="M244.344 187.619L247.564 231.014L248.408 200.678C248.408 200.678 244.102 189.359 244.344 187.619Z" fill="#2F2933"/>
<path opacity="0.2" d="M221.822 144.139C219.16 145.934 216.156 147.926 213.286 149.76C219.324 144.291 219.728 121.239 219.756 118.088C219.756 120.338 219.864 132.756 221.822 144.139Z" fill="#2F2933"/>
<path fill-rule="evenodd" clip-rule="evenodd" d="M193.407 107.53L193.405 107.534L193.4 107.551C193.395 107.566 193.387 107.589 193.377 107.62C193.358 107.681 193.332 107.772 193.303 107.887C193.245 108.118 193.177 108.444 193.139 108.822C193.064 109.586 193.113 110.533 193.575 111.353C194.522 113.034 195.901 113.424 197.014 113.118C197.478 112.991 197.648 112.624 197.695 112.211C197.718 112.005 197.708 111.805 197.69 111.654C197.681 111.58 197.671 111.519 197.663 111.477C197.659 111.456 197.656 111.44 197.654 111.43L197.652 111.42L197.651 111.418C197.614 111.266 197.708 111.112 197.86 111.075C198.012 111.038 198.166 111.132 198.203 111.284L197.927 111.351C198.203 111.284 198.203 111.284 198.203 111.284L198.203 111.285L198.204 111.287L198.205 111.292L198.209 111.31C198.212 111.325 198.216 111.346 198.221 111.372C198.231 111.425 198.243 111.499 198.254 111.589C198.275 111.767 198.289 112.013 198.259 112.275C198.199 112.796 197.951 113.45 197.164 113.666C195.777 114.046 194.143 113.517 193.08 111.631C192.538 110.668 192.493 109.586 192.574 108.766C192.615 108.354 192.689 108 192.752 107.748C192.784 107.622 192.814 107.521 192.835 107.451C192.846 107.416 192.855 107.389 192.861 107.37L192.869 107.348L192.871 107.341L192.872 107.339L192.872 107.339C192.872 107.339 192.872 107.338 193.139 107.434L192.872 107.339C192.925 107.191 193.088 107.114 193.235 107.167C193.383 107.22 193.459 107.383 193.407 107.53Z" fill="#2F2933"/>
<path fill-rule="evenodd" clip-rule="evenodd" d="M193.417 100.75C193.558 100.818 193.617 100.988 193.548 101.129C193.19 101.864 193.042 102.685 193.175 103.474L192.895 103.521L193.175 103.474C193.406 104.84 194.552 106.033 195.899 106.186L193.417 100.75ZM193.417 100.75C193.277 100.681 193.107 100.739 193.038 100.88L193.417 100.75ZM193.038 100.88C192.634 101.707 192.46 102.647 192.615 103.568L193.038 100.88ZM192.615 103.568C192.883 105.153 194.207 106.565 195.835 106.75L192.615 103.568ZM197.917 104.059C198.068 104.017 198.224 104.106 198.266 104.257C198.5 105.101 198.134 105.771 197.603 106.194C197.086 106.605 196.383 106.812 195.835 106.75L197.917 104.059ZM197.917 104.059C197.766 104.101 197.677 104.258 197.719 104.409L197.917 104.059ZM197.719 104.409C197.878 104.983 197.647 105.433 197.249 105.75L197.719 104.409ZM197.249 105.75C196.837 106.078 196.282 106.229 195.899 106.186L197.249 105.75Z" fill="#2F2933"/>
<path fill-rule="evenodd" clip-rule="evenodd" d="M192.796 94.8843C192.948 94.8447 193.103 94.9357 193.142 95.0875C193.523 96.5533 194.553 97.8413 195.899 98.5357C196.332 98.7587 196.771 98.9001 197.181 98.8371C197.594 98.7739 197.931 98.4577 197.953 98.1255C197.963 97.9691 198.099 97.8507 198.255 97.8611C198.411 97.8715 198.53 98.0067 198.519 98.1631C198.475 98.8401 197.855 99.3081 197.267 99.3981C196.678 99.4885 196.106 99.2811 195.639 99.0401C194.15 98.2719 193.015 96.8523 192.593 95.2303C192.553 95.0787 192.644 94.9237 192.796 94.8843Z" fill="#2F2933"/>
<path d="M196.953 41.3965H194.14V45.3909H196.953V41.3965Z" fill="#2F2933"/>
<path opacity="0.2" d="M260.128 278.69L263.032 280.306C264.222 280.968 265.68 280.934 266.838 280.216L270.55 277.912L264.224 283.878L260.128 278.69Z" fill="#2F2933"/>
<path opacity="0.2" d="M292.806 220.143C292.806 220.143 292.288 215.193 291.758 214.223C290.812 212.491 286.986 212.145 286.028 212.589C283.622 213.703 281.712 218.977 281.712 218.977L285.106 210.535L293.7 212.391L292.806 220.143Z" fill="#2F2933"/>
</g>
<defs>
<clipPath id="clip0">
<rect width="400" height="300" fill="white"/>
</clipPath>
</defs>
</svg>
