<svg width="400" height="300" viewBox="0 0 400 300" fill="none" xmlns="http://www.w3.org/2000/svg">
<path d="M53.1382 181.924C53.1382 177.838 49.3446 174.628 45.2006 174.512C44.5586 166.807 38.08 160.796 30.2008 160.796C23.3138 160.796 17.5356 165.407 15.7263 171.768C14.5006 171.36 13.2166 171.126 11.8742 171.126C5.74582 171.126 0.317871 177.371 0.317871 181.982C0.317871 183.675 0.843155 184.901 2.41902 184.901C3.99488 184.901 51.1538 184.901 51.1538 184.901C52.2628 184.842 53.1382 184.434 53.1382 181.924Z" fill="#2B173C"/>
<path d="M165.726 38.007C186.504 37.4234 188.839 73.318 221.464 81.6058C250.998 89.0766 279.012 67.1896 284.382 75.5942C285.784 77.812 284.208 79.8548 274.694 104.602C268.974 119.426 268.39 121.819 267.924 124.562C265.472 139.737 271.368 147.442 270.958 153.978C268.916 186.896 77.8284 109.329 95.1044 104.952C136.427 94.5044 139.87 38.7658 165.726 38.007Z" fill="#E5A7E0"/>
<path opacity="0.9" d="M380.332 276.066H45.9594C39.7726 276.066 34.2864 272.214 32.1268 266.436C29.1502 258.44 278.252 249.336 280.412 246.71C287.474 237.954 292.084 151.457 319.574 154.376C353.252 157.936 352.552 121.166 375.898 132.781C399.244 144.395 411.558 261.184 380.332 276.066Z" fill="#E5A7E0"/>
<path d="M17.3604 267.488C27.2242 280.444 49.5196 268.654 105.725 266.904C150.083 265.562 147.631 273.206 195.141 270.522C239.032 268.012 243.466 265.912 269.264 266.378C305.8 267.02 307.084 271.456 319.574 269.064C377.122 257.974 413.484 151.457 395.274 137.158C381.676 126.477 340.294 172.585 320.334 158.87C298.272 143.753 331.306 75.5826 310.586 62.217C292.552 50.6024 262.668 99.0454 219.888 93.6758C179.149 88.5982 178.162 24.4438 126.97 26.9646C75.7786 29.4854 20.3954 87.7226 27.2242 113.17C39.9478 160.446 119.733 172.294 116.406 187.352C113.546 200.308 55.9398 185.251 27.691 218.168C15.3177 232.584 8.66405 256.048 17.3604 267.488Z" fill="white" fill-opacity="0.4"/>
<path d="M105.716 266.604H105.716C126.702 265.968 137.228 267.344 147.502 268.686C148.098 268.764 148.693 268.842 149.29 268.918C160.145 270.324 171.391 271.564 195.124 270.222C212.582 269.224 223.8 268.29 232.61 267.556C245.926 266.448 253.734 265.798 269.27 266.078C287.552 266.4 297.02 267.67 303.478 268.562L303.792 268.604C310.036 269.468 313.426 269.936 319.518 268.768C333.824 266.012 346.834 257.32 358.024 245.578C369.214 233.838 378.568 219.066 385.562 204.186C392.556 189.306 397.182 174.333 398.924 162.199C399.796 156.13 399.944 150.784 399.314 146.52C398.682 142.248 397.276 139.112 395.09 137.394L395.23 137.214L395.09 137.394C393.466 136.119 391.416 135.678 388.994 135.886C386.568 136.094 383.792 136.951 380.752 138.249C375.612 140.445 369.778 143.871 363.698 147.444C362.586 148.097 361.466 148.755 360.34 149.411C353.074 153.649 345.578 157.809 338.644 160.047C331.714 162.284 325.27 162.625 320.164 159.117C314.524 155.253 312.448 148.027 312.118 139.281C311.786 130.524 313.206 120.14 314.66 109.845L314.806 108.808C316.214 98.851 317.604 89.0306 317.448 80.8376C317.288 72.3428 315.466 65.7218 310.424 62.4692C306.05 59.6524 300.93 60.4476 294.95 63.2592C290.052 65.563 284.646 69.1866 278.7 73.173C277.386 74.0526 276.048 74.95 274.682 75.8548C259.612 85.8406 241.362 96.6734 219.85 93.9736L105.716 266.604ZM105.716 266.604C84.0922 267.278 67.4768 269.436 54.6716 271.1L105.716 266.604ZM105.716 266.604L54.6716 271.1L105.716 266.604ZM54.6716 271.1C50.8252 271.6 47.3226 272.056 44.1312 272.412L54.6716 271.1ZM54.6716 271.1L44.1312 272.412L54.6716 271.1ZM44.1312 272.412C37.2152 273.186 31.7832 273.494 27.4716 272.812L44.1312 272.412ZM44.1312 272.412L27.4716 272.812L44.1312 272.412ZM27.4716 272.812C23.1766 272.132 20.0094 270.472 17.5994 267.306L27.4716 272.812ZM27.4716 272.812L17.5994 267.306L27.4716 272.812ZM17.5994 267.306C13.3313 261.692 12.8019 253.076 14.9169 244.012C17.0291 234.962 21.7638 225.536 27.9188 218.364C41.962 202 63.3194 197.542 81.6016 195.573C85.55 195.148 89.35 194.839 92.9002 194.551C93.457 194.505 94.008 194.461 94.5522 194.416C98.5626 194.087 102.221 193.765 105.354 193.301C108.484 192.838 111.114 192.229 113.059 191.318C115.007 190.404 116.314 189.163 116.699 187.417C117.148 185.384 116.178 183.452 114.261 181.566C112.343 179.678 109.419 177.78 105.809 175.794C102.195 173.805 97.8694 171.717 93.1344 169.457C92.6196 169.212 92.1002 168.964 91.576 168.714C87.2762 166.664 82.673 164.469 77.9702 162.075C56.8436 151.318 33.8378 136.589 27.514 113.092L17.5994 267.306Z" stroke="white" stroke-opacity="0.6" stroke-width="0.300072"/>
<path opacity="0.9" d="M44.0916 275.95L122.009 276.066C128.196 276.066 133.215 269.296 135.375 263.518C138.351 255.522 141.853 246.418 139.694 243.792C132.632 235.036 108.819 252.838 82.3208 244.9C59.5584 238.072 52.788 217.644 42.4574 220.854C34.5198 223.364 28.9752 236.962 27.1074 249.862C25.2398 262.76 37.263 276.126 44.0916 275.95Z" fill="#E5A7E0"/>
<path d="M191.931 78.9096C191.872 78.9096 191.755 78.8512 191.697 78.7928C188.37 74.9408 185.102 70.9136 181.892 67.0614C174.421 57.9564 166.717 48.5598 157.904 40.5636C147.69 31.342 131.581 20.311 112.554 20.0776C112.379 20.0776 112.262 19.9608 112.262 19.7857C112.262 19.6106 112.379 19.4939 112.554 19.4939C131.756 19.7274 147.982 30.8168 158.254 40.1552C167.125 48.2096 174.83 57.6064 182.3 66.7112C185.452 70.5634 188.779 74.5906 192.106 78.4426C192.222 78.5594 192.222 78.7344 192.047 78.8512C192.106 78.9096 192.047 78.9096 191.931 78.9096Z" fill="#E5A7E0"/>
<path d="M373.33 274.724C373.27 274.724 373.212 274.724 373.154 274.724L65.4534 269.18C60.1422 269.062 55.8814 264.686 55.9982 259.374C56.115 254.064 60.4924 249.802 65.8036 249.92L373.504 255.464C378.816 255.58 383.076 259.958 382.96 265.27C382.842 270.522 378.582 274.724 373.33 274.724Z" fill="#2B173C"/>
<path d="M308.742 254.462C309.122 255.408 307.986 256.308 307.128 255.698C296.67 248.142 260.646 220.784 274.352 211.62C288.058 202.456 304.306 242.708 308.742 254.462Z" fill="#E5A7E0"/>
<path d="M308.23 210.622C307.122 211.264 305.838 210.038 306.422 208.928C311.208 199.649 323.814 177.295 330.76 184.707C337.648 192.061 316.986 205.428 308.23 210.622Z" fill="#E5A7E0"/>
<path d="M307.976 216.522C308.442 217.632 307.158 218.624 306.224 217.982C303.054 215.782 298.102 212.162 293.832 208.278C287.568 202.58 282.778 196.311 287.256 193.118C291.5 190.1 297.072 194.788 299.904 199.855C302.886 205.192 306.412 212.842 307.976 216.522Z" fill="#E5A7E0"/>
<path d="M302.03 179.717C303.116 180.131 304.048 178.889 303.324 177.957C297.786 170.712 283.556 153.428 278.742 160.88C273.982 168.228 293.75 176.56 302.03 179.717Z" fill="#E5A7E0"/>
<path d="M296.932 156.841C296.37 157.621 295.158 157.144 295.244 156.192C295.936 148.617 298.274 130.047 305.026 133.12C311.65 136.194 301.39 150.911 296.932 156.841Z" fill="#E5A7E0"/>
<path d="M308.012 192.525C307.31 193.181 306.212 192.48 306.482 191.562C308.624 184.263 314.504 166.494 320.536 170.814C326.44 175.108 313.532 187.568 308.012 192.525Z" fill="#E5A7E0"/>
<path d="M301.998 257.22C301.998 257.22 354.526 223.426 338.884 212.278C323.242 201.072 301.998 257.22 301.998 257.22Z" fill="#E5A7E0"/>
<path d="M274.576 119.123C278.078 124.259 281.462 129.454 284.614 134.765C286.19 137.45 287.766 140.135 289.284 142.819C290.8 145.504 292.26 148.247 293.66 151.049C299.264 162.08 304.166 173.636 306.734 185.951C307.318 189.045 307.786 192.138 307.96 195.348C308.136 198.441 308.252 201.534 308.368 204.628L309.186 223.246C309.478 229.434 309.77 235.678 310.178 241.864L310.762 251.204L311.112 255.872L311.52 260.6L299.206 259.9C299.498 258.44 299.79 256.864 300.08 255.348L300.84 250.794C301.306 247.76 301.716 244.666 302.124 241.574C302.882 235.444 303.466 229.258 303.934 223.13C304.4 216.944 304.75 210.814 304.926 204.628C304.984 203.11 304.984 201.534 305.042 200.018C305.042 198.5 305.1 196.924 305.1 195.406C305.1 192.371 304.808 189.395 304.342 186.36C303.874 183.325 303.232 180.348 302.474 177.372C301.656 174.395 300.782 171.477 299.79 168.558C297.804 162.722 295.354 157.06 292.668 151.516C289.984 145.971 287.066 140.543 283.914 135.232C280.762 129.921 277.436 124.726 273.816 119.707L274.576 119.123Z" fill="#E5A7E0"/>
<path d="M275.218 125.076L275.51 125.135C277.494 125.31 278.894 127.061 278.72 129.045L278.252 133.481C278.078 135.465 276.326 136.866 274.342 136.691L274.05 136.633C272.066 136.458 270.664 134.707 270.84 132.722L271.306 128.286C271.482 126.302 273.232 124.843 275.218 125.076Z" fill="#2B173C"/>
<path d="M275.802 120.232H275.51C273.524 120.232 271.948 118.656 271.948 116.672V112.236C271.948 110.252 273.524 108.676 275.51 108.676H275.802C277.786 108.676 279.362 110.252 279.362 112.236V116.672C279.362 118.598 277.728 120.232 275.802 120.232Z" fill="#2B173C"/>
<path d="M277.494 121.107L277.26 120.874C275.918 119.473 275.976 117.197 277.376 115.855L280.588 112.761C281.988 111.419 284.264 111.477 285.606 112.878L285.84 113.111C287.182 114.512 287.124 116.788 285.724 118.131L282.514 121.224C281.112 122.567 278.836 122.508 277.494 121.107Z" fill="#2B173C"/>
<path d="M278.02 122.917V122.625C278.136 120.64 279.77 119.123 281.754 119.24L286.19 119.473C288.174 119.59 289.692 121.224 289.576 123.209V123.5C289.458 125.485 287.824 127.002 285.84 126.886L281.404 126.652C279.42 126.594 277.902 124.901 278.02 122.917Z" fill="#2B173C"/>
<path d="M277.086 124.609L277.318 124.376C278.836 123.092 281.054 123.267 282.338 124.726L285.256 128.111C286.54 129.629 286.366 131.847 284.906 133.131L284.672 133.364C283.156 134.648 280.938 134.473 279.654 133.014L276.736 129.629C275.392 128.111 275.568 125.893 277.086 124.609Z" fill="#2B173C"/>
<path d="M273.584 124.026L273.758 124.259C274.984 125.835 274.692 128.053 273.116 129.278L269.614 132.022C268.038 133.247 265.82 132.955 264.594 131.38L264.42 131.146C263.194 129.57 263.486 127.352 265.062 126.127L268.564 123.384C270.14 122.158 272.358 122.45 273.584 124.026Z" fill="#2B173C"/>
<path d="M272.416 123.092L272.358 123.384C272.066 125.31 270.256 126.652 268.272 126.36L263.894 125.718C261.968 125.426 260.626 123.617 260.918 121.633L260.976 121.341C261.268 119.415 263.078 118.072 265.062 118.364L269.44 119.006C271.366 119.356 272.708 121.166 272.416 123.092Z" fill="#2B173C"/>
<path d="M273.934 120.582L273.7 120.816C272.3 122.158 270.022 122.1 268.68 120.699L265.588 117.489C264.244 116.088 264.304 113.812 265.704 112.47L265.938 112.236C267.338 110.894 269.614 110.952 270.956 112.353L274.05 115.563C275.392 116.964 275.334 119.24 273.934 120.582Z" fill="#2B173C"/>
<path d="M275.626 127.002C278.172 127.002 280.236 124.938 280.236 122.392C280.236 119.845 278.172 117.781 275.626 117.781C273.08 117.781 271.016 119.845 271.016 122.392C271.016 124.938 273.08 127.002 275.626 127.002Z" fill="#E5A7E0"/>
<path d="M313.388 261.476C313.272 261.476 313.154 261.418 313.096 261.3C313.038 261.126 313.096 261.008 313.272 260.95C318 259.258 322.844 258.09 327.804 257.448C328.914 257.332 330.08 257.214 331.19 257.098C335.626 256.632 340.236 256.164 344.204 254.064C345.722 253.246 346.54 252.312 346.656 251.32C346.832 249.978 345.606 248.752 344.322 248.344C342.92 247.934 341.346 248.168 340.002 248.402L339.886 247.818C342.22 247.118 344.204 245.6 345.606 243.616C345.84 243.266 346.072 242.916 346.13 242.506C346.19 241.982 345.956 241.514 345.722 241.282C345.256 240.756 344.496 240.406 343.796 240.464C342.63 240.522 341.578 241.164 340.644 241.806C340.528 241.924 340.412 241.982 340.294 242.04L340.002 241.574C340.12 241.514 340.236 241.398 340.352 241.34C341.462 240.464 342.162 238.538 342.104 236.554C342.046 234.92 341.404 231.942 337.784 230.134C333.992 228.208 328.972 235.27 323.602 242.682C320.568 246.884 317.474 251.204 314.322 254.296C314.206 254.414 314.03 254.414 313.914 254.296C313.796 254.18 313.796 254.004 313.914 253.888C317.006 250.854 320.1 246.534 323.136 242.39C328.622 234.744 333.816 227.508 338.076 229.666C340.936 231.068 342.63 233.636 342.688 236.612C342.746 238.072 342.396 239.472 341.812 240.522C342.454 240.23 343.096 239.998 343.854 239.938C344.672 239.938 345.664 240.288 346.19 240.93C346.656 241.456 346.832 242.04 346.772 242.624C346.714 243.148 346.422 243.616 346.13 243.966C345.08 245.484 343.738 246.71 342.162 247.526C342.98 247.468 343.796 247.526 344.556 247.76C346.014 248.226 347.474 249.628 347.298 251.32C347.182 252.546 346.248 253.596 344.556 254.472C340.528 256.632 335.858 257.098 331.364 257.566C330.256 257.682 329.088 257.798 327.98 257.916C323.076 258.558 318.232 259.724 313.564 261.418C313.446 261.476 313.446 261.476 313.388 261.476Z" fill="#2B173C"/>
<path d="M284.626 256.378C277.476 254.212 271.126 249.606 267.926 244.062C265.772 240.3 265.318 236.564 266.742 233.276C267.366 231.818 268.284 230.998 269.572 230.778C271.942 230.398 275.046 232.436 276.624 234.072C277.022 233.158 276.962 230.944 276.866 228.84C276.696 225.374 276.56 221.796 278.274 220.974C279.276 220.484 280.382 220.454 281.392 220.942C284.854 222.6 287.094 229.5 287.77 231.9L291.394 223.362C291.844 222.278 292.35 221.212 293.462 220.756C294.706 220.278 295.996 220.852 297.1 221.432C298.356 222.116 299.612 222.802 300.656 223.788C301.508 224.596 303.7 224.406 304.888 223.302C306.384 221.986 308.27 221.398 309.852 221.816C311.488 222.252 312.86 223.764 313.43 225.706C313.862 227.3 315.97 228.792 317.228 229.478C318.762 230.248 319.474 231.928 319.766 233.174C320.436 236 320.002 239.04 318.504 241.574C318.396 241.724 318.268 241.746 318.1 241.696C317.95 241.588 317.928 241.46 317.978 241.292C319.372 238.91 319.826 235.998 319.162 233.358C318.952 232.44 318.314 230.722 316.946 230.004C315.784 229.408 313.414 227.774 312.882 225.906C312.454 224.496 311.43 222.844 309.738 222.392C308.046 221.94 306.372 222.836 305.306 223.734C303.884 225.01 301.362 225.282 300.28 224.224C299.292 223.254 298.076 222.642 296.876 221.972C295.882 221.428 294.704 220.888 293.718 221.322C292.88 221.678 292.406 222.632 291.99 223.604L287.692 233.766L287.482 232.85C287.162 231.288 284.686 223.16 281.184 221.428C280.342 220.99 279.476 221.032 278.618 221.444C277.252 222.128 277.406 225.65 277.548 228.804C277.642 231.516 277.78 233.874 276.974 234.728L276.778 234.974L276.548 234.722C275.194 233.152 272.07 230.986 269.77 231.326C268.686 231.486 267.912 232.228 267.356 233.462C266.04 236.6 266.432 240.134 268.508 243.75C272.388 250.476 281.028 255.776 289.958 256.894C290.126 256.946 290.22 257.034 290.226 257.22C290.174 257.386 290.084 257.482 289.9 257.486C288.084 257.242 286.358 256.902 284.626 256.378Z" fill="#2B173C"/>
<path d="M301.132 249.278C301.014 249.278 300.956 249.218 300.898 249.16C300.782 249.044 300.84 248.868 300.956 248.752C313.096 239.822 317.59 222.196 311.286 208.538C310.12 206.088 308.66 203.636 307.202 201.242C304.05 196.107 300.722 190.737 300.956 184.667C301.19 178.597 304.866 173.519 308.368 168.558C309.536 166.924 310.82 165.173 311.87 163.481C322.026 147.255 319.4 128.228 316.948 118.364C313.154 103.131 305.334 89.2402 297.804 75.8162C297.746 75.6994 297.804 75.5244 297.922 75.4076C298.038 75.3492 298.214 75.4076 298.33 75.5244C305.918 89.0066 313.68 102.898 317.532 118.189C321.792 135.407 319.984 151.574 312.396 163.714C311.286 165.465 310.062 167.158 308.894 168.85C305.392 173.694 301.774 178.772 301.598 184.667C301.364 190.562 304.458 195.581 307.726 200.892C309.186 203.286 310.704 205.736 311.87 208.246C318.29 222.138 313.68 240.114 301.364 249.16C301.248 249.278 301.19 249.278 301.132 249.278Z" fill="#E5A7E0"/>
<path d="M302.824 253.714C302.648 253.714 302.532 253.538 302.532 253.422C303.466 241.982 305.1 230.25 313.388 223.304C316.306 220.854 319.866 219.278 323.252 217.702C324.944 216.944 326.696 216.184 328.33 215.308C344.146 206.904 353.134 187.352 349.224 169.901C348.874 168.442 348.466 166.924 348.058 165.523C347.356 163.13 346.656 160.621 346.364 158.053C346.014 155.251 345.956 150.057 349.4 146.438C351.15 144.629 353.484 143.578 355.762 142.528C356.696 142.119 357.628 141.71 358.504 141.185C365.858 137.275 370.762 129.045 370.702 120.757C370.644 112.469 365.566 104.298 358.154 100.563C358.038 100.505 357.98 100.33 358.038 100.154C358.096 100.038 358.27 99.9794 358.446 100.038C366.092 103.89 371.228 112.236 371.344 120.757C371.462 129.279 366.384 137.742 358.854 141.71C357.92 142.177 356.986 142.644 356.054 143.053C353.836 144.045 351.558 145.096 349.866 146.847C347.474 149.356 346.422 153.442 346.948 157.994C347.24 160.504 347.94 162.955 348.64 165.348C349.05 166.807 349.458 168.267 349.808 169.784C353.718 187.527 344.614 207.312 328.622 215.834C326.928 216.71 325.178 217.526 323.486 218.286C320.1 219.802 316.598 221.378 313.738 223.772C305.626 230.542 304.05 242.156 303.116 253.48C303.116 253.596 303 253.714 302.824 253.714Z" fill="#2B173C"/>
<path d="M356.17 104.882C358.716 104.882 360.78 102.818 360.78 100.271C360.78 97.7246 358.716 95.6602 356.17 95.6602C353.624 95.6602 351.56 97.7246 351.56 100.271C351.56 102.818 353.624 104.882 356.17 104.882Z" fill="#E5A7E0"/>
<path d="M296.812 79.2598C299.358 79.2598 301.424 77.1954 301.424 74.649C301.424 72.1024 299.358 70.038 296.812 70.038C294.266 70.038 292.202 72.1024 292.202 74.649C292.202 77.1954 294.266 79.2598 296.812 79.2598Z" fill="#E5A7E0"/>
<path d="M302.882 75.2326C302.882 77.618 300.948 79.5516 298.564 79.5516C296.178 79.5516 294.244 77.618 294.244 75.2326C294.244 72.8472 296.178 70.9136 298.564 70.9136C300.948 70.9136 302.882 72.8472 302.882 75.2326Z" stroke="#2B173C" stroke-width="0.291826"/>
<path d="M167.359 262.292H154.226C150.958 262.292 148.273 259.608 148.273 256.34C148.273 253.07 150.958 250.386 154.226 250.386H167.359C170.627 250.386 173.312 253.07 173.312 256.34C173.312 259.666 170.627 262.292 167.359 262.292Z" fill="#E5A7E0"/>
<path d="M191.989 258.558H155.394V226.866H191.989C200.102 226.866 206.696 233.46 206.696 241.574V243.85C206.756 251.962 200.16 258.558 191.989 258.558Z" fill="#E5A7E0"/>
<path d="M155.452 153.15C151.6 149.298 144.363 145.329 140.569 147.897C138.118 149.531 138.176 153.5 138.41 161.379C138.702 171.126 138.877 177.08 142.32 184.375C143.896 187.644 147.048 193.188 153.176 198.441C156.853 192.196 158.779 186.593 159.888 182.624C161.289 177.371 162.515 172.761 161.639 166.807C161.172 164.006 160.297 157.994 155.452 153.15Z" fill="#BA75FF"/>
<path d="M173.604 250.444H166.25C158.371 250.444 152.009 244.082 152.009 236.204V211.982L168.584 210.814L173.604 250.444Z" fill="#E5A7E0"/>
<path d="M206.404 235.212C210.37 235.212 213.584 231.998 213.584 228.032C213.584 224.068 210.37 220.854 206.404 220.854C202.44 220.854 199.226 224.068 199.226 228.032C199.226 231.998 202.44 235.212 206.404 235.212Z" fill="#E5A7E0"/>
<path d="M205.934 229.11L213.38 226.194L210.462 218.748L203.018 221.666L205.934 229.11Z" fill="#E5A7E0"/>
<path d="M168.584 210.814C168.584 219.978 161.172 227.39 152.009 227.39C142.845 227.39 126.328 226.748 126.328 217.586C126.328 208.422 142.845 194.297 152.009 194.297C161.172 194.239 168.584 201.652 168.584 210.814Z" fill="#E5A7E0"/>
<path d="M164.499 249.16H197.067V263.168H164.499C160.939 263.168 158.02 260.25 158.02 256.69V255.638C157.962 252.02 160.88 249.16 164.499 249.16Z" fill="#BA75FF"/>
<path d="M210.724 247.292C210.724 256.456 205.122 263.11 197.008 263.11C188.896 263.11 181.542 256.398 181.542 247.292C181.542 238.13 188.078 230.718 196.133 230.718C204.188 230.718 210.724 238.13 210.724 247.292Z" fill="#BA75FF"/>
<path d="M184.985 168.442C183.934 163.072 180.082 155.776 175.53 155.835C172.612 155.835 170.452 159.162 166.25 165.874C161.055 174.161 156.153 179.823 154.985 187.819C154.577 190.445 153.643 195.99 154.402 201.126C154.81 204.102 160.53 203.694 163.098 202.176C167.067 199.842 170.102 197.391 172.32 195.465C176.405 191.904 179.966 188.753 182.534 183.266C183.701 180.698 186.327 175.154 184.985 168.442Z" fill="#E5A7E0"/>
<path d="M135.433 212.566C135.433 214.084 133.507 216.944 131.172 216.944C128.838 216.944 126.912 214.142 126.912 212.566C126.912 211.048 128.838 209.822 131.172 209.822C133.507 209.822 135.433 211.048 135.433 212.566Z" fill="#2B173C"/>
<path d="M132.281 206.73C132.456 207.662 133.857 207.138 135.258 206.904C136.6 206.67 137.418 206.904 137.242 205.912C137.067 204.978 135.958 205.094 134.616 205.328C133.274 205.562 132.106 205.796 132.281 206.73Z" fill="#2B173C"/>
<path d="M131.172 204.278C131.056 204.278 130.881 204.162 130.881 204.044C130.881 203.87 130.939 203.752 131.114 203.694L135.2 202.994C135.375 202.994 135.491 203.052 135.55 203.228C135.608 203.402 135.491 203.52 135.316 203.578L131.172 204.278Z" fill="#2B173C"/>
<path d="M132.923 220.562C132.631 220.562 132.398 220.386 132.34 220.094C132.281 219.802 132.456 219.452 132.807 219.394L136.425 218.578C136.717 218.518 137.067 218.694 137.126 219.044C137.184 219.336 137.009 219.686 136.659 219.744L133.04 220.562C133.04 220.562 132.982 220.562 132.923 220.562Z" fill="#2B173C"/>
<path d="M154.985 188.111H154.927C154.752 188.052 154.693 187.936 154.693 187.761C156.036 181.807 158.662 176.438 161.989 172.644C162.106 172.527 162.281 172.527 162.398 172.644C162.514 172.761 162.514 172.936 162.398 173.053C159.129 176.788 156.561 182.099 155.219 187.936C155.219 187.994 155.102 188.111 154.985 188.111Z" fill="#2B173C"/>
<path d="M154.694 203.052C154.577 203.052 154.46 202.936 154.402 202.818C153.526 199.083 153.468 194.764 154.168 190.329C154.168 190.154 154.343 190.037 154.518 190.095C154.694 190.095 154.81 190.27 154.752 190.445C154.052 194.823 154.11 199.083 154.985 202.76C155.044 202.936 154.927 203.052 154.752 203.11C154.752 203.052 154.752 203.052 154.694 203.052Z" fill="#2B173C"/>
<path d="M162.981 190.795C164.207 185.776 166.25 180.932 168.993 176.496C169.635 175.445 170.335 174.453 171.269 173.694C172.261 172.936 173.546 172.586 174.654 172.936C175.822 173.286 176.697 174.57 176.347 175.737C176.055 176.788 174.946 177.371 173.954 177.838C171.911 178.772 169.869 179.648 167.767 180.348" fill="#2B173C"/>
<path d="M160.822 223.656C167.913 223.656 173.662 217.906 173.662 210.814C173.662 203.724 167.913 197.974 160.822 197.974C153.73 197.974 147.981 203.724 147.981 210.814C147.981 217.906 153.73 223.656 160.822 223.656Z" fill="#E5A7E0"/>
<path d="M336.968 132.314C339.514 132.314 341.578 130.249 341.578 127.703C341.578 125.156 339.514 123.092 336.968 123.092C334.422 123.092 332.356 125.156 332.356 127.703C332.356 130.249 334.422 132.314 336.968 132.314Z" fill="#E5A7E0"/>
<path d="M344.556 200.66L344.848 200.718C346.832 200.892 348.232 202.644 348.058 204.628L347.59 209.064C347.416 211.048 345.664 212.448 343.68 212.274L343.388 212.216C341.404 212.04 340.002 210.29 340.178 208.306L340.644 203.87C340.82 201.884 342.57 200.484 344.556 200.66Z" fill="#2B173C"/>
<path d="M345.138 195.815H344.846C342.862 195.815 341.286 194.239 341.286 192.254V187.819C341.286 185.834 342.862 184.258 344.846 184.258H345.138C347.124 184.258 348.698 185.834 348.698 187.819V192.254C348.698 194.239 347.124 195.815 345.138 195.815Z" fill="#2B173C"/>
<path d="M346.832 196.69L346.598 196.457C345.256 195.056 345.314 192.78 346.714 191.437L349.924 188.344C351.326 187.002 353.602 187.06 354.944 188.461L355.178 188.694C356.52 190.095 356.462 192.371 355.062 193.714L351.85 196.807C350.45 198.208 348.174 198.149 346.832 196.69Z" fill="#2B173C"/>
<path d="M347.356 198.558V198.266C347.474 196.282 349.108 194.764 351.092 194.881L355.528 195.115C357.512 195.231 359.03 196.865 358.912 198.85V199.142C358.796 201.126 357.162 202.644 355.178 202.526L350.742 202.294C348.816 202.176 347.298 200.542 347.356 198.558Z" fill="#2B173C"/>
<path d="M346.422 200.192L346.656 199.959C348.174 198.675 350.392 198.85 351.676 200.308L354.594 203.694C355.878 205.212 355.702 207.43 354.244 208.714L354.01 208.946C352.492 210.23 350.274 210.056 348.99 208.596L346.072 205.212C344.73 203.752 344.906 201.476 346.422 200.192Z" fill="#2B173C"/>
<path d="M342.92 199.609L343.096 199.842C344.322 201.418 344.03 203.636 342.454 204.862L338.952 207.604C337.376 208.83 335.158 208.538 333.932 206.962L333.758 206.73C332.532 205.154 332.824 202.936 334.4 201.71L337.902 198.967C339.478 197.799 341.754 198.091 342.92 199.609Z" fill="#2B173C"/>
<path d="M341.754 198.733L341.696 199.025C341.404 200.952 339.594 202.294 337.61 202.002L333.232 201.36C331.306 201.068 329.964 199.258 330.256 197.274L330.314 196.982C330.606 195.056 332.416 193.714 334.4 194.006L338.778 194.648C340.704 194.939 342.046 196.749 341.754 198.733Z" fill="#2B173C"/>
<path d="M343.272 196.223L343.038 196.457C341.636 197.799 339.36 197.741 338.018 196.34L334.924 193.13C333.582 191.729 333.64 189.453 335.042 188.111L335.276 187.877C336.676 186.535 338.952 186.593 340.294 187.994L343.388 191.204C344.788 192.605 344.73 194.823 343.272 196.223Z" fill="#2B173C"/>
<path d="M344.964 202.644C347.51 202.644 349.574 200.58 349.574 198.033C349.574 195.486 347.51 193.422 344.964 193.422C342.418 193.422 340.354 195.486 340.354 198.033C340.354 200.58 342.418 202.644 344.964 202.644Z" fill="#E5A7E0"/>
<path d="M346.364 46.4002C346.364 40.8554 341.228 36.4196 335.568 36.2446C334.692 25.7388 325.82 17.5094 315.14 17.5094C305.742 17.5094 297.804 23.8128 295.354 32.4508C293.72 31.8672 291.91 31.517 290.042 31.517C281.638 31.517 274.226 40.0966 274.226 46.3418C274.226 48.6764 274.926 50.3106 277.026 50.3106C279.128 50.3106 343.504 50.3106 343.504 50.3106C345.138 50.369 346.364 49.8436 346.364 46.4002Z" fill="#2B173C"/>
<path d="M366.034 50.0772C361.714 50.0772 357.278 50.0188 357.22 50.0188C356.87 50.0188 356.636 49.727 356.636 49.4352C356.636 49.085 356.87 48.8516 357.22 48.8516C357.338 48.8516 367.2 49.0266 371.928 48.8516C377.764 48.6182 379.108 47.334 379.808 46.6338L379.866 46.5754C381.092 45.3496 381.85 43.4236 381.85 41.3224C381.85 39.2214 381.15 37.2952 379.808 36.0112C377.532 33.735 373.796 33.735 371.52 36.0112C369.71 37.8206 369.71 40.6804 371.52 42.4898C372.162 43.1318 373.33 43.5404 374.38 43.482C375.256 43.4236 376.014 43.0734 376.48 42.5482C377.298 41.556 377.298 39.9218 376.422 38.521C376.248 38.2292 376.364 37.879 376.598 37.7038C376.89 37.5288 377.24 37.6454 377.414 37.879C378.524 39.6882 378.524 41.8478 377.356 43.2486C376.656 44.0656 375.664 44.591 374.438 44.6492C373.038 44.7076 371.578 44.1824 370.644 43.3068C368.426 41.089 368.426 37.412 370.644 35.1942C373.388 32.451 377.882 32.451 380.624 35.1942C382.142 36.7116 383.018 38.9296 382.96 41.3808C382.96 43.7738 382.026 46.05 380.566 47.4508L380.508 47.5092C379.69 48.3262 378.116 49.8438 371.87 50.0188C370.41 50.0772 368.252 50.0772 366.034 50.0772Z" fill="#E5A7E0"/>
<path d="M149.032 207.896C148.857 208.83 147.456 208.304 146.056 208.072C144.713 207.838 143.896 208.072 144.071 207.08C144.246 206.088 145.355 206.262 146.698 206.496C148.04 206.73 149.149 206.962 149.032 207.896Z" fill="#2B173C"/>
<path d="M150.141 205.504C150.083 205.504 150.083 205.504 150.141 205.504L145.997 204.804C145.822 204.804 145.705 204.628 145.764 204.452C145.764 204.278 145.939 204.162 146.114 204.22L150.199 204.92C150.375 204.92 150.491 205.096 150.433 205.27C150.375 205.386 150.258 205.504 150.141 205.504Z" fill="#2B173C"/>
<path d="M207.806 237.312C207.806 237.312 213.35 241.048 214.226 244.082C214.226 244.082 211.658 242.216 210.666 243.032C210.666 243.032 215.276 245.192 215.744 249.102C215.744 249.102 213.058 247.936 212.416 248.46C212.416 248.46 216.91 251.436 216.386 255.99C216.386 255.99 213.876 254.18 212.066 254.238C212.066 254.238 214.168 256.69 213.526 258.44C213.526 258.44 207.806 257.156 206.638 258.85C205.472 260.542 204.596 247.702 204.596 247.702L207.806 237.312Z" fill="#BA75FF"/>
<path d="M170.627 202.526C170.627 202.526 175.355 205.27 176.113 207.78C176.113 207.78 173.954 206.204 173.137 206.904C173.137 206.904 176.989 208.714 177.397 211.982C177.397 211.982 175.18 210.99 174.596 211.456C174.596 211.456 178.331 213.908 177.923 217.702C177.923 217.702 175.822 216.242 174.363 216.242C174.363 216.242 176.113 218.286 175.53 219.744C175.53 219.744 170.744 218.636 169.752 220.094C168.759 221.554 168.059 210.814 168.059 210.814L170.627 202.526Z" fill="#E5A7E0"/>
<path d="M173.662 105.407H9.13098C7.3581 105.407 5.9209 106.845 5.9209 108.617C5.9209 110.39 7.3581 111.828 9.13098 111.828H173.662C175.435 111.828 176.872 110.39 176.872 108.617C176.872 106.845 175.435 105.407 173.662 105.407Z" fill="#2B173C"/>
<path d="M165.666 201.242C165.491 200.892 165.783 200.31 166.191 199.842C166.133 199.9 166.016 199.959 165.958 200.018C165.549 200.31 164.966 200.718 164.499 200.25C163.974 199.667 165.141 197.508 166.016 196.048C164.849 196.107 163.215 197.332 162.573 197.858L162.456 197.916H162.339C162.223 197.916 162.106 197.858 162.048 197.741C161.872 197.391 162.164 196.282 162.514 195.231C159.83 196.223 158.254 200.484 158.254 200.542L157.729 200.368C157.787 200.134 159.655 195.173 162.923 194.531L163.448 194.414L163.273 194.881C162.981 195.64 162.748 196.515 162.631 197.041C163.448 196.399 165.316 195.173 166.6 195.465L167.009 195.581L166.775 195.932C165.666 197.683 164.791 199.492 164.966 199.842C165.024 199.9 165.258 199.842 165.666 199.55C166.075 199.258 166.6 198.85 167.184 199.083L167.592 199.258L167.3 199.609C166.717 200.192 166.25 200.952 166.308 201.126L165.666 201.242Z" fill="#BA75FF"/>
<path d="M45.9008 199.492C45.7842 199.492 45.7258 199.434 45.6674 199.375C45.5506 199.258 45.609 199.083 45.7258 198.967C58.7412 189.92 74.6164 184.901 90.4334 184.842C92.0092 184.842 93.9354 184.842 95.1026 183.675C95.7446 183.033 95.9782 182.157 95.8614 181.165C95.6862 179.765 94.8108 178.48 93.6434 177.78C91.484 176.496 88.6824 176.671 86.4062 176.846C86.2312 176.846 86.1144 176.73 86.1144 176.554C86.1144 176.379 86.2312 176.263 86.4062 176.263C88.7408 176.088 91.659 175.912 93.9354 177.313C95.2778 178.072 96.27 179.589 96.445 181.165C96.6202 182.333 96.27 183.383 95.5112 184.142C94.1688 185.484 92.126 185.484 90.4334 185.484C74.7332 185.543 58.9746 190.504 46.076 199.492C46.0176 199.492 45.9592 199.492 45.9008 199.492Z" fill="#E5A7E0"/>
<path d="M89.208 257.682C89.1496 257.682 89.0328 257.624 88.9744 257.566C87.5736 255.93 85.1808 254.122 82.9044 252.428C79.2274 249.686 76.0174 247.292 76.5426 245.366C76.8928 244.082 78.8772 243.266 82.7878 242.858C83.0796 240.114 81.9706 237.954 80.92 235.854C79.6944 233.46 78.527 231.242 79.7528 228.558C80.278 227.39 81.2118 226.748 82.496 226.69C85.9978 226.514 91.2506 230.658 93.0016 232.934C93.1184 232.41 93.235 231.884 93.3518 231.3C94.2856 226.806 95.5114 220.736 100.239 221.612C105.258 222.604 105.608 231.126 104.966 237.138C105.317 236.962 105.842 237.02 106.484 237.196C107.184 237.43 107.651 238.012 107.768 238.83C107.885 239.998 107.301 241.456 106.426 242.216C107.068 242.624 107.943 243.616 108.702 244.784C109.344 245.834 110.745 248.402 110.219 250.678C109.461 253.596 104.208 254.354 101.64 254.706C101.173 254.764 100.823 254.822 100.647 254.88C100.472 254.938 100.356 254.822 100.297 254.646C100.239 254.472 100.356 254.354 100.531 254.296C100.764 254.238 101.114 254.18 101.581 254.122C103.799 253.83 109.052 253.07 109.694 250.502C110.219 248.46 108.877 246.008 108.293 245.074C107.359 243.616 106.367 242.624 105.9 242.506L105.142 242.332L105.842 241.924C106.776 241.398 107.418 239.998 107.301 238.83C107.243 238.422 107.068 237.838 106.426 237.662C105.842 237.488 105.433 237.488 105.2 237.662C105.025 237.78 104.966 238.012 104.908 238.246C104.908 238.422 104.85 238.654 104.791 238.83L104.208 238.714V238.538C104.208 238.422 104.266 238.304 104.266 238.13C104.733 234.744 104.791 231.184 104.383 228.5C103.799 224.706 102.398 222.546 100.181 222.08C96.0366 221.262 94.8694 226.806 93.9354 231.3C93.7604 232.118 93.5852 232.934 93.4102 233.636L93.235 234.336L92.885 233.694C91.6008 231.476 85.881 226.982 82.496 227.216C81.4454 227.274 80.6866 227.74 80.278 228.732C79.1692 231.184 80.2196 233.226 81.4454 235.562C82.5542 237.662 83.78 240.114 83.3714 243.09L83.313 243.324H83.0796C79.4026 243.674 77.3598 244.374 77.068 245.426C76.6594 247 79.9862 249.452 83.1962 251.904C85.5308 253.654 87.9238 255.406 89.383 257.156C89.4998 257.274 89.4998 257.448 89.3246 257.566C89.3246 257.624 89.2662 257.682 89.208 257.682Z" fill="#2B173C"/>
<path d="M332.066 262.06L270.956 261.184C269.498 261.184 268.33 259.958 268.388 258.498C268.388 257.04 269.614 255.872 271.074 255.93L332.124 256.806C333.582 256.806 334.75 258.032 334.692 259.492C334.692 260.892 333.524 262.06 332.066 262.06Z" fill="#2B173C"/>
<path d="M290.684 259.958C294.712 260.016 307.144 262.744 311.054 262.744C317.766 254.69 317.632 246.77 312.994 245.366C310.704 244.674 309.622 245.076 306.294 246.77C309.562 239.24 309.536 233.928 307.434 232.526C306.618 231.942 305.158 232.06 304.166 232.294C301.424 233.052 301.014 235.62 299.556 235.678C297.162 235.736 296.52 228.558 293.836 228.266C291.384 228.032 290.684 233.87 286.132 235.212C282.572 236.262 280.588 233.344 278.428 234.744C275.626 236.554 278.252 241.748 274.75 245.366C272.824 247.352 271.016 246.942 270.256 248.81C269.206 251.496 272.008 254.822 272.474 255.406C275.742 259.316 280.82 259.724 282.338 259.784C285.14 259.9 287.882 259.9 290.684 259.958Z" fill="#2B173C"/>
<path d="M270.082 256.982C268.038 256.982 266.054 256.982 264.128 256.982C260.742 252.896 259.284 250.62 259.868 249.978C260.16 249.628 261.152 249.86 262.844 250.736C261.21 246.942 260.626 243.908 261.676 243.208C262.086 242.916 262.844 242.974 263.31 243.09C264.712 243.44 264.886 244.784 265.646 244.784C266.872 244.784 267.162 241.222 268.506 241.048C269.732 240.93 270.082 243.908 272.416 244.55C274.226 245.074 275.218 243.616 276.326 244.316C277.728 245.192 276.384 247.818 278.194 249.686C279.186 250.678 280.062 250.444 280.47 251.436C280.996 252.78 273.35 251.67 272.942 254.004C272.358 256.514 271.482 256.982 270.082 256.982Z" fill="#2B173C"/>
<path d="M326.53 263.694C329.73 263.694 332.838 263.694 335.854 263.694C341.156 257.294 343.442 253.73 342.528 252.724C342.07 252.176 340.516 252.542 337.866 253.912C340.424 247.97 341.338 243.216 339.694 242.12C339.054 241.662 337.866 241.754 337.134 241.938C334.94 242.486 334.666 244.588 333.478 244.588C331.558 244.588 331.1 239.012 328.998 238.738C327.078 238.554 326.53 243.216 322.872 244.222C320.04 245.046 318.486 242.76 316.748 243.856C314.554 245.228 316.656 249.342 313.822 252.268C312.268 253.822 310.898 253.456 310.258 255.01C309.434 257.112 311.628 259.764 311.994 260.22C314.554 263.328 318.576 263.602 319.764 263.694C322.142 263.602 324.336 263.694 326.53 263.694Z" fill="#2B173C"/>
<path d="M84.4218 52.0616L84.2468 51.478L84.5386 51.4196C89.4412 49.9606 91.8342 47.6842 91.6592 46.2836C91.5424 45.5248 90.7252 44.8828 89.7914 44.4158C89.0326 45.2914 87.8654 45.9916 86.698 46.1668C84.5386 46.517 82.4958 45.1746 81.6204 44.124C81.3284 43.7738 80.9782 43.1902 81.095 42.7232C81.5036 41.4976 85.414 42.1396 87.5152 42.84C88.0404 43.015 88.7992 43.2486 89.6164 43.657C89.9666 43.1318 90.0832 42.6066 90.0248 42.198C89.9666 41.731 89.558 41.1474 87.3984 40.1552C87.34 40.1552 87.2234 40.2136 87.165 40.2136C83.1378 41.6726 78.9356 39.63 77.7098 38.521C77.3596 38.2292 77.1846 37.9374 77.243 37.7038C77.243 37.5872 77.3012 37.4704 77.4764 37.412C78.4102 36.9452 83.3712 37.7622 87.3984 39.5132C90.1416 38.3458 92.768 35.6028 92.3594 33.2098C92.3012 32.8596 92.0676 32.3342 91.4256 31.6922C80.5114 33.3264 68.8384 29.5328 66.212 27.4316C65.745 27.023 65.5116 26.6728 65.57 26.381C65.6282 26.1476 65.745 25.9724 65.9784 25.8558C67.9046 24.6884 77.7098 25.4472 85.1222 27.8402C88.0988 28.8324 90.3168 29.9412 91.6008 31.0502C93.6436 30.7584 95.5696 30.2332 97.4372 29.5328L97.554 29.4744C99.305 28.774 103.04 27.3148 103.449 24.7468C103.916 21.8286 100.18 18.9687 98.5462 17.9181C97.6124 17.2761 96.3866 16.6341 94.2272 16.1088C91.951 16.9842 89.3828 17.6263 86.9316 17.9765C79.8694 18.9103 73.099 17.1593 71.99 16.1671C71.815 15.992 71.7566 15.8169 71.7566 15.7002C71.8734 14.066 84.3634 14.5329 85.8226 14.5913C89.558 14.7664 92.2428 15.1166 94.1688 15.5835C98.196 14.066 101.114 11.9648 100.998 10.2723C100.881 8.6964 98.196 7.354 96.7952 6.59526C96.0364 6.24506 95.0442 5.77814 93.7602 5.48632C90.7252 5.8365 87.5152 6.06998 84.4218 6.1867C73.6826 6.71198 60.142 6.06998 58.9746 5.0194C58.858 4.90266 58.7996 4.78594 58.7996 4.72758C58.7996 4.6692 58.7996 4.55248 58.9162 4.43574C60.3754 3.03498 87.9238 4.31902 90.842 4.49412C91.8926 4.55248 92.8848 4.72758 93.7602 4.96104C101.99 4.08556 108.41 2.74316 108.994 2.04278C108.468 1.57586 104.441 0.817112 84.3634 0.817112H84.0716V0H84.3634C109.519 0 109.741 1.2665 109.799 1.90852C109.799 2.02524 109.799 2.14198 109.624 2.31708C108.748 3.25092 102.515 4.31902 95.2194 5.13612C95.9198 5.36958 96.5618 5.66142 97.0288 5.89488C98.663 6.71198 101.464 8.11274 101.581 10.0388C101.698 12.0232 98.8964 14.1244 95.161 15.6418C96.912 16.1671 98.021 16.7508 98.8964 17.3344C100.647 18.5017 104.558 21.5368 104.033 24.7468C103.566 27.7234 99.6552 29.241 97.7874 29.9412L97.6708 29.9996C95.8614 30.7 93.9938 31.167 92.126 31.5172C92.5346 32.0424 92.8264 32.5094 92.8848 33.0346C93.3518 35.6028 90.842 38.4042 88.0404 39.805C89.9082 40.6804 90.375 41.3808 90.4918 42.0812C90.6086 42.6648 90.4334 43.307 90.0248 43.8906C91.0754 44.4742 91.951 45.1746 92.0676 46.1668C92.3594 48.1512 89.2078 50.5442 84.5386 51.945L84.4218 52.0616ZM83.021 42.6066C82.2624 42.6066 81.7954 42.7232 81.737 42.8984C81.6786 43.015 81.7954 43.307 82.1456 43.7154C82.9044 44.6494 84.7136 45.875 86.698 45.5248C87.632 45.3496 88.6242 44.8244 89.3246 44.0656C88.6242 43.7154 87.8654 43.482 87.4568 43.3652C85.8226 42.84 84.13 42.6066 83.021 42.6066ZM77.9434 37.879C78.1184 38.1124 78.702 38.5794 79.6358 39.0462C80.7448 39.5716 83.6048 40.6804 86.6398 39.805C82.9044 38.2292 78.8188 37.6454 77.9434 37.879ZM69.889 25.7974C68.138 25.7974 66.9124 25.9724 66.387 26.2642C66.2702 26.3226 66.2702 26.381 66.2702 26.381C66.2702 26.4394 66.3286 26.6144 66.6788 26.9064C69.1302 28.8324 80.3946 32.3926 90.9004 31.0502C89.8498 30.2332 88.0404 29.241 85.0638 28.2488C79.811 26.6144 73.741 25.7974 69.889 25.7974ZM72.5154 15.5835C73.099 16.3422 79.6942 18.2099 86.99 17.2761C89.1494 16.9842 91.3672 16.459 93.2934 15.7586C91.484 15.4084 89.091 15.1166 85.9394 14.9998C80.2196 14.8247 73.2742 14.9998 72.5154 15.5835ZM59.7334 4.55248C61.6594 5.25286 73.566 5.95324 84.4802 5.42796C86.99 5.31122 89.4996 5.13612 91.8342 4.90266C91.5424 4.8443 91.2506 4.8443 90.9588 4.8443C83.663 4.37738 62.3598 3.73536 59.7334 4.55248Z" fill="#2B173C"/>
<path d="M333.64 50.7192C323.952 50.7192 314.498 49.8438 305.276 49.0266C296.52 48.268 287.416 47.4508 278.194 47.334C277.844 47.334 277.61 47.0422 277.61 46.7504C277.61 46.4002 277.902 46.1668 278.194 46.1668C287.474 46.2836 296.58 47.1006 305.392 47.8594C319.05 49.085 331.948 50.2524 345.722 49.0266C348.058 48.8516 350.8 48.3264 351.5 46.2252C351.91 44.9994 351.5 43.5404 350.392 42.5482C349.4 41.6144 348.058 40.9724 346.19 40.6804C344.73 40.447 343.68 39.0462 343.854 37.5872C344.088 35.3108 343.68 32.2176 343.272 31.4004C337.784 20.2526 329.38 18.1515 323.31 18.2683C315.722 18.5017 309.652 22.2372 309.244 23.171C309.128 23.4628 308.778 23.5796 308.486 23.4628C308.194 23.346 308.076 22.9958 308.194 22.704C308.836 21.1282 315.43 17.2761 323.31 17.0426C329.73 16.8675 338.602 19.0854 344.38 30.8168C344.964 31.984 345.314 35.4276 345.08 37.6454C344.964 38.521 345.606 39.338 346.422 39.5132C348.524 39.8634 350.042 40.5638 351.208 41.6726C352.61 43.015 353.134 44.9412 352.61 46.5754C351.676 49.3186 348.524 49.9606 345.84 50.194C341.696 50.6026 337.668 50.7192 333.64 50.7192Z" fill="#E5A7E0"/>
<path d="M86.5814 85.2714H82.9628C82.7876 85.2714 82.6708 85.1546 82.6708 84.9796C82.6708 84.8044 82.7876 84.6878 82.9628 84.6878H86.5814C86.7564 84.6878 86.8732 84.8044 86.8732 84.9796C86.8732 85.1546 86.7564 85.2714 86.5814 85.2714Z" fill="#2B173C"/>
<path d="M75.0834 87.781C78.0812 87.781 80.5114 85.351 80.5114 82.3532C80.5114 79.3554 78.0812 76.9252 75.0834 76.9252C72.0856 76.9252 69.6556 79.3554 69.6556 82.3532C69.6556 85.351 72.0856 87.781 75.0834 87.781Z" fill="white"/>
<path d="M76.4844 87.7228C73.5078 87.7228 71.0564 85.2714 71.0564 82.2948C71.0564 79.9018 73.0408 77.9174 75.4338 77.9174C77.4182 77.9174 78.994 79.4932 78.994 81.4776C78.994 83.112 77.71 84.396 76.0758 84.396C74.7334 84.396 73.6828 83.3454 73.6828 82.003C73.6828 80.894 74.5584 80.0186 75.6672 80.0186C76.5428 80.0186 77.3014 80.7774 77.3014 81.6528C77.3014 82.4116 76.7178 82.9952 75.959 82.9952C75.784 82.9952 75.6672 82.8784 75.6672 82.7034C75.6672 82.5282 75.784 82.4116 75.959 82.4116C76.3676 82.4116 76.7178 82.0614 76.7178 81.6528C76.7178 81.0692 76.2508 80.6022 75.6672 80.6022C74.9084 80.6022 74.2664 81.2442 74.2664 82.003C74.2664 82.9952 75.0836 83.8122 76.0758 83.8122C77.3598 83.8122 78.4104 82.7618 78.4104 81.4776C78.4104 79.8434 77.068 78.501 75.4338 78.501C73.3326 78.501 71.64 80.1936 71.64 82.2948C71.64 84.9796 73.7996 87.1392 76.4844 87.1392C76.6594 87.1392 76.7762 87.2558 76.7762 87.431C76.7762 87.606 76.6594 87.7228 76.4844 87.7228Z" fill="#2B173C"/>
<path d="M93.5852 86.0886C96.0672 86.0886 98.0792 84.0764 98.0792 81.5944C98.0792 79.1124 96.0672 77.1004 93.5852 77.1004C91.1032 77.1004 89.091 79.1124 89.091 81.5944C89.091 84.0764 91.1032 86.0886 93.5852 86.0886Z" fill="white"/>
<path d="M95.0444 87.956C92.0678 87.956 89.6164 85.5046 89.6164 82.528C89.6164 80.1352 91.6008 78.1506 93.9938 78.1506C95.9782 78.1506 97.5542 79.7266 97.5542 81.711C97.5542 83.3452 96.27 84.6292 94.6358 84.6292C93.2934 84.6292 92.2428 83.5786 92.2428 82.2362C92.2428 81.1274 93.1184 80.2518 94.2272 80.2518C95.1028 80.2518 95.8616 81.0106 95.8616 81.886C95.8616 82.6448 95.2778 83.2284 94.5192 83.2284C94.344 83.2284 94.2272 83.1118 94.2272 82.9366C94.2272 82.7616 94.344 82.6448 94.5192 82.6448C94.9276 82.6448 95.2778 82.2946 95.2778 81.886C95.2778 81.3024 94.811 80.8354 94.2272 80.8354C93.4686 80.8354 92.8266 81.4776 92.8266 82.2362C92.8266 83.2284 93.6436 84.0456 94.6358 84.0456C95.9198 84.0456 96.9704 82.995 96.9704 81.711C96.9704 80.0768 95.628 78.7344 93.9938 78.7344C91.8926 78.7344 90.2002 80.427 90.2002 82.528C90.2002 85.2128 92.3596 87.3724 95.0444 87.3724C95.2196 87.3724 95.3362 87.4892 95.3362 87.6642C95.3362 87.8394 95.2196 87.956 95.0444 87.956Z" fill="#2B173C"/>
<path d="M69.5972 76.0496C69.4804 76.0496 69.3636 75.9912 69.3054 75.9328C69.0134 75.7578 68.9552 75.4076 69.1302 75.1158C69.1886 74.999 70.8812 72.431 73.1574 71.964C73.4492 71.9056 73.7994 72.0808 73.8578 72.431C73.9162 72.7228 73.741 73.073 73.3908 73.1314C71.5816 73.4814 70.1224 75.7578 70.1224 75.7578C70.0058 75.9328 69.8306 76.0496 69.5972 76.0496Z" fill="#2B173C"/>
<path d="M99.0716 76.0498C98.8966 76.0498 98.663 75.933 98.6048 75.758C98.6048 75.758 97.1456 73.4816 95.3362 73.1316C95.0444 73.0732 94.811 72.7814 94.8694 72.4312C94.9278 72.1392 95.2196 71.9058 95.5698 71.9642C97.846 72.4312 99.5386 74.9992 99.597 75.116C99.772 75.4078 99.7136 75.758 99.4218 75.933C99.3052 75.9914 99.1884 76.0498 99.0716 76.0498Z" fill="#2B173C"/>
<path d="M307.706 213.502C308.058 214.336 307.088 215.086 306.39 214.608C303.224 212.41 298.284 208.8 294.028 204.928C290.902 202.084 288.17 199.12 286.774 196.488C286.076 195.172 285.728 193.968 285.804 192.92C285.88 191.888 286.37 190.974 287.424 190.221C289.412 188.808 291.73 189.173 293.954 190.568C296.182 191.964 298.252 194.361 299.65 196.863C302.624 202.186 306.146 209.828 307.706 213.502Z" stroke="#2B173C" stroke-width="0.291826"/>
<mask id="mask0" mask-type="alpha" maskUnits="userSpaceOnUse" x="308" y="169" width="18" height="23">
<path d="M309.612 191.025C308.858 191.62 307.822 190.83 308.166 189.938C310.908 182.842 318.244 165.623 323.896 170.429C329.424 175.199 315.524 186.543 309.612 191.025Z" fill="white"/>
</mask>
<g mask="url(#mask0)">
<path d="M309.612 191.025L309.26 190.559L309.25 190.566L309.612 191.025ZM308.166 189.938L307.622 189.727V189.728L308.166 189.938ZM323.896 170.429L324.278 169.987L324.274 169.984L323.896 170.429ZM309.25 190.566C309.106 190.68 308.954 190.667 308.83 190.573C308.702 190.478 308.644 190.324 308.712 190.148L307.622 189.728C307.076 191.14 308.724 192.468 309.974 191.483L309.25 190.566ZM308.71 190.148C310.08 186.605 312.582 180.571 315.434 176.031C316.866 173.75 318.346 171.912 319.77 170.933C320.476 170.447 321.13 170.199 321.73 170.18C322.314 170.16 322.908 170.355 323.518 170.873L324.274 169.984C323.47 169.301 322.6 168.983 321.69 169.013C320.796 169.042 319.928 169.407 319.108 169.971C317.48 171.09 315.896 173.099 314.446 175.41C311.53 180.052 308.994 186.175 307.622 189.727L308.71 190.148ZM323.514 170.871C324.108 171.383 324.424 171.964 324.538 172.601C324.652 173.251 324.564 173.999 324.276 174.84C323.696 176.534 322.354 178.469 320.606 180.449C317.124 184.395 312.212 188.322 309.26 190.559L309.964 191.49C312.926 189.245 317.918 185.26 321.482 181.221C323.258 179.208 324.724 177.133 325.38 175.218C325.71 174.255 325.846 173.299 325.686 172.398C325.524 171.484 325.066 170.667 324.278 169.987L323.514 170.871Z" fill="#2B173C"/>
</g>
</svg>
