<svg width="400" height="300" viewBox="0 0 400 300" fill="none" xmlns="http://www.w3.org/2000/svg">
<path opacity="0.05" d="M9.64819 18C82.6794 18 141.883 77.2034 141.883 150.235C141.883 223.266 82.6794 282.47 9.64819 282.47" fill="#FFCBBA"/>
<path opacity="0.05" d="M9.64819 43.8262C68.4156 43.8262 116.056 91.4666 116.056 150.234C116.056 209.002 68.4156 256.642 9.64819 256.642" fill="#FFCBBA"/>
<path d="M87.538 47.8936H55.498V182.458H87.538V47.8936Z" fill="#672E61"/>
<path opacity="0.17" d="M121.776 47.8936H93.0596V71.454H121.776V47.8936Z" fill="#FFCBBA"/>
<path opacity="0.17" d="M121.776 73.1191H93.0596V75.2637H121.776V73.1191Z" fill="#FFCBBA"/>
<path opacity="0.17" d="M157.273 47.8936H128.557V71.454H157.273V47.8936Z" fill="#FFCBBA"/>
<path opacity="0.17" d="M157.273 73.1191H128.557V75.2637H157.273V73.1191Z" fill="#FFCBBA"/>
<path opacity="0.17" d="M192.77 47.8936H164.054V71.454H192.77V47.8936Z" fill="#FFCBBA"/>
<path opacity="0.17" d="M192.77 73.1191H164.054V75.2637H192.77V73.1191Z" fill="#FFCBBA"/>
<path opacity="0.17" d="M228.266 47.8936H199.551V71.454H228.266V47.8936Z" fill="#FFCBBA"/>
<path opacity="0.17" d="M228.266 73.1191H199.551V75.2637H228.266V73.1191Z" fill="#FFCBBA"/>
<path opacity="0.36" d="M121.776 81.293H93.0596V104.853H121.776V81.293Z" fill="#FFCBBA"/>
<path opacity="0.17" d="M121.776 106.521H93.0596V108.666H121.776V106.521Z" fill="#FFCBBA"/>
<path opacity="0.36" d="M157.273 81.293H128.557V104.853H157.273V81.293Z" fill="#FFCBBA"/>
<path opacity="0.17" d="M157.273 106.521H128.557V108.666H157.273V106.521Z" fill="#FFCBBA"/>
<path opacity="0.36" d="M192.77 81.293H164.054V104.853H192.77V81.293Z" fill="#FFCBBA"/>
<path opacity="0.17" d="M192.77 106.521H164.054V108.666H192.77V106.521Z" fill="#FFCBBA"/>
<path d="M228.266 81.293H199.551V104.853H228.266V81.293Z" fill="#FFCBBA"/>
<path opacity="0.83" d="M228.266 106.521H199.551V108.666H228.266V106.521Z" fill="#FFCBBA"/>
<path opacity="0.17" d="M121.776 114.692H93.0596V138.253H121.776V114.692Z" fill="#FFCBBA"/>
<path opacity="0.17" d="M121.776 139.921H93.0596V142.066H121.776V139.921Z" fill="#FFCBBA"/>
<path opacity="0.17" d="M157.273 114.692H128.557V138.253H157.273V114.692Z" fill="#FFCBBA"/>
<path opacity="0.17" d="M157.273 139.921H128.557V142.066H157.273V139.921Z" fill="#FFCBBA"/>
<path opacity="0.17" d="M192.77 114.692H164.054V138.253H192.77V114.692Z" fill="#FFCBBA"/>
<path opacity="0.17" d="M192.77 139.921H164.054V142.066H192.77V139.921Z" fill="#FFCBBA"/>
<path opacity="0.17" d="M228.266 114.692H199.551V138.253H228.266V114.692Z" fill="#FFCBBA"/>
<path opacity="0.17" d="M228.266 139.921H199.551V142.066H228.266V139.921Z" fill="#FFCBBA"/>
<path opacity="0.17" d="M121.776 148.094H93.0596V171.654H121.776V148.094Z" fill="#FFCBBA"/>
<path opacity="0.17" d="M121.776 173.321H93.0596V175.466H121.776V173.321Z" fill="#FFCBBA"/>
<path opacity="0.17" d="M157.273 148.094H128.557V171.654H157.273V148.094Z" fill="#FFCBBA"/>
<path opacity="0.17" d="M157.273 173.321H128.557V175.466H157.273V173.321Z" fill="#FFCBBA"/>
<path opacity="0.17" d="M192.77 148.094H164.054V171.654H192.77V148.094Z" fill="#FFCBBA"/>
<path opacity="0.17" d="M192.77 173.321H164.054V175.466H192.77V173.321Z" fill="#FFCBBA"/>
<path opacity="0.17" d="M228.266 148.094H199.551V171.654H228.266V148.094Z" fill="#FFCBBA"/>
<path opacity="0.17" d="M228.266 173.321H199.551V175.466H228.266V173.321Z" fill="#FFCBBA"/>
<path d="M270.178 50.8262H235.446V54.8538H270.178V50.8262Z" fill="#FFCBBA"/>
<path d="M258.64 57.1465H235.446V61.1741H258.64V57.1465Z" fill="#672E61"/>
<path d="M32.2488 279.615L28.2722 278.986L66.4902 212.23L69.8516 214.154L32.2488 279.615Z" fill="#3F1D62"/>
<path d="M42.7122 279.615L38.7356 278.986L76.954 212.23L80.3154 214.154L42.7122 279.615Z" fill="#3F1D62"/>
<path d="M235.446 81.4347C235.14 81.4347 234.892 81.1871 234.892 80.8813V38.3563C234.892 35.9087 232.902 33.9173 230.454 33.9173H53.3114C50.8638 33.9173 48.8724 35.9087 48.8724 38.3563V80.8813C48.8724 81.1871 48.6248 81.4347 48.319 81.4347C48.0132 81.4347 47.7656 81.1871 47.7656 80.8813V38.3563C47.7656 35.2985 50.2536 32.8105 53.3114 32.8105H230.454C233.512 32.8105 236 35.2985 236 38.3563V80.8813C236 81.1871 235.752 81.4347 235.446 81.4347Z" fill="#FFCBBA"/>
<path opacity="0.27" d="M48.319 105.26C48.0132 105.26 47.7656 105.012 47.7656 104.706V80.8815C47.7656 80.5757 48.0132 80.3281 48.319 80.3281C48.6248 80.3281 48.8724 80.5757 48.8724 80.8815V104.706C48.8724 105.012 48.6248 105.26 48.319 105.26Z" fill="#FFCBBA"/>
<path d="M230.454 186.665H53.3114C50.2536 186.665 47.7656 184.177 47.7656 181.12V104.706C47.7656 104.4 48.0132 104.152 48.319 104.152C48.6248 104.152 48.8724 104.4 48.8724 104.706V181.12C48.8724 183.567 50.8638 185.559 53.3114 185.559H230.454C232.902 185.559 234.892 183.567 234.892 181.12V104.712C234.892 104.406 235.14 104.159 235.446 104.159C235.752 104.159 236 104.406 236 104.712V181.12C236 184.177 233.512 186.665 230.454 186.665Z" fill="#FFCBBA"/>
<path opacity="0.23" d="M235.446 105.266C235.14 105.266 234.894 105.019 234.894 104.713V80.8815C234.894 80.5757 235.14 80.3281 235.446 80.3281C235.752 80.3281 236 80.5757 236 80.8815V104.713C236 105.019 235.752 105.266 235.446 105.266Z" fill="#FFCBBA"/>
<path d="M399.336 280.058H0.663626C0.297226 280.058 0 279.76 0 279.394C0 279.028 0.297226 278.73 0.663626 278.73H399.336C399.702 278.73 400 279.028 400 279.394C400 279.76 399.702 280.058 399.336 280.058Z" fill="#FFCBBA"/>
<path opacity="0.05" d="M387.304 278.806C387.304 205.776 328.102 146.572 255.07 146.572C182.039 146.572 122.836 205.776 122.836 278.806" fill="#FFCBBA"/>
<path opacity="0.66" d="M367.66 258.394C367.412 258.394 367.186 258.226 367.124 257.972C359.862 228.328 342.288 201.924 317.644 183.623C317.398 183.441 317.346 183.095 317.53 182.849C317.712 182.604 318.058 182.554 318.302 182.735C343.154 201.188 360.876 227.814 368.198 257.71C368.272 258.006 368.09 258.306 367.792 258.378C367.748 258.39 367.704 258.394 367.66 258.394Z" fill="#FFCBBA"/>
<path d="M297.168 274.636C296.336 274.636 295.61 274.022 295.492 273.174L293.178 256.606C293.048 255.678 293.696 254.822 294.622 254.692C295.546 254.562 296.406 255.208 296.536 256.136L298.85 272.706C298.98 273.634 298.332 274.49 297.406 274.62C297.326 274.63 297.248 274.636 297.168 274.636Z" fill="#E27C64"/>
<path d="M299.408 269.014C299.408 269.014 296.184 270.16 294.22 268.682C294.22 268.682 282.59 272.776 279.842 273.432C278.442 273.764 277.6 274.334 277.114 274.918C276.61 275.518 277.07 276.438 277.854 276.438H300.606C300.606 276.438 303.092 272.698 299.408 269.014Z" fill="#672E61"/>
<path d="M300.004 278.776H277.778C276.976 278.776 276.326 278.126 276.326 277.324C276.326 276.52 276.976 275.87 277.778 275.87H300.004C300.808 275.87 301.458 276.52 301.458 277.324C301.458 278.126 300.808 278.776 300.004 278.776Z" fill="#3F1D62"/>
<path d="M288.892 274.94C288.644 274.94 288.396 274.846 288.206 274.658L284.5 270.95C284.122 270.572 284.122 269.958 284.5 269.58C284.878 269.202 285.492 269.202 285.87 269.58L289.578 273.286C289.956 273.666 289.956 274.278 289.578 274.658C289.388 274.846 289.14 274.94 288.892 274.94Z" fill="#FFCBBA"/>
<path d="M292.48 273.088C292.232 273.088 291.984 272.992 291.794 272.804L288.088 269.098C287.71 268.718 287.71 268.106 288.088 267.726C288.466 267.348 289.078 267.348 289.458 267.726L293.166 271.434C293.544 271.812 293.544 272.424 293.166 272.804C292.976 272.992 292.728 273.088 292.48 273.088Z" fill="#FFCBBA"/>
<path d="M278.222 274.18C277.272 274.18 276.442 273.48 276.306 272.512L273.664 253.584C273.516 252.524 274.254 251.544 275.314 251.396C276.372 251.254 277.352 251.988 277.5 253.046L280.144 271.977C280.292 273.037 279.552 274.014 278.494 274.162C278.402 274.174 278.312 274.18 278.222 274.18Z" fill="#E27C64"/>
<path d="M280.782 267.756C280.782 267.756 277.096 269.066 274.854 267.38C274.854 267.38 261.568 272.056 258.428 272.804C256.828 273.184 255.868 273.836 255.31 274.502C254.736 275.188 255.262 276.238 256.156 276.238H282.15C282.15 276.238 284.99 271.966 280.782 267.756Z" fill="#3F1D62"/>
<path d="M281.462 278.908H256.072C255.154 278.908 254.412 278.166 254.412 277.248C254.412 276.332 255.154 275.588 256.072 275.588H281.462C282.38 275.588 283.122 276.332 283.122 277.248C283.122 278.166 282.38 278.908 281.462 278.908Z" fill="#FFCBBA"/>
<path d="M268.766 274.53C268.484 274.53 268.2 274.422 267.984 274.206L263.75 269.97C263.316 269.538 263.316 268.838 263.75 268.406C264.182 267.974 264.882 267.974 265.314 268.406L269.548 272.64C269.982 273.074 269.982 273.774 269.548 274.206C269.332 274.422 269.05 274.53 268.766 274.53Z" fill="#672E61"/>
<path d="M272.866 272.412C272.584 272.412 272.3 272.304 272.084 272.088L267.848 267.852C267.416 267.42 267.416 266.72 267.848 266.288C268.282 265.854 268.982 265.854 269.414 266.288L273.65 270.522C274.082 270.954 274.082 271.654 273.65 272.088C273.432 272.304 273.15 272.412 272.866 272.412Z" fill="#672E61"/>
<path d="M270.942 84.249C270.942 84.249 266.946 85.5812 267.516 86.723C268.088 87.865 270.372 90.1758 270.372 90.1758L270.942 84.249Z" fill="#E27C64"/>
<path d="M259.696 165.274C259.696 165.274 254.866 168.946 248.11 167.43C241.354 165.915 241.25 165.616 240.2 163.671C239.148 161.726 238.866 157.824 239.362 156.78C239.858 155.735 248.044 158.113 247.87 157.085C247.696 156.057 242.784 155.62 243.4 153.91C244.014 152.199 256.53 155.491 258.656 156.797C260.78 158.104 259.696 165.274 259.696 165.274Z" fill="#E27C64"/>
<path d="M284.88 97.8545H277.244V112.044H284.88V97.8545Z" fill="#E27C64"/>
<path d="M291.2 89.6441C291.2 95.7223 286.272 100.65 280.194 100.65C274.116 100.65 269.19 95.7223 269.19 89.6441C269.19 87.5543 271.326 74.3457 275.314 74.3457C281.392 74.3457 291.2 83.5661 291.2 89.6441Z" fill="#E27C64"/>
<path d="M267.996 173.646C265.156 173.647 263.29 173.369 262.754 173.278L266.554 150.91C266.554 150.91 266.488 150.896 266.358 150.879C266.716 150.926 275.294 151.967 285.508 145.192C291.734 141.062 292.728 131.4 290.092 124.445C287.872 118.587 290.822 112.037 296.68 109.817C302.538 107.595 309.088 110.545 311.308 116.404C314.262 124.195 314.924 133.004 313.172 141.209C311.11 150.869 305.74 158.998 298.048 164.1C285.782 172.236 274.406 173.646 267.996 173.646Z" fill="#FFCBBA"/>
<path d="M262.754 173.278L266.554 150.91C260.434 151.303 257.7 155.498 257.156 161.751C256.722 166.753 260.706 171.52 262.754 173.278Z" fill="#FFCBBA"/>
<path d="M229.496 44.9877H54.2706C52.9214 44.9877 51.8276 43.8939 51.8276 42.5447V39.1889C51.8276 37.8397 52.9214 36.7461 54.2706 36.7461H229.496C230.846 36.7461 231.94 37.8397 231.94 39.1889V42.5447C231.94 43.8939 230.846 44.9877 229.496 44.9877Z" fill="#FFCBBA"/>
<path d="M291.496 186.651H271.694L268.632 154.646H307.684V172.511C307.684 180.32 300.436 186.651 291.496 186.651Z" fill="#3F1D62"/>
<path d="M254.518 204.15H29.246C27.609 204.15 26.282 202.822 26.282 201.186C26.282 199.548 27.609 198.221 29.246 198.221H254.518C256.156 198.221 257.482 199.548 257.482 201.186C257.482 202.822 256.156 204.15 254.518 204.15Z" fill="#FFCBBA"/>
<path d="M267.558 217.188H42.2854C40.6484 217.188 39.3212 215.862 39.3212 214.224C39.3212 212.588 40.6484 211.26 42.2854 211.26H267.558C269.196 211.26 270.522 212.588 270.522 214.224C270.522 215.862 269.196 217.188 267.558 217.188Z" fill="#FFCBBA"/>
<path d="M261.876 105.26H38.5532V80.3281H261.876V105.26ZM39.66 104.153H260.77V81.4349H39.66V104.153Z" fill="#FFCBBA"/>
<path d="M273.48 262.68L263.86 217.078L263.728 216.45L263.956 214.742C264.374 211.63 264.86 208.53 265.342 205.43C265.84 202.332 266.344 199.237 266.88 196.148C267.394 193.054 267.966 189.972 268.51 186.885L270.226 177.639L270.056 179.352C270.056 178.803 270.044 178.255 270.054 177.707C270.082 177.158 270.082 176.61 270.138 176.061C270.176 175.513 270.244 174.965 270.32 174.416C270.41 173.868 270.498 173.32 270.656 172.771H286.704C286.86 173.32 286.948 173.868 287.04 174.416C287.114 174.965 287.184 175.513 287.22 176.061C287.278 176.61 287.278 177.158 287.306 177.707C287.316 178.255 287.304 178.803 287.304 179.352V180.282L287.132 181.064L285.116 190.249C284.416 193.305 283.742 196.366 283.012 199.416C282.304 202.47 281.564 205.518 280.818 208.564C280.054 211.608 279.296 214.652 278.468 217.682L278.564 215.346L279.8 261.936L273.48 262.68Z" fill="#3F1D62"/>
<path d="M292.386 265.798C291.976 262.204 291.628 258.61 291.262 255.016L290.254 244.232L289.342 233.446C289.048 229.85 288.726 226.256 288.476 222.66V222.652L288.49 222.118L289.152 196.676L289.462 183.994L289.59 177.711L289.612 174.651C289.614 174.157 289.612 173.665 289.602 173.23C289.598 173.015 289.59 172.803 289.582 172.663C289.578 172.565 289.572 172.573 289.57 172.531C289.57 172.565 289.572 172.613 289.576 172.653L289.606 172.905C289.622 173.022 289.642 173.138 289.666 173.254L305.392 170.053C305.426 170.234 305.456 170.415 305.482 170.598C305.508 170.772 305.534 171.003 305.536 171.048L305.574 171.567C305.582 171.79 305.594 172.064 305.594 172.23C305.598 172.622 305.594 172.94 305.588 173.256C305.578 173.884 305.556 174.453 305.532 175.021C305.484 176.151 305.416 177.243 305.348 178.329L304.89 184.777C304.558 189.049 304.164 193.297 303.782 197.543L303.194 203.908L302.548 210.264L301.222 222.974L301.236 222.434C301.116 226.036 300.92 229.64 300.752 233.244L300.224 244.054L299.6 254.868C299.358 258.472 299.138 262.078 298.856 265.682L292.386 265.798Z" fill="#3F1D62"/>
<path d="M297.53 165.626L275.69 164.859C268.478 164.605 262.884 158.473 263.292 151.268L264.968 132.708L262.162 116.698C261.412 112.425 264.27 108.354 268.542 107.605L282.862 105.095C296.568 102.691 309.63 111.855 312.032 125.562C312.538 128.446 312.672 131.383 312.428 134.301L310.834 153.49C310.438 160.48 304.528 165.872 297.53 165.626Z" fill="#672E61"/>
<path d="M295.774 84.2697C293.234 93.2421 289.084 87.2141 282.794 87.2141C278.682 87.2141 272.518 83.4255 269.252 77.6525C265.986 71.8797 269.868 67.1941 272.078 67.6723C276.614 68.6529 280.844 71.6221 284.386 71.6221C290.676 71.6221 297.678 77.5489 295.774 84.2697Z" fill="#FFCBBA"/>
<path d="M294.11 93.4987C294.11 98.5147 291.404 99.4711 286.366 99.4711C281.328 99.4711 276.004 94.2115 276.004 89.1957C276.004 84.1799 281.328 81.3071 286.366 81.3071C288.886 81.3071 292.07 80.3503 294.272 81.3071C299.462 83.5613 294.11 90.9909 294.11 93.4987Z" fill="#FFCBBA"/>
<path d="M277.64 88.0519C278.082 85.9939 277.28 84.0777 275.852 83.7719C274.422 83.4661 272.908 84.8867 272.468 86.9447C272.026 89.0027 272.828 90.9189 274.256 91.2247C275.686 91.5305 277.2 90.1099 277.64 88.0519Z" fill="#E27C64"/>
<path d="M274.806 91.7027C273.728 91.7027 272.956 90.7455 272.92 90.7013C272.826 90.5819 272.846 90.4083 272.966 90.3133C273.086 90.2187 273.258 90.2381 273.354 90.3571C273.362 90.3661 274.114 91.2897 275.02 91.1309C275.894 90.9811 276.71 89.8853 277.38 87.9613C277.432 87.8171 277.59 87.7409 277.732 87.7905C277.876 87.8409 277.954 87.9987 277.904 88.1429C277.152 90.3019 276.212 91.4913 275.11 91.6773C275.006 91.6945 274.906 91.7027 274.806 91.7027Z" fill="black"/>
<path d="M274.11 89.652C273.878 89.652 273.654 89.5362 273.502 89.3364C273.336 89.1206 273.286 88.8522 273.37 88.6164C273.476 88.3122 273.742 88.1404 273.956 88.002C274.112 87.901 274.266 87.788 274.29 87.666C274.294 87.6426 274.266 87.5908 274.244 87.5794C274.106 87.6502 273.966 87.5952 273.896 87.459C273.824 87.3232 273.902 87.1542 274.038 87.0838C274.212 86.9948 274.414 87.0152 274.582 87.1418C274.78 87.2904 274.88 87.546 274.832 87.7766C274.758 88.143 274.424 88.3576 274.264 88.4608C274.098 88.5684 273.936 88.6738 273.892 88.7996C273.872 88.8576 273.89 88.9338 273.94 88.9996C273.99 89.0644 274.05 89.1126 274.12 89.098C274.266 89.0844 274.404 89.2012 274.416 89.3536C274.428 89.506 274.314 89.6384 274.16 89.6502C274.144 89.6514 274.126 89.652 274.11 89.652Z" fill="black"/>
<path d="M310.284 174.231L309.83 174.194C309.958 172.618 310.078 169.949 309.854 169.497C309.478 169.191 305.368 169.305 301.542 169.606V171.653H301.086V169.186L301.296 169.169C304.494 168.911 309.91 168.585 310.262 169.295C310.608 169.993 310.342 173.529 310.284 174.231Z" fill="black"/>
<path d="M280.692 174.244C280.606 173.535 280.21 169.96 280.744 169.232C281.252 168.537 289.2 168.863 293.892 169.119L294.154 169.133V171.653H293.602V169.657C287.938 169.355 281.722 169.23 281.16 169.588C280.92 169.928 281.004 172.197 281.24 174.179L280.692 174.244Z" fill="black"/>
<path d="M294.23 261.176C294.088 261.176 293.968 261.068 293.956 260.922L290.76 222.574L292.232 188.491C292.24 188.338 292.366 188.218 292.522 188.226C292.674 188.233 292.792 188.362 292.786 188.515L291.312 222.562L294.506 260.876C294.52 261.028 294.406 261.162 294.254 261.176C294.246 261.176 294.238 261.176 294.23 261.176Z" fill="black"/>
<path d="M276.584 259.35C276.456 259.35 276.342 259.26 276.314 259.13L267.276 217.19L274.674 181.637L274.788 175.059C273.616 174.776 272.754 174.181 272.22 173.289C271.314 171.769 271.35 169.459 272.336 166.225C272.38 166.08 272.532 165.997 272.68 166.041C272.828 166.086 272.91 166.241 272.866 166.387C271.942 169.419 271.884 171.646 272.696 173.004C273.186 173.825 273.98 174.337 275.124 174.566L275.35 174.612L275.222 181.698L267.84 217.188L276.856 259.014C276.888 259.164 276.792 259.31 276.644 259.342C276.624 259.346 276.604 259.35 276.584 259.35Z" fill="black"/>
<path opacity="0.66" d="M372.894 44.3802H320.292C319.986 44.3802 319.738 44.1326 319.738 43.8268C319.738 43.5208 319.986 43.2734 320.292 43.2734H372.894C373.2 43.2734 373.448 43.5208 373.448 43.8268C373.448 44.1326 373.2 44.3802 372.894 44.3802Z" fill="#FFCBBA"/>
<path opacity="0.66" d="M372.894 48.4466H320.292C319.986 48.4466 319.738 48.199 319.738 47.8932C319.738 47.5872 319.986 47.3398 320.292 47.3398H372.894C373.2 47.3398 373.448 47.5872 373.448 47.8932C373.448 48.199 373.2 48.4466 372.894 48.4466Z" fill="#FFCBBA"/>
<path opacity="0.66" d="M338.078 72.006H319.738V53.667H338.078V72.006ZM320.846 70.8992H336.972V54.7738H320.846V70.8992Z" fill="#FFCBBA"/>
<path opacity="0.66" d="M373.448 72.006H342.264V53.667H373.448V72.006ZM343.37 70.8992H372.34V54.7738H343.37V70.8992Z" fill="#FFCBBA"/>
<path opacity="0.17" d="M335.046 57.1143H317.814V74.3467H335.046V57.1143Z" fill="#FFCBBA"/>
<path opacity="0.17" d="M370.416 57.1143H340.338V74.3467H370.416V57.1143Z" fill="#FFCBBA"/>
<path opacity="0.17" d="M383.224 127.725H327.53V144.957H383.224V127.725Z" fill="#FFCBBA"/>
<path opacity="0.66" d="M373.448 155.2H319.738V87.499H373.448V120.426C373.448 120.732 373.2 120.979 372.894 120.979C372.588 120.979 372.34 120.732 372.34 120.426V88.6056H320.846V154.093H372.34V146.572C372.34 146.266 372.588 146.019 372.894 146.019C373.2 146.019 373.448 146.266 373.448 146.572V155.2Z" fill="#FFCBBA"/>
<path opacity="0.17" d="M328.428 99.865C329.54 99.865 330.44 98.9646 330.44 97.854C330.44 96.7432 329.54 95.8428 328.428 95.8428C327.318 95.8428 326.418 96.7432 326.418 97.854C326.418 98.9646 327.318 99.865 328.428 99.865Z" fill="#FFCBBA"/>
<path opacity="0.17" d="M328.428 108.97C329.54 108.97 330.44 108.07 330.44 106.959C330.44 105.849 329.54 104.948 328.428 104.948C327.318 104.948 326.418 105.849 326.418 106.959C326.418 108.07 327.318 108.97 328.428 108.97Z" fill="#FFCBBA"/>
<path opacity="0.17" d="M328.428 118.078C329.54 118.078 330.44 117.177 330.44 116.067C330.44 114.956 329.54 114.056 328.428 114.056C327.318 114.056 326.418 114.956 326.418 116.067C326.418 117.177 327.318 118.078 328.428 118.078Z" fill="#FFCBBA"/>
<path opacity="0.17" d="M351.656 95.8428H333.34V99.8652H351.656V95.8428Z" fill="#FFCBBA"/>
<path opacity="0.17" d="M351.656 104.948H333.34V108.97H351.656V104.948Z" fill="#FFCBBA"/>
<path opacity="0.17" d="M351.656 114.056H333.34V118.078H351.656V114.056Z" fill="#FFCBBA"/>
<path opacity="0.17" d="M366.77 96.1719H354.56V96.8281H366.77V96.1719Z" fill="#FFCBBA"/>
<path opacity="0.17" d="M366.77 97.6562H354.56V98.3124H366.77V97.6562Z" fill="#FFCBBA"/>
<path opacity="0.17" d="M366.77 99.1426H354.56V99.7986H366.77V99.1426Z" fill="#FFCBBA"/>
<path opacity="0.17" d="M366.77 105.146H354.56V105.802H366.77V105.146Z" fill="#FFCBBA"/>
<path opacity="0.17" d="M366.77 106.632H354.56V107.288H366.77V106.632Z" fill="#FFCBBA"/>
<path opacity="0.17" d="M366.77 108.118H354.56V108.774H366.77V108.118Z" fill="#FFCBBA"/>
<path opacity="0.17" d="M366.77 114.122H354.56V114.778H366.77V114.122Z" fill="#FFCBBA"/>
<path opacity="0.17" d="M366.77 115.608H354.56V116.265H366.77V115.608Z" fill="#FFCBBA"/>
<path opacity="0.17" d="M366.77 117.093H354.56V117.749H366.77V117.093Z" fill="#FFCBBA"/>
<path opacity="0.66" d="M387.858 141.546H329.886V124.485H387.858V141.546ZM330.992 140.439H386.752V125.592H330.992V140.439Z" fill="#FFCBBA"/>
<path opacity="0.38" d="M46.3866 202.37C47.202 202.37 47.863 201.71 47.863 200.894C47.863 200.078 47.202 199.418 46.3866 199.418C45.5714 199.418 44.9104 200.078 44.9104 200.894C44.9104 201.71 45.5714 202.37 46.3866 202.37Z" fill="#FFCBBA"/>
<path opacity="0.38" d="M50.5367 202.37C51.3521 202.37 52.0129 201.71 52.0129 200.894C52.0129 200.078 51.3521 199.418 50.5367 199.418C49.7213 199.418 49.0605 200.078 49.0605 200.894C49.0605 201.71 49.7213 202.37 50.5367 202.37Z" fill="black"/>
<path opacity="0.38" d="M54.9703 202.37C55.7857 202.37 56.4465 201.71 56.4465 200.894C56.4465 200.078 55.7857 199.418 54.9703 199.418C54.1549 199.418 53.4941 200.078 53.4941 200.894C53.4941 201.71 54.1549 202.37 54.9703 202.37Z" fill="#FFCBBA"/>
<path d="M136.066 190.856C135.76 190.856 135.513 190.608 135.513 190.302V181.92C135.513 181.614 135.76 181.366 136.066 181.366C136.372 181.366 136.62 181.614 136.62 181.92V190.302C136.62 190.608 136.372 190.856 136.066 190.856Z" fill="#FFCBBA"/>
<path d="M141.883 188.822C141.577 188.822 141.33 188.575 141.33 188.269V181.92C141.33 181.614 141.577 181.366 141.883 181.366C142.189 181.366 142.436 181.614 142.436 181.92V188.269C142.436 188.575 142.189 188.822 141.883 188.822Z" fill="#FFCBBA"/>
<path d="M147.7 190.856C147.394 190.856 147.146 190.608 147.146 190.302V181.92C147.146 181.614 147.394 181.366 147.7 181.366C148.005 181.366 148.253 181.614 148.253 181.92V190.302C148.253 190.608 148.005 190.856 147.7 190.856Z" fill="#FFCBBA"/>
<path d="M236.652 229.446C236.346 229.446 236.098 229.198 236.098 228.894V220.51C236.098 220.204 236.346 219.956 236.652 219.956C236.956 219.956 237.204 220.204 237.204 220.51V228.894C237.204 229.198 236.956 229.446 236.652 229.446Z" fill="#FFCBBA"/>
<path d="M242.468 227.412C242.162 227.412 241.914 227.164 241.914 226.858V220.51C241.914 220.204 242.162 219.956 242.468 219.956C242.774 219.956 243.022 220.204 243.022 220.51V226.858C243.022 227.164 242.774 227.412 242.468 227.412Z" fill="#FFCBBA"/>
<path d="M248.284 229.446C247.978 229.446 247.732 229.198 247.732 228.894V220.51C247.732 220.204 247.978 219.956 248.284 219.956C248.59 219.956 248.838 220.204 248.838 220.51V228.894C248.838 229.198 248.59 229.446 248.284 229.446Z" fill="#FFCBBA"/>
<path d="M13.8396 32.6263H5.4567C5.15082 32.6263 4.90332 32.3789 4.90332 32.0729C4.90332 31.7671 5.15082 31.5195 5.4567 31.5195H13.8396C14.1454 31.5195 14.393 31.7671 14.393 32.0729C14.393 32.3789 14.1454 32.6263 13.8396 32.6263Z" fill="#FFCBBA"/>
<path d="M11.8055 26.8109H5.4567C5.15082 26.8109 4.90332 26.5633 4.90332 26.2575C4.90332 25.9515 5.15082 25.7041 5.4567 25.7041H11.8055C12.1113 25.7041 12.3588 25.9515 12.3588 26.2575C12.3588 26.5633 12.1113 26.8109 11.8055 26.8109Z" fill="#FFCBBA"/>
<path d="M13.8396 20.9935H5.4567C5.15082 20.9935 4.90332 20.7459 4.90332 20.4401C4.90332 20.1343 5.15082 19.8867 5.4567 19.8867H13.8396C14.1454 19.8867 14.393 20.1343 14.393 20.4401C14.393 20.7459 14.1454 20.9935 13.8396 20.9935Z" fill="#FFCBBA"/>
<path opacity="0.66" d="M360.954 35.1937C360.648 35.1937 360.4 34.9463 360.4 34.6403V26.2575C360.4 25.9515 360.648 25.7041 360.954 25.7041C361.26 25.7041 361.506 25.9515 361.506 26.2575V34.6403C361.506 34.9463 361.26 35.1937 360.954 35.1937Z" fill="#FFCBBA"/>
<path opacity="0.66" d="M366.77 33.1586C366.464 33.1586 366.216 32.911 366.216 32.6052V21.9304C366.216 21.6246 366.464 21.377 366.77 21.377C367.076 21.377 367.324 21.6246 367.324 21.9304V32.6052C367.324 32.911 367.076 33.1586 366.77 33.1586Z" fill="#FFCBBA"/>
<path opacity="0.66" d="M372.586 35.1937C372.28 35.1937 372.034 34.9463 372.034 34.6403V26.2575C372.034 25.9515 372.28 25.7041 372.586 25.7041C372.892 25.7041 373.14 25.9515 373.14 26.2575V34.6403C373.14 34.9463 372.892 35.1937 372.586 35.1937Z" fill="#FFCBBA"/>
<path d="M371.536 164.226C372.6 164.226 373.464 163.363 373.464 162.299C373.464 161.235 372.6 160.372 371.536 160.372C370.472 160.372 369.61 161.235 369.61 162.299C369.61 163.363 370.472 164.226 371.536 164.226Z" fill="#3F1D62"/>
<path d="M371.536 173.809C372.6 173.809 373.464 172.946 373.464 171.882C373.464 170.818 372.6 169.955 371.536 169.955C370.472 169.955 369.61 170.818 369.61 171.882C369.61 172.946 370.472 173.809 371.536 173.809Z" fill="#672E61"/>
<path opacity="0.66" d="M371.538 200.616C366.696 200.616 362.758 196.676 362.758 191.835C362.758 186.993 366.696 183.055 371.538 183.055C376.378 183.055 380.318 186.993 380.318 191.835C380.318 196.676 376.378 200.616 371.538 200.616ZM371.538 184.161C367.306 184.161 363.864 187.604 363.864 191.835C363.864 196.066 367.306 199.509 371.538 199.509C375.768 199.509 379.21 196.066 379.21 191.835C379.21 187.604 375.768 184.161 371.538 184.161Z" fill="#FFCBBA"/>
<path opacity="0.17" d="M371.536 196.137C373.912 196.137 375.84 194.21 375.84 191.834C375.84 189.458 373.912 187.531 371.536 187.531C369.16 187.531 367.234 189.458 367.234 191.834C367.234 194.21 369.16 196.137 371.536 196.137Z" fill="#3F1D62"/>
<path opacity="0.66" d="M371.772 194.678L369.318 192.225C369.102 192.009 369.102 191.659 369.318 191.443C369.534 191.227 369.884 191.227 370.102 191.443L371.772 193.113L376.314 188.569C376.53 188.353 376.88 188.353 377.096 188.569C377.312 188.786 377.312 189.136 377.096 189.352L371.772 194.678Z" fill="#FFCBBA"/>
<path d="M214.288 247.124H108.078C107.772 247.124 107.525 246.876 107.525 246.57C107.525 246.264 107.772 246.018 108.078 246.018H214.288C214.594 246.018 214.842 246.264 214.842 246.57C214.842 246.876 214.594 247.124 214.288 247.124Z" fill="#FFCBBA"/>
<path d="M70.3866 154.646H56.1936V168.839H70.3866V154.646Z" fill="#FFCBBA"/>
<path d="M227.574 154.646H213.38V168.839H227.574V154.646Z" fill="#FFCBBA"/>
<path opacity="0.17" d="M220.476 154.646H61.9446V168.839H220.476V154.646Z" fill="#FFCBBA"/>
<path opacity="0.1" d="M261.322 80.8818H39.1062V104.706H261.322V80.8818Z" fill="#FFCBBA"/>
<path d="M214.288 118.673C214.288 118.673 208.208 114.728 207.182 106.52C206.156 98.312 209.426 96.033 211.188 94.0654C212.95 92.098 212.914 89.4522 214.288 89.588C215.664 89.7236 217.63 102.681 218.716 102.071C219.802 101.46 218.31 95.7616 220.48 95.7616C222.652 95.7616 224.008 111.162 223.398 114.079C222.786 116.996 214.288 118.673 214.288 118.673Z" fill="#E27C64"/>
<path d="M279.406 123.631C278.984 124.5 275.106 132.33 268.986 139.596C259.92 150.359 251.372 153.314 244.714 153.314C241 153.314 237.88 152.396 235.584 151.394C216.418 143.035 211.44 124.15 211.44 121.788C211.44 115.491 216.542 110.383 222.838 110.383C227.792 110.383 232.008 113.543 233.58 117.959L233.624 117.992C234.786 120.93 237.664 127.56 244.626 130.587C244.686 130.615 244.714 130.62 244.714 130.62C247.066 130.57 254.304 123.282 259.008 113.698C261.764 108.081 268.548 105.746 274.17 108.49C279.792 111.235 282.14 118.003 279.406 123.631Z" fill="#672E61"/>
<path d="M258.928 149.361C258.782 149.361 258.638 149.305 258.53 149.192C258.316 148.972 258.324 148.621 258.544 148.41C263.726 143.414 273.42 133.182 276.878 126.519C277.914 124.525 279.7 118.765 278.266 114.64C277.634 112.824 276.44 111.511 274.718 110.736C274.44 110.611 274.316 110.284 274.442 110.005C274.568 109.727 274.896 109.603 275.172 109.727C277.184 110.631 278.576 112.161 279.31 114.277C280.878 118.783 279.01 124.814 277.86 127.029C274.336 133.819 264.542 144.164 259.312 149.206C259.204 149.31 259.066 149.361 258.928 149.361Z" fill="#FFCBBA"/>
</svg>
