<svg width="400" height="300" viewBox="0 0 400 300" fill="none" xmlns="http://www.w3.org/2000/svg">
<g clip-path="url(#clip0)">
<path fill-rule="evenodd" clip-rule="evenodd" d="M216.232 61.9854C213.44 61.9854 211.176 64.2486 211.176 67.0406C211.176 69.8324 213.44 72.0956 216.232 72.0956C219.024 72.0956 221.286 69.8324 221.286 67.0406C221.286 64.2486 219.024 61.9854 216.232 61.9854ZM210.648 67.0406C210.648 63.9568 213.148 61.457 216.232 61.457C219.316 61.457 221.816 63.9568 221.816 67.0406C221.816 70.1242 219.316 72.624 216.232 72.624C213.148 72.624 210.648 70.1242 210.648 67.0406Z" fill="#3C448A"/>
<path opacity="0.4" fill-rule="evenodd" clip-rule="evenodd" d="M265.938 102.208C265.336 102.321 264.794 102.27 264.394 101.95C264.084 101.703 263.912 101.334 263.836 100.902C263.76 100.47 263.776 99.9543 263.86 99.3757C264.03 98.2181 264.484 96.7535 265.122 95.0997C266.404 91.7887 268.452 87.6595 270.552 83.5965C271.258 82.2285 271.97 80.8681 272.662 79.5481C274.028 76.9413 275.31 74.4917 276.306 72.4495C277.056 70.9107 277.636 69.6153 277.966 68.6657C278.13 68.1887 278.226 67.8145 278.254 67.5473C278.266 67.4135 278.26 67.3219 278.246 67.2643C278.238 67.2287 278.228 67.2145 278.226 67.2101C278.218 67.2077 278.188 67.2009 278.114 67.2207C278.016 67.2469 277.88 67.3105 277.702 67.4243C277.348 67.6507 276.886 68.0391 276.328 68.5773C275.21 69.6507 273.744 71.2797 272.032 73.2823C269.762 75.9395 267.07 79.2397 264.212 82.7463C262.762 84.5241 261.27 86.3551 259.766 88.1821C255.302 93.6083 250.746 98.9991 246.972 102.839C245.088 104.757 243.388 106.299 241.986 107.265C241.284 107.747 240.646 108.095 240.084 108.27C239.526 108.444 239.004 108.459 238.582 108.209C238.174 107.969 237.95 107.537 237.838 107.031C237.724 106.523 237.714 105.902 237.766 105.222C237.87 103.859 238.232 102.187 238.614 100.555C238.688 100.241 238.762 99.9281 238.836 99.6191C239.144 98.3135 239.438 97.0749 239.598 96.0659C239.696 95.4413 239.74 94.9247 239.712 94.5453C239.68 94.1439 239.574 94.0019 239.492 93.9611C239.44 93.9363 239.35 93.9227 239.192 93.9761C239.032 94.0297 238.832 94.1421 238.588 94.3245C238.102 94.6883 237.498 95.2923 236.79 96.1161C235.374 97.7605 233.58 100.234 231.538 103.279C227.456 109.365 222.404 117.701 217.444 126.16C215.358 129.717 217.85 134.21 221.972 134.325C236.586 134.734 256.812 135.005 274.164 134.943C282.838 134.912 290.794 134.797 296.968 134.575C300.056 134.464 302.696 134.326 304.758 134.159C306.828 133.99 308.292 133.794 309.04 133.571C320.04 130.309 326.642 120.669 329.732 111.324C331.278 106.654 331.94 102.076 331.84 98.4359C331.79 96.6149 331.55 95.0381 331.14 93.8051C330.728 92.5665 330.158 91.7075 329.47 91.2739C328.92 90.9261 328.216 90.8635 327.358 91.0575C326.5 91.2515 325.516 91.6969 324.444 92.3235C322.3 93.5765 319.858 95.5155 317.424 97.4729C317.29 97.5809 317.156 97.6887 317.022 97.7965C314.734 99.6385 312.468 101.463 310.508 102.674C309.47 103.315 308.5 103.796 307.646 104.014C306.792 104.232 306.006 104.197 305.392 103.738C304.642 103.177 304.386 102.166 304.422 100.936C304.458 99.6945 304.792 98.1509 305.316 96.4199C306.364 92.9553 308.196 88.6667 310.034 84.4037C310.112 84.2215 310.19 84.0393 310.27 83.8573C312.032 79.7709 313.77 75.7399 314.82 72.4797C315.368 70.7759 315.724 69.3003 315.8 68.1471C315.878 66.9767 315.664 66.2289 315.192 65.8619C314.888 65.6269 314.458 65.5295 313.876 65.5953C313.292 65.6613 312.582 65.8885 311.758 66.2673C310.11 67.0249 308.062 68.3615 305.74 70.0975C301.098 73.5673 295.414 78.5925 289.754 83.6485C289.276 84.0753 288.798 84.5025 288.32 84.9291C283.152 89.5477 278.078 94.0827 273.926 97.3481C271.66 99.1305 269.658 100.544 268.056 101.387C267.258 101.808 266.544 102.095 265.938 102.208ZM278.228 67.2109C278.228 67.2109 278.226 67.2107 278.226 67.2105L278.228 67.2109ZM278.224 67.2093C278.224 67.2089 278.224 67.2085 278.224 67.2085C278.224 67.2085 278.224 67.2087 278.224 67.2093ZM313.816 65.0703C314.48 64.9953 315.066 65.0957 315.516 65.4445C316.212 65.9845 316.408 66.9805 316.328 68.1821C316.246 69.4007 315.876 70.9255 315.322 72.6417C314.264 75.9267 312.518 79.9789 310.76 84.0539C310.68 84.2401 310.6 84.4265 310.518 84.6127C308.678 88.8837 306.86 93.1427 305.822 96.5729C305.302 98.2893 304.984 99.7799 304.95 100.951C304.916 102.133 305.172 102.914 305.71 103.315C306.142 103.639 306.738 103.7 307.516 103.502C308.294 103.304 309.208 102.856 310.23 102.225C312.16 101.031 314.404 99.2263 316.702 97.3755C316.832 97.2709 316.964 97.1661 317.094 97.0613C319.52 95.1099 321.992 93.1439 324.178 91.8671C325.27 91.2289 326.306 90.7533 327.242 90.5421C328.178 90.3305 329.04 90.3779 329.752 90.8271C330.588 91.3545 331.212 92.3471 331.642 93.6385C332.072 94.9355 332.318 96.5671 332.368 98.4213C332.47 102.131 331.796 106.77 330.234 111.49C327.114 120.922 320.422 130.747 309.19 134.078C308.38 134.318 306.864 134.518 304.8 134.685C302.728 134.854 300.078 134.992 296.988 135.103C290.804 135.326 282.844 135.44 274.166 135.471C256.808 135.533 236.576 135.262 221.958 134.853C217.434 134.727 214.698 129.797 216.988 125.893C221.948 117.432 227.008 109.085 231.1 102.985C233.144 99.9359 234.952 97.4405 236.39 95.7715C237.106 94.9385 237.74 94.3001 238.272 93.9017C238.536 93.7027 238.788 93.5543 239.024 93.4753C239.258 93.3963 239.504 93.3787 239.724 93.4865C240.084 93.6633 240.204 94.0831 240.238 94.5039C240.272 94.9471 240.22 95.5133 240.12 96.1487C239.956 97.1793 239.656 98.4439 239.346 99.7509C239.274 100.057 239.2 100.366 239.128 100.675C238.746 102.311 238.394 103.946 238.292 105.262C238.242 105.921 238.256 106.482 238.352 106.916C238.45 107.35 238.62 107.619 238.85 107.754C239.09 107.895 239.436 107.918 239.928 107.765C240.416 107.613 241.004 107.298 241.686 106.83C243.046 105.893 244.716 104.381 246.596 102.469C250.352 98.6475 254.894 93.2733 259.358 87.8465C260.858 86.0243 262.348 84.1961 263.796 82.4195C266.658 78.9095 269.356 75.6007 271.63 72.9389C273.344 70.9349 274.824 69.2891 275.96 68.1965C276.528 67.6517 277.018 67.2343 277.416 66.9795C277.614 66.8525 277.804 66.7565 277.978 66.7101C278.15 66.6641 278.348 66.6569 278.518 66.7699C278.654 66.8607 278.726 66.9997 278.76 67.1403C278.794 67.2783 278.796 67.4355 278.778 67.5999C278.746 67.9291 278.634 68.3497 278.464 68.8385C278.124 69.8203 277.532 71.1397 276.78 72.6809C275.782 74.7299 274.492 77.1915 273.124 79.8033C272.434 81.1215 271.724 82.4781 271.022 83.8391C268.922 87.9029 266.884 92.0089 265.616 95.2903C264.98 96.9327 264.544 98.3535 264.382 99.4519C264.302 100.001 264.294 100.456 264.356 100.81C264.418 101.163 264.548 101.396 264.724 101.538C264.95 101.719 265.308 101.789 265.84 101.689C266.37 101.589 267.032 101.33 267.81 100.92C269.366 100.1 271.34 98.7109 273.6 96.9329C277.738 93.6783 282.798 89.1547 287.972 84.5321C288.448 84.1067 288.924 83.6805 289.402 83.2543C295.058 78.2021 300.76 73.1605 305.422 69.6743C307.754 67.9323 309.838 66.5687 311.538 65.7873C312.386 65.3969 313.154 65.1451 313.816 65.0703Z" fill="#3C448A"/>
<path d="M264.51 56.1855C264.51 56.1855 260.14 62.1521 261.116 63.3339C262.094 64.5157 264.51 64.2889 264.51 64.2889V56.1855Z" fill="#F0AB6E"/>
<path d="M285.854 86.1895C285.854 88.5249 276.26 93.5867 273.924 93.5867C271.588 93.5867 270.88 90.4271 270.88 88.0917C270.188 85.1117 269.756 82.1739 269.608 79.2891C269.554 78.2535 269.544 77.2285 269.57 76.2087C269.586 75.3897 269.628 74.5707 269.698 73.7623C269.698 73.6515 269.702 73.5405 269.714 73.4295C269.882 71.2473 271.7 69.5355 273.924 69.5355C274.474 69.5355 275.16 69.3241 275.89 69.0335C278.262 68.0825 281.088 66.2755 281.088 68.0613C280.814 68.7535 280.614 69.4193 280.482 70.0639C280.44 70.2699 280.402 70.4707 280.37 70.6715C280.244 71.5327 280.228 72.3569 280.306 73.1547C280.44 74.5443 280.846 75.8653 281.412 77.1861C282.594 79.9813 284.46 82.7657 285.854 86.1895Z" fill="#F0AB6E"/>
<path d="M285.854 61.192C285.854 61.192 285.944 65.604 281.162 69.535C280.94 69.7146 280.714 69.8942 280.482 70.0634C280.084 70.3646 279.668 70.6446 279.24 70.9088C276.614 72.5308 273.454 73.503 269.714 73.429C268.386 73.408 266.992 73.2546 265.518 72.9482C264.916 72.4622 264.398 70.8982 263.986 68.8006C263.944 68.5838 263.902 68.3568 263.854 68.1242C263.822 67.934 263.79 67.7386 263.754 67.5378C263.738 67.432 263.722 67.3264 263.706 67.2154C263.558 66.2856 263.43 65.2922 263.314 64.2672C263.114 62.4178 262.972 60.4576 262.886 58.5978C262.802 56.6904 262.786 54.8886 262.84 53.3986C262.86 52.8438 262.892 52.3314 262.934 51.8718C262.982 51.2852 263.05 50.7938 263.14 50.4134C263.32 49.6314 263.532 48.9234 263.77 48.2788C266.042 42.1286 270.674 41.9912 274.458 41.9912C275.72 41.9912 276.942 42.789 278.082 44.0624C279.646 45.7956 281.068 48.4108 282.256 51.0792L282.262 51.0898C282.446 51.5124 282.626 51.9352 282.8 52.3524C284.232 55.7868 285.248 59.0892 285.654 60.4894C285.786 60.9384 285.854 61.192 285.854 61.192Z" fill="#F0AB6E"/>
<path opacity="0.15" d="M271.976 55.8645C271.976 55.8645 271.448 60.5565 270.714 61.1219C269.974 61.6871 268.236 57.7139 267.396 55.9015C266.274 55.5265 264.304 54.3323 262.84 53.3971C262.888 52.1291 262.984 51.0881 263.142 50.4119C263.322 49.6299 263.532 48.9219 263.77 48.2773L271.976 55.8645Z" fill="black"/>
<path d="M282.414 70.1746C280.164 70.2962 279.25 72.0662 276.556 69.6198C276.054 69.1654 274.552 67.9926 273.828 66.677C273.4 65.9002 273.248 65.0654 273.74 64.3046C275.392 61.742 276.64 59.3748 274.33 58.3392C273.226 57.8426 272.936 60.4844 271.584 61.742C270.58 62.6718 269.328 60.3788 268.244 54.8416C268.176 54.4928 267.574 54.4188 264.134 52.6224C259.902 50.4086 257.138 44.5278 261.186 41.9864C263.134 40.7606 267.642 37.2258 269.56 36.6658C277.866 34.2564 286.668 37.6748 291.25 48.686C291.254 48.6966 291.26 48.7124 291.266 48.723C294.948 57.5996 291.292 68.0612 282.414 70.1746Z" fill="black"/>
<path fill-rule="evenodd" clip-rule="evenodd" d="M264.046 57.4774C264.072 57.3338 264.21 57.2382 264.354 57.264C264.892 57.3604 265.22 57.6008 265.43 57.9176C265.588 58.1562 265.672 58.4382 265.744 58.671C265.76 58.7224 265.774 58.7714 265.788 58.817C265.834 58.9558 265.758 59.1048 265.62 59.1498C265.48 59.1948 265.332 59.1186 265.286 58.9798C265.266 58.915 265.246 58.853 265.228 58.7936C265.158 58.567 265.1 58.3772 264.988 58.2088C264.866 58.022 264.668 57.857 264.26 57.784C264.116 57.7584 264.022 57.621 264.046 57.4774Z" fill="black"/>
<path d="M264.56 61.4756C264.04 61.2692 264.198 61.6222 263.868 60.6734C263.54 59.7248 263.874 58.8264 264.394 59.0328C264.914 59.2392 265.08 61.682 264.56 61.4756Z" fill="black"/>
<path opacity="0.15" d="M282.416 70.1741C280.164 70.2957 279.25 72.0657 276.556 69.6193C276.054 69.1651 274.552 67.9921 273.83 66.6765C278.238 67.3031 285.496 61.8165 286.748 58.8155C288.154 55.4287 282.26 51.0891 282.26 51.0891L291.25 48.6855C291.254 48.6961 291.26 48.7119 291.266 48.7225C294.948 57.5991 291.292 68.0607 282.416 70.1741Z" fill="black"/>
<path d="M296.696 46.5147C296.696 50.8841 291.826 53.2461 286.912 53.2461C286.204 53.2461 285.516 53.1721 284.856 53.0347C280.93 52.2103 278.014 49.0771 278.014 45.3363C278.014 40.9721 280.528 35.5511 285.268 36.8667C285.866 37.0305 286.462 37.2259 287.064 37.4425C291.978 39.2179 296.696 42.6259 296.696 46.5147Z" fill="black"/>
<path opacity="0.15" d="M296.696 46.5146C296.696 50.884 291.826 53.246 286.912 53.246C286.204 53.246 285.516 53.172 284.856 53.0346C285.586 52.6912 286.99 51.8668 289.458 49.875C293.558 46.562 284.998 37.7806 284.998 37.7806L287.064 37.4424C291.978 39.2178 296.696 42.6258 296.696 46.5146Z" fill="black"/>
<path fill-rule="evenodd" clip-rule="evenodd" d="M281.642 50.5932C281.734 50.481 281.902 50.4658 282.014 50.5592C283.688 51.9528 285.854 52.746 288.032 52.7634C290.21 52.7808 292.388 52.0224 294.086 50.6558C294.198 50.5642 294.366 50.5822 294.456 50.6958C294.548 50.8094 294.53 50.9759 294.416 51.0673C292.626 52.5104 290.328 53.3102 288.028 53.2918C285.728 53.2734 283.444 52.4368 281.676 50.9652C281.564 50.8718 281.548 50.7052 281.642 50.5932Z" fill="#F0AB6E"/>
<path d="M265.524 67.2057C265.18 67.7817 264.794 68.1145 264.376 68.1833C264.318 68.1937 264.266 68.1991 264.212 68.1991C264.07 68.1991 263.948 68.1673 263.854 68.1251C263.822 67.9349 263.79 67.7395 263.754 67.5385C263.828 67.5227 263.906 67.5385 263.97 67.5915C263.98 67.5967 264.112 67.6971 264.298 67.6601C264.552 67.6127 264.816 67.3643 265.068 66.9363C265.142 66.8095 265.302 66.7671 265.428 66.8411C265.554 66.9151 265.598 67.0789 265.524 67.2057Z" fill="black"/>
<path opacity="0.15" d="M281.412 77.1865L269.608 79.2895C269.554 78.2539 269.544 77.2289 269.57 76.2091C273.544 75.5381 271.976 70.9075 280.37 70.6719C280.038 72.3871 280.382 75.0621 281.412 77.1865Z" fill="black"/>
<path opacity="0.2" d="M82.3257 237.972C94.6525 237.972 104.645 227.98 104.645 215.654C104.645 203.326 94.6525 193.333 82.3257 193.333C69.9989 193.333 60.0059 203.326 60.0059 215.654C60.0059 227.98 69.9989 237.972 82.3257 237.972Z" fill="#3C448A"/>
<path opacity="0.15" d="M5.53844 191.579C1.21535 191.459 -1.3988 186.747 0.788728 183.016C10.7098 166.096 21.0136 149.652 23.1808 150.714C24.9572 151.584 19.7397 163.468 22.2898 164.972C27.5874 168.096 59.3648 122.264 61.945 123.98C64.0226 125.361 44.2446 155.622 48.1326 158.734C53.1444 162.746 92.9046 117.972 98.927 122.643C103.605 126.271 83.9774 156.67 89.1246 160.516C93.3152 163.647 108.136 144.853 113.185 148.04C119.275 151.885 114.92 184.221 92.6892 190.815C86.4526 192.664 34.772 192.396 5.53844 191.579Z" fill="white"/>
<path opacity="0.4" fill-rule="evenodd" clip-rule="evenodd" d="M19.338 157.451C16.2225 161.863 12.3071 168.088 8.20996 174.891L7.75732 174.619C11.8559 167.813 15.7794 161.574 18.9064 157.146C20.4688 154.934 21.8386 153.164 22.9356 152.001C23.4828 151.421 23.9732 150.98 24.3942 150.711C24.7952 150.456 25.224 150.299 25.5874 150.477L25.4712 150.714L25.5874 150.477C25.8592 150.61 25.9928 150.883 26.056 151.172C26.12 151.465 26.1248 151.829 26.0942 152.234C26.0326 153.048 25.8204 154.101 25.5612 155.242L25.046 155.125C25.3056 153.983 25.509 152.964 25.5674 152.195C25.5966 151.808 25.5876 151.504 25.5398 151.285C25.491 151.062 25.415 150.98 25.355 150.951C25.266 150.907 25.0652 150.91 24.6784 151.157C24.312 151.391 23.8568 151.795 23.32 152.364C22.2492 153.499 20.8968 155.244 19.338 157.451Z" fill="#3C448A"/>
<path opacity="0.4" fill-rule="evenodd" clip-rule="evenodd" d="M51.8018 159.198C51.199 159.311 50.6574 159.26 50.2578 158.94C49.9488 158.693 49.7762 158.325 49.7 157.892C49.624 157.461 49.6394 156.944 49.724 156.366C49.893 155.208 50.347 153.744 50.9866 152.09C52.2674 148.779 54.3164 144.65 56.4156 140.587C57.1224 139.219 57.8348 137.858 58.526 136.538C59.8912 133.931 61.174 131.482 62.1694 129.44C62.9194 127.901 63.5004 126.605 63.8292 125.656C63.9944 125.179 64.0904 124.805 64.117 124.537C64.1304 124.404 64.1246 124.312 64.1108 124.254C64.102 124.218 64.0926 124.204 64.089 124.2C64.0834 124.198 64.0652 124.194 64.024 124.201C63.9614 124.211 63.8698 124.242 63.7454 124.308C63.497 124.44 63.1714 124.682 62.7712 125.032C61.9742 125.731 60.9294 126.822 59.6916 128.211C57.2182 130.987 54.003 134.92 50.5124 139.201C50.3622 139.385 50.2112 139.57 50.06 139.756C43.1942 148.178 35.348 157.802 30.0682 162.482L29.7178 162.087C34.9648 157.436 42.7916 147.835 49.677 139.39C49.8194 139.215 49.9614 139.041 50.103 138.867C53.591 134.589 56.8142 130.646 59.2972 127.859C60.5376 126.467 61.6004 125.356 62.423 124.635C62.8326 124.276 63.1946 124.003 63.4974 123.842C63.6484 123.762 63.798 123.702 63.9408 123.679C64.0854 123.656 64.2436 123.668 64.3816 123.76C64.5184 123.851 64.5904 123.99 64.6244 124.13C64.6576 124.268 64.6592 124.425 64.6428 124.59C64.61 124.919 64.4978 125.34 64.3286 125.829C63.9886 126.81 63.3956 128.13 62.6444 129.671C61.6456 131.72 60.3566 134.182 58.989 136.793C58.2986 138.112 57.5882 139.468 56.885 140.829C54.7854 144.893 52.7488 148.999 51.4794 152.28C50.8442 153.923 50.4072 155.344 50.2468 156.442C50.1666 156.991 50.1578 157.446 50.2202 157.8C50.2824 158.153 50.411 158.386 50.588 158.528C50.8148 158.709 51.1712 158.779 51.7044 158.679C52.2348 158.58 52.895 158.32 53.6744 157.91C55.2308 157.09 57.2032 155.701 59.4636 153.923C63.6012 150.668 68.6628 146.145 73.8352 141.522C74.3112 141.097 74.788 140.671 75.2652 140.244C80.9228 135.192 86.623 130.151 91.2868 126.664C93.617 124.922 95.7018 123.559 97.401 122.777C98.25 122.387 99.0174 122.135 99.68 122.06C100.343 121.985 100.93 122.086 101.379 122.435C102.076 122.975 102.272 123.97 102.192 125.172C102.111 126.391 101.74 127.916 101.187 129.632C100.129 132.917 98.3812 136.969 96.6238 141.044C96.5434 141.23 96.463 141.417 96.3828 141.603C94.5418 145.874 92.7238 150.133 91.6858 153.563C91.1664 155.279 90.8482 156.77 90.8142 157.941C90.78 159.124 91.0366 159.904 91.573 160.305C92.0068 160.629 92.6022 160.691 93.3796 160.492C94.1572 160.294 95.0728 159.846 96.0932 159.215C98.0244 158.021 100.267 156.216 102.567 154.366C102.697 154.261 102.827 154.156 102.957 154.051C105.384 152.1 107.857 150.134 110.042 148.857C111.134 148.219 112.171 147.743 113.105 147.532C114.041 147.321 114.905 147.368 115.616 147.817C116.776 148.549 117.538 150.183 117.929 152.314C118.322 154.462 118.351 157.184 117.983 160.187L117.459 160.123C117.822 157.156 117.79 154.491 117.409 152.409C117.025 150.311 116.298 148.872 115.334 148.264C114.784 147.916 114.079 147.854 113.222 148.047C112.363 148.242 111.381 148.687 110.308 149.313C108.164 150.566 105.722 152.506 103.289 154.463C103.155 154.571 103.021 154.679 102.887 154.787C100.598 156.628 98.3314 158.453 96.371 159.664C95.334 160.305 94.3648 160.787 93.51 161.004C92.6552 161.222 91.8708 161.187 91.2568 160.728C90.5066 160.167 90.2504 159.156 90.2862 157.926C90.322 156.685 90.6562 155.141 91.18 153.41C92.2284 149.945 94.0598 145.657 95.8976 141.394C95.976 141.212 96.0546 141.03 96.133 140.848C97.8954 136.761 99.6338 132.73 100.684 129.47C101.233 127.766 101.588 126.29 101.665 125.137C101.742 123.967 101.529 123.219 101.055 122.852C100.752 122.617 100.322 122.52 99.7392 122.585C99.1552 122.651 98.4458 122.878 97.6216 123.257C95.9742 124.015 93.9254 125.352 91.603 127.088C86.9612 130.557 81.279 135.583 75.6172 140.638C75.1392 141.065 74.6614 141.492 74.1842 141.919C69.0162 146.538 63.9418 151.073 59.7904 154.338C57.5244 156.121 55.5212 157.535 53.9204 158.377C53.1212 158.798 52.4072 159.085 51.8018 159.198ZM64.0908 124.201C64.0908 124.201 64.0904 124.201 64.0898 124.2C64.0904 124.201 64.0908 124.201 64.0908 124.201ZM64.0884 124.199C64.0878 124.199 64.0874 124.199 64.0874 124.199C64.0874 124.199 64.0878 124.199 64.0884 124.199Z" fill="#3C448A"/>
<path fill-rule="evenodd" clip-rule="evenodd" d="M243.384 55.2529V0.263672H243.912V55.2529H243.384Z" fill="#3C448A"/>
<path opacity="0.4" d="M221.932 197.977H184.999V224.036H221.932V197.977Z" fill="white"/>
<path fill-rule="evenodd" clip-rule="evenodd" d="M104.039 241.462C77.1448 236.798 49.6482 242.688 22.8554 248.586C22.5704 248.648 22.2886 248.468 22.2258 248.182C22.1632 247.898 22.3434 247.616 22.6282 247.554C49.3864 241.664 77.0872 235.716 104.22 240.42C113.756 242.074 123.057 245.024 132.299 247.956C134.268 248.582 136.234 249.206 138.199 249.816C149.409 253.296 160.606 256.344 172.22 256.676C187.037 257.1 201.462 253.072 215.976 249.02L216.234 248.948C230.806 244.882 245.47 240.816 260.56 241.376C268.944 241.686 277.12 243.418 285.232 245.424C287.254 245.926 289.272 246.442 291.288 246.958C297.37 248.518 303.436 250.072 309.582 251.15C331.14 254.938 353.386 252.802 374.852 248.246C375.138 248.184 375.418 248.368 375.48 248.652C375.54 248.938 375.358 249.218 375.072 249.28C353.534 253.85 331.14 256.01 309.398 252.192C303.208 251.104 297.088 249.536 290.996 247.974C288.986 247.46 286.982 246.946 284.978 246.45C276.882 244.448 268.792 242.738 260.522 242.432C245.622 241.878 231.118 245.892 216.518 249.966L216.186 250.06C201.724 254.096 187.167 258.16 172.19 257.732C160.421 257.394 149.105 254.308 137.885 250.824C135.906 250.21 133.931 249.584 131.956 248.958C122.717 246.026 113.498 243.102 104.039 241.462Z" fill="#CFDFFF"/>
<path opacity="0.2" d="M294.188 233.714H178.004V260.508H294.188V233.714Z" fill="white"/>
<path fill-rule="evenodd" clip-rule="evenodd" d="M164.956 242.984H311.908V259.322H164.956V242.984ZM165.484 243.512V258.794H311.38V243.512H165.484Z" fill="#CFDFFF"/>
<path opacity="0.15" d="M320.902 252.118C309.892 225.918 302.924 198.022 300.318 169.72C308.508 173.943 319.61 182.475 328.612 183.623C336.428 166.91 334.27 142.731 334.212 124.702C334.144 104.394 333.922 83.8278 338.818 64.1188C342.542 49.133 349.536 34.4646 360.588 23.491C367.516 16.6131 371.376 13.9418 377.056 23.3332C381.26 30.287 383.2 38.6304 382.284 46.72C384.218 46.58 386.152 46.4398 388.084 46.2998C390.32 49.0488 389.632 53.1358 388.274 56.409C386.914 59.682 384.968 62.8918 385.014 66.4356C385.06 69.9792 388.358 73.7626 391.71 72.61C389.572 88.3938 387.434 104.178 385.294 119.961C390.818 119.489 394.656 126.144 393.794 131.62C392.934 137.095 389.128 141.554 385.964 146.105C379.682 155.137 375.486 165.611 373.796 176.482C371.848 189.004 373.196 201.824 371.798 214.418C370.398 227.012 365.59 245.622 354.764 252.206" fill="white"/>
<path opacity="0.4" fill-rule="evenodd" clip-rule="evenodd" d="M387.842 50.5751C388.75 42.5457 386.826 34.2605 382.65 27.3547L383.102 27.0811C387.28 33.9923 389.238 42.2675 388.402 50.3185L394.022 49.9111L394.11 50.0177C395.28 51.4561 395.676 53.2345 395.612 55.0519C395.548 56.8677 395.024 58.7399 394.338 60.3951C394.032 61.1299 393.698 61.8615 393.364 62.5893C393.324 62.6771 393.284 62.7649 393.244 62.8525C392.872 63.6691 392.506 64.4823 392.182 65.3023C391.538 66.9425 391.076 68.5941 391.098 70.3169C391.12 72.0141 391.924 73.7813 393.128 74.9815C394.332 76.1803 395.892 76.7781 397.444 76.2449L397.848 76.1055L391.42 123.563C394.16 123.46 396.46 125.044 397.978 127.297C399.556 129.638 400.318 132.737 399.876 135.545C399.438 138.331 398.252 140.849 396.788 143.232C395.798 144.845 394.67 146.411 393.554 147.958C393.028 148.688 392.504 149.415 392 150.14C385.742 159.139 381.56 169.576 379.876 180.407L379.354 180.326C381.05 169.415 385.262 158.903 391.566 149.838C392.082 149.098 392.612 148.363 393.14 147.628C394.248 146.091 395.358 144.552 396.338 142.955C397.784 140.603 398.93 138.153 399.354 135.463C399.774 132.796 399.048 129.83 397.54 127.592C396.034 125.356 393.776 123.883 391.138 124.109L390.808 124.137L397.214 76.8611C395.554 77.2537 393.954 76.5501 392.756 75.3557C391.462 74.0665 390.594 72.1703 390.57 70.3237C390.546 68.5027 391.036 66.7777 391.692 65.1089C392.02 64.2743 392.392 63.4497 392.764 62.6331C392.804 62.5453 392.844 62.4575 392.884 62.3697C393.218 61.6407 393.548 60.9181 393.85 60.1925C394.52 58.5745 395.022 56.7665 395.084 55.0333C395.142 53.3485 394.786 51.7505 393.784 50.4581L387.806 50.8913L387.842 50.5751Z" fill="#3C448A"/>
<path opacity="0.4" fill-rule="evenodd" clip-rule="evenodd" d="M318.006 227.512C320.392 237.38 323.176 246.878 326.966 255.9L326.48 256.106C322.672 247.048 319.882 237.52 317.494 227.636L318.006 227.512Z" fill="#3C448A"/>
<path d="M272.492 260.652C272.492 260.652 274.44 258.504 277.754 259.194C281.07 259.886 283.648 263.062 283.648 263.062L281.776 265.26L277.892 264.428L272.492 260.652Z" fill="black"/>
<path d="M152.485 257.234H42.6451V267.106H152.485V257.234Z" fill="#CFDFFF"/>
<path d="M174.896 267.106H20.2343V276.977H174.896V267.106Z" fill="#3C448A"/>
<path d="M289.202 263.354C289.33 265.406 289.53 268.352 288.834 268.836C287.688 269.636 272.252 266.624 272.23 263.982C272.212 261.87 271.524 260.434 273.704 260.208C275.882 259.98 279.62 263.336 279.62 263.336C279.62 263.336 277.73 261.21 279.14 259.67C280.55 258.132 282.536 258.484 282.536 258.484C282.536 258.484 283.464 262.714 284.986 262.456C286.51 262.2 287.422 260.918 288.184 261.432C288.944 261.944 289.074 261.304 289.202 263.354Z" fill="black"/>
<path d="M130.268 63.7188H112.139V81.8479H130.268V63.7188Z" fill="white"/>
<path d="M152.485 166.54H42.6451V176.411H152.485V166.54Z" fill="#3C448A"/>
<path d="M73.6268 236.386V257.234H83.4978V236.386H73.6268Z" fill="#3C448A"/>
<path d="M123.702 111.825V166.54H130.268V111.825H123.702Z" fill="#CFDFFF"/>
<path d="M123.171 110.409V96.3652H119.236V110.409H123.171Z" fill="#CFDFFF"/>
<path d="M170.654 110.409V96.3652H167.839V110.409H170.654Z" fill="#CFDFFF"/>
<path d="M170.654 86.8274V72.7832H167.839V86.8274H170.654Z" fill="#3C448A"/>
<path d="M203.294 69.2971V57.7939H200.48V69.2971H203.294Z" fill="#3C448A"/>
<path d="M98.0614 85.3335H144.346V81.8477H98.0614V85.3335Z" fill="#CFDFFF"/>
<path d="M98.0614 63.719H144.346V60.2334H98.0614V63.719Z" fill="#CFDFFF"/>
<path d="M160.339 72.7835H206.624V69.2979H160.339V72.7835Z" fill="#CFDFFF"/>
<path fill-rule="evenodd" clip-rule="evenodd" d="M78.5624 189.671C65.7354 189.671 55.3372 200.07 55.3372 212.896C55.3372 225.724 65.7354 236.122 78.5624 236.122C91.3894 236.122 101.788 225.724 101.788 212.896C101.788 200.07 91.3894 189.671 78.5624 189.671ZM54.8088 212.896C54.8088 199.777 65.4436 189.143 78.5624 189.143C91.6812 189.143 102.316 199.777 102.316 212.896C102.316 226.014 91.6812 236.65 78.5624 236.65C65.4436 236.65 54.8088 226.014 54.8088 212.896Z" fill="#3C448A"/>
<path fill-rule="evenodd" clip-rule="evenodd" d="M99.7584 181.83C97.011 181.83 94.7838 184.057 94.7838 186.804C94.7838 189.552 97.011 191.779 99.7584 191.779C102.506 191.779 104.733 189.552 104.733 186.804C104.733 184.057 102.506 181.83 99.7584 181.83ZM87.915 186.804C87.915 180.263 93.2174 174.961 99.7584 174.961C106.299 174.961 111.602 180.263 111.602 186.804C111.602 193.345 106.299 198.648 99.7584 198.648C93.2174 198.648 87.915 193.345 87.915 186.804Z" fill="black"/>
<path d="M136.703 60.233C141.347 60.233 145.112 56.4682 145.112 51.824C145.112 47.1798 141.347 43.415 136.703 43.415C132.059 43.415 128.294 47.1798 128.294 51.824C128.294 56.4682 132.059 60.233 136.703 60.233Z" fill="black"/>
<path d="M121.204 96.3654C124.25 96.3654 126.719 93.896 126.719 90.8498C126.719 87.8034 124.25 85.334 121.204 85.334C118.157 85.334 115.688 87.8034 115.688 90.8498C115.688 93.896 118.157 96.3654 121.204 96.3654Z" fill="black"/>
<path fill-rule="evenodd" clip-rule="evenodd" d="M169.246 87.5869C166.968 87.5869 165.121 89.4339 165.121 91.7121C165.121 93.9903 166.968 95.8373 169.246 95.8373C171.524 95.8373 173.371 93.9903 173.371 91.7121C173.371 89.4339 171.524 87.5869 169.246 87.5869ZM164.064 91.7121C164.064 88.8503 166.384 86.5303 169.246 86.5303C172.108 86.5303 174.428 88.8503 174.428 91.7121C174.428 94.5739 172.108 96.8939 169.246 96.8939C166.384 96.8939 164.064 94.5739 164.064 91.7121Z" fill="black"/>
<path d="M136.703 43.4154L132.649 36.3946L128.596 29.374H136.703H144.809L140.756 36.3946L136.703 43.4154Z" fill="#3C448A"/>
<path d="M172.784 109.442H102.667V112.928H172.784V109.442Z" fill="#3C448A"/>
<path d="M231.218 21.8896H196.235V42.5202H231.218V21.8896Z" fill="#CFDFFF"/>
<path d="M196.235 21.8896L213.1 32.205L231.218 21.8896H196.235Z" fill="#3C448A"/>
<path fill-rule="evenodd" clip-rule="evenodd" d="M185.967 0H241.484V55.5176H185.967V0ZM186.495 0.528366V54.9892H240.956V0.528366H186.495Z" fill="#3C448A"/>
<path fill-rule="evenodd" clip-rule="evenodd" d="M186.231 57.5303H241.22V58.0587H186.231V57.5303Z" fill="#3C448A"/>
<path fill-rule="evenodd" clip-rule="evenodd" d="M306.594 31.5508H366.628V32.0792H306.594V31.5508Z" fill="#3C448A"/>
<path fill-rule="evenodd" clip-rule="evenodd" d="M312.54 27.4941H372.576V28.0225H312.54V27.4941Z" fill="#3C448A"/>
<path fill-rule="evenodd" clip-rule="evenodd" d="M3.36963 83.6113H63.4044V84.1397H3.36963V83.6113Z" fill="#3C448A"/>
<path fill-rule="evenodd" clip-rule="evenodd" d="M9.31616 79.5557H69.3508V80.0841H9.31616V79.5557Z" fill="#3C448A"/>
<path fill-rule="evenodd" clip-rule="evenodd" d="M110.231 166.275H165.22V166.804H110.231V166.275Z" fill="#F0AB6E"/>
<path fill-rule="evenodd" clip-rule="evenodd" d="M36.3604 266.842H91.3496V267.37H36.3604V266.842Z" fill="#F0AB6E"/>
<path fill-rule="evenodd" clip-rule="evenodd" d="M122.32 276.712H177.309V277.24H122.32V276.712Z" fill="#F0AB6E"/>
<path fill-rule="evenodd" clip-rule="evenodd" d="M83.498 112.664H138.487V113.192H83.498V112.664Z" fill="#F0AB6E"/>
<path d="M246.064 3.90234H181.388V10.9762H246.064V3.90234Z" fill="#CFDFFF"/>
<path d="M186.61 8.7217C187.286 8.7217 187.834 8.17364 187.834 7.49756C187.834 6.8215 187.286 6.27344 186.61 6.27344C185.934 6.27344 185.386 6.8215 185.386 7.49756C185.386 8.17364 185.934 8.7217 186.61 8.7217Z" fill="#3C448A"/>
<path d="M191.601 8.7217C192.277 8.7217 192.825 8.17364 192.825 7.49756C192.825 6.8215 192.277 6.27344 191.601 6.27344C190.925 6.27344 190.376 6.8215 190.376 7.49756C190.376 8.17364 190.925 8.7217 191.601 8.7217Z" fill="white"/>
<path d="M298.3 166.539H253.824V143.705H298.3C300.33 152.204 300.624 159.943 298.3 166.539Z" fill="#CFDFFF"/>
<path d="M298.304 98.96H253.826V146.154H298.304V98.96Z" fill="#3C448A"/>
<path d="M274.98 164.823L265.248 216.898L265.272 215.926L263.944 264.49L259.62 264.73L252.922 216.612L252.944 215.638L253.956 162.673L274.98 164.823Z" fill="#CFDFFF"/>
<path d="M282.596 264.754L276.106 216.624L276.104 216.622L276.128 215.616L277.366 162.673L298.39 164.823L288.884 216.92L288.908 215.912L287.788 264.466L282.596 264.754Z" fill="#CFDFFF"/>
<path d="M296.612 86.1629L286.674 91.4889L272.73 98.9601L265.524 102.822L264.466 103.388L264.182 102.865L262.062 98.9601L258.132 91.7109L253.17 86.8287C253.17 86.8287 256.208 86.0573 261 84.4511C263.156 83.7325 265.672 82.8397 268.418 81.7775C268.984 81.5609 268.43 77.9627 268.936 77.6405C268.936 77.6405 271.304 77.1807 275.884 76.2773C275.91 76.2719 275.938 76.2667 275.964 76.2615C280.486 75.3737 282.188 75.4795 282.188 75.4795L282.784 78.5545L295.82 85.7297L296.612 86.1629Z" fill="#3C448A"/>
<path fill-rule="evenodd" clip-rule="evenodd" d="M255.96 152.789V152.79L255.958 152.793L255.954 152.809C255.95 152.823 255.942 152.844 255.934 152.871C255.918 152.927 255.894 153.01 255.864 153.116C255.808 153.328 255.732 153.633 255.658 154.001C255.512 154.74 255.38 155.726 255.428 156.731C255.478 157.738 255.708 158.74 256.266 159.533C256.816 160.316 257.706 160.92 259.13 161.108L259.374 161.14L255.974 217.158L261.494 260.474C261.512 260.62 261.41 260.752 261.266 260.77C261.12 260.788 260.988 260.686 260.97 260.542L255.444 217.176L258.818 161.595C257.396 161.354 256.444 160.703 255.834 159.837C255.196 158.931 254.952 157.817 254.902 156.756C254.85 155.693 254.99 154.661 255.14 153.898C255.216 153.516 255.294 153.199 255.354 152.977C255.386 152.866 255.41 152.779 255.428 152.719C255.438 152.689 255.444 152.666 255.45 152.65L255.456 152.632L255.458 152.627V152.625C255.458 152.625 255.458 152.624 255.71 152.707L255.458 152.624C255.504 152.486 255.652 152.41 255.792 152.456C255.93 152.501 256.006 152.65 255.96 152.789Z" fill="#3C448A"/>
<path fill-rule="evenodd" clip-rule="evenodd" d="M269.47 152.224C269.21 152.182 269.21 152.182 269.21 152.182V152.184L269.208 152.189L269.206 152.211C269.202 152.229 269.198 152.256 269.194 152.292C269.182 152.363 269.168 152.467 269.15 152.599C269.114 152.863 269.066 153.24 269.018 153.692C268.922 154.596 268.828 155.807 268.834 157.027C268.84 158.242 268.946 159.487 269.26 160.45C269.572 161.403 270.128 162.177 271.088 162.236C271.578 162.265 272.108 162.307 272.658 162.35C273.874 162.445 275.19 162.549 276.378 162.549C277.246 162.549 278.064 162.494 278.746 162.338C279.42 162.182 280.006 161.917 280.35 161.458C280.674 161.026 280.93 160.275 281.136 159.438C281.348 158.587 281.516 157.605 281.65 156.675C281.782 155.745 281.88 154.864 281.942 154.216C281.974 153.892 281.998 153.625 282.012 153.44C282.02 153.347 282.026 153.275 282.03 153.225L282.034 153.169L282.036 153.154V153.15C282.036 153.15 282.036 153.149 281.772 153.13L282.036 153.15C282.046 153.004 281.938 152.877 281.792 152.867C281.646 152.856 281.52 152.966 281.51 153.111L281.508 153.129L281.504 153.185C281.5 153.233 281.494 153.304 281.486 153.396C281.472 153.579 281.448 153.843 281.416 154.165C281.354 154.808 281.258 155.681 281.126 156.601C280.996 157.522 280.828 158.485 280.624 159.311C280.416 160.149 280.18 160.804 279.928 161.141C279.694 161.451 279.258 161.678 278.628 161.823C278.002 161.966 277.23 162.02 276.378 162.02C275.21 162.02 273.932 161.92 272.728 161.825C272.17 161.782 271.628 161.739 271.12 161.708C270.496 161.67 270.054 161.178 269.762 160.286C269.474 159.402 269.368 158.223 269.362 157.024C269.356 155.831 269.448 154.641 269.542 153.747C269.59 153.301 269.638 152.93 269.672 152.671C269.678 152.633 269.682 152.598 269.688 152.566C269.756 152.585 269.834 152.606 269.926 152.629C270.276 152.719 270.792 152.834 271.462 152.938C272.802 153.145 274.756 153.309 277.23 153.135C277.376 153.125 277.486 152.999 277.476 152.853C277.466 152.708 277.338 152.598 277.194 152.608C274.762 152.779 272.846 152.618 271.542 152.416C270.89 152.314 270.39 152.203 270.056 152.117C269.888 152.075 269.762 152.038 269.68 152.013C269.638 152 269.606 151.99 269.586 151.984L269.564 151.976L269.558 151.975V151.974L269.26 151.87L269.21 152.182L269.47 152.224Z" fill="#3C448A"/>
<path fill-rule="evenodd" clip-rule="evenodd" d="M300.576 152.651L300.318 152.707C300.576 152.651 300.576 152.651 300.576 152.651V152.653V152.657L300.58 152.672C300.584 152.686 300.588 152.706 300.592 152.732C300.604 152.784 300.618 152.86 300.636 152.957C300.674 153.151 300.724 153.429 300.778 153.769C300.884 154.447 301.004 155.371 301.056 156.35C301.108 157.328 301.094 158.372 300.924 159.286C300.758 160.192 300.43 161.02 299.816 161.506C299.39 161.843 298.788 162.056 298.102 162.193C297.412 162.331 296.61 162.397 295.766 162.419C294.228 162.458 292.516 162.353 291.028 162.262C290.884 162.253 290.742 162.244 290.602 162.236C289.676 162.18 289.086 161.575 288.726 160.785C288.368 160.002 288.214 158.997 288.162 158.025C288.108 157.048 288.156 156.081 288.216 155.36C288.246 154.998 288.28 154.698 288.306 154.487C288.318 154.382 288.33 154.299 288.338 154.242C288.342 154.213 288.344 154.191 288.346 154.177L288.35 154.159V154.155V154.154C288.35 154.153 288.35 154.153 288.61 154.193L288.35 154.153C288.372 154.009 288.508 153.91 288.652 153.932C288.796 153.954 288.894 154.089 288.872 154.233L300.576 152.651ZM288.872 154.233V154.234V154.238L288.87 154.253C288.868 154.267 288.864 154.288 288.86 154.315C288.854 154.369 288.842 154.449 288.83 154.552C288.804 154.757 288.772 155.05 288.742 155.404C288.684 156.111 288.638 157.052 288.69 157.996C288.742 158.945 288.89 159.872 289.206 160.566C289.52 161.252 289.974 161.668 290.634 161.708C290.774 161.717 290.916 161.725 291.058 161.734C292.55 161.826 294.238 161.93 295.752 161.891C296.582 161.869 297.35 161.805 297.998 161.675C298.652 161.544 299.16 161.352 299.488 161.092C299.95 160.726 300.246 160.055 300.406 159.19C300.564 158.334 300.58 157.336 300.528 156.378C300.478 155.423 300.36 154.518 300.256 153.851C300.204 153.518 300.154 153.245 300.118 153.056C300.116 153.048 300.114 153.041 300.114 153.033C300.038 153.052 299.95 153.073 299.848 153.097C299.506 153.175 299.02 153.274 298.44 153.361C297.282 153.535 295.734 153.66 294.2 153.455C294.054 153.436 293.954 153.303 293.972 153.158C293.992 153.014 294.124 152.912 294.27 152.931C295.736 153.127 297.228 153.008 298.362 152.839C298.926 152.754 299.4 152.657 299.73 152.582C299.896 152.544 300.024 152.511 300.112 152.489C300.156 152.477 300.19 152.468 300.212 152.462L300.238 152.455L300.242 152.453L300.244 152.453L300.516 152.375L300.576 152.651" fill="#3C448A"/>
<path opacity="0.14" d="M277.31 166.446C277.31 166.446 279.804 167.289 286.632 167.173L278.47 216.496L284.06 264.692L282.134 263.484L276.01 216.878L277.31 166.446Z" fill="black"/>
<path fill-rule="evenodd" clip-rule="evenodd" d="M200.68 69.9644L200.688 69.961L200.718 69.9474C200.746 69.9352 200.788 69.9164 200.844 69.8926C200.954 69.8446 201.114 69.7758 201.312 69.6944C201.708 69.5308 202.242 69.3206 202.804 69.1278C203.376 68.932 203.934 68.7694 204.39 68.6844C204.584 68.6482 204.73 68.6314 204.834 68.6266C204.87 68.6652 204.922 68.725 204.988 68.8146C205.154 69.043 205.324 69.3492 205.482 69.6884C205.638 70.0206 205.764 70.345 205.852 70.5894C205.896 70.7102 205.93 70.8084 205.952 70.8744C205.962 70.9072 205.97 70.9318 205.974 70.947L205.98 70.9624V70.9628V70.9636C205.98 70.9638 205.98 70.9642 205.98 70.9642C206.234 71.801 207.118 72.2742 207.956 72.021C208.794 71.7676 209.268 70.883 209.014 70.045L207.496 70.5036C209.014 70.045 209.014 70.0448 209.014 70.0444V70.0438V70.0424L209.012 70.039L209.008 70.0288L208.998 69.9964C208.99 69.9696 208.978 69.9326 208.964 69.8866C208.934 69.795 208.89 69.667 208.834 69.5132C208.724 69.208 208.562 68.789 208.354 68.3444C208.15 67.9068 207.882 67.4032 207.552 66.95C207.244 66.5268 206.766 65.984 206.092 65.684C205.648 65.4868 205.194 65.4526 204.86 65.4552C204.506 65.458 204.144 65.5052 203.808 65.568C203.134 65.6938 202.412 65.9112 201.778 66.1286C201.134 66.349 200.536 66.585 200.102 66.7642C199.883 66.8542 199.704 66.9312 199.578 66.986C199.515 67.0134 199.465 67.0354 199.431 67.0508L199.39 67.0692L199.378 67.0744L199.373 67.0764C199.373 67.0766 199.373 67.0768 200.014 68.4924L199.373 67.0768C198.575 67.4382 198.222 68.3774 198.583 69.1748C198.944 69.9722 199.884 70.3256 200.68 69.9644Z" fill="#F0AB6E"/>
<path fill-rule="evenodd" clip-rule="evenodd" d="M202.924 69.2907C202.666 70.0403 201.882 70.4945 201.088 70.3211C200.232 70.1343 199.691 69.2897 199.877 68.4343L201.426 68.7725C199.877 68.4343 199.878 68.4339 199.878 68.4335L199.878 68.4305L199.879 68.4257L199.882 68.4137C199.884 68.4047 199.887 68.3935 199.89 68.3805C199.896 68.3541 199.905 68.3197 199.915 68.2785C199.937 68.1963 199.968 68.0849 200.01 67.9549C200.092 67.7043 200.226 67.3419 200.43 66.9787C200.618 66.6407 200.954 66.1467 201.504 65.8123C202.15 65.4179 202.952 65.3373 203.734 65.6845C204.408 65.9847 204.886 66.5275 205.194 66.9505C205.524 67.4039 205.792 67.9075 205.996 68.3451C206.204 68.7895 206.366 69.2087 206.476 69.5139C206.532 69.6677 206.576 69.7957 206.606 69.8873C206.62 69.9333 206.632 69.9701 206.64 69.9969L206.65 70.0293L206.654 70.0395L206.656 70.0431V70.0451C206.656 70.0453 206.656 70.0457 205.138 70.5043L206.656 70.0457C206.91 70.8835 206.436 71.7683 205.598 72.0217C204.76 72.2747 203.876 71.8017 203.622 70.9649C203.622 70.9645 203.622 70.9641 203.622 70.9637L203.616 70.9475C203.612 70.9325 203.604 70.9079 203.594 70.8749C203.572 70.8091 203.538 70.7109 203.494 70.5901C203.406 70.3457 203.28 70.0211 203.124 69.6889C203.06 69.5495 202.992 69.4157 202.924 69.2907Z" fill="#F0AB6E"/>
<path d="M202.344 65.8516C202.344 65.8516 204.156 69.888 206.326 71.826C208.62 73.8752 212.388 74.2056 212.388 74.2056L207.366 76.1528L202.344 75.5938V65.8516Z" fill="#F0AB6E"/>
<path fill-rule="evenodd" clip-rule="evenodd" d="M204.422 67.9486V67.9482L204.438 67.9362C204.452 67.9246 204.478 67.906 204.512 67.8816C204.578 67.8326 204.678 67.7606 204.804 67.6746C205.056 67.5006 205.394 67.2802 205.754 67.0794C206.09 66.8928 206.392 66.753 206.628 66.6726C206.63 66.675 206.632 66.6776 206.634 66.68C206.786 66.8898 206.948 67.1794 207.104 67.5104C207.254 67.8332 207.378 68.1498 207.464 68.3892C207.508 68.5072 207.54 68.603 207.56 68.6668C207.57 68.6984 207.578 68.722 207.582 68.7362L207.588 68.75C207.882 69.7272 208.914 70.2794 209.892 69.9838C210.87 69.6884 211.422 68.6562 211.128 67.6786L209.356 68.2138C211.128 67.6786 211.126 67.6782 211.126 67.678V67.6718L211.122 67.661L211.112 67.6272C211.102 67.5994 211.09 67.5614 211.074 67.5144C211.044 67.4206 211 67.2902 210.944 67.1336C210.832 66.8234 210.666 66.3964 210.454 65.9424C210.244 65.4968 209.968 64.9766 209.626 64.5046C209.308 64.0678 208.798 63.4806 208.058 63.1526C207.134 62.7418 206.188 62.9428 205.65 63.1034C205.034 63.2872 204.436 63.5802 203.956 63.8484C203.462 64.1236 203.02 64.4122 202.706 64.6282C202.548 64.7374 202.418 64.8306 202.326 64.898C202.28 64.9318 202.242 64.9592 202.216 64.9792L202.184 65.0034L202.174 65.011L202.168 65.015C202.168 65.0152 202.168 65.0154 203.278 66.4596L202.168 65.0154C201.358 65.6374 201.206 66.7984 201.828 67.6084C202.45 68.4182 203.61 68.5706 204.42 67.949L204.422 67.9486ZM206.89 66.6072C206.89 66.6076 206.884 66.6084 206.872 66.6086C206.884 66.607 206.89 66.6068 206.89 66.6072Z" fill="#F0AB6E"/>
<path fill-rule="evenodd" clip-rule="evenodd" d="M208.18 64.3712C205.458 64.3712 203.254 66.5771 203.254 69.2978C203.254 72.0186 205.458 74.2242 208.18 74.2242C209.89 74.2242 210.932 73.959 211.58 73.608C212.17 73.2896 212.56 72.8344 212.842 72.1116C213.212 71.16 214.284 70.6895 215.236 71.0607C216.188 71.4317 216.658 72.5039 216.286 73.4553C215.73 74.8823 214.8 76.072 213.34 76.861C211.942 77.6178 210.212 77.9228 208.18 77.9228C203.416 77.9228 199.554 74.0612 199.554 69.2978C199.554 64.5343 203.416 60.6729 208.18 60.6729C209.366 60.6729 210.502 60.9138 211.538 61.3512C212.478 61.7492 212.918 62.8342 212.52 63.7748C212.122 64.7154 211.038 65.1557 210.096 64.7577C209.51 64.5095 208.864 64.3712 208.18 64.3712Z" fill="#F0AB6E"/>
<path d="M215.464 71.5039C218.048 71.5039 220.142 69.4093 220.142 66.8257C220.142 64.2419 218.048 62.1475 215.464 62.1475C212.88 62.1475 210.786 64.2419 210.786 66.8257C210.786 69.4093 212.88 71.5039 215.464 71.5039Z" fill="#3C448A"/>
<path d="M201.888 65.0732C201.888 65.0732 196.707 66.97 196.369 70.3308C196.031 73.6916 202.628 77.7188 203.294 79.8054C203.962 81.892 203.1 90.5202 203.1 90.5202L209.552 89.6644L209.34 76.0734C209.34 76.0734 204.218 77.0102 202.35 73.154C200.48 69.2976 201.888 65.0732 201.888 65.0732Z" fill="#F0AB6E"/>
<path d="M309.916 122.842C310.074 129.092 290.776 140.897 290.776 140.897C290.814 124.73 290.726 107.139 289.506 103.076C289.284 102.975 289.008 102.88 288.686 102.806C285.454 102.014 277.49 102.341 271.472 102.59C269.618 102.663 267.62 102.748 265.524 102.822C265.08 102.838 264.636 102.848 264.182 102.864C262.898 102.907 261.57 102.938 260.224 102.965C260.134 102.965 260.066 102.97 260.006 102.975C259.468 103.636 258.59 105.4 257.988 106.605C256.948 108.692 255.68 111.239 253.826 113.791C250.042 119.022 243.834 124.258 232.226 125.531C220.914 126.773 213.76 122.456 209.738 118.615C198.252 107.63 199.144 88.3869 199.282 86.2313L208.508 86.8283H208.55L217.738 87.3883V87.4253C217.558 90.7435 218.05 101.004 222.54 105.268C223.644 106.315 225.642 107.651 230.208 107.149C237.45 106.357 238.868 103.514 241.434 98.3519C243.982 93.2479 248.24 84.7095 259.854 84.4771C260.24 84.4717 260.62 84.4611 261 84.4507C264.434 84.3661 267.62 84.2341 270.712 84.1125C273.866 83.9857 276.766 83.8643 279.456 83.8219C283.884 83.7427 287.736 83.8695 291.192 84.4823C292.902 84.7889 294.44 85.2063 295.82 85.7293C302.846 88.3447 305.854 93.3695 307.126 97.4697C308.982 103.409 309.678 113.458 309.916 122.842Z" fill="#3C448A"/>
<path fill-rule="evenodd" clip-rule="evenodd" d="M224.668 60.8227C224.95 61.1569 224.91 61.6569 224.576 61.9397L215.848 69.3227L213.1 65.7863C212.832 65.4407 212.894 64.9427 213.24 64.6743C213.586 64.4057 214.084 64.4683 214.352 64.8139L216.086 67.0453L223.552 60.7295C223.886 60.4467 224.386 60.4885 224.668 60.8227Z" fill="white"/>
<path d="M281.134 261.464C281.134 261.464 283.692 262.268 284.36 261.982C285.03 261.696 284.8 260.826 285.636 260.826C286.472 260.826 288.584 260.11 288.944 260.826C289.302 261.544 289.182 265.488 289.182 265.488L282.846 266.764L281.372 264.69L281.134 261.464Z" fill="black"/>
<path d="M230.522 266.894C234.85 266.894 238.358 263.386 238.358 259.058C238.358 254.73 234.85 251.22 230.522 251.22C226.192 251.22 222.684 254.73 222.684 259.058C222.684 263.386 226.192 266.894 230.522 266.894Z" fill="#CFDFFF"/>
<path d="M298.3 243.248C302.63 243.248 306.138 239.74 306.138 235.412C306.138 231.084 302.63 227.574 298.3 227.574C293.972 227.574 290.464 231.084 290.464 235.412C290.464 239.74 293.972 243.248 298.3 243.248Z" fill="#CFDFFF"/>
<path d="M231.848 223.828H153.585V233.924H231.848V223.828Z" fill="#3C448A"/>
<path d="M198.852 171.476H183.481V266.764H198.852V171.476Z" fill="white"/>
<path opacity="0.4" d="M217.708 159.269H202.336V197.977H217.708V159.269Z" fill="white"/>
<path fill-rule="evenodd" clip-rule="evenodd" d="M216.302 227.838C212.12 227.838 208.73 231.23 208.73 235.412C208.73 239.594 212.12 242.984 216.302 242.984C220.484 242.984 223.876 239.594 223.876 235.412C223.876 231.23 220.484 227.838 216.302 227.838ZM208.202 235.412C208.202 230.938 211.828 227.31 216.302 227.31C220.776 227.31 224.404 230.938 224.404 235.412C224.404 239.886 220.776 243.512 216.302 243.512C211.828 243.512 208.202 239.886 208.202 235.412Z" fill="#CFDFFF"/>
<path d="M243.648 37.1536C243.238 37.1536 242.906 36.8212 242.906 36.4112V27.219C242.906 26.809 243.238 26.4766 243.648 26.4766C244.058 26.4766 244.392 26.809 244.392 27.219V36.4112C244.392 36.8212 244.058 37.1536 243.648 37.1536Z" fill="white"/>
<path fill-rule="evenodd" clip-rule="evenodd" d="M283.482 77.5996C283.588 77.626 283.652 77.7334 283.626 77.8396C283.504 78.3312 283.12 78.7118 282.634 79.0076C282.146 79.3052 281.526 79.5348 280.882 79.7136C279.592 80.0716 278.154 80.2376 277.348 80.3196C277.24 80.3308 277.142 80.2516 277.132 80.1426C277.12 80.0338 277.2 79.9366 277.308 79.9254C278.112 79.8436 279.52 79.68 280.776 79.3318C281.404 79.1574 281.984 78.9396 282.428 78.6692C282.876 78.3968 283.156 78.0886 283.242 77.7442C283.268 77.638 283.376 77.5732 283.482 77.5996Z" fill="black"/>
<path opacity="0.14" d="M307.126 97.4701C305.854 93.3699 302.846 88.3451 295.82 85.7297L282.784 78.5545L282.188 75.4795C282.188 75.4795 280.486 75.3737 275.964 76.2615C277.824 78.2163 276.16 80.9163 276.16 80.9163C276.16 80.9163 277.56 82.0735 279.456 83.8223C281.676 85.8725 284.57 88.7309 286.674 91.4889C287.514 92.5721 288.222 93.6395 288.724 94.6379C288.972 95.1347 289.024 96.6987 288.936 98.9601C288.888 100.086 288.802 101.38 288.686 102.807C287.83 113.649 285.236 131.814 283.7 136.96C282.04 142.513 258.506 139.84 254.918 142.83V145.43L269.676 146.154H298.304L298.218 135.864C298.218 135.864 309.918 127.729 309.916 122.842C309.678 113.458 308.982 103.409 307.126 97.4701ZM298.218 135.864C298.218 135.864 309.918 127.919 309.916 122.842C309.914 113.455 308.982 103.409 307.126 97.4701" fill="black"/>
<path d="M297.952 148.45H254.786C253.478 148.45 253.554 147.39 253.554 146.083V145.1C253.554 143.793 253.478 142.733 254.786 142.733H297.952C299.258 142.733 299.31 143.793 299.31 145.1V146.083C299.31 147.39 299.258 148.45 297.952 148.45Z" fill="black"/>
<path opacity="0.14" d="M253.824 113.6V104.563C252.184 112.632 251.624 116.418 240.908 123.507C240.908 123.507 249.54 120.35 253.824 113.6Z" fill="black"/>
<path fill-rule="evenodd" clip-rule="evenodd" d="M298.404 164.234C298.534 164.3 298.586 164.459 298.52 164.589C298.008 165.607 297.366 166.386 296.588 166.692L296.492 166.446L296.588 166.692C295.122 167.27 293.234 167.544 291.234 167.654C291.088 167.662 290.964 167.55 290.956 167.404C290.948 167.259 291.06 167.134 291.206 167.126C293.186 167.018 295.006 166.747 296.394 166.2C296.988 165.966 297.556 165.33 298.05 164.351C298.114 164.221 298.274 164.169 298.404 164.234Z" fill="#3C448A"/>
<path fill-rule="evenodd" clip-rule="evenodd" d="M258.06 118.881C257.91 118.873 257.774 118.88 257.642 118.911C257.5 118.945 257.356 118.857 257.324 118.715C257.29 118.573 257.378 118.431 257.52 118.397C257.716 118.35 257.908 118.344 258.086 118.353C258.802 118.388 259.108 119.261 258.614 119.752L258.542 119.823C258.386 119.978 258.452 120.244 258.662 120.307L260.332 120.812C260.472 120.855 260.55 121.002 260.508 121.142C260.466 121.282 260.318 121.36 260.18 121.318L258.51 120.813C257.916 120.633 257.73 119.885 258.17 119.448L258.24 119.378C258.424 119.196 258.298 118.893 258.06 118.881Z" fill="#3C448A"/>
<path fill-rule="evenodd" clip-rule="evenodd" d="M282.252 92.6279C282.102 92.6205 281.966 92.6269 281.834 92.6583C281.692 92.6919 281.55 92.6039 281.516 92.4621C281.482 92.3201 281.57 92.1777 281.712 92.1441C281.908 92.0975 282.1 92.0913 282.278 92.1001C282.994 92.1355 283.3 93.0083 282.806 93.4995L282.734 93.5705C282.578 93.7253 282.644 93.9905 282.854 94.0543L284.524 94.5595C284.664 94.6019 284.742 94.7493 284.7 94.8889C284.658 95.0285 284.51 95.1075 284.372 95.0653L282.702 94.5599C282.108 94.3805 281.922 93.6323 282.362 93.1955L282.432 93.1247C282.616 92.9431 282.49 92.6397 282.252 92.6279Z" fill="#3C448A"/>
<path fill-rule="evenodd" clip-rule="evenodd" d="M289.342 135.889C289.192 135.882 289.054 135.889 288.922 135.92C288.78 135.953 288.638 135.866 288.604 135.724C288.57 135.582 288.658 135.439 288.8 135.406C288.998 135.359 289.188 135.353 289.368 135.362C290.084 135.397 290.388 136.27 289.894 136.761L289.822 136.832C289.666 136.987 289.734 137.252 289.944 137.316L291.614 137.821C291.754 137.863 291.832 138.011 291.79 138.151C291.748 138.29 291.6 138.369 291.46 138.327L289.79 137.822C289.198 137.642 289.01 136.894 289.45 136.457L289.522 136.386C289.704 136.205 289.578 135.901 289.342 135.889Z" fill="black"/>
<path fill-rule="evenodd" clip-rule="evenodd" d="M212.868 106.302C212.718 106.294 212.58 106.301 212.448 106.332C212.306 106.366 212.164 106.278 212.13 106.136C212.098 105.994 212.186 105.852 212.328 105.818C212.524 105.771 212.714 105.765 212.894 105.774C213.61 105.809 213.916 106.682 213.42 107.173L213.35 107.244C213.194 107.399 213.26 107.664 213.47 107.728L215.14 108.233C215.28 108.276 215.358 108.423 215.316 108.563C215.274 108.702 215.126 108.781 214.986 108.739L213.316 108.234C212.724 108.054 212.538 107.306 212.976 106.869L213.048 106.799C213.232 106.617 213.106 106.314 212.868 106.302Z" fill="black"/>
<path fill-rule="evenodd" clip-rule="evenodd" d="M219.218 92.0048C219.22 92.1506 219.102 92.2696 218.956 92.2706L203.656 92.3666C203.512 92.3674 203.392 92.25 203.392 92.104C203.39 91.9582 203.508 91.839 203.654 91.8382L218.952 91.7422C219.098 91.7412 219.218 91.8588 219.218 92.0048Z" fill="#3C448A"/>
<path fill-rule="evenodd" clip-rule="evenodd" d="M298.212 116.746C298.358 116.743 298.478 116.859 298.482 117.005L298.828 134.507C298.832 134.652 298.716 134.773 298.57 134.776C298.424 134.779 298.302 134.663 298.3 134.517L297.952 117.015C297.95 116.87 298.066 116.749 298.212 116.746Z" fill="black"/>
<path fill-rule="evenodd" clip-rule="evenodd" d="M239.41 270.042C239.41 269.898 239.528 269.778 239.674 269.778H272.268C272.414 269.778 272.532 269.898 272.532 270.042C272.532 270.188 272.414 270.308 272.268 270.308H239.674C239.528 270.308 239.41 270.188 239.41 270.042Z" fill="black"/>
<path d="M266.386 263.354C266.514 265.406 267.676 270.532 266.838 270.404C266.002 270.276 244.176 272.074 244.816 269.51C245.458 266.948 246.226 264.838 248.406 264.612C250.586 264.384 255.362 265.02 256.324 263.74C256.324 263.74 253.44 261.816 254.85 260.278C256.26 258.74 259.72 258.484 259.72 258.484C259.72 258.484 260.648 262.714 262.172 262.458C263.694 262.2 264.608 260.918 265.368 261.432C266.13 261.944 266.258 261.304 266.386 263.354Z" fill="black"/>
</g>
<defs>
<clipPath id="clip0">
<rect width="400" height="300" fill="white"/>
</clipPath>
</defs>
</svg>
