<svg width="400" height="300" viewBox="0 0 400 300" fill="none" xmlns="http://www.w3.org/2000/svg">
<g clip-path="url(#clip0)">
<path d="M163.534 258.252C155.542 260.506 146.771 260.014 139.721 254.932C135.295 251.736 132.385 247.39 129.557 243.21C128.327 241.366 127.18 239.644 125.909 238.046C122.507 233.702 117.097 230.012 112.712 231.61L109.966 223.906C118.737 220.75 127.549 226.856 132.385 233.004C133.819 234.848 135.131 236.776 136.402 238.66C138.902 242.432 141.32 245.996 144.558 248.292C150.583 252.636 161.731 252.964 171.404 245.26C179.806 238.538 185.093 228.004 189.724 218.7L197.061 222.39C192.019 232.472 186.322 243.866 176.527 251.694C172.797 254.564 168.33 256.9 163.534 258.252Z" stroke="white" stroke-opacity="0.32" stroke-width="0.40986" stroke-miterlimit="10" stroke-linejoin="round"/>
<path d="M111.359 227.718C117.876 225.382 124.884 230.054 129.147 235.504C133.41 240.956 136.484 247.554 142.099 251.612C151.402 258.294 164.969 255.588 173.904 248.456C182.839 241.324 188.208 230.75 193.331 220.504" stroke="white" stroke-opacity="0.32" stroke-width="0.40986" stroke-miterlimit="10" stroke-linejoin="round"/>
<path d="M180.051 225.096C179.15 223.538 178.576 222.554 177.674 220.996L180.379 205.79C180.871 203.086 181.65 199.93 184.519 199.151C186.322 198.659 188.207 199.356 189.437 200.75C191.978 203.66 191.691 207.472 191.363 210.996C194.765 207.308 197.716 203.168 201.118 199.479C204.314 196.077 208.086 192.389 212.758 192.553C217.43 192.716 220.956 196.692 223.906 200.38C226.366 203.454 228.948 207.102 228.046 210.956C227.268 214.398 223.906 216.57 220.832 218.374C212.102 223.496 203.332 228.62 194.601 233.744C189.929 230.218 185.379 227.062 180.051 225.096Z" fill="#9FACE6"/>
<path d="M187.961 230.342L191.281 231.284L196.568 235.178L217.184 199.356C217.184 199.356 209.07 192.142 206.856 194.396C204.602 196.61 187.961 230.342 187.961 230.342Z" fill="#534093"/>
<path d="M320.182 286.778L222.512 0L388.67 28.8542L350.062 291.984L320.182 286.778Z" fill="#534093"/>
<path d="M407.032 91.5203L297.846 149.147L292.968 137.22L402.154 79.5935L407.032 91.5203Z" fill="white"/>
<g opacity="0.4">
<path opacity="0.3" d="M387.154 31.8465C388.22 32.0513 388.916 33.0759 388.752 34.1417C388.548 35.2073 387.524 35.9041 386.458 35.7401C385.392 35.5351 384.696 34.5105 384.86 33.4449C385.024 32.3793 386.048 31.6415 387.154 31.8465Z" fill="#242540"/>
</g>
<g opacity="0.4">
<path opacity="0.3" d="M396.826 33.6085C397.892 33.8135 398.59 34.8381 398.426 35.9037C398.22 36.9693 397.196 37.6661 396.13 37.5021C395.064 37.2973 394.368 36.2725 394.532 35.2069C394.736 34.1413 395.762 33.4035 396.826 33.6085Z" fill="#242540"/>
</g>
<g opacity="0.4">
<path opacity="0.3" d="M391.088 37.5843C392.154 37.7891 392.852 38.8139 392.688 39.8795C392.482 40.9451 391.458 41.6419 390.392 41.4779C389.326 41.2729 388.63 40.2483 388.794 39.1827C388.998 38.0761 390.024 37.3793 391.088 37.5843Z" fill="#242540"/>
</g>
<g opacity="0.4">
<path opacity="0.3" d="M381.416 35.8215C382.482 36.0265 383.178 37.0511 383.014 38.1167C382.81 39.1823 381.786 39.8791 380.72 39.7153C379.654 39.5103 378.958 38.4857 379.122 37.4199C379.326 36.3133 380.35 35.6167 381.416 35.8215Z" fill="#242540"/>
</g>
<g opacity="0.4">
<path opacity="0.3" d="M392.85 27.9119C393.916 28.1169 394.614 29.1415 394.45 30.2071C394.244 31.2727 393.22 31.9695 392.154 31.8057C391.088 31.6007 390.392 30.5761 390.556 29.5105C390.76 28.4037 391.786 27.7071 392.85 27.9119Z" fill="#242540"/>
</g>
<g opacity="0.4">
<path opacity="0.3" d="M383.178 26.1489C384.244 26.3539 384.94 27.3785 384.776 28.4443C384.572 29.5099 383.548 30.2067 382.482 30.0427C381.416 29.8377 380.72 28.8131 380.882 27.7475C381.088 26.6409 382.112 25.9441 383.178 26.1489Z" fill="#242540"/>
</g>
<g opacity="0.4">
<path opacity="0.3" d="M388.876 22.1732C389.942 22.378 390.638 23.4028 390.474 24.4684C390.268 25.534 389.244 26.2308 388.178 26.0668C387.114 25.8618 386.416 24.8372 386.58 23.7716C386.786 22.706 387.81 21.9682 388.876 22.1732Z" fill="#242540"/>
</g>
<g opacity="0.4">
<path opacity="0.3" d="M398.588 23.9358C399.654 24.1408 400.352 25.1654 400.188 26.231C399.982 27.2968 398.958 27.9934 397.892 27.8296C396.826 27.6246 396.13 26.6 396.294 25.5344C396.498 24.4686 397.522 23.731 398.588 23.9358Z" fill="#242540"/>
</g>
<g opacity="0.4">
<path opacity="0.3" d="M383.628 51.1916C384.694 51.3966 385.392 52.4212 385.228 53.4868C385.022 54.5524 383.998 55.2492 382.932 55.0852C381.866 54.8804 381.17 53.8556 381.334 52.79C381.538 51.7244 382.564 51.0276 383.628 51.1916Z" fill="#242540"/>
</g>
<g opacity="0.4">
<path opacity="0.3" d="M393.302 52.9542C394.368 53.1592 395.064 54.1838 394.9 55.2494C394.696 56.3152 393.672 57.0118 392.606 56.848C391.54 56.643 390.844 55.6184 391.008 54.5528C391.212 53.4872 392.236 52.7904 393.302 52.9542Z" fill="#242540"/>
</g>
<g opacity="0.4">
<path opacity="0.3" d="M387.564 56.9295C388.63 57.1345 389.326 58.1591 389.162 59.2247C388.958 60.2903 387.934 60.9871 386.868 60.8231C385.802 60.6183 385.106 59.5935 385.268 58.5279C385.474 57.4623 386.498 56.7245 387.564 56.9295Z" fill="#242540"/>
</g>
<g opacity="0.4">
<path opacity="0.3" d="M377.89 55.1668C378.956 55.3718 379.654 56.3964 379.49 57.462C379.284 58.5278 378.26 59.2244 377.194 59.0606C376.128 58.8556 375.432 57.831 375.596 56.7654C375.8 55.6996 376.826 54.962 377.89 55.1668Z" fill="#242540"/>
</g>
<g opacity="0.4">
<path opacity="0.3" d="M389.326 47.2568C390.392 47.4618 391.088 48.4864 390.924 49.552C390.72 50.6178 389.696 51.3144 388.63 51.1506C387.564 50.9456 386.866 49.921 387.03 48.8554C387.236 47.7488 388.26 47.052 389.326 47.2568Z" fill="#242540"/>
</g>
<g opacity="0.4">
<path opacity="0.3" d="M379.654 45.4942C380.72 45.6992 381.416 46.7238 381.252 47.7894C381.048 48.855 380.022 49.5518 378.956 49.3878C377.892 49.183 377.194 48.1582 377.358 47.0926C377.564 45.986 378.588 45.2892 379.654 45.4942Z" fill="#242540"/>
</g>
<g opacity="0.4">
<path opacity="0.3" d="M385.392 41.519C386.458 41.724 387.154 42.7486 386.99 43.8142C386.786 44.8798 385.76 45.5766 384.694 45.4128C383.63 45.2078 382.932 44.1832 383.096 43.1174C383.302 42.0518 384.326 41.355 385.392 41.519Z" fill="#242540"/>
</g>
<g opacity="0.4">
<path opacity="0.3" d="M395.064 43.2811C396.13 43.4859 396.826 44.5107 396.662 45.5763C396.458 46.6419 395.434 47.3387 394.368 47.1747C393.302 46.9697 392.606 45.9451 392.768 44.8795C392.974 43.8139 393.998 43.0761 395.064 43.2811Z" fill="#242540"/>
</g>
<g opacity="0.4">
<path opacity="0.3" d="M380.104 70.5779C381.17 70.7829 381.866 71.8075 381.702 72.8731C381.498 73.9387 380.474 74.6355 379.408 74.4717C378.342 74.2667 377.646 73.2421 377.81 72.1765C378.014 71.0697 379.038 70.3731 380.104 70.5779Z" fill="#242540"/>
</g>
<g opacity="0.4">
<path opacity="0.3" d="M389.776 72.3399C390.842 72.5447 391.54 73.5695 391.376 74.6351C391.17 75.7007 390.146 76.3975 389.08 76.2335C388.014 76.0285 387.318 75.0039 387.482 73.9383C387.686 72.8317 388.712 72.1349 389.776 72.3399Z" fill="#242540"/>
</g>
<g opacity="0.4">
<path opacity="0.3" d="M384.038 76.2747C385.104 76.4797 385.802 77.5043 385.638 78.5699C385.432 79.6357 384.408 80.3323 383.342 80.1685C382.276 79.9635 381.58 78.9389 381.744 77.8733C381.948 76.8075 382.974 76.0699 384.038 76.2747Z" fill="#242540"/>
</g>
<g opacity="0.4">
<path opacity="0.3" d="M374.366 74.5129C375.432 74.7177 376.128 75.7425 375.964 76.8081C375.76 77.8737 374.736 78.5705 373.67 78.4065C372.604 78.2015 371.908 77.1769 372.07 76.1113C372.276 75.0457 373.3 74.3489 374.366 74.5129Z" fill="#242540"/>
</g>
<g opacity="0.4">
<path opacity="0.3" d="M385.802 66.6021C386.868 66.8069 387.564 67.8315 387.4 68.8973C387.196 69.9629 386.17 70.6597 385.104 70.4957C384.04 70.2907 383.342 69.2661 383.506 68.2005C383.712 67.1349 384.736 66.3971 385.802 66.6021Z" fill="#242540"/>
</g>
<g opacity="0.4">
<path opacity="0.3" d="M376.128 64.8402C377.194 65.0452 377.892 66.0698 377.728 67.1354C377.522 68.201 376.498 68.8978 375.432 68.7338C374.366 68.529 373.67 67.5044 373.834 66.4386C374.038 65.373 375.064 64.6352 376.128 64.8402Z" fill="#242540"/>
</g>
<g opacity="0.4">
<path opacity="0.3" d="M370.432 68.8155C371.498 69.0203 372.194 70.0451 372.03 71.1107C371.826 72.1763 370.8 72.8731 369.734 72.7091C368.67 72.5041 367.972 71.4795 368.136 70.4139C368.342 69.3073 369.366 68.6105 370.432 68.8155Z" fill="#242540"/>
</g>
<g opacity="0.4">
<path opacity="0.3" d="M381.866 60.9056C382.932 61.1104 383.63 62.1352 383.466 63.2008C383.26 64.2664 382.236 64.9632 381.17 64.7992C380.104 64.5942 379.408 63.5696 379.572 62.504C379.776 61.3974 380.802 60.7006 381.866 60.9056Z" fill="#242540"/>
</g>
<g opacity="0.4">
<path opacity="0.3" d="M391.54 62.6269C392.606 62.8319 393.302 63.8565 393.138 64.9221C392.934 65.9877 391.908 66.6845 390.842 66.5205C389.778 66.3157 389.08 65.2911 389.244 64.2253C389.45 63.1597 390.474 62.4629 391.54 62.6269Z" fill="#242540"/>
</g>
<g opacity="0.4">
<path opacity="0.3" d="M376.58 89.9232C377.646 90.128 378.342 91.1528 378.178 92.2184C377.974 93.284 376.948 93.9808 375.882 93.8168C374.818 93.6118 374.12 92.5872 374.284 91.5216C374.49 90.415 375.514 89.7182 376.58 89.9232Z" fill="#242540"/>
</g>
<g opacity="0.4">
<path opacity="0.3" d="M386.252 91.6858C387.318 91.8908 388.014 92.9154 387.85 93.981C387.646 95.0466 386.622 95.7434 385.556 95.5796C384.49 95.3746 383.794 94.35 383.956 93.2842C384.162 92.1776 385.186 91.481 386.252 91.6858Z" fill="#242540"/>
</g>
<g opacity="0.4">
<path opacity="0.3" d="M380.554 95.6206C381.62 95.8254 382.318 96.8502 382.154 97.9158C381.948 98.9814 380.924 99.6782 379.858 99.5142C378.792 99.3092 378.096 98.2846 378.26 97.219C378.424 96.1534 379.448 95.4566 380.554 95.6206Z" fill="#242540"/>
</g>
<g opacity="0.4">
<path opacity="0.3" d="M370.842 93.8992C371.908 94.1042 372.604 95.1288 372.44 96.1944C372.236 97.26 371.21 97.9568 370.144 97.7928C369.08 97.588 368.382 96.5632 368.546 95.4976C368.752 94.391 369.776 93.6942 370.842 93.8992Z" fill="#242540"/>
</g>
<g opacity="0.4">
<path opacity="0.3" d="M382.276 85.9479C383.342 86.1529 384.04 87.1776 383.876 88.2432C383.67 89.3088 382.646 90.0055 381.58 89.8415C380.514 89.6367 379.818 88.612 379.982 87.5464C380.186 86.4808 381.212 85.7839 382.276 85.9479Z" fill="#242540"/>
</g>
<g opacity="0.4">
<path opacity="0.3" d="M372.604 84.1855C373.67 84.3903 374.366 85.4149 374.202 86.4807C373.998 87.5463 372.974 88.2431 371.908 88.0791C370.842 87.8741 370.146 86.8495 370.31 85.7839C370.514 84.7183 371.538 84.0215 372.604 84.1855Z" fill="#242540"/>
</g>
<g opacity="0.4">
<path opacity="0.3" d="M378.342 80.2506C379.408 80.4556 380.104 81.4801 379.94 82.5457C379.736 83.6113 378.712 84.3082 377.646 84.1442C376.58 83.9394 375.884 82.9145 376.048 81.8489C376.252 80.7423 377.276 80.0456 378.342 80.2506Z" fill="#242540"/>
</g>
<g opacity="0.4">
<path opacity="0.3" d="M388.014 82.0132C389.08 82.2182 389.778 83.2428 389.614 84.3084C389.408 85.3742 388.384 86.0708 387.318 85.907C386.252 85.702 385.556 84.6774 385.72 83.6118C385.924 82.5052 386.95 81.8084 388.014 82.0132Z" fill="#242540"/>
</g>
<g opacity="0.4">
<path opacity="0.3" d="M373.054 109.268C374.12 109.473 374.818 110.498 374.654 111.564C374.448 112.629 373.424 113.326 372.358 113.162C371.292 112.957 370.596 111.932 370.76 110.867C370.964 109.801 371.99 109.063 373.054 109.268Z" fill="#242540"/>
</g>
<g opacity="0.4">
<path opacity="0.3" d="M382.728 111.031C383.794 111.236 384.49 112.261 384.326 113.326C384.122 114.392 383.096 115.089 382.03 114.925C380.966 114.72 380.268 113.695 380.432 112.63C380.638 111.564 381.662 110.826 382.728 111.031Z" fill="#242540"/>
</g>
<g opacity="0.4">
<path opacity="0.3" d="M377.03 115.007C378.096 115.212 378.792 116.236 378.628 117.302C378.424 118.368 377.4 119.064 376.334 118.9C375.268 118.696 374.572 117.671 374.736 116.605C374.94 115.499 375.964 114.802 377.03 115.007Z" fill="#242540"/>
</g>
<g opacity="0.4">
<path opacity="0.3" d="M367.358 113.244C368.424 113.449 369.12 114.474 368.956 115.539C368.752 116.605 367.726 117.302 366.66 117.138C365.596 116.933 364.898 115.908 365.062 114.843C365.226 113.736 366.252 113.039 367.358 113.244Z" fill="#242540"/>
</g>
<g opacity="0.4">
<path opacity="0.3" d="M378.792 105.334C379.858 105.539 380.556 106.563 380.392 107.629C380.186 108.695 379.162 109.391 378.096 109.227C377.03 109.022 376.334 107.998 376.498 106.932C376.702 105.825 377.686 105.129 378.792 105.334Z" fill="#242540"/>
</g>
<g opacity="0.4">
<path opacity="0.3" d="M369.078 103.572C370.144 103.777 370.842 104.801 370.678 105.867C370.472 106.933 369.448 107.629 368.382 107.465C367.316 107.261 366.62 106.236 366.784 105.17C366.988 104.064 368.014 103.367 369.078 103.572Z" fill="#242540"/>
</g>
<g opacity="0.4">
<path opacity="0.3" d="M374.816 99.5957C375.882 99.8007 376.58 100.825 376.416 101.891C376.21 102.957 375.186 103.653 374.12 103.489C373.054 103.285 372.358 102.26 372.522 101.194C372.726 100.129 373.752 99.3909 374.816 99.5957Z" fill="#242540"/>
</g>
<g opacity="0.4">
<path opacity="0.3" d="M384.49 101.358C385.556 101.563 386.252 102.588 386.088 103.654C385.884 104.719 384.86 105.416 383.794 105.252C382.728 105.047 382.032 104.022 382.196 102.957C382.4 101.891 383.424 101.153 384.49 101.358Z" fill="#242540"/>
</g>
<g opacity="0.4">
<path opacity="0.3" d="M369.53 128.614C370.596 128.819 371.292 129.844 371.128 130.909C370.924 131.975 369.9 132.672 368.834 132.508C367.768 132.303 367.072 131.278 367.236 130.213C367.44 129.147 368.464 128.45 369.53 128.614Z" fill="#242540"/>
</g>
<g opacity="0.4">
<path opacity="0.3" d="M379.202 130.376C380.268 130.581 380.966 131.606 380.802 132.671C380.596 133.737 379.572 134.434 378.506 134.27C377.44 134.065 376.744 133.04 376.908 131.975C377.112 130.909 378.138 130.212 379.202 130.376Z" fill="#242540"/>
</g>
<g opacity="0.4">
<path opacity="0.3" d="M373.506 134.352C374.572 134.557 375.268 135.582 375.104 136.647C374.9 137.713 373.874 138.41 372.808 138.246C371.744 138.041 371.046 137.016 371.21 135.951C371.416 134.885 372.44 134.147 373.506 134.352Z" fill="#242540"/>
</g>
<g opacity="0.4">
<path opacity="0.3" d="M363.834 132.59C364.898 132.794 365.596 133.819 365.432 134.885C365.226 135.95 364.202 136.647 363.136 136.483C362.07 136.278 361.374 135.254 361.538 134.188C361.742 133.122 362.768 132.385 363.834 132.59Z" fill="#242540"/>
</g>
<g opacity="0.4">
<path opacity="0.3" d="M375.268 124.679C376.334 124.884 377.03 125.909 376.866 126.975C376.662 128.04 375.638 128.737 374.572 128.573C373.506 128.368 372.81 127.344 372.974 126.278C373.178 125.171 374.202 124.475 375.268 124.679Z" fill="#242540"/>
</g>
<g opacity="0.4">
<path opacity="0.3" d="M365.596 122.917C366.66 123.122 367.358 124.146 367.194 125.212C366.988 126.278 365.964 126.974 364.898 126.81C363.832 126.606 363.136 125.581 363.3 124.515C363.504 123.409 364.488 122.712 365.596 122.917Z" fill="#242540"/>
</g>
<g opacity="0.4">
<path opacity="0.3" d="M359.856 126.893C360.922 127.098 361.62 128.122 361.456 129.188C361.25 130.254 360.226 130.95 359.16 130.787C358.094 130.582 357.398 129.557 357.562 128.491C357.766 127.385 358.792 126.688 359.856 126.893Z" fill="#242540"/>
</g>
<g opacity="0.4">
<path opacity="0.3" d="M371.292 118.942C372.358 119.147 373.054 120.171 372.89 121.237C372.686 122.302 371.662 122.999 370.596 122.835C369.53 122.63 368.834 121.606 368.998 120.54C369.202 119.474 370.226 118.778 371.292 118.942Z" fill="#242540"/>
</g>
<g opacity="0.4">
<path opacity="0.3" d="M380.964 120.704C382.03 120.908 382.728 121.933 382.564 122.999C382.358 124.064 381.334 124.761 380.268 124.597C379.202 124.392 378.506 123.368 378.67 122.302C378.874 121.236 379.9 120.54 380.964 120.704Z" fill="#242540"/>
</g>
<g opacity="0.4">
<path opacity="0.3" d="M366.006 148C367.07 148.205 367.768 149.23 367.604 150.296C367.398 151.362 366.374 152.058 365.308 151.894C364.242 151.689 363.546 150.665 363.71 149.599C363.914 148.492 364.94 147.796 366.006 148Z" fill="#242540"/>
</g>
<g opacity="0.4">
<path opacity="0.3" d="M375.678 149.763C376.744 149.968 377.44 150.992 377.276 152.058C377.072 153.123 376.048 153.82 374.982 153.656C373.916 153.451 373.22 152.427 373.382 151.361C373.588 150.254 374.612 149.558 375.678 149.763Z" fill="#242540"/>
</g>
<g opacity="0.4">
<path opacity="0.3" d="M369.98 153.697C371.046 153.902 371.744 154.927 371.58 155.992C371.374 157.058 370.35 157.755 369.284 157.591C368.218 157.386 367.522 156.361 367.686 155.296C367.89 154.23 368.916 153.492 369.98 153.697Z" fill="#242540"/>
</g>
<g opacity="0.4">
<path opacity="0.3" d="M360.308 151.935C361.374 152.14 362.07 153.165 361.908 154.231C361.702 155.296 360.678 155.993 359.612 155.829C358.546 155.624 357.85 154.6 358.014 153.534C358.218 152.468 359.242 151.771 360.308 151.935Z" fill="#242540"/>
</g>
<g opacity="0.4">
<path opacity="0.3" d="M371.742 144.025C372.808 144.23 373.506 145.254 373.342 146.32C373.136 147.386 372.112 148.082 371.046 147.918C369.98 147.713 369.284 146.689 369.448 145.623C369.652 144.558 370.678 143.82 371.742 144.025Z" fill="#242540"/>
</g>
<g opacity="0.4">
<path opacity="0.3" d="M362.07 142.262C363.136 142.467 363.832 143.492 363.668 144.557C363.464 145.623 362.44 146.32 361.374 146.156C360.308 145.951 359.612 144.926 359.776 143.86C359.98 142.795 361.004 142.057 362.07 142.262Z" fill="#242540"/>
</g>
<g opacity="0.4">
<path opacity="0.3" d="M367.768 138.327C368.834 138.532 369.53 139.557 369.366 140.623C369.162 141.688 368.136 142.385 367.07 142.221C366.006 142.016 365.308 140.991 365.472 139.926C365.678 138.819 366.702 138.122 367.768 138.327Z" fill="#242540"/>
</g>
<g opacity="0.4">
<path opacity="0.3" d="M377.44 140.09C378.506 140.295 379.202 141.32 379.038 142.385C378.834 143.451 377.81 144.148 376.744 143.984C375.678 143.779 374.982 142.754 375.144 141.689C375.35 140.582 376.374 139.885 377.44 140.09Z" fill="#242540"/>
</g>
<g opacity="0.4">
<path opacity="0.3" d="M362.48 167.346C363.546 167.551 364.242 168.576 364.078 169.641C363.874 170.707 362.85 171.404 361.784 171.24C360.718 171.035 360.022 170.01 360.184 168.945C360.39 167.879 361.414 167.141 362.48 167.346Z" fill="#242540"/>
</g>
<g opacity="0.4">
<path opacity="0.3" d="M372.194 169.108C373.26 169.313 373.956 170.338 373.792 171.404C373.588 172.469 372.564 173.166 371.498 173.002C370.432 172.797 369.736 171.773 369.9 170.707C370.064 169.6 371.088 168.904 372.194 169.108Z" fill="#242540"/>
</g>
<g opacity="0.4">
<path opacity="0.3" d="M366.456 173.043C367.522 173.248 368.218 174.273 368.054 175.338C367.85 176.404 366.826 177.101 365.76 176.937C364.694 176.732 363.998 175.707 364.162 174.642C364.366 173.576 365.39 172.879 366.456 173.043Z" fill="#242540"/>
</g>
<g opacity="0.4">
<path opacity="0.3" d="M356.782 171.321C357.848 171.526 358.546 172.551 358.382 173.616C358.176 174.682 357.152 175.379 356.086 175.215C355.02 175.01 354.324 173.985 354.488 172.92C354.692 171.813 355.718 171.116 356.782 171.321Z" fill="#242540"/>
</g>
<g opacity="0.4">
<path opacity="0.3" d="M368.218 163.37C369.284 163.575 369.98 164.599 369.816 165.665C369.612 166.731 368.588 167.427 367.522 167.263C366.456 167.059 365.76 166.034 365.924 164.968C366.128 163.903 367.152 163.206 368.218 163.37Z" fill="#242540"/>
</g>
<g opacity="0.4">
<path opacity="0.3" d="M358.546 161.608C359.612 161.813 360.308 162.838 360.144 163.903C359.94 164.969 358.916 165.666 357.85 165.502C356.784 165.297 356.088 164.272 356.252 163.207C356.456 162.141 357.48 161.444 358.546 161.608Z" fill="#242540"/>
</g>
<g opacity="0.4">
<path opacity="0.3" d="M364.244 157.673C365.308 157.878 366.006 158.903 365.842 159.968C365.636 161.034 364.612 161.731 363.546 161.567C362.48 161.362 361.784 160.337 361.948 159.272C362.152 158.165 363.178 157.468 364.244 157.673Z" fill="#242540"/>
</g>
<g opacity="0.4">
<path opacity="0.3" d="M373.916 159.435C374.98 159.64 375.678 160.664 375.514 161.73C375.308 162.795 374.284 163.492 373.218 163.328C372.152 163.123 371.456 162.099 371.62 161.033C371.824 159.926 372.85 159.23 373.916 159.435Z" fill="#242540"/>
</g>
<g opacity="0.4">
<path opacity="0.3" d="M358.996 186.691C360.062 186.896 360.758 187.921 360.594 188.986C360.39 190.052 359.366 190.749 358.3 190.585C357.234 190.38 356.538 189.355 356.702 188.289C356.866 187.224 357.89 186.486 358.996 186.691Z" fill="#242540"/>
</g>
<g opacity="0.4">
<path opacity="0.3" d="M368.67 188.454C369.734 188.659 370.432 189.684 370.268 190.749C370.062 191.815 369.038 192.512 367.972 192.348C366.906 192.143 366.21 191.118 366.374 190.053C366.578 188.987 367.604 188.249 368.67 188.454Z" fill="#242540"/>
</g>
<g opacity="0.4">
<path opacity="0.3" d="M362.93 192.429C363.996 192.634 364.694 193.658 364.53 194.724C364.324 195.79 363.3 196.486 362.234 196.323C361.168 196.118 360.472 195.093 360.636 194.027C360.84 192.921 361.866 192.224 362.93 192.429Z" fill="#242540"/>
</g>
<g opacity="0.4">
<path opacity="0.3" d="M353.258 190.667C354.324 190.872 355.02 191.896 354.856 192.962C354.652 194.028 353.628 194.725 352.562 194.561C351.496 194.356 350.8 193.331 350.964 192.265C351.168 191.159 352.192 190.462 353.258 190.667Z" fill="#242540"/>
</g>
<g opacity="0.4">
<path opacity="0.3" d="M364.694 182.756C365.76 182.961 366.456 183.986 366.292 185.051C366.088 186.117 365.062 186.814 363.996 186.65C362.932 186.445 362.234 185.42 362.398 184.355C362.604 183.248 363.628 182.551 364.694 182.756Z" fill="#242540"/>
</g>
<g opacity="0.4">
<path opacity="0.3" d="M355.022 180.995C356.088 181.2 356.784 182.224 356.62 183.29C356.414 184.355 355.39 185.052 354.324 184.888C353.26 184.683 352.562 183.659 352.726 182.593C352.932 181.486 353.956 180.79 355.022 180.995Z" fill="#242540"/>
</g>
<g opacity="0.4">
<path opacity="0.3" d="M360.718 177.018C361.784 177.223 362.48 178.248 362.316 179.314C362.112 180.379 361.088 181.076 360.022 180.912C358.956 180.707 358.26 179.682 358.424 178.617C358.628 177.551 359.652 176.813 360.718 177.018Z" fill="#242540"/>
</g>
<g opacity="0.4">
<path opacity="0.3" d="M370.432 178.781C371.498 178.986 372.194 180.011 372.03 181.076C371.826 182.142 370.8 182.839 369.734 182.675C368.67 182.47 367.972 181.445 368.136 180.379C368.342 179.314 369.366 178.576 370.432 178.781Z" fill="#242540"/>
</g>
<g opacity="0.4">
<path opacity="0.3" d="M355.472 206.036C356.538 206.242 357.234 207.266 357.07 208.332C356.866 209.398 355.84 210.094 354.776 209.93C353.71 209.726 353.012 208.7 353.176 207.636C353.382 206.57 354.406 205.872 355.472 206.036Z" fill="#242540"/>
</g>
<g opacity="0.4">
<path opacity="0.3" d="M365.144 207.8C366.21 208.004 366.906 209.028 366.742 210.094C366.538 211.16 365.514 211.856 364.448 211.692C363.382 211.488 362.686 210.464 362.85 209.398C363.054 208.332 364.078 207.636 365.144 207.8Z" fill="#242540"/>
</g>
<g opacity="0.4">
<path opacity="0.3" d="M361.17 202.102C362.234 202.308 362.932 203.332 362.768 204.398C362.562 205.464 361.538 206.16 360.472 205.996C359.406 205.79 358.71 204.766 358.874 203.7C359.078 202.594 360.104 201.898 361.17 202.102Z" fill="#242540"/>
</g>
<g opacity="0.4">
<path opacity="0.3" d="M351.496 200.34C352.562 200.544 353.258 201.568 353.096 202.634C352.89 203.7 351.866 204.398 350.8 204.234C349.734 204.028 349.038 203.004 349.202 201.938C349.406 200.832 350.43 200.134 351.496 200.34Z" fill="#242540"/>
</g>
<g opacity="0.4">
<path opacity="0.3" d="M357.234 196.363C358.3 196.568 358.998 197.593 358.834 198.659C358.628 199.724 357.604 200.422 356.538 200.258C355.472 200.052 354.776 199.028 354.94 197.962C355.144 196.896 356.168 196.2 357.234 196.363Z" fill="#242540"/>
</g>
<g opacity="0.4">
<path opacity="0.3" d="M366.908 198.126C367.972 198.331 368.67 199.356 368.506 200.422C368.3 201.488 367.276 202.184 366.21 202.02C365.144 201.814 364.448 200.79 364.612 199.725C364.816 198.659 365.842 197.962 366.908 198.126Z" fill="#242540"/>
</g>
<g opacity="0.4">
<path opacity="0.3" d="M374.572 39.9203C374.818 39.8383 375.064 39.7563 375.31 39.7563C375.432 39.7563 375.554 39.7563 375.718 39.7973C376.784 40.0023 377.482 41.0269 377.318 42.0925C377.112 43.1583 376.088 43.8549 375.022 43.6911C374.9 43.6501 374.776 43.6091 374.654 43.5681C374.408 43.4861 374.202 43.3221 373.998 43.1583C373.546 42.7073 373.3 42.0515 373.424 41.3959C373.546 40.6991 373.956 40.1663 374.572 39.9203Z" fill="#242540"/>
</g>
<g opacity="0.4">
<path opacity="0.3" d="M367.768 28.3212C368.834 28.526 369.53 29.5506 369.366 30.6164C369.162 31.682 368.136 32.3788 367.07 32.2148C366.006 32.0098 365.308 30.9852 365.472 29.9196C365.678 28.854 366.702 28.1572 367.768 28.3212Z" fill="#242540"/>
</g>
<g opacity="0.4">
<path opacity="0.3" d="M376.334 30.207C376.58 30.1252 376.826 30.0432 377.072 30.0432C377.194 30.0432 377.318 30.0432 377.482 30.0842C378.548 30.289 379.244 31.3138 379.08 32.3794C378.876 33.445 377.85 34.1418 376.784 33.9778C376.662 33.9368 376.538 33.8958 376.416 33.8548C376.17 33.7728 375.966 33.609 375.76 33.445C375.31 32.9942 375.064 32.3384 375.186 31.6826C375.31 31.0268 375.72 30.494 376.334 30.207Z" fill="#242540"/>
</g>
<g opacity="0.4">
<path opacity="0.3" d="M371.742 34.0599C372.808 34.2647 373.506 35.2895 373.342 36.3551C373.136 37.4207 372.112 38.1175 371.046 37.9535C369.98 37.7485 369.284 36.7239 369.448 35.6583C369.652 34.5517 370.678 33.8549 371.742 34.0599Z" fill="#242540"/>
</g>
<g opacity="0.4">
<path opacity="0.3" d="M362.07 32.2969C363.136 32.5019 363.832 33.5265 363.668 34.5921C363.464 35.6577 362.44 36.3545 361.374 36.1907C360.308 35.9857 359.612 34.9611 359.776 33.8953C359.98 32.7887 361.004 32.0921 362.07 32.2969Z" fill="#242540"/>
</g>
<g opacity="0.4">
<path opacity="0.3" d="M373.506 24.3863C374.572 24.5913 375.268 25.6159 375.104 26.6815C374.9 27.7471 373.874 28.4439 372.808 28.2799C371.744 28.0751 371.046 27.0503 371.21 25.9847C371.416 24.8781 372.44 24.1813 373.506 24.3863Z" fill="#242540"/>
</g>
<g opacity="0.4">
<path opacity="0.3" d="M363.834 22.6245C364.898 22.8295 365.596 23.8541 365.432 24.9199C365.226 25.9855 364.202 26.6823 363.136 26.5183C362.07 26.3133 361.374 25.2887 361.538 24.2231C361.742 23.1165 362.768 22.4197 363.834 22.6245Z" fill="#242540"/>
</g>
<g opacity="0.4">
<path opacity="0.3" d="M369.53 18.6485C370.596 18.8534 371.292 19.8781 371.128 20.9438C370.924 22.0094 369.9 22.7062 368.834 22.5422C367.768 22.3372 367.072 21.3126 367.236 20.247C367.44 19.1813 368.464 18.4436 369.53 18.6485Z" fill="#242540"/>
</g>
<g opacity="0.4">
<path opacity="0.3" d="M378.054 20.5339C378.3 20.4519 378.546 20.3699 378.792 20.3699C378.916 20.3699 379.038 20.3699 379.202 20.4109C380.268 20.6159 380.964 21.6405 380.8 22.7061C380.596 23.7717 379.572 24.4685 378.506 24.3045C378.382 24.2635 378.26 24.2225 378.136 24.1817C377.89 24.0997 377.686 23.9357 377.482 23.7717C377.03 23.3209 376.784 22.6651 376.908 22.0093C377.03 21.3125 377.482 20.8207 378.054 20.5339Z" fill="#242540"/>
</g>
<g opacity="0.4">
<path opacity="0.3" d="M372.81 49.593C373.056 49.511 373.302 49.429 373.548 49.429C373.67 49.429 373.792 49.429 373.956 49.47C375.022 49.675 375.72 50.6996 375.556 51.7652C375.35 52.8308 374.326 53.5276 373.26 53.3636C373.138 53.3226 373.014 53.2816 372.892 53.2408C372.646 53.1588 372.44 52.9948 372.236 52.8308C371.784 52.38 371.538 51.7242 371.662 51.0684C371.784 50.3716 372.236 49.8388 372.81 49.593Z" fill="#242540"/>
</g>
<g opacity="0.4">
<path opacity="0.3" d="M368.218 53.4051C369.284 53.6099 369.98 54.6345 369.816 55.7003C369.612 56.7659 368.588 57.4627 367.522 57.2987C366.456 57.0937 365.76 56.0691 365.924 55.0035C366.128 53.9379 367.152 53.2001 368.218 53.4051Z" fill="#242540"/>
</g>
<g opacity="0.4">
<path opacity="0.3" d="M369.98 43.7325C371.046 43.9375 371.744 44.9621 371.58 46.0277C371.374 47.0933 370.35 47.7901 369.284 47.6261C368.218 47.4213 367.522 46.3967 367.686 45.3309C367.89 44.2653 368.916 43.5275 369.98 43.7325Z" fill="#242540"/>
</g>
<g opacity="0.4">
<path opacity="0.3" d="M366.006 37.9943C367.07 38.1993 367.768 39.2239 367.604 40.2895C367.398 41.3551 366.374 42.0519 365.308 41.8881C364.242 41.6831 363.546 40.6585 363.71 39.5927C363.914 38.5271 364.94 37.8305 366.006 37.9943Z" fill="#242540"/>
</g>
<g opacity="0.4">
<path opacity="0.3" d="M366.456 63.0774C367.522 63.2824 368.218 64.307 368.054 65.3726C367.85 66.4384 366.826 67.135 365.76 66.9712C364.694 66.7662 363.998 65.7416 364.162 64.676C364.366 63.6102 365.39 62.8726 366.456 63.0774Z" fill="#242540"/>
</g>
<g opacity="0.4">
<path opacity="0.3" d="M371.046 59.2654C371.292 59.1834 371.538 59.1016 371.784 59.1016C371.908 59.1016 372.03 59.1016 372.194 59.1424C373.26 59.3474 373.956 60.372 373.792 61.4376C373.588 62.5034 372.564 63.2 371.498 63.0362C371.374 62.9952 371.252 62.9542 371.128 62.9132C370.882 62.8312 370.678 62.6672 370.472 62.5034C370.022 62.0524 369.776 61.3968 369.898 60.741C370.022 60.0442 370.472 59.5114 371.046 59.2654Z" fill="#242540"/>
</g>
<g opacity="0.4">
<path opacity="0.3" d="M365.76 88.2839C366.006 88.2021 366.252 88.1201 366.496 88.1201C366.62 88.1201 366.742 88.1201 366.906 88.1611C367.972 88.3659 368.67 89.3905 368.506 90.4563C368.3 91.5219 367.276 92.2187 366.21 92.0547C366.088 92.0137 365.964 91.9727 365.842 91.9317C365.596 91.8497 365.39 91.6859 365.186 91.5219C364.734 91.0711 364.488 90.4153 364.612 89.7595C364.734 89.0627 365.186 88.5299 365.76 88.2839Z" fill="#242540"/>
</g>
<g opacity="0.4">
<path opacity="0.3" d="M367.522 78.6115C367.768 78.5295 368.014 78.4475 368.26 78.4475C368.382 78.4475 368.506 78.4475 368.67 78.4885C369.736 78.6935 370.432 79.7181 370.268 80.7837C370.064 81.8493 369.038 82.5461 367.972 82.3821C367.85 82.3411 367.726 82.3001 367.604 82.2591C367.358 82.1773 367.154 82.0133 366.948 81.8493C366.498 81.3985 366.252 80.7427 366.374 80.0869C366.498 79.3901 366.948 78.8573 367.522 78.6115Z" fill="#242540"/>
</g>
<g opacity="0.4">
<path opacity="0.3" d="M362.234 107.671C362.48 107.589 362.726 107.507 362.972 107.507C363.096 107.507 363.218 107.507 363.382 107.548C364.448 107.753 365.144 108.777 364.98 109.843C364.776 110.909 363.752 111.605 362.686 111.441C362.562 111.4 362.44 111.359 362.316 111.318C362.07 111.236 361.866 111.072 361.662 110.909C361.21 110.458 360.964 109.802 361.088 109.146C361.21 108.449 361.662 107.917 362.234 107.671Z" fill="#242540"/>
</g>
<g opacity="0.4">
<path opacity="0.3" d="M363.998 97.9565C364.244 97.8745 364.49 97.7925 364.736 97.7925C364.858 97.7925 364.98 97.7925 365.144 97.8335C366.21 98.0385 366.908 99.0631 366.744 100.129C366.538 101.194 365.514 101.891 364.448 101.727C364.326 101.686 364.202 101.645 364.08 101.604C363.834 101.522 363.628 101.358 363.424 101.194C362.972 100.743 362.726 100.088 362.85 99.4321C362.972 98.7353 363.424 98.2435 363.998 97.9565Z" fill="#242540"/>
</g>
<g opacity="0.4">
<path opacity="0.3" d="M356.948 136.688C357.194 136.606 357.44 136.524 357.684 136.524C357.808 136.524 357.93 136.524 358.094 136.565C359.16 136.77 359.858 137.795 359.694 138.86C359.488 139.926 358.464 140.623 357.398 140.459C357.276 140.418 357.152 140.377 357.03 140.336C356.784 140.254 356.578 140.09 356.374 139.926C355.922 139.475 355.676 138.819 355.8 138.164C355.922 137.467 356.374 136.934 356.948 136.688Z" fill="#242540"/>
</g>
<g opacity="0.4">
<path opacity="0.3" d="M360.472 117.343C360.718 117.261 360.964 117.179 361.21 117.179C361.332 117.179 361.456 117.179 361.62 117.22C362.686 117.425 363.382 118.45 363.218 119.515C363.014 120.581 361.988 121.278 360.922 121.114C360.8 121.073 360.676 121.032 360.554 120.991C360.308 120.909 360.102 120.745 359.898 120.581C359.448 120.13 359.202 119.474 359.324 118.819C359.448 118.122 359.898 117.589 360.472 117.343Z" fill="#242540"/>
</g>
<g opacity="0.4">
<path opacity="0.3" d="M355.186 146.361C355.432 146.279 355.678 146.197 355.924 146.197C356.046 146.197 356.168 146.197 356.332 146.238C357.398 146.443 358.096 147.467 357.932 148.533C357.726 149.598 356.702 150.295 355.636 150.131C355.514 150.09 355.39 150.049 355.268 150.008C355.022 149.926 354.816 149.762 354.612 149.598C354.16 149.148 353.914 148.492 354.038 147.836C354.16 147.139 354.612 146.607 355.186 146.361Z" fill="#242540"/>
</g>
<g opacity="0.4">
<path opacity="0.3" d="M351.66 165.706C351.906 165.624 352.152 165.542 352.398 165.542C352.52 165.542 352.644 165.542 352.808 165.583C353.874 165.788 354.57 166.813 354.406 167.879C354.2 168.944 353.176 169.641 352.11 169.477C351.988 169.436 351.864 169.395 351.742 169.354C351.496 169.272 351.29 169.108 351.086 168.944C350.636 168.493 350.39 167.838 350.512 167.182C350.636 166.485 351.086 165.952 351.66 165.706Z" fill="#242540"/>
</g>
<g opacity="0.4">
<path opacity="0.3" d="M353.422 156.034C353.668 155.952 353.914 155.87 354.16 155.87C354.284 155.87 354.406 155.87 354.57 155.911C355.636 156.116 356.332 157.141 356.168 158.206C355.964 159.272 354.94 159.969 353.874 159.805C353.75 159.764 353.628 159.723 353.504 159.682C353.258 159.6 353.054 159.436 352.848 159.272C352.398 158.821 352.152 158.165 352.274 157.51C352.398 156.813 352.848 156.28 353.422 156.034Z" fill="#242540"/>
</g>
<g opacity="0.4">
<path opacity="0.3" d="M348.176 185.092C348.422 185.01 348.668 184.928 348.914 184.928C349.036 184.928 349.16 184.928 349.324 184.969C350.39 185.174 351.086 186.199 350.922 187.265C350.718 188.33 349.692 189.027 348.626 188.863C348.504 188.822 348.38 188.781 348.258 188.74C348.012 188.658 347.808 188.494 347.602 188.33C347.152 187.879 346.906 187.224 347.028 186.568C347.152 185.871 347.562 185.338 348.176 185.092Z" fill="#242540"/>
</g>
<g opacity="0.4">
<path opacity="0.3" d="M349.898 175.379C350.144 175.297 350.39 175.215 350.636 175.215C350.758 175.215 350.882 175.215 351.046 175.256C352.112 175.461 352.808 176.486 352.644 177.551C352.44 178.617 351.414 179.314 350.348 179.15C350.226 179.109 350.102 179.068 349.98 179.027C349.734 178.945 349.53 178.781 349.324 178.617C348.874 178.166 348.628 177.51 348.75 176.855C348.914 176.158 349.324 175.666 349.898 175.379Z" fill="#242540"/>
</g>
<g opacity="0.4">
<path opacity="0.3" d="M344.652 204.438C344.898 204.356 345.142 204.274 345.388 204.274C345.512 204.274 345.634 204.274 345.798 204.314C346.864 204.52 347.562 205.544 347.398 206.61C347.192 207.676 346.168 208.372 345.102 208.208C344.978 208.168 344.856 208.126 344.734 208.086C344.488 208.004 344.282 207.84 344.078 207.676C343.626 207.224 343.38 206.568 343.504 205.914C343.626 205.216 344.078 204.684 344.652 204.438Z" fill="#242540"/>
</g>
<g opacity="0.4">
<path opacity="0.3" d="M346.414 194.766C346.66 194.684 346.906 194.602 347.152 194.602C347.274 194.602 347.398 194.602 347.562 194.643C348.628 194.848 349.324 195.872 349.16 196.938C348.956 198.004 347.93 198.7 346.864 198.536C346.742 198.495 346.618 198.454 346.496 198.414C346.25 198.332 346.046 198.168 345.84 198.004C345.39 197.553 345.144 196.897 345.266 196.241C345.39 195.544 345.84 195.012 346.414 194.766Z" fill="#242540"/>
</g>
<g opacity="0.4">
<path opacity="0.3" d="M353.628 216.16C354.694 216.364 355.39 217.39 355.226 218.456C355.02 219.52 353.996 220.218 352.93 220.054C351.866 219.848 351.168 218.824 351.332 217.758C351.538 216.692 352.562 215.956 353.628 216.16Z" fill="#242540"/>
</g>
<g opacity="0.4">
<path opacity="0.3" d="M363.3 217.922C364.366 218.128 365.062 219.152 364.898 220.218C364.694 221.284 363.668 221.98 362.604 221.816C361.538 221.612 360.84 220.586 361.004 219.522C361.21 218.456 362.234 217.718 363.3 217.922Z" fill="#242540"/>
</g>
<g opacity="0.4">
<path opacity="0.3" d="M357.562 221.898C358.628 222.102 359.324 223.128 359.16 224.194C358.956 225.258 357.93 225.956 356.866 225.792C355.8 225.586 355.102 224.562 355.266 223.496C355.472 222.39 356.496 221.692 357.562 221.898Z" fill="#242540"/>
</g>
<g opacity="0.4">
<path opacity="0.3" d="M347.89 220.136C348.956 220.34 349.652 221.366 349.488 222.432C349.284 223.496 348.258 224.194 347.192 224.03C346.128 223.824 345.43 222.8 345.594 221.734C345.8 220.628 346.824 219.93 347.89 220.136Z" fill="#242540"/>
</g>
<g opacity="0.4">
<path opacity="0.3" d="M359.324 212.226C360.39 212.43 361.088 213.454 360.924 214.52C360.718 215.586 359.694 216.282 358.628 216.12C357.562 215.914 356.866 214.89 357.03 213.824C357.234 212.718 358.26 212.02 359.324 212.226Z" fill="#242540"/>
</g>
<g opacity="0.4">
<path opacity="0.3" d="M349.652 210.462C350.718 210.668 351.414 211.692 351.25 212.758C351.046 213.822 350.02 214.52 348.956 214.356C347.89 214.15 347.192 213.126 347.356 212.06C347.562 210.954 348.586 210.258 349.652 210.462Z" fill="#242540"/>
</g>
<g opacity="0.4">
<path opacity="0.3" d="M350.104 235.506C351.168 235.71 351.866 236.734 351.702 237.8C351.496 238.866 350.472 239.562 349.406 239.398C348.34 239.194 347.644 238.17 347.808 237.104C348.012 236.038 349.038 235.342 350.104 235.506Z" fill="#242540"/>
</g>
<g opacity="0.4">
<path opacity="0.3" d="M359.776 237.268C360.84 237.472 361.538 238.496 361.374 239.562C361.168 240.628 360.144 241.324 359.078 241.16C358.012 240.956 357.316 239.932 357.48 238.866C357.684 237.8 358.71 237.104 359.776 237.268Z" fill="#242540"/>
</g>
<g opacity="0.4">
<path opacity="0.3" d="M354.078 241.244C355.144 241.448 355.84 242.472 355.676 243.538C355.472 244.604 354.446 245.3 353.382 245.136C352.316 244.932 351.618 243.908 351.782 242.842C351.946 241.776 352.972 241.038 354.078 241.244Z" fill="#242540"/>
</g>
<g opacity="0.4">
<path opacity="0.3" d="M344.364 239.482C345.43 239.686 346.128 240.71 345.964 241.776C345.758 242.842 344.734 243.538 343.668 243.374C342.602 243.17 341.906 242.146 342.07 241.08C342.274 240.014 343.3 239.276 344.364 239.482Z" fill="#242540"/>
</g>
<g opacity="0.4">
<path opacity="0.3" d="M355.8 231.57C356.866 231.774 357.562 232.8 357.398 233.866C357.194 234.93 356.168 235.628 355.104 235.464C354.038 235.258 353.34 234.234 353.504 233.168C353.71 232.062 354.734 231.364 355.8 231.57Z" fill="#242540"/>
</g>
<g opacity="0.4">
<path opacity="0.3" d="M346.126 229.808C347.192 230.014 347.89 231.038 347.726 232.104C347.52 233.17 346.496 233.866 345.43 233.702C344.364 233.498 343.668 232.472 343.832 231.406C344.036 230.3 345.062 229.604 346.126 229.808Z" fill="#242540"/>
</g>
<g opacity="0.4">
<path opacity="0.3" d="M351.864 225.832C352.93 226.038 353.628 227.062 353.464 228.128C353.258 229.194 352.234 229.89 351.168 229.726C350.102 229.522 349.406 228.496 349.57 227.432C349.774 226.366 350.8 225.668 351.864 225.832Z" fill="#242540"/>
</g>
<g opacity="0.4">
<path opacity="0.3" d="M361.538 227.596C362.604 227.8 363.3 228.824 363.136 229.89C362.932 230.956 361.906 231.652 360.842 231.488C359.776 231.284 359.078 230.26 359.242 229.194C359.448 228.128 360.472 227.432 361.538 227.596Z" fill="#242540"/>
</g>
<g opacity="0.4">
<path opacity="0.3" d="M346.578 254.892C347.644 255.096 348.34 256.122 348.176 257.186C347.972 258.252 346.946 258.95 345.882 258.786C344.816 258.58 344.118 257.556 344.282 256.49C344.488 255.384 345.512 254.686 346.578 254.892Z" fill="#242540"/>
</g>
<g opacity="0.4">
<path opacity="0.3" d="M356.25 256.654C357.316 256.858 358.012 257.884 357.848 258.948C357.644 260.014 356.62 260.712 355.554 260.548C354.488 260.342 353.792 259.318 353.956 258.252C354.16 257.146 355.184 256.448 356.25 256.654Z" fill="#242540"/>
</g>
<g opacity="0.4">
<path opacity="0.3" d="M352.316 250.916C353.382 251.12 354.078 252.146 353.914 253.212C353.71 254.276 352.684 254.974 351.62 254.81C350.554 254.604 349.856 253.58 350.02 252.514C350.226 251.448 351.25 250.71 352.316 250.916Z" fill="#242540"/>
</g>
<g opacity="0.4">
<path opacity="0.3" d="M342.602 249.154C343.668 249.358 344.364 250.384 344.2 251.448C343.996 252.514 342.972 253.212 341.906 253.048C340.84 252.842 340.144 251.818 340.308 250.752C340.512 249.686 341.536 248.948 342.602 249.154Z" fill="#242540"/>
</g>
<g opacity="0.4">
<path opacity="0.3" d="M348.34 245.22C349.406 245.424 350.102 246.448 349.938 247.514C349.734 248.58 348.708 249.276 347.644 249.112C346.578 248.908 345.88 247.884 346.044 246.818C346.25 245.71 347.274 245.014 348.34 245.22Z" fill="#242540"/>
</g>
<g opacity="0.4">
<path opacity="0.3" d="M358.012 246.982C359.078 247.186 359.776 248.212 359.612 249.276C359.406 250.342 358.382 251.04 357.316 250.876C356.25 250.67 355.554 249.646 355.718 248.58C355.922 247.474 356.948 246.776 358.012 246.982Z" fill="#242540"/>
</g>
<g opacity="0.4">
<path opacity="0.3" d="M342.808 214.562C343.054 214.48 343.298 214.398 343.544 214.398C343.668 214.398 343.79 214.398 343.954 214.438C345.02 214.644 345.718 215.668 345.554 216.734C345.348 217.8 344.324 218.496 343.258 218.332C343.134 218.292 343.012 218.25 342.89 218.21C342.644 218.128 342.438 217.964 342.234 217.8C341.782 217.348 341.536 216.692 341.66 216.036C341.782 215.34 342.234 214.808 342.808 214.562Z" fill="#242540"/>
</g>
<g opacity="0.4">
<path opacity="0.3" d="M339.282 233.906C339.528 233.824 339.774 233.742 340.02 233.742C340.142 233.742 340.266 233.742 340.43 233.784C341.496 233.988 342.192 235.014 342.028 236.078C341.824 237.144 340.798 237.842 339.734 237.678C339.61 237.636 339.488 237.596 339.364 237.554C339.118 237.472 338.914 237.308 338.708 237.144C338.258 236.694 338.012 236.038 338.134 235.382C338.258 234.686 338.708 234.152 339.282 233.906Z" fill="#242540"/>
</g>
<g opacity="0.4">
<path opacity="0.3" d="M341.046 224.234C341.292 224.152 341.536 224.07 341.782 224.07C341.906 224.07 342.028 224.07 342.192 224.112C343.258 224.316 343.956 225.34 343.792 226.406C343.586 227.472 342.562 228.168 341.496 228.004C341.374 227.964 341.25 227.922 341.128 227.882C340.882 227.8 340.676 227.636 340.472 227.472C340.02 227.022 339.774 226.366 339.898 225.71C340.02 225.012 340.472 224.48 341.046 224.234Z" fill="#242540"/>
</g>
<g opacity="0.4">
<path opacity="0.3" d="M335.758 253.252C336.004 253.17 336.25 253.088 336.496 253.088C336.618 253.088 336.742 253.088 336.906 253.13C337.97 253.334 338.668 254.358 338.504 255.424C338.298 256.49 337.274 257.186 336.208 257.024C336.086 256.982 335.962 256.942 335.84 256.9C335.594 256.818 335.388 256.654 335.184 256.49C334.734 256.04 334.488 255.384 334.61 254.728C334.734 254.032 335.184 253.498 335.758 253.252Z" fill="#242540"/>
</g>
<g opacity="0.4">
<path opacity="0.3" d="M337.52 243.58C337.766 243.498 338.012 243.416 338.258 243.416C338.38 243.416 338.504 243.416 338.668 243.456C339.732 243.662 340.43 244.686 340.266 245.752C340.06 246.818 339.036 247.514 337.97 247.35C337.848 247.31 337.724 247.268 337.602 247.228C337.356 247.146 337.15 246.982 336.946 246.818C336.496 246.366 336.25 245.71 336.372 245.056C336.496 244.358 336.946 243.826 337.52 243.58Z" fill="#242540"/>
</g>
<g opacity="0.4">
<path opacity="0.3" d="M350.104 261.326C351.168 261.532 351.866 262.556 351.702 263.622C351.496 264.688 350.472 265.384 349.406 265.22C348.34 265.016 347.644 263.99 347.808 262.924C348.012 261.818 349.038 261.122 350.104 261.326Z" fill="#242540"/>
</g>
<g opacity="0.4">
<path opacity="0.3" d="M340.43 259.564C341.496 259.77 342.192 260.794 342.028 261.86C341.824 262.924 340.8 263.622 339.734 263.458C338.668 263.252 337.972 262.228 338.136 261.162C338.34 260.056 339.364 259.36 340.43 259.564Z" fill="#242540"/>
</g>
<g opacity="0.4">
<path opacity="0.3" d="M342.602 274.934C343.668 275.138 344.364 276.164 344.2 277.23C343.996 278.294 342.972 278.992 341.906 278.828C340.84 278.622 340.144 277.598 340.308 276.532C340.512 275.466 341.536 274.77 342.602 274.934Z" fill="#242540"/>
</g>
<g opacity="0.4">
<path opacity="0.3" d="M352.316 276.696C353.382 276.902 354.078 277.926 353.914 278.992C353.71 280.058 352.684 280.754 351.62 280.59C350.554 280.386 349.856 279.36 350.02 278.294C350.226 277.23 351.25 276.532 352.316 276.696Z" fill="#242540"/>
</g>
<g opacity="0.4">
<path opacity="0.3" d="M346.578 280.672C347.644 280.876 348.34 281.902 348.176 282.968C347.972 284.032 346.946 284.73 345.882 284.566C344.816 284.36 344.118 283.336 344.282 282.27C344.488 281.164 345.512 280.466 346.578 280.672Z" fill="#242540"/>
</g>
<g opacity="0.4">
<path opacity="0.3" d="M336.906 278.91C337.97 279.114 338.668 280.138 338.504 281.204C338.298 282.27 337.274 282.966 336.208 282.804C335.142 282.598 334.446 281.574 334.61 280.508C334.814 279.442 335.84 278.704 336.906 278.91Z" fill="#242540"/>
</g>
<g opacity="0.4">
<path opacity="0.3" d="M348.34 271C349.406 271.204 350.102 272.228 349.938 273.294C349.734 274.36 348.708 275.056 347.644 274.892C346.578 274.688 345.88 273.664 346.044 272.598C346.25 271.492 347.274 270.794 348.34 271Z" fill="#242540"/>
</g>
<g opacity="0.4">
<path opacity="0.3" d="M338.668 269.236C339.734 269.442 340.43 270.466 340.266 271.532C340.06 272.598 339.036 273.294 337.97 273.13C336.906 272.926 336.208 271.9 336.372 270.836C336.578 269.728 337.602 269.032 338.668 269.236Z" fill="#242540"/>
</g>
<g opacity="0.4">
<path opacity="0.3" d="M344.364 265.262C345.43 265.466 346.128 266.492 345.964 267.556C345.758 268.622 344.734 269.32 343.668 269.156C342.602 268.95 341.906 267.926 342.07 266.86C342.274 265.794 343.3 265.056 344.364 265.262Z" fill="#242540"/>
</g>
<g opacity="0.4">
<path opacity="0.3" d="M354.078 267.024C355.144 267.228 355.84 268.254 355.676 269.318C355.472 270.384 354.446 271.082 353.382 270.918C352.316 270.712 351.618 269.688 351.782 268.622C351.946 267.556 352.972 266.818 354.078 267.024Z" fill="#242540"/>
</g>
<g opacity="0.4">
<path opacity="0.3" d="M339.118 294.32C340.184 294.524 340.88 295.55 340.716 296.616C340.512 297.68 339.488 298.378 338.422 298.214C337.356 298.008 336.658 296.984 336.822 295.918C337.028 294.812 338.052 294.116 339.118 294.32Z" fill="#242540"/>
</g>
<g opacity="0.4">
<path opacity="0.3" d="M348.79 296.082C349.856 296.288 350.554 297.312 350.39 298.378C350.184 299.444 349.16 300.14 348.094 299.976C347.028 299.772 346.332 298.746 346.496 297.68C346.7 296.574 347.726 295.878 348.79 296.082Z" fill="#242540"/>
</g>
<g opacity="0.4">
<path opacity="0.3" d="M344.816 290.344C345.882 290.55 346.578 291.574 346.414 292.64C346.21 293.706 345.184 294.402 344.118 294.238C343.054 294.034 342.356 293.008 342.52 291.942C342.726 290.878 343.75 290.14 344.816 290.344Z" fill="#242540"/>
</g>
<g opacity="0.4">
<path opacity="0.3" d="M335.144 288.582C336.208 288.786 336.906 289.812 336.742 290.878C336.536 291.942 335.512 292.64 334.446 292.476C333.38 292.27 332.684 291.246 332.848 290.18C333.052 289.114 334.078 288.376 335.144 288.582Z" fill="#242540"/>
</g>
<g opacity="0.4">
<path opacity="0.3" d="M340.88 284.606C341.946 284.81 342.644 285.836 342.48 286.902C342.274 287.966 341.25 288.664 340.184 288.5C339.118 288.294 338.422 287.27 338.586 286.204C338.75 285.138 339.774 284.442 340.88 284.606Z" fill="#242540"/>
</g>
<g opacity="0.4">
<path opacity="0.3" d="M350.554 286.37C351.62 286.574 352.316 287.598 352.152 288.664C351.946 289.73 350.922 290.426 349.856 290.262C348.792 290.058 348.094 289.034 348.258 287.968C348.464 286.902 349.488 286.206 350.554 286.37Z" fill="#242540"/>
</g>
<g opacity="0.4">
<path opacity="0.3" d="M331.782 273.336C332.028 273.254 332.274 273.172 332.52 273.172C332.642 273.172 332.766 273.172 332.93 273.212C333.994 273.418 334.692 274.442 334.528 275.508C334.322 276.574 333.298 277.27 332.232 277.106C332.11 277.066 331.986 277.024 331.864 276.984C331.618 276.902 331.412 276.738 331.208 276.574C330.758 276.122 330.512 275.466 330.634 274.81C330.758 274.114 331.208 273.582 331.782 273.336Z" fill="#242540"/>
</g>
<g opacity="0.4">
<path opacity="0.3" d="M333.544 263.662C333.79 263.58 334.036 263.5 334.282 263.5C334.406 263.5 334.528 263.5 334.692 263.54C335.758 263.744 336.454 264.77 336.29 265.836C336.086 266.9 335.06 267.598 333.996 267.434C333.872 267.392 333.75 267.352 333.626 267.31C333.38 267.228 333.176 267.064 332.97 266.9C332.52 266.45 332.274 265.794 332.396 265.138C332.52 264.442 332.97 263.908 333.544 263.662Z" fill="#242540"/>
</g>
<g opacity="0.4">
<path opacity="0.3" d="M330.06 283.008C330.306 282.926 330.552 282.844 330.798 282.844C330.922 282.844 331.044 282.844 331.208 282.884C332.274 283.09 332.97 284.114 332.806 285.18C332.602 286.246 331.576 286.942 330.512 286.778C330.388 286.738 330.266 286.696 330.142 286.656C329.896 286.574 329.692 286.41 329.486 286.246C329.036 285.796 328.79 285.14 328.912 284.484C329.036 283.786 329.446 283.254 330.06 283.008Z" fill="#242540"/>
</g>
<g opacity="0.4">
<path opacity="0.3" d="M355.186 36.3957C355.432 36.3137 355.678 36.2317 355.924 36.2317C356.046 36.2317 356.168 36.2317 356.332 36.2727C357.398 36.4777 358.096 37.5023 357.932 38.5679C357.726 39.6337 356.702 40.3303 355.636 40.1665C355.514 40.1255 355.39 40.0845 355.268 40.0435C355.022 39.9615 354.816 39.7975 354.612 39.6337C354.16 39.1827 353.914 38.5269 354.038 37.8713C354.16 37.1745 354.612 36.6417 355.186 36.3957Z" fill="#242540"/>
</g>
<g opacity="0.4">
<path opacity="0.3" d="M348.422 24.7963C349.488 25.0013 350.184 26.0259 350.022 27.0915C349.816 28.1571 348.792 28.8539 347.726 28.6901C346.66 28.4851 345.964 27.4605 346.128 26.3947C346.332 25.3291 347.356 24.6325 348.422 24.7963Z" fill="#242540"/>
</g>
<g opacity="0.4">
<path opacity="0.3" d="M356.948 26.7231C357.194 26.6411 357.44 26.5593 357.684 26.5593C357.808 26.5593 357.93 26.5593 358.094 26.6003C359.16 26.8051 359.858 27.8297 359.694 28.8955C359.488 29.9611 358.464 30.6579 357.398 30.4939C357.276 30.4529 357.152 30.4119 357.03 30.3709C356.784 30.2889 356.578 30.1251 356.374 29.9611C355.922 29.5103 355.676 28.8545 355.8 28.1987C355.922 27.5019 356.374 26.9691 356.948 26.7231Z" fill="#242540"/>
</g>
<g opacity="0.4">
<path opacity="0.3" d="M352.398 30.5345C353.464 30.7395 354.16 31.7641 353.996 32.8297C353.792 33.8953 352.766 34.5921 351.702 34.4281C350.636 34.2233 349.938 33.1987 350.102 32.1329C350.308 31.0673 351.332 30.3297 352.398 30.5345Z" fill="#242540"/>
</g>
<g opacity="0.4">
<path opacity="0.3" d="M342.684 28.7725C343.75 28.9773 344.446 30.0021 344.284 31.0677C344.078 32.1333 343.054 32.8301 341.988 32.6661C340.922 32.4611 340.226 31.4365 340.39 30.3709C340.594 29.3053 341.618 28.5675 342.684 28.7725Z" fill="#242540"/>
</g>
<g opacity="0.4">
<path opacity="0.3" d="M354.16 20.8619C355.226 21.0669 355.924 22.0915 355.76 23.1571C355.554 24.2227 354.53 24.9195 353.464 24.7555C352.398 24.5507 351.702 23.5259 351.866 22.4603C352.03 21.3537 353.054 20.6569 354.16 20.8619Z" fill="#242540"/>
</g>
<g opacity="0.4">
<path opacity="0.3" d="M344.446 19.0999C345.512 19.3048 346.208 20.3295 346.044 21.3951C345.84 22.4607 344.816 23.1575 343.75 22.9937C342.684 22.7887 341.988 21.7641 342.152 20.6983C342.356 19.5917 343.38 18.895 344.446 19.0999Z" fill="#242540"/>
</g>
<g opacity="0.4">
<path opacity="0.3" d="M350.184 15.124C351.25 15.3289 351.946 16.3535 351.784 17.4192C351.578 18.4848 350.554 19.1816 349.488 19.0176C348.422 18.8127 347.726 17.788 347.89 16.7224C348.094 15.6568 349.118 14.96 350.184 15.124Z" fill="#242540"/>
</g>
<g opacity="0.4">
<path opacity="0.3" d="M358.71 17.0092C358.956 16.9272 359.202 16.8452 359.448 16.8452C359.57 16.8452 359.694 16.8452 359.858 16.8862C360.924 17.0911 361.62 18.1158 361.456 19.1814C361.252 20.2471 360.226 20.9439 359.16 20.7799C359.038 20.7389 358.914 20.6979 358.792 20.6569C358.546 20.5749 358.342 20.4111 358.136 20.2471C357.686 19.7962 357.44 19.1404 357.562 18.4847C357.686 17.8289 358.136 17.2961 358.71 17.0092Z" fill="#242540"/>
</g>
<g opacity="0.4">
<path opacity="0.3" d="M346.66 34.5103C347.726 34.7153 348.422 35.7399 348.258 36.8055C348.054 37.8711 347.028 38.5679 345.964 38.4039C344.898 38.1991 344.2 37.1745 344.364 36.1087C344.57 35.0021 345.594 34.3053 346.66 34.5103Z" fill="#242540"/>
</g>
<g opacity="0.4">
<path opacity="0.3" d="M335.84 32.8713C336.086 32.7893 336.332 32.7073 336.578 32.7073C336.7 32.7073 336.822 32.7073 336.986 32.7483C338.052 32.9533 338.75 33.9779 338.586 35.0435C338.38 36.1091 337.356 36.8059 336.29 36.6419C336.168 36.6009 336.044 36.5599 335.922 36.5191C335.676 36.4371 335.47 36.2731 335.266 36.1091C334.814 35.6583 334.568 35.0025 334.692 34.3467C334.814 33.6499 335.266 33.1171 335.84 32.8713Z" fill="#242540"/>
</g>
<g opacity="0.4">
<path opacity="0.3" d="M329.076 21.3125C330.142 21.5175 330.84 22.5421 330.676 23.6077C330.47 24.6735 329.446 25.3701 328.38 25.2063C327.314 25.0013 326.618 23.9767 326.782 22.9111C326.986 21.8045 328.012 21.1077 329.076 21.3125Z" fill="#242540"/>
</g>
<g opacity="0.4">
<path opacity="0.3" d="M337.602 23.1977C337.848 23.1157 338.094 23.0337 338.34 23.0337C338.462 23.0337 338.586 23.0337 338.75 23.0747C339.816 23.2797 340.512 24.3043 340.348 25.3699C340.144 26.4357 339.118 27.1323 338.054 26.9685C337.93 26.9275 337.808 26.8865 337.684 26.8455C337.438 26.7635 337.234 26.5995 337.028 26.4357C336.578 25.9847 336.332 25.3289 336.454 24.6733C336.578 23.9765 337.028 23.4437 337.602 23.1977Z" fill="#242540"/>
</g>
<g opacity="0.4">
<path opacity="0.3" d="M333.012 27.0098C334.076 27.2148 334.774 28.2394 334.61 29.305C334.404 30.3706 333.38 31.0674 332.314 30.9034C331.248 30.6986 330.552 29.674 330.716 28.6082C330.92 27.5426 331.946 26.805 333.012 27.0098Z" fill="#242540"/>
</g>
<g opacity="0.4">
<path opacity="0.3" d="M323.338 25.2471C324.404 25.4521 325.102 26.4767 324.938 27.5423C324.732 28.6081 323.708 29.3047 322.642 29.1409C321.576 28.9359 320.88 27.9113 321.044 26.8457C321.248 25.7799 322.272 25.0423 323.338 25.2471Z" fill="#242540"/>
</g>
<g opacity="0.4">
<path opacity="0.3" d="M334.774 17.3372C335.84 17.5422 336.536 18.5668 336.372 19.6324C336.168 20.6981 335.142 21.3947 334.078 21.2309C333.012 21.0259 332.314 20.0013 332.478 18.9357C332.684 17.87 333.708 17.1323 334.774 17.3372Z" fill="#242540"/>
</g>
<g opacity="0.4">
<path opacity="0.3" d="M325.102 15.5745C326.168 15.7795 326.864 16.8041 326.7 17.8697C326.496 18.9354 325.47 19.6321 324.404 19.4682C323.34 19.2633 322.642 18.2386 322.806 17.173C323.012 16.1073 324.036 15.3696 325.102 15.5745Z" fill="#242540"/>
</g>
<g opacity="0.4">
<path opacity="0.3" d="M319.404 19.5506C320.47 19.7555 321.166 20.7801 321.002 21.8459C320.798 22.9115 319.774 23.6083 318.708 23.4443C317.642 23.2393 316.946 22.2147 317.11 21.1491C317.314 20.0425 318.338 19.3457 319.404 19.5506Z" fill="#242540"/>
</g>
<g opacity="0.4">
<path opacity="0.3" d="M330.84 11.5993C331.904 11.8042 332.602 12.8289 332.438 13.8945C332.232 14.9602 331.208 15.6569 330.142 15.493C329.076 15.288 328.38 14.2634 328.544 13.1978C328.75 12.1321 329.774 11.4354 330.84 11.5993Z" fill="#242540"/>
</g>
<g opacity="0.4">
<path opacity="0.3" d="M339.364 13.5253C339.61 13.4433 339.856 13.3613 340.102 13.3613C340.224 13.3613 340.348 13.3613 340.512 13.4023C341.578 13.6072 342.274 14.6319 342.11 15.6975C341.906 16.7632 340.88 17.4599 339.816 17.296C339.692 17.255 339.57 17.214 339.446 17.173C339.2 17.0911 338.996 16.9271 338.79 16.7632C338.34 16.3123 338.094 15.6565 338.216 15.0008C338.34 14.304 338.79 13.7712 339.364 13.5253Z" fill="#242540"/>
</g>
<g opacity="0.4">
<path opacity="0.3" d="M327.314 30.9859C328.38 31.1907 329.078 32.2155 328.914 33.2811C328.708 34.3467 327.684 35.0435 326.618 34.8795C325.552 34.6745 324.856 33.6499 325.02 32.5843C325.224 31.4777 326.25 30.7809 327.314 30.9859Z" fill="#242540"/>
</g>
<g opacity="0.4">
<path opacity="0.3" d="M313.666 23.4852C314.732 23.6902 315.428 24.7148 315.264 25.7804C315.06 26.846 314.036 27.5428 312.97 27.3788C311.904 27.174 311.208 26.1492 311.372 25.0836C311.576 24.018 312.6 23.2802 313.666 23.4852Z" fill="#242540"/>
</g>
<g opacity="0.4">
<path opacity="0.3" d="M315.428 13.8126C316.494 14.0175 317.192 15.0421 317.028 16.1078C316.822 17.1734 315.798 17.8702 314.732 17.7062C313.666 17.5013 312.97 16.4767 313.134 15.411C313.338 14.3454 314.364 13.6076 315.428 13.8126Z" fill="#242540"/>
</g>
<g opacity="0.4">
<path opacity="0.3" d="M320.018 10.0006C320.264 9.91863 320.51 9.83667 320.756 9.83667C320.88 9.83667 321.002 9.83667 321.166 9.87765C322.232 10.0826 322.928 11.1072 322.766 12.1729C322.56 13.2385 321.536 13.9353 320.47 13.7713C320.346 13.7303 320.224 13.6894 320.1 13.6484C319.856 13.5664 319.65 13.4024 319.446 13.2385C318.994 12.7877 318.748 12.1319 318.872 11.4761C318.994 10.7793 319.446 10.2465 320.018 10.0006Z" fill="#242540"/>
</g>
<g opacity="0.4">
<path opacity="0.3" d="M316.494 29.3459C316.74 29.2639 316.986 29.1819 317.232 29.1819C317.356 29.1819 317.478 29.1819 317.642 29.2229C318.708 29.4277 319.404 30.4525 319.24 31.5181C319.036 32.5837 318.01 33.2805 316.946 33.1165C316.822 33.0755 316.7 33.0345 316.576 32.9935C316.33 32.9115 316.126 32.7477 315.92 32.5837C315.47 32.1329 315.224 31.4771 315.346 30.8213C315.47 30.1245 315.92 29.5917 316.494 29.3459Z" fill="#242540"/>
</g>
<path d="M309.116 120.58L161.895 199.601L114.925 15.7786L317.272 30.3287L309.116 120.58Z" fill="#9FACE6"/>
<path d="M396.58 82.6286L8.48389 287.64V41.3148C9.91841 39.8802 10.7381 39.0604 12.1726 37.626H396.58V82.6286Z" fill="white" fill-opacity="0.32"/>
<path d="M192.429 37.9125C192.265 42.3391 188.494 45.7819 184.027 45.7819H16.8042C16.5583 45.7819 16.3944 45.9459 16.3944 46.1917V155.583C16.3944 160.01 12.9516 163.821 8.52508 163.985C3.85268 164.149 0 160.419 0 155.788V41.2735C0 39.1011 0.860706 37.0109 2.41818 35.4943L6.1069 31.8057C7.66438 30.2481 9.71368 29.3875 11.8859 29.3875H184.273C188.863 29.3875 192.634 33.2401 192.429 37.9125Z" stroke="white" stroke-width="0.40986" stroke-miterlimit="10"/>
<path d="M188.372 37.5845C188.372 39.8389 186.527 41.6831 184.273 41.6831H13.5666L12.2961 42.9537V155.747C12.2961 158.001 10.4517 159.846 8.19748 159.846C5.94324 159.846 4.09888 158.001 4.09888 155.747V41.2733C4.09888 40.1667 4.54972 39.1421 5.28746 38.3633L8.9762 34.6745C9.75494 33.8959 10.7796 33.4861 11.8862 33.4861H184.273C186.527 33.4861 188.372 35.3303 188.372 37.5845Z" stroke="white" stroke-width="0.40986" stroke-miterlimit="10"/>
<path d="M8.19751 155.788V41.2733C9.63203 39.8389 10.4517 39.0191 11.8862 37.5845H184.273" stroke="white" stroke-width="0.40986" stroke-miterlimit="10"/>
<path d="M216.2 85.4154C225.382 86.44 233.004 91.3994 239.44 95.6208C244.276 98.7768 249.236 102.015 252.638 101.933C256.122 101.851 260.958 98.121 265.67 94.5142C266.572 93.8174 267.474 93.1208 268.376 92.465C285.958 79.2264 299.156 81.1118 307.148 84.9646C316.658 89.596 321.166 98.4078 324.444 104.843C324.772 105.457 325.06 106.072 325.388 106.687C326.78 109.392 328.01 110.909 328.79 111.646C329.404 111.155 330.346 110.253 331.454 108.736C332.15 107.794 332.888 106.687 333.626 105.58C336.372 101.523 339.774 96.4406 345.142 92.547C355.348 85.1694 369.898 84.7596 380.514 91.5632C389.612 97.3832 395.146 107.835 394.94 118.819C394.9 120.581 394.736 122.385 394.366 124.106C393.67 127.631 391.662 130.664 388.67 132.631C385.678 134.639 382.112 135.336 378.588 134.639C372.194 133.369 367.644 127.754 367.766 121.237C367.766 120.458 367.848 119.639 368.012 118.86C368.054 118.696 368.054 118.491 368.054 118.286C368.094 116.688 367.152 114.843 365.964 114.065C364.57 113.163 362.11 113.245 360.8 114.228C359.282 115.335 357.602 117.835 355.798 120.499C354.938 121.811 353.996 123.163 353.012 124.557C348.094 131.238 339.774 139.148 327.928 138.82C320.51 138.615 309.936 135.049 301.574 119.065C301.246 118.409 300.878 117.753 300.55 117.097C299.034 114.147 296.78 109.761 295.344 109.064C294.442 108.613 290.632 109.228 284.442 113.86C283.622 114.474 282.802 115.089 281.984 115.745C274.606 121.401 265.466 128.451 253.13 128.697C241.49 128.942 232.226 122.877 224.766 118.04C222.84 116.77 220.956 115.54 219.192 114.515" stroke="#242540" stroke-width="0.819719" stroke-miterlimit="10" stroke-linejoin="round"/>
<path d="M235.792 101.195C241.736 105.048 247.35 108.695 252.76 108.613C258.458 108.491 263.95 104.269 269.728 99.8423C270.63 99.1457 271.492 98.4899 272.392 97.8341C287.27 86.6449 297.886 87.9565 304.198 91.0303C311.698 94.6781 315.428 102.015 318.46 107.917C318.788 108.531 319.116 109.187 319.444 109.802C322.396 115.417 325.674 118.696 328.502 118.778C330.92 118.86 333.954 116.647 336.822 112.712C337.602 111.646 338.38 110.54 339.158 109.31C341.74 105.499 344.61 101.195 349.036 97.9981C357.07 92.1779 368.504 91.8911 376.866 97.2193C385.228 102.589 389.694 113.081 387.768 122.836C387.03 126.483 383.506 128.82 379.898 128.123C376.252 127.385 373.914 123.86 374.612 120.253C375.472 115.95 373.3 110.909 369.612 108.531C365.922 106.154 360.43 106.318 356.864 108.9C354.364 110.704 352.356 113.696 350.226 116.852C349.364 118.122 348.504 119.393 347.56 120.663C341.904 128.41 335.142 132.385 328.052 132.221C322.436 132.057 314.28 129.147 307.476 116.073C307.148 115.417 306.78 114.761 306.452 114.106C303.992 109.351 301.698 104.843 298.254 103.162C292.68 100.457 284.648 105.417 280.384 108.654C279.524 109.269 278.704 109.925 277.844 110.581C270.918 115.909 263.088 121.934 252.966 122.139C243.416 122.344 235.424 117.139 228.414 112.548" stroke="#242540" stroke-width="0.819719" stroke-miterlimit="10" stroke-linejoin="round"/>
<path d="M381.21 121.483C382.604 114.434 379.326 106.687 373.26 102.835C367.194 98.982 358.792 99.187 352.972 103.408C348.34 106.769 345.594 112.057 342.232 116.647C338.872 121.237 334.036 125.623 328.298 125.459C321.494 125.295 316.616 118.942 313.46 112.917C310.304 106.892 307.354 100.048 301.206 97.0556C293.132 93.121 283.54 97.7934 276.368 103.204C269.196 108.614 261.86 115.171 252.842 115.376C236.94 115.704 224.768 95.785 209.192 99.064" stroke="#242540" stroke-width="0.819719" stroke-miterlimit="10" stroke-linejoin="round"/>
<path d="M123.286 285.058H43.3636V62.9545C44.962 61.3561 45.9046 60.4133 47.5032 58.8149H119.147C120.745 60.4133 121.688 61.3561 123.286 62.9545V285.058Z" fill="#534093"/>
<path d="M85.6192 113.327H81.0288V155.132H85.6192V113.327Z" stroke="#242540" stroke-width="0.40986" stroke-miterlimit="10" stroke-linejoin="bevel"/>
<path d="M275.384 169.929L261.038 152.674L241.324 145.788L219.726 152.715C219.726 152.715 220.012 151.813 220.422 151.403L247.268 125.787C249.03 128.246 251.202 130.665 253.62 132.345C257.31 134.886 264.482 134.353 270.178 133.329L275.384 169.929Z" fill="#534093"/>
<path d="M188.206 254.688L192.838 239.646L214.724 232.186L234.644 238.334L248.496 256.86L243.824 271.902L222.06 278.952L202.182 272.804L188.206 254.688Z" fill="#534093"/>
<path d="M234.89 238.456L214.478 232.144L193.863 239.154L220.38 153.37L241.53 146.525L260.916 152.509L274.482 170.092L247.924 255.916L234.89 238.456Z" fill="#9FACE6"/>
<path d="M241.53 147.345L260.424 153.206L273.58 170.256L247.636 254.114L235.71 238.17L235.382 237.76L234.89 237.596L214.97 231.448L214.478 231.284L213.986 231.448L195.133 237.882L221.078 154.026L241.53 147.345ZM241.53 145.665L219.766 152.714L192.592 240.466L214.478 233.006L234.398 239.154L248.252 257.68L275.424 169.928L261.448 151.812L241.53 145.665Z" fill="#242540"/>
<path d="M237.144 161.568L256.038 167.429L269.196 184.479L243.252 268.336L231.324 252.392L230.996 251.982L230.504 251.818L210.586 245.67L210.094 245.506L209.602 245.67L190.748 252.106L216.692 168.248L237.144 161.568ZM237.104 159.846L215.34 166.896L188.166 254.646L210.052 247.188L229.972 253.336L243.824 271.86L270.998 184.11L257.022 165.994L237.104 159.846Z" fill="#242540"/>
<path d="M230.012 253.376L256.776 167.018" stroke="#242540" stroke-width="0.819719" stroke-miterlimit="10"/>
<path d="M261.734 133.328C258.332 133.328 255.75 132.754 254.112 131.648C252.184 130.336 250.258 128.41 248.374 125.869L264.276 110.704C264.522 110.458 264.808 110.417 265.014 110.417C265.506 110.417 265.998 110.745 266.12 111.36L269.318 132.672C266.49 133.123 263.948 133.328 261.734 133.328Z" fill="#9FACE6"/>
<path d="M265.014 111.236C265.014 111.236 265.26 111.236 265.302 111.482L268.376 131.975C265.916 132.344 263.702 132.549 261.736 132.549C258.498 132.549 256.08 132.016 254.604 130.991C252.924 129.844 251.202 128.122 249.48 125.991L264.85 111.318C264.892 111.236 264.932 111.236 265.014 111.236ZM265.014 109.597C264.564 109.597 264.072 109.761 263.702 110.129L247.268 125.786C249.03 128.245 251.202 130.663 253.62 132.344C255.588 133.696 258.498 134.188 261.694 134.188C264.522 134.188 267.514 133.819 270.178 133.327L266.9 111.236C266.776 110.211 265.916 109.597 265.014 109.597Z" fill="#242540"/>
<path d="M209.684 247.064L236.488 160.706" stroke="#242540" stroke-width="0.819719" stroke-miterlimit="10"/>
<path d="M97.7106 86.1926C99.678 88.5288 102.752 89.5534 105.744 88.8976C116.728 86.4386 128.819 87.955 138.861 92.9962C140.828 93.98 143.041 94.1438 145.131 93.4472C147.222 92.7504 148.902 91.3158 149.886 89.3486C151.361 86.3976 150.951 82.8728 148.82 80.3726C148.123 79.5118 147.222 78.8562 146.238 78.3232C132.672 71.5196 117.015 69.5522 102.219 72.8722C97.7926 73.8558 95.0056 78.2414 95.9892 82.6678C96.2762 83.9794 96.85 85.209 97.7106 86.1926Z" stroke="#9FACE6" stroke-width="0.614789" stroke-miterlimit="10" stroke-linejoin="round"/>
<path d="M100.825 83.5687C101.768 84.7163 103.326 85.2901 104.842 84.9213C116.728 82.2571 129.802 83.8967 140.705 89.3477C142.713 90.3725 145.172 89.5527 146.197 87.5443C147.222 85.5361 146.402 83.0769 144.393 82.0523C131.647 75.6585 116.974 73.8141 103.08 76.9291C100.866 77.4209 99.4728 79.5931 99.9648 81.8063C100.129 82.4621 100.416 83.0769 100.825 83.5687Z" stroke="#9FACE6" stroke-width="0.614789" stroke-miterlimit="10" stroke-linejoin="round"/>
<path d="M142.549 85.7005C130.745 79.7575 116.851 78.0361 103.981 80.9051" stroke="#9FACE6" stroke-width="0.614789" stroke-miterlimit="10" stroke-linejoin="round"/>
<path d="M70.3726 163.575C72.053 169.19 77.0532 173.125 82.7094 173.329C88.9392 173.575 94.7182 169.969 96.2346 163.575C87.6276 163.862 78.9796 163.329 70.3726 163.575Z" fill="white"/>
<path d="M51.1093 233.824V278.704" stroke="#242540" stroke-width="0.819719" stroke-miterlimit="10"/>
<path d="M59.1416 233.826V278.704" stroke="#242540" stroke-width="0.819719" stroke-miterlimit="10"/>
<path d="M67.2164 233.826V278.704" stroke="#242540" stroke-width="0.819719" stroke-miterlimit="10"/>
<path d="M75.2496 233.826V278.704" stroke="#242540" stroke-width="0.819719" stroke-miterlimit="10"/>
<path d="M83.3234 233.826V278.704" stroke="#242540" stroke-width="0.819719" stroke-miterlimit="10"/>
<path d="M91.3564 233.826V278.704" stroke="#242540" stroke-width="0.819719" stroke-miterlimit="10"/>
<path d="M99.3904 233.826V278.704" stroke="#242540" stroke-width="0.819719" stroke-miterlimit="10"/>
<path d="M107.464 233.826V278.704" stroke="#242540" stroke-width="0.819719" stroke-miterlimit="10"/>
<path d="M115.497 233.826V278.704" stroke="#242540" stroke-width="0.819719" stroke-miterlimit="10"/>
<path d="M130.991 208.618C130.786 207.388 129.27 206.446 128.532 205.42C127.548 204.11 127.057 202.428 127.139 200.748C127.262 198.535 128.409 196.486 128.532 194.273C128.532 194.027 128.532 193.74 128.368 193.535C128.245 193.371 128.04 193.289 127.876 193.248C124.638 192.06 121.155 192.715 117.753 192.838C113.941 192.961 110.17 193.084 106.359 193.207C98.7762 193.412 91.153 193.617 83.5706 193.699C68.5286 193.945 53.5278 193.945 38.486 193.74C36.8466 194.027 36.5596 195.666 36.6826 197.347C36.8056 199.027 37.5842 200.584 37.9122 202.224C38.117 203.29 38.158 204.396 38.158 205.502C38.158 207.06 38.199 208.658 38.199 210.216C39.5106 210.544 40.7812 211.036 42.0518 211.568V237.308H124.597V213.742C125.048 213.66 125.499 213.536 125.95 213.414C127.18 213.086 128.45 212.716 129.434 211.938C130.458 211.158 131.155 209.888 130.991 208.618Z" fill="#9FACE6"/>
<path d="M78.7336 194.273C78.7336 194.273 109.965 194.601 130.991 192.101" stroke="white" stroke-width="0.614789" stroke-miterlimit="10" stroke-linejoin="round"/>
<path d="M112.177 157.387C112.177 158.493 113.038 159.354 114.145 159.354C115.251 159.354 116.112 158.493 116.112 157.387C116.112 156.28 115.251 155.419 114.145 155.419C113.038 155.419 112.177 156.321 112.177 157.387Z" fill="#242540"/>
<path d="M117.096 162.305C117.096 163.411 117.998 164.272 119.063 164.272C120.17 164.272 121.031 163.411 121.031 162.305C121.031 161.198 120.17 160.338 119.063 160.338C117.957 160.338 117.096 161.239 117.096 162.305Z" fill="#242540"/>
<path d="M107.259 162.305C107.259 163.411 108.12 164.272 109.227 164.272C110.333 164.272 111.194 163.411 111.194 162.305C111.194 161.198 110.333 160.338 109.227 160.338C108.12 160.338 107.259 161.239 107.259 162.305Z" fill="#242540"/>
<path d="M131.851 157.387C131.851 158.493 132.712 159.354 133.818 159.354C134.925 159.354 135.785 158.493 135.785 157.387C135.785 156.28 134.925 155.419 133.818 155.419C132.712 155.419 131.851 156.321 131.851 157.387Z" fill="#242540"/>
<path d="M126.933 162.305C126.933 163.411 127.793 164.272 128.9 164.272C130.007 164.272 130.867 163.411 130.867 162.305C130.867 161.198 130.007 160.338 128.9 160.338C127.793 160.338 126.933 161.239 126.933 162.305Z" fill="#242540"/>
<path d="M122.014 157.387C122.014 158.493 122.916 159.354 123.981 159.354C125.088 159.354 125.949 158.493 125.949 157.387C125.949 156.28 125.088 155.419 123.981 155.419C122.875 155.419 122.014 156.321 122.014 157.387Z" fill="#242540"/>
<path d="M54.4287 157.386C54.4287 158.493 53.5679 159.354 52.4613 159.354C51.3547 159.354 50.4941 158.493 50.4941 157.386C50.4941 156.28 51.3547 155.419 52.4613 155.419C53.5679 155.419 54.4287 156.321 54.4287 157.386Z" fill="#242540"/>
<path d="M49.5104 162.305C49.5104 163.411 48.6086 164.272 47.543 164.272C46.4364 164.272 45.5756 163.411 45.5756 162.305C45.5756 161.198 46.4364 160.337 47.543 160.337C48.6496 160.337 49.5104 161.239 49.5104 162.305Z" fill="#242540"/>
<path d="M59.347 162.305C59.347 163.411 58.4864 164.272 57.3796 164.272C56.273 164.272 55.4124 163.411 55.4124 162.305C55.4124 161.198 56.273 160.337 57.3796 160.337C58.4864 160.337 59.347 161.239 59.347 162.305Z" fill="#242540"/>
<path d="M34.7556 157.386C34.7556 158.493 33.895 159.354 32.7884 159.354C31.6818 159.354 30.821 158.493 30.821 157.386C30.821 156.28 31.6818 155.419 32.7884 155.419C33.895 155.419 34.7556 156.321 34.7556 157.386Z" fill="#242540"/>
<path d="M39.6736 162.305C39.6736 163.411 38.813 164.272 37.7064 164.272C36.5998 164.272 35.739 163.411 35.739 162.305C35.739 161.198 36.5998 160.337 37.7064 160.337C38.813 160.337 39.6736 161.239 39.6736 162.305Z" fill="#242540"/>
<path d="M44.5922 157.386C44.5922 158.493 43.6904 159.354 42.6248 159.354C41.5182 159.354 40.6573 158.493 40.6573 157.386C40.6573 156.28 41.5182 155.419 42.6248 155.419C43.7314 155.419 44.5922 156.321 44.5922 157.386Z" fill="#242540"/>
<path d="M70.4136 147.755H35.4526C34.0182 146.321 33.1984 145.501 31.764 144.066V106.523C33.1984 105.089 34.0182 104.269 35.4526 102.834H70.4136C71.8482 104.269 72.668 105.089 74.1024 106.523V144.066C72.668 145.501 71.8482 146.321 70.4136 147.755Z" fill="white"/>
<path d="M67.4216 125.294C67.4216 133.286 60.9458 139.762 52.9536 139.762C48.6502 139.762 44.7974 137.918 42.1744 134.926C40.8628 133.491 39.8792 131.77 39.2234 129.885C38.7316 128.45 38.4856 126.893 38.4856 125.253C38.4856 117.261 44.9614 110.785 52.9536 110.785C54.757 110.785 56.4784 111.113 58.0358 111.728C59.8802 112.425 61.5606 113.49 62.9952 114.843C65.7002 117.466 67.4216 121.196 67.4216 125.294Z" fill="#242540"/>
<path d="M56.396 114.883C56.396 120.58 51.7646 125.211 46.0674 125.211C42.9936 125.211 40.2474 123.9 38.3622 121.769C37.4194 120.744 36.7226 119.514 36.2718 118.162C35.944 117.137 35.739 116.031 35.739 114.883C35.739 109.186 40.3704 104.555 46.0674 104.555C47.338 104.555 48.5676 104.8 49.7152 105.21C51.0268 105.702 52.2564 106.481 53.24 107.424C55.1664 109.309 56.396 111.973 56.396 114.883Z" fill="white"/>
<path d="M131.154 147.754H96.1934C94.7588 146.32 93.9392 145.5 92.5046 144.065V106.522C93.9392 105.088 94.7588 104.268 96.1934 102.833H131.154C132.589 104.268 133.409 105.088 134.843 106.522V144.065C133.409 145.5 132.589 146.32 131.154 147.754Z" fill="white"/>
<path d="M128.163 125.294C128.163 133.286 121.687 139.762 113.695 139.762C109.391 139.762 105.538 137.918 102.915 134.926C101.604 133.491 100.62 131.77 99.9644 129.885C99.4724 128.45 99.2266 126.893 99.2266 125.253C99.2266 117.261 105.702 110.785 113.695 110.785C115.498 110.785 117.219 111.113 118.777 111.728C120.621 112.425 122.302 113.49 123.736 114.843C126.482 117.466 128.163 121.196 128.163 125.294Z" fill="#242540"/>
<path d="M117.138 114.883C117.138 120.58 112.506 125.211 106.809 125.211C103.735 125.211 100.989 123.9 99.1038 121.769C98.1612 120.744 97.4644 119.514 97.0136 118.162C96.6856 117.137 96.4808 116.031 96.4808 114.883C96.4808 109.186 101.112 104.555 106.809 104.555C108.08 104.555 109.309 104.8 110.457 105.21C111.768 105.702 112.998 106.481 113.982 107.424C115.949 109.309 117.138 111.973 117.138 114.883Z" fill="white"/>
<path d="M377.194 176.198L355.43 172.141C354.774 171.198 354.446 170.665 353.79 169.764L357.192 151.525C358.136 150.869 358.668 150.541 359.57 149.885L381.334 153.943C381.988 154.886 382.316 155.419 382.972 156.32L379.57 174.559C378.628 175.215 378.096 175.584 377.194 176.198Z" fill="#9FACE6" stroke="#242540" stroke-width="0.819719" stroke-miterlimit="10" stroke-linejoin="round"/>
<path d="M371.496 218.414L349.734 214.356C349.078 213.414 348.75 212.88 348.094 211.98L351.496 193.74C352.438 193.084 352.972 192.757 353.874 192.101L375.636 196.158C376.292 197.101 376.62 197.634 377.276 198.536L373.874 216.774C372.932 217.43 372.44 217.8 371.496 218.414Z" stroke="#242540" stroke-width="0.819719" stroke-miterlimit="10" stroke-linejoin="round"/>
<path d="M365.8 260.672L344.036 256.614C343.38 255.67 343.052 255.138 342.396 254.236L345.798 235.998C346.742 235.342 347.274 235.014 348.176 234.358L369.94 238.416C370.596 239.358 370.924 239.892 371.578 240.794L368.178 259.032C367.234 259.646 366.742 260.016 365.8 260.672Z" fill="#9FACE6" stroke="#242540" stroke-width="0.819719" stroke-miterlimit="10" stroke-linejoin="round"/>
<path d="M364.694 162.632L368.382 168.411L393.014 155.787" stroke="#242540" stroke-width="0.819719" stroke-miterlimit="10" stroke-linejoin="round"/>
<path d="M352.684 241.08L361.332 253.908" stroke="#242540" stroke-width="0.819719" stroke-miterlimit="10" stroke-linejoin="round"/>
<path d="M363.628 243.496L350.348 251.488" stroke="#242540" stroke-width="0.819719" stroke-miterlimit="10" stroke-linejoin="round"/>
<path d="M359.2 48.1991C365.04 48.1991 369.774 43.4647 369.774 37.6247C369.774 31.7847 365.04 27.0503 359.2 27.0503C353.36 27.0503 348.626 31.7847 348.626 37.6247C348.626 43.4647 353.36 48.1991 359.2 48.1991Z" fill="white"/>
<path d="M295.672 37.501H210.34V41.8864H295.672V37.501Z" fill="white"/>
<path d="M184.764 227.226C184.764 227.226 191.937 231.244 192.593 232.186L190.871 234.768L183.904 228.866L184.764 227.226Z" fill="#534093"/>
<path d="M68.8976 81.1111C68.16 84.1031 65.8648 86.3984 62.8728 87.0951C51.9296 89.7593 41.765 96.4399 34.9614 105.416C33.6498 107.178 31.7234 108.285 29.5512 108.572C27.379 108.859 25.2066 108.326 23.4852 106.973C20.8622 105.006 19.6736 101.645 20.4522 98.4484C20.7392 97.3828 21.19 96.3579 21.8868 95.4973C31.0266 83.3655 44.2242 74.7174 58.979 71.1516C63.3646 70.086 67.832 72.7911 68.8976 77.1765C69.2256 78.4471 69.2256 79.7997 68.8976 81.1111Z" stroke="#9FACE6" stroke-width="0.614789" stroke-miterlimit="10" stroke-linejoin="round"/>
<path d="M64.9218 80.0869C64.553 81.5215 63.4464 82.7101 61.93 83.0789C50.085 85.9479 39.1008 93.2025 31.7232 102.916C30.3708 104.719 27.7886 105.088 25.9852 103.695C24.1818 102.342 23.813 99.7603 25.2066 97.9569C33.8136 86.6037 46.1504 78.4885 60.0036 75.0867C62.2168 74.5539 64.43 75.9065 64.9628 78.1197C65.0858 78.8165 65.0858 79.4721 64.9218 80.0869Z" stroke="#9FACE6" stroke-width="0.614789" stroke-miterlimit="10" stroke-linejoin="round"/>
<path d="M28.4445 100.457C36.3957 89.9237 48.0767 82.2593 60.9463 79.1035" stroke="#9FACE6" stroke-width="0.614789" stroke-miterlimit="10" stroke-linejoin="round"/>
<path d="M64.6762 261.694H82.3002C83.7346 263.128 84.5544 263.948 85.989 265.384V285.056H43.3636V274.4L64.6762 261.694Z" fill="#9FACE6"/>
<path d="M107.301 261.694H124.925C126.36 263.128 127.18 263.948 128.614 265.384V281.368C127.18 282.802 126.36 283.622 124.925 285.056H85.9888V274.4L107.301 261.694Z" fill="#9FACE6"/>
</g>
<defs>
<clipPath id="clip0">
<rect width="400" height="300" fill="white"/>
</clipPath>
</defs>
</svg>
