<svg width="400" height="300" viewBox="0 0 400 300" fill="none" xmlns="http://www.w3.org/2000/svg">
<g clip-path="url(#clip0)">
<path opacity="0.3" d="M185.797 228.458H72.924C66.0124 228.458 60.4118 222.856 60.4118 215.944V167.801C60.4118 160.889 66.0124 155.289 72.924 155.289H185.797C192.709 155.289 198.31 160.889 198.31 167.801V215.944C198.31 222.856 192.709 228.458 185.797 228.458Z" fill="#1F1F31"/>
<path opacity="0.3" d="M369.256 170.095H256.382C249.47 170.095 243.87 164.495 243.87 157.583V109.439C243.87 102.527 249.47 96.9268 256.382 96.9268H369.256C376.166 96.9268 381.768 102.527 381.768 109.439V157.583C381.768 164.495 376.166 170.095 369.256 170.095Z" fill="#1F1F31"/>
<path d="M317.776 92.6064H358.062" stroke="#4B5260" stroke-width="0.805302" stroke-miterlimit="10" stroke-linecap="round"/>
<path opacity="0.1" d="M212.442 156.701H74.374C72.233 156.701 70.4954 154.963 70.4954 152.822C70.4954 150.681 72.233 148.943 74.374 148.943H212.442C214.584 148.943 216.32 150.681 216.32 152.822C216.32 154.963 214.588 156.701 212.442 156.701Z" stroke="#4B5260" stroke-width="0.805302" stroke-miterlimit="10" stroke-linecap="round"/>
<path opacity="0.1" d="M72.3704 152.822H210.438" stroke="#4B5260" stroke-width="0.805302" stroke-miterlimit="10" stroke-linecap="round"/>
<path d="M148.551 222.002H188.837" stroke="#4B5260" stroke-width="0.805302" stroke-miterlimit="10" stroke-linecap="round"/>
<path d="M135.868 230.928H176.155" stroke="#4B5260" stroke-width="0.805302" stroke-miterlimit="10" stroke-linecap="round"/>
<path opacity="0.3" d="M328.876 130.798H166.023C157.858 130.798 151.242 124.181 151.242 116.017V72.4101C151.242 64.2457 157.858 57.6289 166.023 57.6289H328.878C337.044 57.6289 343.66 64.2457 343.66 72.4101V116.02C343.656 124.181 337.04 130.798 328.876 130.798Z" fill="#1F1F31"/>
<path d="M283.944 268.262H189.141C182.718 268.262 177.509 263.054 177.509 256.632V32.8896C177.509 26.4666 182.718 21.2578 189.141 21.2578H283.944C290.366 21.2578 295.576 26.4666 295.576 32.8896V256.632C295.576 263.054 290.366 268.262 283.944 268.262Z" fill="#4B5260"/>
<path d="M214.004 258.896H259.076" stroke="#E5A7E0" stroke-width="0.720245" stroke-miterlimit="10" stroke-linecap="round"/>
<path d="M276.232 178.07H181.156C175.412 178.07 170.754 173.412 170.754 167.667V72.5887C170.754 66.8447 175.412 62.1865 181.156 62.1865H276.232C281.976 62.1865 286.634 66.8447 286.634 72.5887V167.664C286.634 173.412 281.976 178.07 276.232 178.07Z" fill="#E5A7E0"/>
<path d="M268.292 169.836H170.103C165.216 169.836 161.256 165.876 161.256 160.989V62.7996C161.256 57.9126 165.216 53.9526 170.103 53.9526H268.292C273.178 53.9526 277.138 57.9126 277.138 62.7996V160.989C277.136 165.876 273.176 169.836 268.292 169.836Z" stroke="#1F1F31" stroke-width="0.720245" stroke-miterlimit="10"/>
<path d="M152.766 29.6792L137.614 33.0118L140.946 48.1644L156.099 44.832L152.766 29.6792Z" stroke="#4B5260" stroke-width="0.870694" stroke-miterlimit="10"/>
<path d="M372.122 102.039C377.516 102.039 381.888 97.6663 381.888 92.2725C381.888 86.8787 377.516 82.5063 372.122 82.5063C366.728 82.5063 362.356 86.8787 362.356 92.2725C362.356 97.6663 366.728 102.039 372.122 102.039Z" stroke="#4B5260" stroke-width="0.870694" stroke-miterlimit="10"/>
<path d="M227.496 91.0355C227.496 91.0355 203.188 80.7613 209.944 74.4315C216.702 68.1017 227.496 91.0355 227.496 91.0355Z" stroke="#4B5260" stroke-width="1.2823" stroke-miterlimit="10"/>
<path d="M227.494 91.0353C227.494 91.0353 241.79 68.8539 246.868 76.5955C251.944 84.3371 227.494 91.0353 227.494 91.0353Z" stroke="#4B5260" stroke-width="1.2823" stroke-miterlimit="10"/>
<path d="M247.24 136.205H207.748C205.852 136.205 204.316 134.669 204.316 132.772V93.281C204.316 91.3844 205.852 89.8486 207.748 89.8486H247.24C249.136 89.8486 250.672 91.3844 250.672 93.281V132.772C250.676 134.669 249.136 136.205 247.24 136.205Z" fill="#4B5260"/>
<path d="M231.194 87.6802H223.798V137.605H231.194V87.6802Z" fill="#1F1F31"/>
<path d="M252.456 116.78V109.275H202.532V116.78H252.456Z" fill="#1F1F31"/>
<path opacity="0.2" d="M168.695 152.82V64.0324C168.695 61.717 170.573 59.8398 172.888 59.8398H261.672L168.695 152.82Z" fill="white"/>
<path d="M256.498 159.57H198.495C196.416 159.57 194.733 157.605 194.733 155.178V147.325C194.733 144.898 196.416 142.933 198.495 142.933H256.498C258.578 142.933 260.26 144.898 260.26 147.325V155.178C260.26 157.605 258.574 159.57 256.498 159.57Z" fill="#4B5260"/>
<path d="M68.0922 0V7.81526" stroke="#4B5260" stroke-width="2.5643" stroke-miterlimit="10" stroke-linecap="round"/>
<path d="M68.0906 51.728V59.5434" stroke="#4B5260" stroke-width="2.5643" stroke-miterlimit="10" stroke-linecap="round"/>
<path d="M53.2102 3.99121L57.1158 10.7554" stroke="#4B5260" stroke-width="2.5643" stroke-miterlimit="10" stroke-linecap="round"/>
<path d="M79.0734 48.7842L82.9792 55.5522" stroke="#4B5260" stroke-width="2.5643" stroke-miterlimit="10" stroke-linecap="round"/>
<path d="M42.312 14.8857L49.08 18.7914" stroke="#4B5260" stroke-width="2.5643" stroke-miterlimit="10" stroke-linecap="round"/>
<path d="M87.1094 40.748L93.8774 44.6574" stroke="#4B5260" stroke-width="2.5643" stroke-miterlimit="10" stroke-linecap="round"/>
<path d="M38.322 29.7715H46.1372" stroke="#4B5260" stroke-width="2.5643" stroke-miterlimit="10" stroke-linecap="round"/>
<path d="M90.0454 29.7715H97.8606" stroke="#4B5260" stroke-width="2.5643" stroke-miterlimit="10" stroke-linecap="round"/>
<path d="M42.3116 44.6574L49.0796 40.748" stroke="#4B5260" stroke-width="2.5643" stroke-miterlimit="10" stroke-linecap="round"/>
<path d="M87.1094 18.7914L93.8774 14.8857" stroke="#4B5260" stroke-width="2.5643" stroke-miterlimit="10" stroke-linecap="round"/>
<path d="M53.2106 55.5522L57.1164 48.7842" stroke="#4B5260" stroke-width="2.5643" stroke-miterlimit="10" stroke-linecap="round"/>
<path d="M79.0734 10.7549L82.9792 3.99072" stroke="#4B5260" stroke-width="2.5643" stroke-miterlimit="10" stroke-linecap="round"/>
<path opacity="0.6" fill-rule="evenodd" clip-rule="evenodd" d="M252.456 137.105C250.47 137.105 248.86 135.496 248.86 133.51V122.557C248.86 120.571 250.47 118.961 252.456 118.961C254.442 118.961 256.052 120.571 256.052 122.557V133.51C256.052 135.496 254.442 137.105 252.456 137.105ZM248.858 206.012C248.858 207.998 250.468 209.606 252.454 209.606C254.44 209.606 256.05 207.998 256.05 206.012V195.058C256.05 193.073 254.44 191.463 252.454 191.463C250.468 191.463 248.858 193.073 248.858 195.058V206.012ZM225.8 152.492C225.192 152.492 224.57 152.336 224.008 152.011L214.522 146.534C212.804 145.541 212.214 143.342 213.206 141.624C214.2 139.906 216.398 139.316 218.116 140.309L227.604 145.786C229.322 146.778 229.912 148.978 228.918 150.696C228.252 151.848 227.042 152.492 225.8 152.492ZM286.796 188.263C287.358 188.589 287.978 188.744 288.588 188.744C289.832 188.744 291.038 188.096 291.706 186.948C292.698 185.23 292.11 183.031 290.39 182.038L280.904 176.562C279.186 175.569 276.986 176.158 275.994 177.876C275 179.595 275.59 181.794 277.308 182.787L286.796 188.263ZM216.32 188.744C215.08 188.744 213.87 188.1 213.206 186.945C212.214 185.226 212.804 183.027 214.522 182.034L224.008 176.558C225.726 175.565 227.926 176.155 228.918 177.873C229.912 179.591 229.322 181.79 227.604 182.783L218.116 188.26C217.55 188.589 216.93 188.744 216.32 188.744ZM275.994 150.692C276.656 151.848 277.866 152.492 279.108 152.492C279.718 152.492 280.338 152.336 280.904 152.007L290.39 146.53C292.11 145.537 292.698 143.338 291.706 141.62C290.712 139.902 288.514 139.312 286.796 140.305L277.308 145.782C275.59 146.775 275 148.974 275.994 150.692Z" fill="#1F1F31"/>
<path d="M203.25 242.024H193.13C191.114 242.024 189.477 240.386 189.477 238.37V228.25C189.477 226.234 191.114 224.598 193.13 224.598H203.25C205.266 224.598 206.904 226.234 206.904 228.25V238.37C206.9 240.386 205.266 242.024 203.25 242.024Z" fill="#E5A7E0"/>
<path d="M226.126 242.024H216.006C213.99 242.024 212.354 240.386 212.354 238.37V228.25C212.354 226.234 213.99 224.598 216.006 224.598H226.126C228.142 224.598 229.78 226.234 229.78 228.25V238.37C229.78 240.386 228.142 242.024 226.126 242.024Z" fill="#E5A7E0"/>
<path d="M249.002 242.024H238.882C236.866 242.024 235.23 240.386 235.23 238.37V228.25C235.23 226.234 236.866 224.598 238.882 224.598H249.002C251.018 224.598 252.656 226.234 252.656 228.25V238.37C252.656 240.386 251.018 242.024 249.002 242.024Z" fill="#E5A7E0"/>
<path d="M271.876 242.024H261.756C259.74 242.024 258.104 240.386 258.104 238.37V228.25C258.104 226.234 259.74 224.598 261.756 224.598H271.876C273.892 224.598 275.53 226.234 275.53 228.25V238.37C275.53 240.386 273.892 242.024 271.876 242.024Z" fill="#E5A7E0"/>
<path opacity="0.2" d="M312.626 300C309.438 300 306.466 298.286 304.872 295.524L299.808 286.75C298.612 284.68 298.294 282.268 298.912 279.96C299.33 278.4 300.14 277.016 301.262 275.91C299.498 273.948 297.776 272.866 296.32 272.842C296.196 272.842 296.06 272.838 295.918 272.838L294.912 272.842C289.984 272.842 275.058 272.842 262.236 255.424L236.886 232.844C234.14 230.326 232.62 226.832 232.608 222.996C232.596 219.292 234.004 215.7 236.58 212.892C239.426 209.782 243.402 208 247.486 208C250.484 208 253.342 208.97 255.646 210.746L234.364 169.142C230.924 162.416 233.596 154.143 240.322 150.703C242.246 149.718 244.402 149.198 246.554 149.198C251.728 149.198 270.308 200.026 275.006 203.048C317.438 230.342 316.87 154.932 350.636 247.484C351.326 247.318 352.036 247.228 352.75 247.228C355.938 247.228 358.908 248.942 360.502 251.704L365.568 260.478C366.762 262.548 367.08 264.962 366.464 267.268C365.844 269.576 364.366 271.508 362.294 272.702L317.094 298.798C315.736 299.584 314.188 300 312.626 300Z" fill="black"/>
<path d="M349.316 242.234C344.658 230.222 344.398 216.914 344.468 212.33C344.484 211.194 344.262 210.064 343.82 209.018L329.408 174.913C327.39 170.973 322.562 169.41 318.62 171.427C315.052 173.253 313.444 177.384 314.668 181.076L313.114 178.032C310.724 173.362 305 171.512 300.33 173.901C296.06 176.085 294.158 181.053 295.688 185.459L294.038 182.236C291.65 177.566 285.924 175.716 281.256 178.105C277.59 179.983 275.67 183.912 276.166 187.775L257.274 150.843C254.884 146.173 249.16 144.323 244.49 146.713C239.82 149.102 237.97 154.826 240.36 159.496L271.814 220.99L255.902 206.814C252.03 203.27 245.778 203.8 241.934 207.998C238.09 212.194 238.11 218.47 241.98 222.014L267.622 244.852C280.06 262.034 294.338 260.846 298.638 260.908C307.908 261.04 314.122 278.42 314.122 278.42L353.904 252.694C353.892 252.69 351.448 247.728 349.316 242.234Z" fill="#EED3AB" stroke="#E5A7E0" stroke-width="0.720245" stroke-miterlimit="10"/>
<path d="M301.668 21.3468C299.772 17.5498 295.156 16.0139 291.362 17.9105L289.962 18.6086L289.264 17.2085C287.368 13.4114 282.752 11.8755 278.958 13.7721C275.162 15.6687 273.626 20.2842 275.522 24.0774L276.22 25.4774L283.09 39.223L296.832 32.3542L298.232 31.656C302.024 29.7594 303.564 25.144 301.668 21.3468Z" fill="#E5A7E0"/>
<path d="M125.501 102.952C124.151 100.248 120.862 99.1547 118.162 100.504L117.166 101.001L116.669 100.004C115.319 97.3007 112.03 96.2069 109.331 97.5567C106.628 98.9065 105.534 102.195 106.884 104.895L107.38 105.892L112.271 115.677L122.056 110.786L123.053 110.29C125.757 108.94 126.854 105.655 125.501 102.952Z" fill="#E5A7E0"/>
<path d="M108.252 240.76H27.9394C23.5566 240.76 20 237.206 20 232.82V171.577C20 167.195 23.5528 163.638 27.9394 163.638H108.252C112.635 163.638 116.192 167.191 116.192 171.577V232.82C116.192 237.206 112.635 240.76 108.252 240.76Z" stroke="#4B5260" stroke-width="0.256469" stroke-miterlimit="10"/>
<path d="M56.423 224.784C54.1308 224.784 52.2768 222.926 52.2768 220.638V215.668C52.2768 213.376 54.1346 211.522 56.423 211.522C58.7152 211.522 60.5692 213.38 60.5692 215.668V220.638C60.5692 222.926 58.7114 224.784 56.423 224.784Z" fill="#4B5260"/>
<path d="M56.4228 224.784C54.1306 224.784 52.2766 222.926 52.2766 220.638V215.668C52.2766 213.376 54.1344 211.522 56.4228 211.522C58.715 211.522 60.569 213.38 60.569 215.668V220.638C60.569 222.926 58.7112 224.784 56.4228 224.784Z" fill="black"/>
<path d="M53.5814 224.784C51.2892 224.784 49.4354 222.926 49.4354 220.638V215.668C49.4354 213.376 51.2932 211.522 53.5814 211.522C55.8736 211.522 57.7276 213.38 57.7276 215.668V220.638C57.7276 222.926 55.8698 224.784 53.5814 224.784Z" fill="#4B5260"/>
<path d="M64.7954 169.545C67.5908 169.545 69.8568 167.279 69.8568 164.484C69.8568 161.688 67.5908 159.422 64.7954 159.422C62 159.422 59.7338 161.688 59.7338 164.484C59.7338 167.279 62 169.545 64.7954 169.545Z" fill="#E5A7E0"/>
<path d="M74.73 138.123C75.6664 135.466 72.3626 131.88 67.3506 130.113C62.3386 128.346 57.5162 129.067 56.5796 131.724C55.643 134.38 58.9468 137.966 63.959 139.733C68.971 141.5 73.7934 140.779 74.73 138.123Z" fill="#E5A7E0"/>
<path d="M67.4624 106.157C68.6762 105.812 68.8508 102.682 67.8526 99.164C66.8544 95.6464 65.0612 93.0742 63.8476 93.4186C62.6338 93.763 62.4592 96.8938 63.4574 100.411C64.4556 103.929 66.2488 106.501 67.4624 106.157Z" fill="#E5A7E0"/>
<path d="M74.8534 224.784C72.5612 224.784 70.7072 222.926 70.7072 220.638V215.668C70.7072 213.376 72.565 211.522 74.8534 211.522C77.1456 211.522 78.9996 213.38 78.9996 215.668V220.638C79.0034 222.926 77.1456 224.784 74.8534 224.784Z" fill="#4B5260"/>
<path d="M74.8534 224.784C72.5612 224.784 70.7072 222.926 70.7072 220.638V215.668C70.7072 213.376 72.565 211.522 74.8534 211.522C77.1456 211.522 78.9996 213.38 78.9996 215.668V220.638C79.0034 222.926 77.1456 224.784 74.8534 224.784Z" fill="black"/>
<path d="M44.5706 201.104C50.082 198.894 52.9716 193.162 51.0206 188.302C49.0698 183.442 43.0232 181.297 37.5078 183.512L44.5706 201.104Z" fill="#4B5260"/>
<path d="M44.5708 201.104C50.0822 198.894 52.9718 193.161 51.0208 188.302C49.07 183.442 43.0234 181.297 37.508 183.512L44.5708 201.104Z" fill="black"/>
<path d="M77.712 224.784C75.4198 224.784 73.566 222.926 73.566 220.638V215.668C73.566 213.376 75.4238 211.522 77.712 211.522C80.0042 211.522 81.8582 213.38 81.8582 215.668V220.638C81.8582 222.926 80.0042 224.784 77.712 224.784Z" fill="#4B5260"/>
<path d="M87.197 201.074C87.197 210.74 84.6798 218.92 75.0144 218.92H53.4304C43.765 218.92 39.103 212.24 39.103 202.576C39.103 191.731 47.244 184.579 59.7486 183.431C63.0956 183.12 66.5282 183.159 69.8522 183.551C81.895 184.959 87.197 190.567 87.197 201.074Z" fill="#4B5260"/>
<path d="M45.7356 208.25L35.725 209.7C33.999 209.67 32.855 198.409 35.535 198.293C35.6474 198.289 35.76 198.285 35.8724 198.289L45.914 198.472L45.7356 208.25Z" fill="#4B5260"/>
<path d="M83.6784 193.127C88.2784 194.36 92.3626 192.301 93.239 189.473C95.892 180.909 85.7846 181.39 87.6152 187.507C88.7166 191.191 94.9612 193.903 98.5798 191.16" stroke="#4B5260" stroke-width="0.648337" stroke-miterlimit="10" stroke-linecap="round"/>
<path d="M49.4318 198.193C54.9432 195.982 59.675 189.203 57.724 184.347C55.7732 179.487 47.8804 178.389 42.3688 180.6L49.4318 198.193Z" fill="#4B5260"/>
<path d="M45.909 199.247C47.0742 199.247 48.019 198.303 48.019 197.137C48.019 195.972 47.0742 195.027 45.909 195.027C44.7438 195.027 43.799 195.972 43.799 197.137C43.799 198.303 44.7438 199.247 45.909 199.247Z" fill="black"/>
<path d="M41.69 210.162C41.69 210.162 43.5244 213.07 44.5368 212.536C45.262 212.156 45.5374 210.984 45.262 208.726L41.69 210.162Z" fill="white"/>
<path d="M111.93 256.138H72.3606C70.0064 256.138 68.0982 254.23 68.0982 251.876C68.0982 249.52 70.0064 247.612 72.3606 247.612H111.93C114.284 247.612 116.192 249.52 116.192 251.876C116.192 254.23 114.284 256.138 111.93 256.138Z" fill="#4B5260"/>
<path d="M35.6616 256.138H24.2626C21.9082 256.138 20 254.23 20 251.876C20 249.52 21.9082 247.612 24.2626 247.612H35.6576C38.012 247.612 39.9202 249.52 39.9202 251.876C39.924 254.23 38.0158 256.138 35.6616 256.138Z" fill="#4B5260"/>
<path d="M113.698 265.95H22.494C21.117 265.95 20 264.834 20 263.456C20 262.08 21.117 260.962 22.494 260.962H113.702C115.079 260.962 116.196 262.08 116.196 263.456C116.192 264.838 115.075 265.95 113.698 265.95Z" fill="#4B5260"/>
<path d="M295.574 97.6963V42.3301C297.844 42.3301 299.682 44.1685 299.682 46.4375V93.5889C299.682 95.8579 297.844 97.6963 295.574 97.6963Z" fill="#E5A7E0"/>
<path d="M362.428 261.334L317.238 287.422C314.966 288.732 312.064 287.954 310.75 285.684L305.684 276.912C304.374 274.638 305.152 271.738 307.422 270.422L352.61 244.336C354.884 243.024 357.784 243.804 359.1 246.072L364.166 254.846C365.476 257.118 364.696 260.024 362.428 261.334Z" fill="#4B5260"/>
<path d="M254.222 146.728C256.708 148.264 257.426 151.646 258.278 154.439C258.71 155.847 259.008 157.32 258.856 158.786C258.71 160.253 258.066 161.711 256.902 162.611C255.168 163.945 252.616 163.759 250.708 162.692C248.8 161.626 247.404 159.841 246.158 158.042C245.824 157.561 245.5 157.072 245.162 156.591C242.734 153.077 243.808 148.14 247.612 146.201C249.412 145.278 251.628 145.126 254.222 146.728Z" fill="white" fill-opacity="0.4" stroke="#E5A7E0" stroke-width="0.720245" stroke-miterlimit="10"/>
<path opacity="0.1" d="M323.856 251.736C323.856 250.862 323.146 250.152 322.274 250.152C321.4 250.152 320.69 250.862 320.69 251.736C320.69 252.608 321.396 253.318 322.274 253.318C323.146 253.318 323.856 252.612 323.856 251.736Z" fill="white"/>
<path opacity="0.1" d="M339.668 235.922C339.668 235.05 338.958 234.34 338.086 234.34C337.212 234.34 336.502 235.05 336.502 235.922C336.502 236.796 337.208 237.504 338.086 237.504C338.958 237.504 339.668 236.798 339.668 235.922Z" fill="white"/>
<path opacity="0.1" d="M327.808 239.878C327.808 239.006 327.098 238.296 326.226 238.296C325.354 238.296 324.644 239.006 324.644 239.878C324.644 240.752 325.35 241.46 326.226 241.46C327.098 241.458 327.808 240.752 327.808 239.878Z" fill="white"/>
<path opacity="0.1" d="M327.81 247.782C327.81 247.674 327.798 247.566 327.778 247.464C327.736 247.26 327.654 247.07 327.542 246.898C327.258 246.48 326.778 246.2 326.23 246.2C325.684 246.2 325.204 246.476 324.92 246.898C324.808 247.066 324.726 247.26 324.684 247.464C324.664 247.57 324.652 247.674 324.652 247.782C324.652 248.656 325.358 249.366 326.234 249.366C327.1 249.366 327.81 248.656 327.81 247.782Z" fill="white"/>
<path opacity="0.1" d="M323.856 243.83C323.856 242.958 323.146 242.248 322.274 242.248C321.4 242.248 320.69 242.958 320.69 243.83C320.69 244.704 321.396 245.414 322.274 245.414C323.146 245.414 323.856 244.704 323.856 243.83Z" fill="white"/>
<path opacity="0.1" d="M331.76 243.83C331.76 242.958 331.05 242.248 330.178 242.248C329.306 242.248 328.596 242.958 328.596 243.83C328.596 244.704 329.302 245.414 330.178 245.414C331.054 245.414 331.76 244.704 331.76 243.83Z" fill="white"/>
<path opacity="0.1" d="M331.76 235.922C331.76 235.05 331.05 234.34 330.178 234.34C329.306 234.34 328.596 235.05 328.596 235.922C328.596 236.796 329.302 237.504 330.178 237.504C331.054 237.504 331.76 236.798 331.76 235.922Z" fill="white"/>
<path opacity="0.1" d="M335.712 239.878C335.712 239.006 335.004 238.296 334.13 238.296C333.258 238.296 332.548 239.006 332.548 239.878C332.548 240.752 333.254 241.46 334.13 241.46C335.008 241.458 335.712 240.752 335.712 239.878Z" fill="white"/>
<path opacity="0.1" d="M319.9 247.782C319.9 247.674 319.888 247.566 319.868 247.464C319.826 247.26 319.744 247.07 319.632 246.898C319.35 246.48 318.868 246.2 318.322 246.2C317.774 246.2 317.294 246.476 317.01 246.898C316.898 247.066 316.816 247.26 316.774 247.464C316.754 247.57 316.742 247.674 316.742 247.782C316.742 248.656 317.448 249.366 318.326 249.366C319.194 249.366 319.9 248.656 319.9 247.782Z" fill="white"/>
<path opacity="0.1" d="M339.668 228.018C339.668 227.146 338.958 226.436 338.086 226.436C337.212 226.436 336.502 227.146 336.502 228.018C336.502 228.89 337.208 229.6 338.086 229.6C338.958 229.6 339.668 228.89 339.668 228.018Z" fill="white"/>
<path opacity="0.1" d="M339.668 220.11C339.668 219.236 338.958 218.528 338.086 218.528C337.212 218.528 336.502 219.236 336.502 220.11C336.502 220.982 337.208 221.692 338.086 221.692C338.958 221.692 339.668 220.986 339.668 220.11Z" fill="white"/>
<path opacity="0.1" d="M331.76 228.018C331.76 227.146 331.05 226.436 330.178 226.436C329.306 226.436 328.596 227.146 328.596 228.018C328.596 228.89 329.302 229.6 330.178 229.6C331.054 229.6 331.76 228.89 331.76 228.018Z" fill="white"/>
<path opacity="0.1" d="M331.76 220.11C331.76 219.236 331.05 218.528 330.178 218.528C329.306 218.528 328.596 219.236 328.596 220.11C328.596 220.982 329.302 221.692 330.178 221.692C331.054 221.692 331.76 220.986 331.76 220.11Z" fill="white"/>
<path opacity="0.1" d="M335.712 224.066C335.712 223.192 335.004 222.484 334.13 222.484C333.258 222.484 332.548 223.192 332.548 224.066C332.548 224.938 333.254 225.648 334.13 225.648C335.008 225.644 335.712 224.938 335.712 224.066Z" fill="white"/>
<path opacity="0.1" d="M335.712 231.97C335.712 231.862 335.7 231.752 335.682 231.652C335.638 231.446 335.556 231.256 335.444 231.086C335.162 230.666 334.68 230.388 334.134 230.388C333.586 230.388 333.106 230.664 332.822 231.086C332.71 231.252 332.628 231.446 332.586 231.652C332.566 231.756 332.554 231.862 332.554 231.97C332.554 232.842 333.26 233.552 334.138 233.552C335.006 233.552 335.712 232.842 335.712 231.97Z" fill="white"/>
<path opacity="0.1" d="M340.668 207.482C340.54 207.71 340.458 207.97 340.458 208.25C340.458 208.524 340.536 208.78 340.66 209.01C340.636 208.502 340.636 207.994 340.668 207.482Z" fill="white"/>
<path opacity="0.1" d="M339.668 212.206C339.668 211.332 338.958 210.622 338.086 210.622C337.212 210.622 336.502 211.332 336.502 212.206C336.502 213.078 337.208 213.788 338.086 213.788C338.958 213.788 339.668 213.078 339.668 212.206Z" fill="white"/>
<path opacity="0.1" d="M327.808 208.252C327.808 207.38 327.098 206.67 326.226 206.67C325.354 206.67 324.644 207.38 324.644 208.252C324.644 209.126 325.35 209.836 326.226 209.836C327.098 209.832 327.808 209.126 327.808 208.252Z" fill="white"/>
<path opacity="0.1" d="M327.81 216.158C327.81 216.048 327.798 215.94 327.778 215.84C327.736 215.634 327.654 215.444 327.542 215.272C327.258 214.854 326.778 214.574 326.23 214.574C325.684 214.574 325.204 214.85 324.92 215.272C324.808 215.44 324.726 215.634 324.684 215.84C324.664 215.944 324.652 216.048 324.652 216.158C324.652 217.03 325.358 217.74 326.234 217.74C327.1 217.74 327.81 217.03 327.81 216.158Z" fill="white"/>
<path opacity="0.1" d="M323.856 204.296C323.856 203.424 323.146 202.714 322.274 202.714C321.4 202.714 320.69 203.424 320.69 204.296C320.69 205.17 321.396 205.88 322.274 205.88C323.146 205.88 323.856 205.17 323.856 204.296Z" fill="white"/>
<path opacity="0.1" d="M331.76 212.206C331.76 211.332 331.05 210.622 330.178 210.622C329.306 210.622 328.596 211.332 328.596 212.206C328.596 213.078 329.302 213.788 330.178 213.788C331.054 213.788 331.76 213.078 331.76 212.206Z" fill="white"/>
<path opacity="0.1" d="M331.76 204.296C331.76 203.424 331.05 202.714 330.178 202.714C329.306 202.714 328.596 203.424 328.596 204.296C328.596 205.17 329.302 205.88 330.178 205.88C331.054 205.88 331.76 205.17 331.76 204.296Z" fill="white"/>
<path opacity="0.1" d="M335.712 208.252C335.712 207.38 335.004 206.67 334.13 206.67C333.258 206.67 332.548 207.38 332.548 208.252C332.548 209.126 333.254 209.836 334.13 209.836C335.008 209.832 335.712 209.126 335.712 208.252Z" fill="white"/>
<path opacity="0.1" d="M335.712 216.158C335.712 216.048 335.7 215.94 335.682 215.84C335.638 215.634 335.556 215.444 335.444 215.272C335.162 214.854 334.68 214.574 334.134 214.574C333.586 214.574 333.106 214.85 332.822 215.272C332.71 215.44 332.628 215.634 332.586 215.84C332.566 215.944 332.554 216.048 332.554 216.158C332.554 217.03 333.26 217.74 334.138 217.74C335.006 217.74 335.712 217.03 335.712 216.158Z" fill="white"/>
<path opacity="0.1" d="M308.044 180.579C308.044 179.707 307.334 178.997 306.46 178.997C305.588 178.997 304.878 179.703 304.878 180.579C304.878 181.452 305.588 182.162 306.46 182.162C307.334 182.158 308.044 181.452 308.044 180.579Z" fill="white"/>
<path opacity="0.1" d="M311.994 184.532C311.994 183.659 311.284 182.949 310.412 182.949C310.086 182.949 309.78 183.05 309.528 183.221C309.458 183.267 309.396 183.325 309.334 183.38C309.322 183.391 309.306 183.399 309.294 183.411C309.152 183.554 309.038 183.721 308.958 183.911V183.915C308.876 184.105 308.834 184.311 308.834 184.532C308.834 185.404 309.54 186.114 310.416 186.114C311.284 186.114 311.994 185.404 311.994 184.532Z" fill="white"/>
<path opacity="0.1" d="M323.856 180.579C323.856 179.707 323.146 178.997 322.274 178.997C321.4 178.997 320.69 179.703 320.69 180.579C320.69 181.452 321.4 182.162 322.274 182.162C323.146 182.158 323.856 181.452 323.856 180.579Z" fill="white"/>
<path opacity="0.1" d="M327.808 184.532C327.808 183.659 327.098 182.949 326.226 182.949C325.9 182.949 325.594 183.05 325.342 183.221C325.272 183.267 325.21 183.325 325.148 183.38C325.136 183.391 325.12 183.399 325.11 183.411C324.966 183.554 324.854 183.721 324.772 183.911V183.915C324.69 184.105 324.648 184.311 324.648 184.532C324.648 185.404 325.354 186.114 326.23 186.114C327.098 186.114 327.808 185.404 327.808 184.532Z" fill="white"/>
<path opacity="0.1" d="M319.594 185.463C319.606 185.447 319.622 185.431 319.632 185.416C319.64 185.404 319.644 185.393 319.652 185.381C319.808 185.137 319.904 184.846 319.904 184.532C319.904 184.423 319.892 184.314 319.874 184.214C319.726 183.492 319.09 182.949 318.326 182.949C318 182.949 317.694 183.05 317.442 183.221C317.372 183.267 317.31 183.325 317.248 183.38C317.236 183.391 317.22 183.399 317.208 183.411C317.066 183.554 316.952 183.721 316.872 183.911V183.915C316.79 184.105 316.748 184.311 316.748 184.532C316.748 185.404 317.454 186.114 318.33 186.114C318.846 186.114 319.304 185.854 319.594 185.463Z" fill="white"/>
<path opacity="0.1" d="M327.808 192.44C327.808 191.567 327.098 190.857 326.226 190.857C325.354 190.857 324.644 191.567 324.644 192.44C324.644 193.312 325.35 194.022 326.226 194.022C327.098 194.018 327.808 193.312 327.808 192.44Z" fill="white"/>
<path opacity="0.1" d="M327.81 200.344C327.81 200.236 327.798 200.128 327.778 200.026C327.736 199.821 327.654 199.631 327.542 199.46C327.258 199.042 326.778 198.762 326.23 198.762C325.684 198.762 325.204 199.038 324.92 199.46C324.808 199.627 324.726 199.821 324.684 200.026C324.664 200.132 324.652 200.236 324.652 200.344C324.652 201.218 325.358 201.926 326.234 201.926C327.1 201.926 327.81 201.218 327.81 200.344Z" fill="white"/>
<path opacity="0.1" d="M323.856 196.392C323.856 195.519 323.146 194.81 322.274 194.81C321.4 194.81 320.69 195.519 320.69 196.392C320.69 197.265 321.396 197.974 322.274 197.974C323.146 197.974 323.856 197.265 323.856 196.392Z" fill="white"/>
<path opacity="0.1" d="M323.856 188.484C323.856 187.611 323.146 186.901 322.274 186.901C321.4 186.901 320.69 187.611 320.69 188.484C320.69 189.357 321.396 190.066 322.274 190.066C323.146 190.066 323.856 189.357 323.856 188.484Z" fill="white"/>
<path opacity="0.1" d="M331.76 196.392C331.76 195.519 331.05 194.81 330.178 194.81C329.306 194.81 328.596 195.519 328.596 196.392C328.596 197.265 329.302 197.974 330.178 197.974C331.054 197.974 331.76 197.265 331.76 196.392Z" fill="white"/>
<path opacity="0.1" d="M331.76 188.484C331.76 187.611 331.05 186.901 330.178 186.901C329.306 186.901 328.596 187.611 328.596 188.484C328.596 189.357 329.302 190.066 330.178 190.066C331.054 190.066 331.76 189.357 331.76 188.484Z" fill="white"/>
<path opacity="0.1" d="M335.712 200.344C335.712 200.236 335.7 200.128 335.682 200.026C335.638 199.821 335.556 199.631 335.444 199.46C335.162 199.042 334.68 198.762 334.134 198.762C333.586 198.762 333.106 199.038 332.822 199.46C332.71 199.627 332.628 199.821 332.586 200.026C332.566 200.132 332.554 200.236 332.554 200.344C332.554 201.218 333.26 201.926 334.138 201.926C335.006 201.926 335.712 201.218 335.712 200.344Z" fill="white"/>
<path opacity="0.1" d="M315.946 188.484C315.946 187.611 315.236 186.901 314.364 186.901C313.492 186.901 312.782 187.611 312.782 188.484C312.782 189.357 313.488 190.066 314.364 190.066C315.236 190.066 315.946 189.357 315.946 188.484Z" fill="white"/>
<path opacity="0.1" d="M319.9 192.44C319.9 191.567 319.192 190.857 318.318 190.857C317.446 190.857 316.736 191.567 316.736 192.44C316.736 193.312 317.442 194.022 318.318 194.022C319.196 194.018 319.9 193.312 319.9 192.44Z" fill="white"/>
<path opacity="0.1" d="M319.9 200.344C319.9 200.236 319.888 200.128 319.868 200.026C319.826 199.821 319.744 199.631 319.632 199.46C319.35 199.042 318.868 198.762 318.322 198.762C317.774 198.762 317.294 199.038 317.01 199.46C316.898 199.627 316.816 199.821 316.774 200.026C316.754 200.132 316.742 200.236 316.742 200.344C316.742 201.218 317.448 201.926 318.326 201.926C319.194 201.926 319.9 201.218 319.9 200.344Z" fill="white"/>
<path d="M57.6482 188.234C57.6482 188.234 63.784 185.488 72.3712 188.234" stroke="black" stroke-width="0.387854" stroke-miterlimit="10" stroke-linecap="round"/>
<path d="M69.8554 187.108C69.8554 187.217 69.8516 187.326 69.8438 187.434C66.5238 187.042 63.0912 187.004 59.7402 187.314C59.7324 187.248 59.7324 187.178 59.7324 187.108C59.7324 186.763 59.7674 186.434 59.8332 186.108C60.2986 183.792 62.3426 182.047 64.794 182.047C67.2452 182.047 69.2892 183.792 69.7546 186.108C69.8206 186.43 69.8554 186.763 69.8554 187.108Z" fill="#E5A7E0"/>
<path opacity="0.2" d="M69.8554 187.108C69.8554 187.217 69.8516 187.325 69.8438 187.434C66.5238 187.042 63.0912 187.003 59.7402 187.314C59.7324 187.248 59.7324 187.178 59.7324 187.108C59.7324 186.763 59.7674 186.433 59.8332 186.107C61.3226 185.789 63.006 185.607 64.794 185.607C66.582 185.607 68.2652 185.789 69.7546 186.107C69.8206 186.429 69.8554 186.763 69.8554 187.108Z" fill="black"/>
<path d="M251.644 18.7896H260.48V24.2311C260.48 26.8221 258.38 28.9203 255.79 28.9203H213.448C210.858 28.9203 208.758 26.8221 208.758 24.2311V18.7896H241.094" stroke="#E5A7E0" stroke-width="0.720245" stroke-miterlimit="10" stroke-linecap="round"/>
</g>
<defs>
<clipPath id="clip0">
<rect width="400" height="300" fill="white"/>
</clipPath>
</defs>
</svg>
