<?xml version="1.0" standalone="no"?>
<!DOCTYPE svg PUBLIC "-//W3C//DTD SVG 20010904//EN"
 "http://www.w3.org/TR/2001/REC-SVG-20010904/DTD/svg10.dtd">
<svg version="1.0" xmlns="http://www.w3.org/2000/svg"
 width="512.000000pt" height="512.000000pt" viewBox="0 0 512.000000 512.000000"
 preserveAspectRatio="xMidYMid meet">

<g transform="translate(0.000000,512.000000) scale(0.100000,-0.100000)"
fill="#000000" stroke="none">
<path d="M890 3465 c-190 -38 -342 -120 -492 -263 -190 -182 -292 -389 -318
-647 -54 -530 293 -1002 818 -1110 82 -17 290 -21 375 -6 4 0 7 81 7 180 l0
178 -42 -8 c-67 -13 -196 -10 -273 6 -38 8 -106 33 -150 55 -77 38 -155 94
-145 103 3 2 141 93 308 202 l302 197 0 209 c0 115 -3 209 -6 209 -3 0 -182
-115 -399 -255 -217 -140 -398 -255 -403 -255 -30 0 -42 255 -17 355 47 184
191 364 355 443 112 54 226 77 340 68 47 -3 95 -9 108 -12 l22 -6 0 180 c0
178 0 180 -22 186 -41 11 -302 4 -368 -9z"/>
</g>
</svg>
